<?xml version="1.0" encoding="UTF-8" standalone="no"?>
<!DOCTYPE svg PUBLIC "-//W3C//DTD SVG 1.1//EN" "http://www.w3.org/Graphics/SVG/1.1/DTD/svg11.dtd">
<svg width="100%" height="100%" viewBox="0 0 260 260" version="1.1" xmlns="http://www.w3.org/2000/svg" xmlns:xlink="http://www.w3.org/1999/xlink" xml:space="preserve" xmlns:serif="http://www.serif.com/" style="fill-rule:evenodd;clip-rule:evenodd;stroke-linejoin:round;stroke-miterlimit:1.41421;">
    <g transform="matrix(1,0,0,1,-95,-95)">
        <g transform="matrix(3.33333,0,0,3.33333,25,-58.3333)">
            <g transform="matrix(1,0,0,1,-829.562,-1120.83)">
                <g id="BackButton">
                    <path d="M889.562,1173.47C907.419,1173.47 921.917,1187.97 921.917,1205.83C921.917,1223.68 907.419,1238.18 889.562,1238.18C871.705,1238.18 857.207,1223.68 857.207,1205.83C857.207,1187.97 871.705,1173.47 889.562,1173.47ZM878.226,1201.52L897.451,1201.52C902.647,1201.55 904.438,1207.74 902.411,1211.54C900.183,1215.72 894.804,1214.73 889.796,1214.73C888.266,1214.79 886.299,1217.91 889.796,1218.06L897.463,1218.06C904.231,1218.01 907.975,1210.38 906.007,1204.64C904.765,1201.02 901.335,1198.26 897.576,1198.19C891.129,1198.14 884.682,1198.17 878.235,1198.18C879.54,1196.89 880.842,1195.6 882.114,1194.27C882.988,1193.29 882.252,1191.57 880.972,1191.48C880.489,1191.46 880.046,1191.64 879.711,1191.96C877.468,1194.21 875.181,1196.41 872.984,1198.69C872.727,1198.98 872.616,1199.29 872.612,1199.59C872.515,1200.11 872.643,1200.67 873.03,1201.07C875.272,1203.32 877.472,1205.6 879.759,1207.8C881.539,1209.38 883.19,1206.57 882.068,1205.4C880.781,1204.11 879.509,1202.81 878.226,1201.52Z" style="fill:rgb(59,59,59);"/>
                </g>
            </g>
        </g>
    </g>
</svg>
