<?xml version="1.0" encoding="UTF-8" standalone="no"?>
<!DOCTYPE svg PUBLIC "-//W3C//DTD SVG 1.1//EN" "http://www.w3.org/Graphics/SVG/1.1/DTD/svg11.dtd">
<svg width="100%" height="100%" viewBox="0 0 400 387" version="1.1" xmlns="http://www.w3.org/2000/svg" xmlns:xlink="http://www.w3.org/1999/xlink" xml:space="preserve" xmlns:serif="http://www.serif.com/" style="fill-rule:evenodd;clip-rule:evenodd;stroke-linejoin:round;stroke-miterlimit:1.41421;">
    <g transform="matrix(1,0,0,1,-25,-32)">
        <g transform="matrix(3.33333,0,0,3.33333,25,-58.3333)">
            <g transform="matrix(1,0,0,1,-799.679,-1246.21)">
                <g id="NavigationDiskNumbers">
                    <path d="M859.679,1275.45C891.414,1275.45 917.179,1300.44 917.179,1331.21C917.179,1361.99 891.414,1386.98 859.679,1386.98C827.943,1386.98 802.178,1361.99 802.178,1331.21C802.178,1300.44 827.943,1275.45 859.679,1275.45ZM860.049,1361.23C864.929,1361.23 868.892,1365.2 868.892,1370.08C868.892,1374.96 864.929,1378.92 860.049,1378.92C855.169,1378.92 851.206,1374.96 851.206,1370.08C851.206,1365.2 855.169,1361.23 860.049,1361.23ZM858.422,1367.4C858.863,1367.08 859.435,1366.86 859.924,1366.86C860.853,1366.86 861.366,1367.3 861.366,1368.06C861.366,1368.92 860.377,1369.67 859.209,1369.67L859.209,1370.43C860.698,1370.43 861.449,1371.03 861.449,1371.92C861.449,1372.78 860.782,1373.27 859.816,1373.27C859.22,1373.27 858.672,1373.13 858.076,1372.81L857.993,1373.7C858.529,1374.01 859.125,1374.13 859.769,1374.13C861.282,1374.13 862.546,1373.28 862.546,1371.83C862.546,1370.81 861.735,1369.97 860.508,1369.86C861.521,1369.68 862.462,1369 862.462,1367.91C862.462,1366.86 861.676,1366 860.138,1366C859.495,1366 858.815,1366.2 858.386,1366.5L858.422,1367.4ZM859.84,1307.16C869.692,1307.25 879.27,1313.41 882.959,1322.38C885.478,1328.52 885.205,1335.72 882.225,1341.65C878.113,1349.84 869.081,1355.21 859.84,1355.27C848.766,1355.34 837.916,1347.52 835.3,1336.65C833.512,1329.23 835.712,1321 840.873,1315.35C845.652,1310.12 852.675,1307.14 859.84,1307.16ZM859.528,1309.03C850.42,1309.11 841.538,1314.79 838.125,1323.1C835.809,1328.73 836.059,1335.36 838.801,1340.82C842.651,1348.48 851.166,1353.46 859.828,1353.4C870.124,1353.34 880.107,1345.93 882.336,1335.81C883.847,1328.95 881.678,1321.43 876.829,1316.31C872.405,1311.64 866.011,1309.01 859.528,1309.03ZM859.679,1322.37C864.559,1322.37 868.521,1326.33 868.521,1331.21C868.521,1336.1 864.559,1340.06 859.679,1340.06C854.798,1340.06 850.836,1336.1 850.836,1331.21C850.836,1326.33 854.798,1322.37 859.679,1322.37ZM819.521,1322.17C824.402,1322.17 828.364,1326.13 828.364,1331.01C828.364,1335.89 824.402,1339.85 819.521,1339.85C814.641,1339.85 810.679,1335.89 810.679,1331.01C810.679,1326.13 814.641,1322.17 819.521,1322.17ZM900.577,1322.17C905.457,1322.17 909.419,1326.13 909.419,1331.01C909.419,1335.89 905.457,1339.85 900.577,1339.85C895.696,1339.85 891.734,1335.89 891.734,1331.01C891.734,1326.13 895.696,1322.17 900.577,1322.17ZM861.921,1327.23L861.921,1328.09L859.025,1328.09L858.87,1330.37L859.132,1330.37C861.087,1330.37 862.064,1331.38 862.064,1332.76C862.064,1334.29 860.86,1335.2 859.323,1335.2C858.679,1335.2 858.071,1335.08 857.559,1334.77L857.63,1333.84C858.238,1334.21 858.858,1334.34 859.37,1334.34C860.336,1334.34 860.968,1333.74 860.968,1332.87C860.968,1331.81 860.288,1331.23 858.786,1331.23L857.833,1331.23L858.095,1327.23L861.921,1327.23ZM902.143,1326.88L902.143,1331.88L903.132,1331.88L903.132,1332.73L902.143,1332.73L902.143,1334.76L901.166,1334.76L901.166,1332.73L898.079,1332.73L898.079,1331.97L900.844,1326.88L902.143,1326.88ZM817.545,1328.41C817.997,1327.89 818.713,1327.6 819.249,1327.6C820.191,1327.6 820.608,1328.13 820.608,1328.84C820.608,1329.58 820.381,1330.17 818.772,1332.03L817.056,1334.01L817.056,1334.75L821.812,1334.75L821.812,1333.89L818.295,1333.89L819.416,1332.63C821.096,1330.74 821.704,1329.86 821.704,1328.81C821.704,1327.62 820.846,1326.74 819.392,1326.74C818.689,1326.74 818.009,1326.95 817.509,1327.39L817.545,1328.41ZM901.166,1331.88L901.166,1330.04C901.166,1329.56 901.166,1328.86 901.213,1327.91L899.187,1331.88L901.166,1331.88ZM860.049,1283.1C864.929,1283.1 868.892,1287.06 868.892,1291.94C868.892,1296.82 864.929,1300.79 860.049,1300.79C855.169,1300.79 851.206,1296.82 851.206,1291.94C851.206,1287.06 855.169,1283.1 860.049,1283.1ZM861.099,1287.76L861.099,1295.65L860.122,1295.65L860.122,1289L857.988,1290.28L857.965,1289.27L860.325,1287.76L861.099,1287.76Z" style="fill:rgb(59,59,59);"/>
                </g>
            </g>
        </g>
    </g>
</svg>
