<?xml version="1.0" encoding="UTF-8" standalone="no"?>
<!DOCTYPE svg PUBLIC "-//W3C//DTD SVG 1.1//EN" "http://www.w3.org/Graphics/SVG/1.1/DTD/svg11.dtd">
<svg width="100%" height="100%" viewBox="0 0 400 387" version="1.1" xmlns="http://www.w3.org/2000/svg" xmlns:xlink="http://www.w3.org/1999/xlink" xml:space="preserve" xmlns:serif="http://www.serif.com/" style="fill-rule:evenodd;clip-rule:evenodd;stroke-linejoin:round;stroke-miterlimit:1.41421;">
    <g transform="matrix(1,0,0,1,-25,-32)">
        <g transform="matrix(3.33333,0,0,3.33333,25,-58.3333)">
            <g transform="matrix(1,0,0,1,-947.902,-1246.21)">
                <g id="NavigationDiskLines">
                    <path d="M991.418,1349.11C996.026,1352.99 1002.01,1355.31 1008.06,1355.27C1014.04,1355.23 1019.92,1352.98 1024.45,1349.17L1047.19,1371.92C1036.91,1381.26 1023.09,1386.98 1007.9,1386.98C992.715,1386.98 978.896,1381.26 968.613,1371.92L991.418,1349.11ZM1048.65,1291.88C1059,1301.97 1065.4,1315.87 1065.4,1331.21C1065.4,1346.56 1059,1360.46 1048.65,1370.55L1025.93,1347.83C1027.75,1346.03 1029.29,1343.95 1030.45,1341.65C1033.43,1335.72 1033.7,1328.52 1031.18,1322.38C1029.98,1319.46 1028.16,1316.84 1025.9,1314.63L1048.65,1291.88ZM967.156,1291.88L989.843,1314.57C989.623,1314.79 989.407,1315.02 989.195,1315.24C983.988,1320.88 981.753,1329.09 983.488,1336.51C984.503,1340.84 986.819,1344.69 989.938,1347.76L967.156,1370.55C956.803,1360.46 950.401,1346.56 950.401,1331.21C950.401,1315.87 956.803,1301.97 967.156,1291.88ZM1024.1,1315.37C1024.46,1315.7 1024.81,1316.05 1025.14,1316.41C1029.96,1321.56 1032.08,1329.1 1030.53,1335.95C1028.22,1346.11 1018.1,1353.47 1007.75,1353.4C999.153,1353.35 990.741,1348.34 986.963,1340.69C984.264,1335.24 984.046,1328.6 986.4,1322.97C989.854,1314.71 998.699,1309.11 1007.75,1309.03C1007.9,1309.03 1008.05,1309.03 1008.2,1309.03C1013.92,1309.12 1019.52,1311.26 1023.73,1315.03C1023.82,1315.16 1023.95,1315.28 1024.1,1315.37ZM968.613,1290.51C978.896,1281.17 992.715,1275.45 1007.9,1275.45C1023.09,1275.45 1036.91,1281.17 1047.19,1290.51L1024.42,1313.28C1019.91,1309.49 1014.04,1307.21 1008.06,1307.16C1001.9,1307.14 995.903,1309.33 991.316,1313.21L968.613,1290.51Z" style="fill:rgb(59,59,59);"/>
                </g>
            </g>
        </g>
    </g>
</svg>
