<?xml version="1.0" encoding="UTF-8" standalone="no"?>
<!DOCTYPE svg PUBLIC "-//W3C//DTD SVG 1.1//EN" "http://www.w3.org/Graphics/SVG/1.1/DTD/svg11.dtd">
<svg width="100%" height="100%" viewBox="0 0 400 387" version="1.1" xmlns="http://www.w3.org/2000/svg" xmlns:xlink="http://www.w3.org/1999/xlink" xml:space="preserve" xmlns:serif="http://www.serif.com/" style="fill-rule:evenodd;clip-rule:evenodd;stroke-linejoin:round;stroke-miterlimit:1.41421;">
    <g transform="matrix(1,0,0,1,-25,-32)">
        <g transform="matrix(3.33333,0,0,3.33333,25,-58.3333)">
            <g transform="matrix(1,0,0,1,-651.456,-1246.21)">
                <g id="NavigationDiskArrows">
                    <path d="M711.456,1275.45C743.191,1275.45 768.956,1300.44 768.956,1331.21C768.956,1361.99 743.191,1386.98 711.456,1386.98C679.72,1386.98 653.955,1361.99 653.955,1331.21C653.955,1300.44 679.72,1275.45 711.456,1275.45ZM720.389,1367.45L711.456,1376.39L702.523,1367.45C701.853,1366.78 700.767,1366.78 700.097,1367.45C699.428,1368.12 699.428,1369.21 700.097,1369.88L710.207,1380C710.551,1380.34 711.005,1380.51 711.456,1380.5C711.906,1380.51 712.36,1380.34 712.704,1380L722.814,1369.88C723.484,1369.21 723.484,1368.12 722.814,1367.45C722.144,1366.78 721.058,1366.78 720.389,1367.45ZM711.617,1307.16C721.488,1307.25 731.047,1313.41 734.736,1322.38C737.255,1328.52 736.983,1335.72 734.002,1341.65C729.893,1349.83 720.858,1355.21 711.617,1355.27C700.484,1355.34 689.606,1347.46 687.042,1336.51C685.307,1329.09 687.542,1320.88 692.749,1315.24C697.512,1310.09 704.452,1307.14 711.617,1307.16ZM711.305,1309.03C702.197,1309.11 693.317,1314.79 689.902,1323.1C687.584,1328.73 687.836,1335.36 690.578,1340.82C694.386,1348.4 702.757,1353.35 711.306,1353.4C721.606,1353.47 731.679,1346.22 734.052,1336.08C735.65,1329.25 733.58,1321.69 728.791,1316.51C724.371,1311.73 717.967,1309.01 711.305,1309.03ZM675.216,1340.15L666.276,1331.21L675.216,1322.28C675.887,1321.61 675.887,1320.53 675.216,1319.86C674.546,1319.19 673.46,1319.19 672.789,1319.86L662.672,1329.97C662.328,1330.31 662.163,1330.76 662.173,1331.21C662.163,1331.66 662.328,1332.12 662.672,1332.46L672.789,1342.57C673.46,1343.24 674.546,1343.24 675.216,1342.57C675.887,1341.9 675.887,1340.82 675.216,1340.15ZM747.695,1340.15L756.635,1331.21L747.695,1322.28C747.025,1321.61 747.025,1320.53 747.695,1319.86C748.365,1319.19 749.452,1319.19 750.123,1319.86L760.24,1329.97C760.583,1330.31 760.748,1330.76 760.738,1331.21C760.748,1331.66 760.583,1332.12 760.24,1332.46L750.123,1342.57C749.452,1343.24 748.365,1343.24 747.695,1342.57C747.025,1341.9 747.025,1340.82 747.695,1340.15ZM720.389,1294.98L711.456,1286.04L702.523,1294.98C701.853,1295.65 700.767,1295.65 700.097,1294.98C699.428,1294.31 699.428,1293.22 700.097,1292.55L710.207,1282.43C710.551,1282.09 711.005,1281.92 711.456,1281.93C711.906,1281.92 712.36,1282.09 712.704,1282.43L722.814,1292.55C723.484,1293.22 723.484,1294.31 722.814,1294.98C722.144,1295.65 721.058,1295.65 720.389,1294.98Z" style="fill:rgb(59,59,59);"/>
                </g>
            </g>
        </g>
    </g>
</svg>
