<?xml version="1.0" encoding="UTF-8" standalone="no"?>
<!DOCTYPE svg PUBLIC "-//W3C//DTD SVG 1.1//EN" "http://www.w3.org/Graphics/SVG/1.1/DTD/svg11.dtd">
<svg width="100%" height="100%" viewBox="0 0 300 650" version="1.1" xmlns="http://www.w3.org/2000/svg" xmlns:xlink="http://www.w3.org/1999/xlink" xml:space="preserve" xmlns:serif="http://www.serif.com/" style="fill-rule:evenodd;clip-rule:evenodd;stroke-linejoin:round;stroke-miterlimit:1.41421;">
    <g transform="matrix(1,0,0,1,-100,-29)">
        <g transform="matrix(4.16667,0,0,4.16667,0,0)">
            <g transform="matrix(1,0,0,1,-1141.35,-158.77)">
                <g id="GripButtonR2Borders">
                    <path d="M1232.95,201.27C1232.95,183.83 1218.79,169.67 1201.35,169.67C1183.91,169.67 1169.75,183.83 1169.75,201.27L1169.75,286.27C1169.75,303.711 1183.91,317.87 1201.35,317.87C1218.79,317.87 1232.95,303.711 1232.95,286.27L1232.95,201.27ZM1201.55,177.882C1214.9,178.009 1226.97,189.566 1227.1,203.437C1227.19,230.416 1227.36,257.397 1227.1,284.375C1226.94,294.522 1220.26,304.25 1210.81,307.978C1200.65,311.988 1188.07,308.616 1181.24,300.04C1177.74,295.633 1175.75,290.077 1175.66,284.375C1175.4,257.341 1175.4,230.304 1175.66,203.271C1175.77,196.466 1178.65,189.799 1183.53,185.095C1188.18,180.605 1194.55,177.987 1201.05,177.884C1201.21,177.882 1201.38,177.882 1201.55,177.882ZM1201.22,179.516C1195.11,179.574 1189.06,182.028 1184.66,186.27C1180.05,190.715 1177.35,196.995 1177.29,203.447C1177.21,230.416 1177.04,257.386 1177.29,284.354C1177.46,294.598 1184.79,304.307 1194.65,307.175C1202.61,309.49 1211.71,307.331 1217.79,301.674C1222.53,297.253 1225.36,290.892 1225.46,284.354C1225.72,257.334 1225.72,230.311 1225.46,203.292C1225.37,196.951 1222.67,190.684 1218.1,186.27C1213.74,182.066 1207.78,179.614 1201.69,179.518C1201.54,179.516 1201.38,179.516 1201.22,179.516ZM1192.86,256.574L1197.7,256.574L1197.7,246.778L1199.42,246.778C1202.1,246.778 1202.62,248.099 1202.98,249.933C1203.35,251.768 1203.97,254.593 1204.56,256.574L1209.84,256.574C1209.22,254.923 1208.38,251.878 1207.9,249.64C1207.31,246.778 1206.25,244.321 1203.94,243.99C1207.06,243.367 1209.26,241.386 1209.26,238.01C1209.26,233.755 1206.1,230.967 1199.83,230.967C1197.85,230.967 1194.99,231.114 1192.86,231.407L1192.86,256.574ZM1198.99,242.853L1197.7,242.853L1197.7,235.186C1198.51,235.112 1199.24,235.076 1199.9,235.076C1202.8,235.076 1204.05,236.653 1204.05,238.818C1204.05,241.092 1202.25,242.853 1198.99,242.853Z" style="fill:white;"/>
                </g>
            </g>
        </g>
    </g>
</svg>
