<?xml version="1.0" encoding="UTF-8" standalone="no"?>
<!DOCTYPE svg PUBLIC "-//W3C//DTD SVG 1.1//EN" "http://www.w3.org/Graphics/SVG/1.1/DTD/svg11.dtd">
<svg width="100%" height="100%" viewBox="0 0 300 650" version="1.1" xmlns="http://www.w3.org/2000/svg" xmlns:xlink="http://www.w3.org/1999/xlink" xml:space="preserve" xmlns:serif="http://www.serif.com/" style="fill-rule:evenodd;clip-rule:evenodd;stroke-linejoin:round;stroke-miterlimit:1.41421;">
    <g transform="matrix(1,0,0,1,-100,-29)">
        <g transform="matrix(4.16667,0,0,4.16667,0,0)">
            <g transform="matrix(1,0,0,1,-1045.49,-158.77)">
                <g id="GripButtonL2Borders">
                    <path d="M1137.09,201.27C1137.09,183.83 1122.93,169.67 1105.49,169.67C1088.05,169.67 1073.89,183.83 1073.89,201.27L1073.89,286.27C1073.89,303.711 1088.05,317.87 1105.49,317.87C1122.93,317.87 1137.09,303.711 1137.09,286.27L1137.09,201.27ZM1105.65,177.83C1118.93,177.956 1131.08,189.282 1131.21,203.384C1131.29,230.363 1131.46,257.344 1131.21,284.322C1131.05,294.465 1124.36,304.197 1114.92,307.926C1104.63,311.985 1091.87,308.487 1085.07,299.622C1081.73,295.269 1079.86,289.848 1079.77,284.322C1079.51,257.289 1079.51,230.252 1079.77,203.219C1079.98,190.016 1091.3,178.051 1105.16,177.831C1105.32,177.83 1105.49,177.829 1105.65,177.83ZM1105.33,179.464C1092.91,179.582 1081.53,190.359 1081.4,203.395C1081.32,230.363 1081.15,257.334 1081.4,284.301C1081.57,294.535 1088.86,304.176 1098.61,307.08C1106.6,309.459 1115.78,307.31 1121.89,301.621C1126.64,297.203 1129.47,290.845 1129.57,284.301C1129.83,257.282 1129.83,230.259 1129.57,203.239C1129.47,196.79 1126.69,190.438 1122,186.018C1117.55,181.823 1111.56,179.443 1105.33,179.464ZM1102.57,231.15L1097.73,231.15L1097.73,256.39L1113.25,256.39L1113.25,252.281L1102.57,252.281L1102.57,231.15Z" style="fill:white;"/>
                </g>
            </g>
        </g>
    </g>
</svg>
