<?xml version="1.0" encoding="UTF-8" standalone="no"?>
<!DOCTYPE svg PUBLIC "-//W3C//DTD SVG 1.1//EN" "http://www.w3.org/Graphics/SVG/1.1/DTD/svg11.dtd">
<svg width="100%" height="100%" viewBox="0 0 250 250" version="1.1" xmlns="http://www.w3.org/2000/svg" xmlns:xlink="http://www.w3.org/1999/xlink" xml:space="preserve" xmlns:serif="http://www.serif.com/" style="fill-rule:evenodd;clip-rule:evenodd;stroke-linejoin:round;stroke-miterlimit:1.41421;">
    <g transform="matrix(1,0,0,1,-125,-229)">
        <g transform="matrix(4.16667,0,0,4.16667,0,0)">
            <g transform="matrix(1,0,0,1,-770.772,-237.814)">
                <g id="MenuButton">
                    <path id="Icon" d="M830.772,296.014C845.564,296.014 857.572,308.022 857.572,322.814C857.572,337.605 845.564,349.614 830.772,349.614C815.981,349.614 803.972,337.605 803.972,322.814C803.972,308.022 815.981,296.014 830.772,296.014ZM837.637,328.739C838.427,328.715 839.067,328.026 839.019,327.267C838.971,326.497 839.011,326.094 837.724,325.972C833.121,325.827 828.513,325.969 823.908,325.969C823.089,325.995 822.435,326.743 822.534,327.528C822.631,328.294 822.615,328.699 823.908,328.739L837.637,328.739ZM837.637,324.199C839.568,324.138 839.113,321.563 837.724,321.431C833.121,321.287 828.513,321.429 823.908,321.429C822.673,321.467 822.18,322.997 822.898,323.762C823.109,323.986 823.171,324.175 823.908,324.199L837.637,324.199ZM837.637,319.658C839.568,319.597 839.129,317.023 837.724,316.89C833.121,316.746 828.513,316.888 823.908,316.888C823.089,316.914 822.435,317.661 822.534,318.446C822.631,319.212 822.615,319.617 823.908,319.658L837.637,319.658Z" style="fill:white;"/>
                </g>
            </g>
        </g>
    </g>
</svg>
