<?xml version="1.0" encoding="UTF-8" standalone="no"?>
<!DOCTYPE svg PUBLIC "-//W3C//DTD SVG 1.1//EN" "http://www.w3.org/Graphics/SVG/1.1/DTD/svg11.dtd">
<svg width="100%" height="100%" viewBox="0 0 250 250" version="1.1" xmlns="http://www.w3.org/2000/svg" xmlns:xlink="http://www.w3.org/1999/xlink" xml:space="preserve" xmlns:serif="http://www.serif.com/" style="fill-rule:evenodd;clip-rule:evenodd;stroke-linejoin:round;stroke-miterlimit:1.41421;">
    <g transform="matrix(1,0,0,1,-125,-229)">
        <g transform="matrix(4.16667,0,0,4.16667,0,0)">
            <g transform="matrix(1,0,0,1,-848.077,-237.814)">
                <g id="SystemButton">
                    <path id="Icon" d="M908.077,296.014C922.869,296.014 934.877,308.022 934.877,322.814C934.877,337.605 922.869,349.614 908.077,349.614C893.286,349.614 881.277,337.605 881.277,322.814C881.277,308.022 893.286,296.014 908.077,296.014ZM913.735,322.614L916.765,320.71C917.389,320.287 917.53,319.72 917.353,319.136C917.282,318.901 917.319,318.762 916.799,318.387L908.515,312.835C908.301,312.702 908.064,312.623 907.811,312.602C907.317,312.595 907.243,312.675 907.007,312.813L898.564,318.119C897.982,318.514 896.88,319.253 898.53,320.443L901.593,322.496L898.564,324.4C897.982,324.794 896.88,325.533 898.53,326.723L906.814,332.275C907.276,332.563 907.844,332.575 908.322,332.297L916.765,326.99C917.389,326.568 917.53,326 917.353,325.416C917.282,325.181 917.319,325.042 916.799,324.667L913.735,322.614ZM904.112,324.184L906.814,325.995C907.286,326.289 907.849,326.292 908.322,326.017L911.17,324.226L913.484,325.78L907.609,329.473L901.844,325.61L904.112,324.184ZM910.261,321.526L907.609,323.193L901.844,319.329C903.803,318.098 905.761,316.867 907.72,315.636L913.484,319.5L910.497,321.378C910.408,321.42 910.33,321.47 910.261,321.526Z" style="fill:white;"/>
                </g>
            </g>
        </g>
    </g>
</svg>
