<?xml version="1.0" encoding="UTF-8" standalone="no"?>
<!DOCTYPE svg PUBLIC "-//W3C//DTD SVG 1.1//EN" "http://www.w3.org/Graphics/SVG/1.1/DTD/svg11.dtd">
<svg width="100%" height="100%" viewBox="0 0 400 400" version="1.1" xmlns="http://www.w3.org/2000/svg" xmlns:xlink="http://www.w3.org/1999/xlink" xml:space="preserve" xmlns:serif="http://www.serif.com/" style="fill-rule:evenodd;clip-rule:evenodd;stroke-linejoin:round;stroke-miterlimit:1.41421;">
    <g transform="matrix(1,0,0,1,-50,-154)">
        <g transform="matrix(4.16667,0,0,4.16667,0,0)">
            <g transform="matrix(1,0,0,1,-1897.31,-269.766)">
                <g id="TrackpadArrowUpDown">
                    <path d="M1957.31,312.216C1980.79,312.216 1999.86,331.282 1999.86,354.766C1999.86,378.25 1980.79,397.316 1957.31,397.316C1933.83,397.316 1914.76,378.25 1914.76,354.766C1914.76,331.282 1933.83,312.216 1957.31,312.216ZM1957.31,388.451C1957.59,388.456 1957.87,388.355 1958.08,388.144L1964.29,381.926C1964.7,381.515 1964.7,380.847 1964.29,380.435C1963.88,380.023 1963.21,380.023 1962.8,380.435L1958.35,384.887L1958.35,372.825C1958.35,372.25 1957.88,371.783 1957.31,371.783C1956.74,371.783 1956.27,372.25 1956.27,372.825L1956.27,384.887L1951.82,380.435C1951.41,380.023 1950.74,380.023 1950.33,380.435C1949.92,380.847 1949.92,381.515 1950.33,381.926L1956.54,388.144C1956.75,388.355 1957.03,388.456 1957.31,388.451L1957.31,388.451ZM1956.27,336.707L1956.27,324.645L1951.82,329.097C1951.41,329.509 1950.74,329.509 1950.33,329.097C1949.92,328.685 1949.92,328.018 1950.33,327.606L1956.54,321.388C1956.75,321.177 1957.03,321.076 1957.31,321.081L1957.31,321.081C1957.59,321.076 1957.87,321.177 1958.08,321.388L1964.29,327.606C1964.7,328.018 1964.7,328.685 1964.29,329.097C1963.88,329.509 1963.21,329.509 1962.8,329.097L1958.35,324.645L1958.35,336.707C1958.35,337.282 1957.88,337.749 1957.31,337.749C1956.74,337.749 1956.27,337.282 1956.27,336.707Z" style="fill:white;"/>
                </g>
            </g>
        </g>
    </g>
</svg>
