<?xml version="1.0" encoding="UTF-8" standalone="no"?>
<!DOCTYPE svg PUBLIC "-//W3C//DTD SVG 1.1//EN" "http://www.w3.org/Graphics/SVG/1.1/DTD/svg11.dtd">
<svg width="100%" height="100%" viewBox="0 0 400 400" version="1.1" xmlns="http://www.w3.org/2000/svg" xmlns:xlink="http://www.w3.org/1999/xlink" xml:space="preserve" xmlns:serif="http://www.serif.com/" style="fill-rule:evenodd;clip-rule:evenodd;stroke-linejoin:round;stroke-miterlimit:1.41421;">
    <g transform="matrix(1,0,0,1,-50,-154)">
        <g transform="matrix(4.16667,0,0,4.16667,0,0)">
            <g transform="matrix(1,0,0,1,-1142.35,-477.215)">
                <g id="TrackpadNumbersCross">
                    <path d="M1231.53,593.173C1223.91,600.359 1213.64,604.765 1202.35,604.765C1191.05,604.765 1180.77,600.351 1173.15,593.154L1202.33,563.974L1231.53,593.173ZM1199.54,584.563C1200.12,584.131 1200.97,583.859 1201.69,583.859C1202.81,583.859 1203.4,584.339 1203.4,585.123C1203.4,586.035 1202.53,586.739 1200.58,586.739L1200.58,588.403C1202.58,588.403 1203.48,588.867 1203.48,589.955C1203.48,590.803 1202.74,591.315 1201.56,591.315C1200.76,591.315 1199.93,591.123 1199.11,590.739L1198.95,592.579C1199.69,592.947 1200.58,593.107 1201.45,593.107C1204.07,593.107 1205.75,591.827 1205.75,589.939C1205.75,588.547 1204.87,587.427 1202.9,587.251C1204.36,587.075 1205.67,586.147 1205.67,584.739C1205.67,583.155 1204.52,582.067 1202.05,582.067C1201.14,582.067 1200.23,582.275 1199.46,582.707L1199.54,584.563ZM1233.29,533.016C1240.49,540.638 1244.9,550.915 1244.9,562.215C1244.9,573.42 1240.56,583.619 1233.47,591.221L1204.28,562.027L1233.29,533.016ZM1200.38,562.027L1171.21,591.2C1164.13,583.6 1159.8,573.41 1159.8,562.215C1159.8,550.926 1164.21,540.657 1171.39,533.037L1200.38,562.027ZM1172.75,559.559C1173.47,558.903 1174.27,558.599 1174.96,558.599C1176.09,558.599 1176.68,559.095 1176.68,560.151C1176.68,560.999 1176.08,561.911 1174.92,563.095L1172.09,565.975L1172.09,567.623L1178.83,567.623L1178.83,565.831L1174.62,565.831L1176.54,564.023C1178.06,562.599 1178.96,561.335 1178.96,559.863C1178.96,558.231 1177.85,556.807 1175.36,556.807C1174.33,556.807 1173.47,557.079 1172.65,557.655L1172.75,559.559ZM1231.58,556.927L1228.74,556.927L1225.25,563.439L1225.25,565.103L1229.47,565.103L1229.47,567.503L1231.58,567.503L1231.58,565.103L1233.01,565.103L1233.01,563.311L1231.58,563.311L1231.58,556.927ZM1229.5,563.311L1227.42,563.311L1229.6,558.783C1229.52,559.583 1229.5,560.255 1229.5,561.167L1229.5,563.311ZM1173.34,531.095C1180.95,524.006 1191.14,519.665 1202.35,519.665C1213.54,519.665 1223.73,523.998 1231.33,531.075L1202.33,560.08L1173.34,531.095ZM1204.99,529.782L1203.15,529.782L1199.71,532.038L1199.77,534.022L1202.88,532.23L1202.88,540.374L1204.99,540.374L1204.99,529.782Z" style="fill:white;"/>
                </g>
            </g>
        </g>
    </g>
</svg>
