<?xml version="1.0" encoding="UTF-8" standalone="no"?>
<!DOCTYPE svg PUBLIC "-//W3C//DTD SVG 1.1//EN" "http://www.w3.org/Graphics/SVG/1.1/DTD/svg11.dtd">
<svg width="100%" height="100%" viewBox="0 0 400 400" version="1.1" xmlns="http://www.w3.org/2000/svg" xmlns:xlink="http://www.w3.org/1999/xlink" xml:space="preserve" xmlns:serif="http://www.serif.com/" style="fill-rule:evenodd;clip-rule:evenodd;stroke-linejoin:round;stroke-miterlimit:1.41421;">
    <g transform="matrix(1,0,0,1,-50,-154)">
        <g transform="matrix(4.16667,0,0,4.16667,0,0)">
            <g transform="matrix(1,0,0,1,-1464.83,-165.74)">
                <g id="TrackpadArrowSimpleDownLeftUpRight">
                    <path id="Trackpad" d="M1524.83,208.19C1548.32,208.19 1567.38,227.256 1567.38,250.74C1567.38,274.224 1548.32,293.29 1524.83,293.29C1501.35,293.29 1482.28,274.224 1482.28,250.74C1482.28,227.256 1501.35,208.19 1524.83,208.19ZM1511.32,273.087L1502.48,273.09L1502.48,264.248C1502.48,263.585 1501.95,263.048 1501.28,263.049C1500.62,263.049 1500.08,263.586 1500.08,264.25L1500.08,274.256C1500.08,274.596 1500.22,274.902 1500.45,275.12C1500.67,275.348 1500.98,275.491 1501.32,275.491L1511.32,275.488C1511.99,275.487 1512.52,274.95 1512.52,274.287C1512.52,273.624 1511.99,273.087 1511.32,273.087ZM1547.18,237.231L1547.18,228.389L1538.34,228.392C1537.68,228.393 1537.14,227.855 1537.14,227.193C1537.14,226.53 1537.68,225.992 1538.34,225.992L1548.35,225.988C1548.69,225.988 1548.99,226.131 1549.21,226.359C1549.44,226.577 1549.58,226.883 1549.58,227.223L1549.58,237.23C1549.58,237.893 1549.04,238.43 1548.38,238.431C1547.72,238.431 1547.18,237.894 1547.18,237.231Z" style="fill:white;"/>
                </g>
            </g>
        </g>
    </g>
</svg>
