<?xml version="1.0" encoding="UTF-8" standalone="no"?>
<!DOCTYPE svg PUBLIC "-//W3C//DTD SVG 1.1//EN" "http://www.w3.org/Graphics/SVG/1.1/DTD/svg11.dtd">
<svg width="100%" height="100%" viewBox="0 0 400 400" version="1.1" xmlns="http://www.w3.org/2000/svg" xmlns:xlink="http://www.w3.org/1999/xlink" xml:space="preserve" xmlns:serif="http://www.serif.com/" style="fill-rule:evenodd;clip-rule:evenodd;stroke-linejoin:round;stroke-miterlimit:1.41421;">
    <g transform="matrix(1,0,0,1,-50,-154)">
        <g transform="matrix(4.16667,0,0,4.16667,0,0)">
            <g id="Trackpad" transform="matrix(0.374562,0,0,0.374562,-111.333,-119.6)">
                <path d="M457.788,432.638L458.155,432.64L458.522,432.643L458.888,432.647L459.254,432.652L459.62,432.658L459.986,432.666L460.351,432.674L460.716,432.684L461.081,432.695L461.445,432.707L461.809,432.721L462.173,432.735L462.537,432.751L462.9,432.767L463.263,432.785L463.626,432.804L463.988,432.824L464.35,432.846L464.712,432.868L465.073,432.892L465.435,432.916L465.795,432.942L466.156,432.969L466.516,432.997L466.876,433.026L467.236,433.056L467.595,433.088L467.954,433.12L468.313,433.154L468.671,433.188L469.029,433.224L469.387,433.261L469.744,433.299L470.101,433.338L470.458,433.379L470.814,433.42L471.17,433.463L471.526,433.506L471.881,433.551L472.236,433.596L472.591,433.643L472.945,433.691L473.299,433.74L473.653,433.79L474.006,433.842L474.359,433.894L474.711,433.947L475.064,434.002L475.415,434.057L475.767,434.114L476.118,434.172L476.469,434.23L476.819,434.29L477.169,434.351L477.519,434.413L477.868,434.476L478.217,434.54L478.566,434.605L478.914,434.671L479.262,434.739L479.609,434.807L479.956,434.877L480.303,434.947L480.649,435.018L480.995,435.091L481.341,435.165L481.686,435.239L482.031,435.315L482.375,435.392L482.719,435.47L483.063,435.548L483.406,435.628L483.749,435.709L484.091,435.791L484.433,435.874L484.775,435.958L485.116,436.043L485.457,436.129L485.797,436.216L486.137,436.304L486.477,436.394L486.816,436.484L487.155,436.575L487.493,436.667L487.831,436.76L488.168,436.855L488.505,436.95L488.842,437.046L489.178,437.143L489.514,437.242L489.849,437.341L490.184,437.441L490.519,437.543L490.853,437.645L491.186,437.748L491.52,437.852L491.852,437.958L492.185,438.064L492.516,438.171L492.848,438.28L493.179,438.389L493.509,438.499L493.839,438.61L494.169,438.722L494.498,438.836L494.827,438.95L495.155,439.065L495.483,439.181L495.81,439.298L496.137,439.416L496.463,439.535L496.789,439.655L497.115,439.776L497.44,439.898L497.764,440.021L498.088,440.145L498.412,440.27L498.735,440.396L499.058,440.522L499.38,440.65L499.701,440.779L500.023,440.908L500.343,441.039L500.664,441.17L500.983,441.303L501.303,441.436L501.621,441.57L501.939,441.706L502.257,441.842L502.574,441.979L502.891,442.117L503.207,442.256L503.523,442.396L503.838,442.537L504.153,442.679L504.467,442.822L504.781,442.965L505.094,443.11L505.407,443.255L505.719,443.402L506.031,443.549L506.342,443.697L506.653,443.847L506.963,443.997L507.272,444.148L507.581,444.3L507.89,444.452L508.198,444.606L508.505,444.761L508.812,444.916L509.119,445.073L509.425,445.23L509.73,445.388L510.035,445.548L510.339,445.708L510.643,445.868L510.946,446.03L511.248,446.193L511.551,446.357L511.852,446.521L512.153,446.686L512.453,446.853L512.753,447.02L513.053,447.188L513.351,447.357L513.65,447.526L513.947,447.697L514.244,447.869L514.541,448.041L514.837,448.214L515.132,448.388L515.427,448.563L515.721,448.739L516.015,448.916L516.308,449.093L516.6,449.272L516.892,449.451L517.183,449.631L517.474,449.812L517.764,449.994L518.054,450.176L518.343,450.36L518.631,450.544L518.919,450.73L519.206,450.916L519.493,451.102L519.779,451.29L520.064,451.479L520.349,451.668L520.633,451.858L520.917,452.049L521.2,452.241L521.482,452.434L521.764,452.627L522.045,452.822L522.326,453.017L522.606,453.213L522.885,453.41L523.164,453.607L523.442,453.806L523.719,454.005L523.996,454.205L524.273,454.406L524.548,454.608L524.823,454.81L525.097,455.014L525.371,455.218L525.644,455.423L525.917,455.628L526.189,455.835L526.46,456.042L526.73,456.25L527,456.459L527.269,456.669L527.538,456.879L527.806,457.091L528.073,457.303L528.34,457.516L528.606,457.729L528.871,457.944L529.136,458.159L529.4,458.375L529.663,458.591L529.926,458.809L530.188,459.027L530.449,459.246L530.71,459.466L530.97,459.687L531.229,459.908L531.488,460.13L531.746,460.353L532.004,460.577L532.26,460.801L532.516,461.026L532.772,461.252L533.026,461.479L533.28,461.706L533.533,461.934L533.786,462.163L534.038,462.393L534.289,462.623L534.539,462.854L534.789,463.086L535.038,463.319L535.287,463.552L535.534,463.786L535.781,464.021L536.028,464.256L536.273,464.493L536.518,464.73L536.762,464.967L537.006,465.206L537.249,465.445L537.491,465.685L537.732,465.926L537.973,466.167L538.213,466.409L538.452,466.652L538.69,466.895L538.928,467.139L539.165,467.384L539.401,467.63L539.637,467.876L539.872,468.123L540.106,468.371L540.339,468.619L540.572,468.868L540.803,469.118L541.035,469.369L541.265,469.62L541.495,469.872L541.723,470.124L541.952,470.377L542.179,470.631L542.406,470.886L542.631,471.141L542.857,471.397L543.081,471.654L543.305,471.911L543.528,472.169L543.75,472.428L543.971,472.687L544.192,472.948L544.411,473.208L544.63,473.47L544.849,473.732L545.066,473.994L545.283,474.258L545.499,474.522L545.714,474.786L545.928,475.052L546.142,475.318L546.355,475.584L546.567,475.852L546.778,476.12L546.989,476.388L547.198,476.657L547.407,476.927L547.615,477.198L547.823,477.469L548.029,477.741L548.235,478.013L548.44,478.286L548.644,478.56L548.847,478.834L549.05,479.109L549.251,479.385L549.452,479.661L549.652,479.938L549.852,480.216L550.05,480.494L550.248,480.772L550.445,481.052L550.641,481.332L550.836,481.612L551.03,481.893L551.224,482.175L551.416,482.458L551.608,482.741L551.799,483.024L551.989,483.308L552.179,483.593L552.367,483.879L552.555,484.165L552.742,484.451L552.928,484.739L553.113,485.026L553.298,485.315L553.481,485.604L553.664,485.893L553.846,486.183L554.027,486.474L554.207,486.765L554.386,487.057L554.564,487.35L554.742,487.643L554.919,487.937L555.094,488.231L555.269,488.526L555.443,488.821L555.617,489.117L555.789,489.413L555.961,489.71L556.131,490.008L556.301,490.306L556.47,490.605L556.638,490.904L556.805,491.204L556.971,491.505L557.137,491.806L557.301,492.107L557.465,492.409L557.627,492.712L557.789,493.015L557.95,493.319L558.11,493.623L558.269,493.928L558.427,494.233L558.585,494.539L558.741,494.845L558.897,495.152L559.051,495.46L559.205,495.768L559.358,496.076L559.51,496.385L559.661,496.695L559.811,497.005L559.96,497.316L560.108,497.627L560.256,497.938L560.402,498.251L560.548,498.563L560.692,498.876L560.836,499.19L560.979,499.504L561.121,499.819L561.261,500.134L561.401,500.45L561.54,500.766L561.679,501.083L561.816,501.4L561.952,501.718L562.087,502.036L562.221,502.355L562.355,502.674L562.487,502.994L562.619,503.314L562.749,503.635L562.879,503.956L563.008,504.278L563.135,504.6L563.262,504.923L563.388,505.246L563.513,505.569L563.637,505.893L563.759,506.218L563.881,506.543L564.002,506.868L564.122,507.194L564.241,507.521L564.359,507.847L564.477,508.175L564.593,508.503L564.708,508.831L564.822,509.159L564.935,509.489L565.047,509.818L565.159,510.148L565.269,510.479L565.378,510.81L565.486,511.141L565.594,511.473L565.7,511.805L565.805,512.138L565.909,512.471L566.013,512.805L566.115,513.139L566.216,513.473L566.317,513.808L566.416,514.144L566.514,514.479L566.611,514.816L566.708,515.152L566.803,515.489L566.897,515.827L566.99,516.165L567.083,516.503L567.174,516.842L567.264,517.181L567.353,517.52L567.441,517.86L567.528,518.201L567.614,518.542L567.699,518.883L567.783,519.224L567.866,519.566L567.948,519.909L568.029,520.252L568.109,520.595L568.188,520.938L568.266,521.282L568.343,521.627L568.418,521.971L568.493,522.317L568.567,522.662L568.639,523.008L568.711,523.354L568.781,523.701L568.85,524.048L568.919,524.396L568.986,524.743L569.052,525.092L569.117,525.44L569.182,525.789L569.245,526.139L569.307,526.488L569.367,526.838L569.427,527.189L569.486,527.539L569.544,527.891L569.6,528.242L569.656,528.594L569.71,528.946L569.764,529.299L569.816,529.652L569.867,530.005L569.917,530.359L569.966,530.713L570.014,531.067L570.061,531.422L570.107,531.777L570.152,532.132L570.195,532.488L570.238,532.844L570.279,533.2L570.319,533.557L570.358,533.914L570.396,534.271L570.433,534.629L570.469,534.987L570.504,535.345L570.537,535.704L570.57,536.063L570.601,536.422L570.632,536.781L570.661,537.141L570.689,537.502L570.716,537.862L570.741,538.223L570.766,538.584L570.79,538.946L570.812,539.307L570.833,539.669L570.853,540.032L570.872,540.394L570.89,540.757L570.907,541.121L570.922,541.484L570.937,541.848L570.95,542.212L570.962,542.577L570.973,542.941L570.983,543.306L570.992,543.672L570.999,544.037L571.006,544.403L571.011,544.769L571.015,545.136L571.018,545.502L571.02,545.869L571.02,546.237L571.02,546.604L571.018,546.971L571.015,547.337L571.011,547.704L571.006,548.07L570.999,548.436L570.992,548.801L570.983,549.167L570.973,549.532L570.962,549.896L570.95,550.261L570.937,550.625L570.922,550.989L570.907,551.352L570.89,551.716L570.872,552.079L570.853,552.441L570.833,552.804L570.812,553.166L570.79,553.528L570.766,553.889L570.741,554.25L570.716,554.611L570.689,554.972L570.661,555.332L570.632,555.692L570.601,556.051L570.57,556.411L570.537,556.77L570.504,557.128L570.469,557.486L570.433,557.844L570.396,558.202L570.358,558.559L570.319,558.917L570.279,559.273L570.238,559.63L570.195,559.986L570.152,560.341L570.107,560.697L570.061,561.052L570.014,561.406L569.966,561.761L569.917,562.114L569.867,562.468L569.816,562.821L569.764,563.174L569.71,563.527L569.656,563.879L569.6,564.231L569.544,564.582L569.486,564.934L569.427,565.284L569.367,565.635L569.307,565.985L569.245,566.335L569.182,566.684L569.117,567.033L569.052,567.381L568.986,567.73L568.919,568.077L568.85,568.425L568.781,568.772L568.711,569.119L568.639,569.465L568.567,569.811L568.493,570.156L568.418,570.502L568.343,570.846L568.266,571.191L568.188,571.535L568.109,571.878L568.029,572.222L567.948,572.564L567.866,572.907L567.783,573.249L567.699,573.59L567.614,573.932L567.528,574.272L567.441,574.613L567.353,574.953L567.264,575.292L567.174,575.631L567.083,575.97L566.99,576.308L566.897,576.646L566.803,576.984L566.708,577.321L566.611,577.657L566.514,577.994L566.416,578.329L566.317,578.665L566.216,579L566.115,579.334L566.013,579.668L565.909,580.002L565.805,580.335L565.7,580.668L565.594,581L565.486,581.332L565.378,581.663L565.269,581.994L565.159,582.325L565.047,582.655L564.935,582.984L564.822,583.314L564.708,583.642L564.593,583.971L564.477,584.298L564.359,584.626L564.241,584.953L564.122,585.279L564.002,585.605L563.881,585.93L563.759,586.255L563.637,586.58L563.513,586.904L563.388,587.227L563.262,587.551L563.135,587.873L563.008,588.195L562.879,588.517L562.749,588.838L562.619,589.159L562.487,589.479L562.355,589.799L562.221,590.118L562.087,590.437L561.952,590.755L561.816,591.073L561.679,591.39L561.54,591.707L561.401,592.023L561.261,592.339L561.121,592.654L560.979,592.969L560.836,593.283L560.692,593.597L560.548,593.91L560.402,594.223L560.256,594.535L560.108,594.846L559.96,595.158L559.811,595.468L559.661,595.778L559.51,596.088L559.358,596.397L559.205,596.705L559.051,597.013L558.897,597.321L558.741,597.628L558.585,597.934L558.427,598.24L558.269,598.545L558.11,598.85L557.95,599.155L557.789,599.458L557.627,599.761L557.465,600.064L557.301,600.366L557.137,600.668L556.971,600.969L556.805,601.269L556.638,601.569L556.47,601.868L556.301,602.167L556.131,602.465L555.961,602.763L555.789,603.06L555.617,603.356L555.443,603.652L555.269,603.948L555.094,604.242L554.919,604.537L554.742,604.83L554.564,605.123L554.386,605.416L554.207,605.708L554.027,605.999L553.846,606.29L553.664,606.58L553.481,606.869L553.298,607.158L553.113,607.447L552.928,607.735L552.742,608.022L552.555,608.308L552.367,608.594L552.179,608.88L551.989,609.165L551.799,609.449L551.608,609.732L551.416,610.015L551.224,610.298L551.03,610.58L550.836,610.861L550.641,611.141L550.445,611.421L550.248,611.701L550.05,611.979L549.852,612.258L549.652,612.535L549.452,612.812L549.251,613.088L549.05,613.364L548.847,613.639L548.644,613.913L548.44,614.187L548.235,614.46L548.029,614.732L547.823,615.004L547.615,615.275L547.407,615.546L547.198,615.816L546.989,616.085L546.778,616.353L546.567,616.621L546.355,616.889L546.142,617.155L545.928,617.421L545.714,617.687L545.499,617.951L545.283,618.215L545.066,618.479L544.849,618.741L544.63,619.003L544.411,619.265L544.192,619.526L543.971,619.786L543.75,620.045L543.528,620.304L543.305,620.562L543.081,620.819L542.857,621.076L542.631,621.332L542.406,621.587L542.179,621.842L541.952,622.096L541.723,622.349L541.495,622.601L541.265,622.853L541.035,623.104L540.803,623.355L540.572,623.605L540.339,623.854L540.106,624.102L539.872,624.35L539.637,624.597L539.401,624.843L539.165,625.089L538.928,625.334L538.69,625.578L538.452,625.821L538.213,626.064L537.973,626.306L537.732,626.548L537.491,626.788L537.249,627.028L537.006,627.267L536.762,627.506L536.518,627.743L536.273,627.98L536.028,628.217L535.781,628.452L535.534,628.687L535.287,628.921L535.038,629.154L534.789,629.387L534.539,629.619L534.289,629.85L534.038,630.08L533.786,630.31L533.533,630.539L533.28,630.767L533.026,630.994L532.772,631.221L532.516,631.447L532.26,631.672L532.004,631.897L531.746,632.12L531.488,632.343L531.229,632.565L530.97,632.786L530.71,633.007L530.449,633.227L530.188,633.446L529.926,633.664L529.663,633.882L529.4,634.098L529.136,634.314L528.871,634.53L528.606,634.744L528.34,634.958L528.073,635.17L527.806,635.382L527.538,635.594L527.269,635.804L527,636.014L526.73,636.223L526.46,636.431L526.189,636.638L525.917,636.845L525.644,637.05L525.371,637.255L525.097,637.459L524.823,637.663L524.548,637.865L524.273,638.067L523.996,638.268L523.719,638.468L523.442,638.667L523.164,638.866L522.885,639.063L522.606,639.26L522.326,639.456L522.045,639.651L521.764,639.846L521.482,640.039L521.2,640.232L520.917,640.424L520.633,640.615L520.349,640.805L520.064,640.994L519.779,641.183L519.493,641.371L519.206,641.558L518.919,641.744L518.631,641.929L518.343,642.113L518.054,642.297L517.764,642.479L517.474,642.661L517.183,642.842L516.892,643.022L516.6,643.201L516.308,643.38L516.015,643.557L515.721,643.734L515.427,643.91L515.132,644.085L514.837,644.259L514.541,644.432L514.244,644.605L513.947,644.776L513.65,644.947L513.351,645.116L513.053,645.285L512.753,645.453L512.453,645.62L512.153,645.787L511.852,645.952L511.551,646.116L511.248,646.28L510.946,646.443L510.643,646.605L510.339,646.766L510.035,646.926L509.73,647.085L509.425,647.243L509.119,647.4L508.812,647.557L508.505,647.712L508.198,647.867L507.89,648.021L507.581,648.173L507.272,648.325L506.963,648.476L506.653,648.626L506.342,648.776L506.031,648.924L505.719,649.071L505.407,649.218L505.094,649.363L504.781,649.508L504.467,649.652L504.153,649.794L503.838,649.936L503.523,650.077L503.207,650.217L502.891,650.356L502.574,650.494L502.257,650.631L501.939,650.767L501.621,650.903L501.303,651.037L500.983,651.17L500.664,651.303L500.343,651.434L500.023,651.565L499.701,651.694L499.38,651.823L499.058,651.951L498.735,652.078L498.412,652.203L498.088,652.328L497.764,652.452L497.44,652.575L497.115,652.697L496.789,652.818L496.463,652.938L496.137,653.057L495.81,653.175L495.483,653.292L495.155,653.408L494.827,653.523L494.498,653.637L494.169,653.751L493.839,653.863L493.509,653.974L493.179,654.084L492.848,654.194L492.516,654.302L492.185,654.409L491.852,654.515L491.52,654.621L491.186,654.725L490.853,654.828L490.519,654.931L490.184,655.032L489.849,655.132L489.514,655.231L489.178,655.33L488.842,655.427L488.505,655.523L488.168,655.618L487.831,655.713L487.493,655.806L487.155,655.898L486.816,655.989L486.477,656.079L486.137,656.169L485.797,656.257L485.457,656.344L485.116,656.43L484.775,656.515L484.433,656.599L484.091,656.682L483.749,656.764L483.406,656.845L483.063,656.925L482.719,657.004L482.375,657.081L482.031,657.158L481.686,657.234L481.341,657.308L480.995,657.382L480.649,657.455L480.303,657.526L479.956,657.597L479.609,657.666L479.262,657.734L478.914,657.802L478.566,657.868L478.217,657.933L477.868,657.997L477.519,658.06L477.169,658.122L476.819,658.183L476.469,658.243L476.118,658.302L475.767,658.359L475.415,658.416L475.064,658.471L474.711,658.526L474.359,658.579L474.006,658.631L473.653,658.683L473.299,658.733L472.945,658.782L472.591,658.83L472.236,658.877L471.881,658.922L471.526,658.967L471.17,659.011L470.814,659.053L470.458,659.094L470.101,659.135L469.744,659.174L469.387,659.212L469.029,659.249L468.671,659.285L468.313,659.319L467.954,659.353L467.595,659.385L467.236,659.417L466.876,659.447L466.516,659.476L466.156,659.504L465.795,659.531L465.435,659.557L465.073,659.582L464.712,659.605L464.35,659.627L463.988,659.649L463.626,659.669L463.263,659.688L462.9,659.706L462.537,659.722L462.173,659.738L461.809,659.752L461.445,659.766L461.081,659.778L460.716,659.789L460.351,659.799L459.986,659.807L459.62,659.815L459.254,659.821L458.888,659.826L458.522,659.831L458.155,659.833L457.788,659.835L457.421,659.836L457.054,659.835L456.687,659.833L456.32,659.831L455.954,659.826L455.588,659.821L455.222,659.815L454.856,659.807L454.491,659.799L454.126,659.789L453.761,659.778L453.397,659.766L453.033,659.752L452.669,659.738L452.305,659.722L451.942,659.706L451.579,659.688L451.216,659.669L450.854,659.649L450.492,659.627L450.13,659.605L449.769,659.582L449.407,659.557L449.047,659.531L448.686,659.504L448.326,659.476L447.966,659.447L447.606,659.417L447.247,659.385L446.888,659.353L446.529,659.319L446.171,659.285L445.813,659.249L445.455,659.212L445.098,659.174L444.741,659.135L444.384,659.094L444.028,659.053L443.672,659.011L443.316,658.967L442.961,658.922L442.606,658.877L442.251,658.83L441.897,658.782L441.543,658.733L441.189,658.683L440.836,658.631L440.483,658.579L440.131,658.526L439.778,658.471L439.427,658.416L439.075,658.359L438.724,658.302L438.373,658.243L438.023,658.183L437.673,658.122L437.323,658.06L436.974,657.997L436.625,657.933L436.276,657.868L435.928,657.802L435.58,657.734L435.233,657.666L434.886,657.597L434.539,657.526L434.193,657.455L433.847,657.382L433.501,657.308L433.156,657.234L432.811,657.158L432.467,657.081L432.123,657.004L431.779,656.925L431.436,656.845L431.093,656.764L430.751,656.682L430.409,656.599L430.067,656.515L429.726,656.43L429.385,656.344L429.045,656.257L428.705,656.169L428.365,656.079L428.026,655.989L427.687,655.898L427.349,655.806L427.011,655.713L426.674,655.618L426.337,655.523L426,655.427L425.664,655.33L425.328,655.231L424.993,655.132L424.658,655.032L424.323,654.931L423.989,654.828L423.656,654.725L423.323,654.621L422.99,654.515L422.657,654.409L422.326,654.302L421.994,654.194L421.663,654.084L421.333,653.974L421.003,653.863L420.673,653.751L420.344,653.637L420.015,653.523L419.687,653.408L419.359,653.292L419.032,653.175L418.705,653.057L418.379,652.938L418.053,652.818L417.727,652.697L417.402,652.575L417.078,652.452L416.754,652.328L416.43,652.203L416.107,652.078L415.784,651.951L415.462,651.823L415.141,651.694L414.819,651.565L414.499,651.434L414.178,651.303L413.859,651.17L413.54,651.037L413.221,650.903L412.903,650.767L412.585,650.631L412.268,650.494L411.951,650.356L411.635,650.217L411.319,650.077L411.004,649.936L410.689,649.794L410.375,649.652L410.061,649.508L409.748,649.363L409.435,649.218L409.123,649.071L408.811,648.924L408.5,648.776L408.189,648.626L407.879,648.476L407.57,648.325L407.261,648.173L406.952,648.021L406.644,647.867L406.337,647.712L406.03,647.557L405.723,647.4L405.417,647.243L405.112,647.085L404.807,646.926L404.503,646.766L404.199,646.605L403.896,646.443L403.594,646.28L403.292,646.116L402.99,645.952L402.689,645.787L402.389,645.62L402.089,645.453L401.789,645.285L401.491,645.116L401.193,644.947L400.895,644.776L400.598,644.605L400.301,644.432L400.005,644.259L399.71,644.085L399.415,643.91L399.121,643.734L398.827,643.557L398.534,643.38L398.242,643.201L397.95,643.022L397.659,642.842L397.368,642.661L397.078,642.479L396.788,642.297L396.499,642.113L396.211,641.929L395.923,641.744L395.636,641.558L395.349,641.371L395.063,641.183L394.778,640.994L394.493,640.805L394.209,640.615L393.925,640.424L393.642,640.232L393.36,640.039L393.078,639.846L392.797,639.651L392.516,639.456L392.236,639.26L391.957,639.063L391.678,638.866L391.4,638.667L391.123,638.468L390.846,638.268L390.569,638.067L390.294,637.865L390.019,637.663L389.745,637.459L389.471,637.255L389.198,637.05L388.925,636.845L388.654,636.638L388.382,636.431L388.112,636.223L387.842,636.014L387.573,635.804L387.304,635.594L387.036,635.382L386.769,635.17L386.502,634.958L386.236,634.744L385.971,634.53L385.706,634.314L385.442,634.098L385.179,633.882L384.916,633.664L384.654,633.446L384.393,633.227L384.132,633.007L383.872,632.786L383.613,632.565L383.354,632.343L383.096,632.12L382.839,631.897L382.582,631.672L382.326,631.447L382.071,631.221L381.816,630.994L381.562,630.767L381.309,630.539L381.056,630.31L380.804,630.08L380.553,629.85L380.303,629.619L380.053,629.387L379.804,629.154L379.555,628.921L379.308,628.687L379.061,628.452L378.814,628.217L378.569,627.98L378.324,627.743L378.08,627.506L377.836,627.267L377.593,627.028L377.351,626.788L377.11,626.548L376.869,626.306L376.63,626.064L376.39,625.821L376.152,625.578L375.914,625.334L375.677,625.089L375.441,624.843L375.205,624.597L374.971,624.35L374.736,624.102L374.503,623.854L374.271,623.605L374.039,623.355L373.808,623.104L373.577,622.853L373.348,622.601L373.119,622.349L372.891,622.096L372.663,621.842L372.436,621.587L372.211,621.332L371.985,621.076L371.761,620.819L371.537,620.562L371.315,620.304L371.092,620.045L370.871,619.786L370.651,619.526L370.431,619.265L370.212,619.003L369.993,618.741L369.776,618.479L369.559,618.215L369.343,617.951L369.128,617.687L368.914,617.421L368.7,617.155L368.487,616.889L368.275,616.621L368.064,616.353L367.853,616.085L367.644,615.816L367.435,615.546L367.227,615.275L367.019,615.004L366.813,614.732L366.607,614.46L366.402,614.187L366.198,613.913L365.995,613.639L365.792,613.364L365.591,613.088L365.39,612.812L365.19,612.535L364.99,612.258L364.792,611.979L364.594,611.701L364.398,611.421L364.202,611.141L364.006,610.861L363.812,610.58L363.618,610.298L363.426,610.015L363.234,609.732L363.043,609.449L362.853,609.165L362.663,608.88L362.475,608.594L362.287,608.308L362.1,608.022L361.914,607.735L361.729,607.447L361.544,607.158L361.361,606.869L361.178,606.58L360.996,606.29L360.816,605.999L360.635,605.708L360.456,605.416L360.278,605.123L360.1,604.83L359.924,604.537L359.748,604.242L359.573,603.948L359.399,603.652L359.225,603.356L359.053,603.06L358.882,602.763L358.711,602.465L358.541,602.167L358.372,601.868L358.204,601.569L358.037,601.269L357.871,600.969L357.706,600.668L357.541,600.366L357.378,600.064L357.215,599.761L357.053,599.458L356.892,599.155L356.732,598.85L356.573,598.545L356.415,598.24L356.257,597.934L356.101,597.628L355.945,597.321L355.791,597.013L355.637,596.705L355.484,596.397L355.332,596.088L355.181,595.778L355.031,595.468L354.882,595.158L354.734,594.846L354.586,594.535L354.44,594.223L354.294,593.91L354.15,593.597L354.006,593.283L353.863,592.969L353.722,592.654L353.581,592.339L353.441,592.023L353.302,591.707L353.164,591.39L353.026,591.073L352.89,590.755L352.755,590.437L352.621,590.118L352.487,589.799L352.355,589.479L352.223,589.159L352.093,588.838L351.963,588.517L351.834,588.195L351.707,587.873L351.58,587.551L351.454,587.227L351.329,586.904L351.206,586.58L351.083,586.255L350.961,585.93L350.84,585.605L350.72,585.279L350.601,584.953L350.483,584.626L350.366,584.298L350.249,583.971L350.134,583.642L350.02,583.314L349.907,582.984L349.795,582.655L349.683,582.325L349.573,581.994L349.464,581.663L349.356,581.332L349.248,581L349.142,580.668L349.037,580.335L348.933,580.002L348.829,579.668L348.727,579.334L348.626,579L348.525,578.665L348.426,578.329L348.328,577.994L348.231,577.657L348.134,577.321L348.039,576.984L347.945,576.646L347.852,576.308L347.759,575.97L347.668,575.631L347.578,575.292L347.489,574.953L347.401,574.613L347.314,574.272L347.228,573.932L347.143,573.59L347.059,573.249L346.976,572.907L346.894,572.564L346.813,572.222L346.733,571.878L346.654,571.535L346.576,571.191L346.5,570.846L346.424,570.502L346.349,570.156L346.276,569.811L346.203,569.465L346.131,569.119L346.061,568.772L345.992,568.425L345.923,568.077L345.856,567.73L345.79,567.381L345.725,567.033L345.66,566.684L345.597,566.335L345.535,565.985L345.475,565.635L345.415,565.284L345.356,564.934L345.298,564.582L345.242,564.231L345.186,563.879L345.132,563.527L345.078,563.174L345.026,562.821L344.975,562.468L344.925,562.114L344.876,561.761L344.828,561.406L344.781,561.052L344.735,560.697L344.691,560.341L344.647,559.986L344.605,559.63L344.563,559.273L344.523,558.917L344.484,558.559L344.446,558.202L344.409,557.844L344.373,557.486L344.338,557.128L344.305,556.77L344.272,556.411L344.241,556.051L344.21,555.692L344.181,555.332L344.153,554.972L344.126,554.611L344.101,554.25L344.076,553.889L344.053,553.528L344.03,553.166L344.009,552.804L343.989,552.441L343.97,552.079L343.952,551.716L343.935,551.352L343.92,550.989L343.905,550.625L343.892,550.261L343.88,549.896L343.869,549.532L343.859,549.167L343.85,548.801L343.843,548.436L343.836,548.07L343.831,547.704L343.827,547.337L343.824,546.971L343.822,546.604L343.822,546.237L343.822,545.869L343.824,545.502L343.827,545.136L343.831,544.769L343.836,544.403L343.843,544.037L343.85,543.672L343.859,543.306L343.869,542.941L343.88,542.577L343.892,542.212L343.905,541.848L343.92,541.484L343.935,541.121L343.952,540.757L343.97,540.394L343.989,540.032L344.009,539.669L344.03,539.307L344.053,538.946L344.076,538.584L344.101,538.223L344.126,537.862L344.153,537.502L344.181,537.141L344.21,536.781L344.241,536.422L344.272,536.063L344.305,535.704L344.338,535.345L344.373,534.987L344.409,534.629L344.446,534.271L344.484,533.914L344.523,533.557L344.563,533.2L344.605,532.844L344.647,532.488L344.691,532.132L344.735,531.777L344.781,531.422L344.828,531.067L344.876,530.713L344.925,530.359L344.975,530.005L345.026,529.652L345.078,529.299L345.132,528.946L345.186,528.594L345.242,528.242L345.298,527.891L345.356,527.539L345.415,527.189L345.475,526.838L345.535,526.488L345.597,526.139L345.66,525.789L345.725,525.44L345.79,525.092L345.856,524.743L345.923,524.396L345.992,524.048L346.061,523.701L346.131,523.354L346.203,523.008L346.276,522.662L346.349,522.317L346.424,521.971L346.5,521.627L346.576,521.282L346.654,520.938L346.733,520.595L346.813,520.252L346.894,519.909L346.976,519.566L347.059,519.224L347.143,518.883L347.228,518.542L347.314,518.201L347.401,517.86L347.489,517.52L347.578,517.181L347.668,516.842L347.759,516.503L347.852,516.165L347.945,515.827L348.039,515.489L348.134,515.152L348.231,514.816L348.328,514.479L348.426,514.144L348.525,513.808L348.626,513.473L348.727,513.139L348.829,512.805L348.933,512.471L349.037,512.138L349.142,511.805L349.248,511.473L349.356,511.141L349.464,510.81L349.573,510.479L349.683,510.148L349.795,509.818L349.907,509.489L350.02,509.159L350.134,508.831L350.249,508.503L350.366,508.175L350.483,507.847L350.601,507.521L350.72,507.194L350.84,506.868L350.961,506.543L351.083,506.218L351.206,505.893L351.329,505.569L351.454,505.246L351.58,504.923L351.707,504.6L351.834,504.278L351.963,503.956L352.093,503.635L352.223,503.314L352.355,502.994L352.487,502.674L352.621,502.355L352.755,502.036L352.89,501.718L353.026,501.4L353.164,501.083L353.302,500.766L353.441,500.45L353.581,500.134L353.722,499.819L353.863,499.504L354.006,499.19L354.15,498.876L354.294,498.563L354.44,498.251L354.586,497.938L354.734,497.627L354.882,497.316L355.031,497.005L355.181,496.695L355.332,496.385L355.484,496.076L355.637,495.768L355.791,495.46L355.945,495.152L356.101,494.845L356.257,494.539L356.415,494.233L356.573,493.928L356.732,493.623L356.892,493.319L357.053,493.015L357.215,492.712L357.378,492.409L357.541,492.107L357.706,491.806L357.871,491.505L358.037,491.204L358.204,490.904L358.372,490.605L358.541,490.306L358.711,490.008L358.882,489.71L359.053,489.413L359.225,489.117L359.399,488.821L359.573,488.526L359.748,488.231L359.924,487.937L360.1,487.643L360.278,487.35L360.456,487.057L360.635,486.765L360.816,486.474L360.996,486.183L361.178,485.893L361.361,485.604L361.544,485.315L361.729,485.026L361.914,484.739L362.1,484.451L362.287,484.165L362.475,483.879L362.663,483.593L362.853,483.308L363.043,483.024L363.234,482.741L363.426,482.458L363.618,482.175L363.812,481.893L364.006,481.612L364.202,481.332L364.398,481.052L364.594,480.772L364.792,480.494L364.99,480.216L365.19,479.938L365.39,479.661L365.591,479.385L365.792,479.109L365.995,478.834L366.198,478.56L366.402,478.286L366.607,478.013L366.813,477.741L367.019,477.469L367.227,477.198L367.435,476.927L367.644,476.657L367.853,476.388L368.064,476.12L368.275,475.852L368.487,475.584L368.7,475.318L368.914,475.052L369.128,474.786L369.343,474.522L369.559,474.258L369.776,473.994L369.993,473.732L370.212,473.47L370.431,473.208L370.651,472.948L370.871,472.687L371.092,472.428L371.315,472.169L371.537,471.911L371.761,471.654L371.985,471.397L372.211,471.141L372.436,470.886L372.663,470.631L372.891,470.377L373.119,470.124L373.348,469.872L373.577,469.62L373.808,469.369L374.039,469.118L374.271,468.868L374.503,468.619L374.736,468.371L374.971,468.123L375.205,467.876L375.441,467.63L375.677,467.384L375.914,467.139L376.152,466.895L376.39,466.652L376.63,466.409L376.869,466.167L377.11,465.926L377.351,465.685L377.593,465.445L377.836,465.206L378.08,464.967L378.324,464.73L378.569,464.493L378.814,464.256L379.061,464.021L379.308,463.786L379.555,463.552L379.804,463.319L380.053,463.086L380.303,462.854L380.553,462.623L380.804,462.393L381.056,462.163L381.309,461.934L381.562,461.706L381.816,461.479L382.071,461.252L382.326,461.026L382.582,460.801L382.839,460.577L383.096,460.353L383.354,460.13L383.613,459.908L383.872,459.687L384.132,459.466L384.393,459.246L384.654,459.027L384.916,458.809L385.179,458.591L385.442,458.375L385.706,458.159L385.971,457.944L386.236,457.729L386.502,457.516L386.769,457.303L387.036,457.091L387.304,456.879L387.573,456.669L387.842,456.459L388.112,456.25L388.382,456.042L388.654,455.835L388.925,455.628L389.198,455.423L389.471,455.218L389.745,455.014L390.019,454.81L390.294,454.608L390.569,454.406L390.846,454.205L391.123,454.005L391.4,453.806L391.678,453.607L391.957,453.41L392.236,453.213L392.516,453.017L392.797,452.822L393.078,452.627L393.36,452.434L393.642,452.241L393.925,452.049L394.209,451.858L394.493,451.668L394.778,451.479L395.063,451.29L395.349,451.102L395.636,450.916L395.923,450.73L396.211,450.544L396.499,450.36L396.788,450.176L397.078,449.994L397.368,449.812L397.659,449.631L397.95,449.451L398.242,449.272L398.534,449.093L398.827,448.916L399.121,448.739L399.415,448.563L399.71,448.388L400.005,448.214L400.301,448.041L400.598,447.869L400.895,447.697L401.193,447.526L401.491,447.357L401.789,447.188L402.089,447.02L402.389,446.853L402.689,446.686L402.99,446.521L403.292,446.357L403.594,446.193L403.896,446.03L404.199,445.868L404.503,445.708L404.807,445.548L405.112,445.388L405.417,445.23L405.723,445.073L406.03,444.916L406.337,444.761L406.644,444.606L406.952,444.452L407.261,444.3L407.57,444.148L407.879,443.997L408.189,443.847L408.5,443.697L408.811,443.549L409.123,443.402L409.435,443.255L409.748,443.11L410.061,442.965L410.375,442.822L410.689,442.679L411.004,442.537L411.319,442.396L411.635,442.256L411.951,442.117L412.268,441.979L412.585,441.842L412.903,441.706L413.221,441.57L413.54,441.436L413.859,441.303L414.178,441.17L414.499,441.039L414.819,440.908L415.141,440.779L415.462,440.65L415.784,440.522L416.107,440.396L416.43,440.27L416.754,440.145L417.078,440.021L417.402,439.898L417.727,439.776L418.053,439.655L418.379,439.535L418.705,439.416L419.032,439.298L419.359,439.181L419.687,439.065L420.015,438.95L420.344,438.836L420.673,438.722L421.003,438.61L421.333,438.499L421.663,438.389L421.994,438.28L422.326,438.171L422.657,438.064L422.99,437.958L423.323,437.852L423.656,437.748L423.989,437.645L424.323,437.543L424.658,437.441L424.993,437.341L425.328,437.242L425.664,437.143L426,437.046L426.337,436.95L426.674,436.855L427.011,436.76L427.349,436.667L427.687,436.575L428.026,436.484L428.365,436.394L428.705,436.304L429.045,436.216L429.385,436.129L429.726,436.043L430.067,435.958L430.409,435.874L430.751,435.791L431.093,435.709L431.436,435.628L431.779,435.548L432.123,435.47L432.467,435.392L432.811,435.315L433.156,435.239L433.501,435.165L433.847,435.091L434.193,435.018L434.539,434.947L434.886,434.877L435.233,434.807L435.58,434.739L435.928,434.671L436.276,434.605L436.625,434.54L436.974,434.476L437.323,434.413L437.673,434.351L438.023,434.29L438.373,434.23L438.724,434.172L439.075,434.114L439.427,434.057L439.778,434.002L440.131,433.947L440.483,433.894L440.836,433.842L441.189,433.79L441.543,433.74L441.897,433.691L442.251,433.643L442.606,433.596L442.961,433.551L443.316,433.506L443.672,433.463L444.028,433.42L444.384,433.379L444.741,433.338L445.098,433.299L445.455,433.261L445.813,433.224L446.171,433.188L446.529,433.154L446.888,433.12L447.247,433.088L447.606,433.056L447.966,433.026L448.326,432.997L448.686,432.969L449.047,432.942L449.407,432.916L449.769,432.892L450.13,432.868L450.492,432.846L450.854,432.824L451.216,432.804L451.579,432.785L451.942,432.767L452.305,432.751L452.669,432.735L453.033,432.721L453.397,432.707L453.761,432.695L454.126,432.684L454.491,432.674L454.856,432.666L455.222,432.658L455.588,432.652L455.954,432.647L456.32,432.643L456.687,432.64L457.054,432.638L457.421,432.637L457.788,432.638ZM457.077,439.989L456.733,439.991L456.39,439.994L456.047,439.997L455.704,440.002L455.362,440.008L455.019,440.015L454.677,440.024L454.336,440.033L453.994,440.043L453.653,440.054L453.312,440.067L452.972,440.08L452.631,440.095L452.291,440.111L451.952,440.127L451.612,440.145L451.273,440.164L450.934,440.184L450.596,440.205L450.257,440.227L449.92,440.25L449.582,440.274L449.245,440.299L448.907,440.325L448.571,440.353L448.234,440.381L447.898,440.41L447.562,440.441L447.227,440.472L446.892,440.504L446.557,440.538L446.222,440.573L445.888,440.608L445.554,440.645L445.22,440.682L444.887,440.721L444.554,440.761L444.222,440.802L443.889,440.843L443.557,440.886L443.225,440.93L442.894,440.975L442.563,441.021L442.232,441.067L441.902,441.115L441.572,441.164L441.242,441.214L440.913,441.265L440.584,441.317L440.255,441.37L439.927,441.424L439.599,441.479L439.271,441.535L438.944,441.592L438.617,441.65L438.291,441.709L437.964,441.768L437.638,441.829L437.313,441.891L436.988,441.954L436.663,442.018L436.338,442.083L436.014,442.149L435.69,442.216L435.367,442.284L435.044,442.352L434.721,442.422L434.399,442.493L434.077,442.565L433.756,442.637L433.434,442.711L433.114,442.786L432.793,442.861L432.473,442.938L432.153,443.016L431.834,443.094L431.515,443.174L431.197,443.254L430.878,443.335L430.561,443.418L430.243,443.501L429.926,443.585L429.61,443.671L429.293,443.757L428.977,443.844L428.662,443.932L428.347,444.021L428.032,444.111L427.718,444.202L427.404,444.294L427.091,444.387L426.778,444.48L426.465,444.575L426.153,444.671L425.841,444.767L425.529,444.865L425.218,444.963L424.908,445.063L424.598,445.163L424.288,445.264L423.978,445.366L423.67,445.469L423.361,445.573L423.053,445.678L422.745,445.784L422.438,445.89L422.131,445.998L421.825,446.107L421.519,446.216L421.213,446.327L420.908,446.438L420.603,446.55L420.299,446.663L419.995,446.777L419.692,446.892L419.389,447.008L419.086,447.124L418.785,447.242L418.483,447.36L418.182,447.48L417.881,447.6L417.581,447.721L417.281,447.843L416.982,447.966L416.683,448.09L416.384,448.215L416.086,448.34L415.789,448.467L415.492,448.594L415.195,448.722L414.899,448.852L414.603,448.982L414.308,449.112L414.013,449.244L413.719,449.377L413.425,449.51L413.132,449.644L412.839,449.78L412.547,449.916L412.255,450.053L411.963,450.19L411.673,450.329L411.382,450.469L411.092,450.609L410.803,450.75L410.514,450.892L410.225,451.035L409.937,451.179L409.65,451.323L409.363,451.469L409.076,451.615L408.79,451.762L408.505,451.91L408.22,452.059L407.935,452.209L407.651,452.359L407.368,452.511L407.085,452.663L406.802,452.816L406.52,452.969L406.239,453.124L405.958,453.28L405.677,453.436L405.397,453.593L405.118,453.751L404.839,453.91L404.561,454.069L404.283,454.23L404.006,454.391L403.729,454.553L403.453,454.716L403.177,454.879L402.902,455.044L402.627,455.209L402.353,455.375L402.079,455.542L401.806,455.71L401.534,455.878L401.262,456.047L400.99,456.217L400.72,456.388L400.449,456.56L400.18,456.732L399.91,456.906L399.642,457.08L399.374,457.254L399.106,457.43L398.839,457.606L398.573,457.784L398.307,457.962L398.041,458.14L397.777,458.32L397.512,458.5L397.249,458.681L396.986,458.863L396.723,459.046L396.462,459.229L396.2,459.413L395.939,459.598L395.679,459.784L395.42,459.97L395.161,460.157L394.902,460.345L394.644,460.534L394.387,460.723L394.13,460.913L393.874,461.104L393.619,461.296L393.364,461.489L393.11,461.682L392.856,461.876L392.603,462.07L392.35,462.266L392.098,462.462L391.847,462.659L391.596,462.857L391.346,463.055L391.097,463.254L390.848,463.454L390.6,463.655L390.352,463.856L390.105,464.058L389.859,464.261L389.613,464.464L389.368,464.669L389.123,464.874L388.879,465.079L388.636,465.286L388.393,465.493L388.151,465.701L387.91,465.909L387.669,466.118L387.429,466.328L387.189,466.539L386.95,466.751L386.712,466.963L386.474,467.175L386.237,467.389L386.001,467.603L385.765,467.818L385.53,468.033L385.296,468.25L385.062,468.467L384.829,468.684L384.597,468.903L384.365,469.122L384.134,469.341L383.903,469.562L383.673,469.783L383.444,470.005L383.216,470.227L382.988,470.45L382.761,470.674L382.534,470.899L382.308,471.124L382.083,471.35L381.859,471.576L381.635,471.803L381.412,472.031L381.189,472.26L380.967,472.489L380.746,472.719L380.526,472.949L380.306,473.18L380.087,473.412L379.869,473.644L379.651,473.878L379.434,474.111L379.218,474.346L379.002,474.581L378.787,474.816L378.573,475.053L378.36,475.29L378.147,475.527L377.935,475.766L377.724,476.005L377.513,476.244L377.303,476.484L377.094,476.725L376.885,476.966L376.677,477.209L376.47,477.451L376.264,477.695L376.058,477.939L375.853,478.183L375.649,478.428L375.445,478.674L375.243,478.92L375.041,479.168L374.839,479.415L374.639,479.663L374.439,479.912L374.24,480.162L374.041,480.412L373.844,480.663L373.647,480.914L373.45,481.166L373.255,481.418L373.06,481.671L372.866,481.925L372.673,482.18L372.481,482.434L372.289,482.69L372.098,482.946L371.908,483.203L371.718,483.46L371.53,483.718L371.342,483.976L371.154,484.235L370.968,484.495L370.782,484.755L370.597,485.016L370.413,485.277L370.23,485.539L370.047,485.801L369.866,486.064L369.685,486.328L369.504,486.592L369.325,486.857L369.146,487.122L368.968,487.388L368.791,487.655L368.615,487.922L368.439,488.189L368.264,488.457L368.09,488.726L367.917,488.995L367.744,489.265L367.573,489.535L367.402,489.806L367.232,490.078L367.063,490.349L366.894,490.622L366.726,490.895L366.56,491.169L366.393,491.443L366.228,491.717L366.064,491.992L365.9,492.268L365.737,492.544L365.575,492.821L365.414,493.099L365.254,493.376L365.094,493.655L364.935,493.934L364.777,494.213L364.62,494.493L364.464,494.773L364.309,495.054L364.154,495.336L364,495.618L363.847,495.9L363.695,496.183L363.544,496.467L363.393,496.751L363.244,497.035L363.095,497.32L362.947,497.606L362.8,497.892L362.653,498.178L362.508,498.465L362.363,498.753L362.22,499.041L362.077,499.329L361.935,499.618L361.793,499.908L361.653,500.198L361.514,500.488L361.375,500.779L361.237,501.07L361.1,501.362L360.964,501.655L360.829,501.947L360.695,502.241L360.561,502.535L360.429,502.829L360.297,503.124L360.166,503.419L360.036,503.714L359.907,504.011L359.779,504.307L359.651,504.604L359.525,504.902L359.399,505.2L359.275,505.498L359.151,505.797L359.028,506.097L358.906,506.396L358.785,506.697L358.664,506.997L358.545,507.298L358.426,507.6L358.309,507.902L358.192,508.205L358.076,508.507L357.962,508.811L357.848,509.115L357.734,509.419L357.622,509.724L357.511,510.029L357.401,510.334L357.291,510.64L357.183,510.947L357.075,511.253L356.968,511.561L356.863,511.868L356.758,512.177L356.654,512.485L356.551,512.794L356.448,513.103L356.347,513.413L356.247,513.723L356.148,514.034L356.049,514.345L355.952,514.656L355.855,514.968L355.76,515.28L355.665,515.593L355.571,515.906L355.478,516.22L355.387,516.534L355.296,516.848L355.206,517.162L355.117,517.478L355.028,517.793L354.941,518.109L354.855,518.425L354.77,518.742L354.686,519.059L354.602,519.376L354.52,519.694L354.439,520.012L354.358,520.331L354.279,520.649L354.2,520.969L354.122,521.289L354.046,521.609L353.97,521.929L353.896,522.25L353.822,522.571L353.749,522.893L353.677,523.215L353.607,523.537L353.537,523.86L353.468,524.183L353.4,524.506L353.333,524.83L353.267,525.154L353.203,525.478L353.139,525.803L353.076,526.128L353.014,526.454L352.953,526.78L352.893,527.106L352.834,527.433L352.776,527.76L352.719,528.087L352.663,528.414L352.608,528.743L352.554,529.071L352.501,529.4L352.45,529.729L352.399,530.058L352.349,530.388L352.3,530.718L352.252,531.048L352.205,531.379L352.159,531.71L352.114,532.041L352.071,532.373L352.028,532.705L351.986,533.037L351.945,533.37L351.906,533.703L351.867,534.036L351.829,534.37L351.793,534.703L351.757,535.038L351.722,535.372L351.689,535.707L351.657,536.042L351.625,536.378L351.595,536.714L351.565,537.05L351.537,537.386L351.51,537.723L351.484,538.06L351.458,538.397L351.434,538.735L351.411,539.073L351.389,539.411L351.368,539.75L351.348,540.089L351.33,540.428L351.312,540.767L351.295,541.107L351.279,541.447L351.265,541.787L351.251,542.128L351.239,542.469L351.228,542.81L351.217,543.151L351.208,543.493L351.2,543.835L351.193,544.177L351.187,544.52L351.182,544.862L351.178,545.206L351.175,545.549L351.174,545.893L351.173,546.237L351.174,546.58L351.175,546.924L351.178,547.268L351.182,547.611L351.187,547.953L351.193,548.296L351.2,548.638L351.208,548.98L351.217,549.322L351.228,549.663L351.239,550.005L351.251,550.345L351.265,550.686L351.279,551.026L351.295,551.366L351.312,551.706L351.33,552.045L351.348,552.385L351.368,552.723L351.389,553.062L351.411,553.4L351.434,553.738L351.458,554.076L351.484,554.413L351.51,554.75L351.537,555.087L351.565,555.423L351.595,555.759L351.625,556.095L351.657,556.431L351.689,556.766L351.722,557.101L351.757,557.435L351.793,557.77L351.829,558.104L351.867,558.437L351.906,558.77L351.945,559.103L351.986,559.436L352.028,559.768L352.071,560.1L352.114,560.432L352.159,560.763L352.205,561.094L352.252,561.425L352.3,561.756L352.349,562.085L352.399,562.415L352.45,562.745L352.501,563.074L352.554,563.402L352.608,563.731L352.663,564.059L352.719,564.386L352.776,564.713L352.834,565.04L352.893,565.367L352.953,565.693L353.014,566.019L353.076,566.345L353.139,566.67L353.203,566.995L353.267,567.319L353.333,567.643L353.4,567.967L353.468,568.291L353.537,568.614L353.607,568.936L353.677,569.258L353.749,569.58L353.822,569.902L353.896,570.223L353.97,570.544L354.046,570.865L354.122,571.184L354.2,571.504L354.279,571.824L354.358,572.142L354.439,572.461L354.52,572.779L354.602,573.097L354.686,573.414L354.77,573.731L354.855,574.048L354.941,574.364L355.028,574.68L355.117,574.996L355.206,575.311L355.296,575.625L355.387,575.94L355.478,576.253L355.571,576.567L355.665,576.88L355.76,577.193L355.855,577.505L355.952,577.817L356.049,578.128L356.148,578.439L356.247,578.75L356.347,579.06L356.448,579.37L356.551,579.679L356.654,579.988L356.758,580.297L356.862,580.605L356.968,580.912L357.075,581.22L357.183,581.526L357.291,581.833L357.401,582.139L357.511,582.444L357.622,582.75L357.734,583.054L357.848,583.358L357.962,583.662L358.076,583.966L358.192,584.269L358.309,584.571L358.426,584.873L358.545,585.175L358.664,585.476L358.785,585.777L358.906,586.077L359.028,586.377L359.151,586.676L359.275,586.975L359.399,587.273L359.525,587.571L359.651,587.869L359.779,588.166L359.907,588.462L360.036,588.759L360.166,589.054L360.297,589.349L360.429,589.644L360.561,589.938L360.695,590.232L360.829,590.526L360.964,590.818L361.1,591.111L361.237,591.403L361.375,591.694L361.514,591.985L361.653,592.275L361.793,592.565L361.935,592.855L362.077,593.144L362.22,593.432L362.363,593.72L362.508,594.008L362.653,594.295L362.8,594.581L362.947,594.867L363.095,595.153L363.244,595.438L363.393,595.722L363.544,596.006L363.695,596.29L363.847,596.573L364,596.855L364.154,597.137L364.309,597.419L364.464,597.7L364.62,597.98L364.777,598.26L364.935,598.54L365.094,598.818L365.254,599.097L365.414,599.375L365.575,599.652L365.737,599.929L365.9,600.205L366.064,600.481L366.228,600.756L366.393,601.03L366.56,601.305L366.726,601.578L366.894,601.851L367.063,602.124L367.232,602.396L367.402,602.667L367.573,602.938L367.744,603.208L367.917,603.478L368.09,603.747L368.264,604.016L368.439,604.284L368.615,604.551L368.791,604.819L368.968,605.085L369.146,605.351L369.325,605.616L369.504,605.881L369.685,606.145L369.866,606.409L370.047,606.672L370.23,606.934L370.413,607.196L370.597,607.457L370.782,607.718L370.968,607.978L371.154,608.238L371.342,608.497L371.53,608.755L371.718,609.013L371.908,609.27L372.098,609.527L372.289,609.783L372.481,610.039L372.673,610.294L372.866,610.548L373.06,610.802L373.255,611.055L373.45,611.307L373.647,611.559L373.844,611.81L374.041,612.061L374.24,612.311L374.439,612.561L374.639,612.81L374.839,613.058L375.041,613.306L375.243,613.553L375.445,613.799L375.649,614.045L375.853,614.29L376.058,614.535L376.264,614.778L376.47,615.022L376.677,615.265L376.885,615.507L377.094,615.748L377.303,615.989L377.513,616.229L377.724,616.469L377.935,616.707L378.147,616.946L378.36,617.183L378.573,617.42L378.787,617.657L379.002,617.892L379.218,618.127L379.434,618.362L379.651,618.596L379.869,618.829L380.087,619.061L380.306,619.293L380.526,619.524L380.746,619.755L380.967,619.984L381.189,620.213L381.412,620.442L381.635,620.67L381.859,620.897L382.083,621.124L382.308,621.349L382.534,621.574L382.761,621.799L382.988,622.023L383.216,622.246L383.444,622.468L383.673,622.69L383.903,622.911L384.134,623.132L384.365,623.351L384.596,623.57L384.829,623.789L385.062,624.006L385.296,624.223L385.53,624.44L385.765,624.655L386.001,624.87L386.237,625.084L386.474,625.298L386.712,625.511L386.95,625.723L387.189,625.934L387.429,626.145L387.669,626.355L387.909,626.564L388.151,626.772L388.393,626.98L388.636,627.187L388.879,627.394L389.123,627.599L389.368,627.804L389.613,628.009L389.858,628.212L390.105,628.415L390.352,628.617L390.6,628.818L390.848,629.019L391.097,629.219L391.346,629.418L391.596,629.616L391.847,629.814L392.099,630.011L392.35,630.207L392.603,630.403L392.856,630.597L393.11,630.791L393.364,630.984L393.619,631.177L393.874,631.369L394.13,631.56L394.387,631.75L394.644,631.939L394.902,632.128L395.161,632.316L395.42,632.503L395.679,632.69L395.939,632.875L396.2,633.06L396.462,633.244L396.723,633.428L396.986,633.61L397.249,633.792L397.512,633.973L397.777,634.153L398.042,634.333L398.307,634.512L398.573,634.689L398.839,634.867L399.106,635.043L399.374,635.219L399.642,635.393L399.91,635.567L400.18,635.741L400.449,635.913L400.72,636.085L400.991,636.256L401.262,636.426L401.534,636.595L401.807,636.764L402.079,636.931L402.353,637.098L402.627,637.264L402.902,637.429L403.177,637.594L403.453,637.757L403.729,637.92L404.006,638.082L404.283,638.243L404.561,638.404L404.839,638.563L405.118,638.722L405.397,638.88L405.677,639.037L405.958,639.194L406.239,639.349L406.52,639.504L406.802,639.658L407.085,639.81L407.367,639.963L407.651,640.114L407.935,640.264L408.22,640.414L408.505,640.563L408.79,640.711L409.076,640.858L409.363,641.004L409.65,641.15L409.937,641.294L410.225,641.438L410.514,641.581L410.803,641.723L411.092,641.864L411.382,642.004L411.673,642.144L411.963,642.283L412.255,642.42L412.547,642.558L412.839,642.693L413.132,642.829L413.425,642.963L413.719,643.096L414.013,643.229L414.308,643.361L414.604,643.492L414.899,643.622L415.195,643.751L415.492,643.879L415.789,644.006L416.086,644.133L416.384,644.258L416.683,644.383L416.982,644.507L417.281,644.63L417.581,644.752L417.881,644.873L418.182,644.993L418.483,645.113L418.784,645.231L419.086,645.349L419.389,645.465L419.692,645.581L419.995,645.696L420.299,645.81L420.603,645.923L420.908,646.035L421.213,646.146L421.519,646.257L421.825,646.366L422.131,646.475L422.438,646.583L422.745,646.689L423.053,646.795L423.361,646.9L423.67,647.004L423.978,647.107L424.288,647.209L424.598,647.31L424.908,647.411L425.219,647.51L425.53,647.608L425.841,647.706L426.152,647.802L426.465,647.898L426.778,647.993L427.091,648.087L427.404,648.179L427.718,648.271L428.032,648.362L428.347,648.452L428.662,648.541L428.977,648.629L429.293,648.716L429.609,648.802L429.926,648.888L430.243,648.972L430.561,649.055L430.878,649.138L431.197,649.219L431.515,649.299L431.834,649.379L432.153,649.458L432.473,649.535L432.793,649.612L433.113,649.687L433.435,649.762L433.756,649.836L434.077,649.908L434.399,649.98L434.721,650.051L435.044,650.121L435.367,650.19L435.691,650.257L436.014,650.324L436.338,650.39L436.663,650.455L436.988,650.519L437.313,650.582L437.639,650.644L437.964,650.705L438.291,650.765L438.617,650.824L438.944,650.881L439.271,650.938L439.599,650.994L439.927,651.049L440.255,651.103L440.584,651.156L440.913,651.208L441.242,651.259L441.572,651.309L441.902,651.358L442.233,651.406L442.563,651.452L442.894,651.498L443.226,651.543L443.557,651.587L443.889,651.63L444.221,651.671L444.554,651.712L444.887,651.752L445.22,651.791L445.554,651.828L445.888,651.865L446.222,651.901L446.557,651.935L446.892,651.969L447.227,652.001L447.562,652.033L447.898,652.063L448.234,652.092L448.571,652.121L448.908,652.148L449.244,652.174L449.582,652.199L449.919,652.223L450.258,652.246L450.596,652.268L450.934,652.289L451.273,652.309L451.612,652.328L451.952,652.346L452.291,652.363L452.631,652.378L452.972,652.393L453.312,652.406L453.653,652.419L453.994,652.43L454.336,652.44L454.677,652.45L455.019,652.458L455.362,652.465L455.704,652.471L456.047,652.476L456.39,652.479L456.733,652.482L457.077,652.484L457.421,652.484L457.765,652.484L458.109,652.482L458.452,652.479L458.795,652.476L459.138,652.471L459.48,652.465L459.823,652.458L460.165,652.45L460.506,652.44L460.848,652.43L461.189,652.419L461.53,652.406L461.87,652.393L462.211,652.378L462.551,652.363L462.89,652.346L463.23,652.328L463.569,652.309L463.908,652.289L464.246,652.268L464.584,652.246L464.923,652.223L465.26,652.199L465.598,652.174L465.934,652.148L466.271,652.121L466.608,652.092L466.944,652.063L467.28,652.033L467.615,652.001L467.95,651.969L468.285,651.935L468.62,651.901L468.954,651.865L469.288,651.828L469.622,651.791L469.955,651.752L470.288,651.712L470.621,651.671L470.953,651.63L471.285,651.587L471.616,651.543L471.948,651.498L472.279,651.452L472.609,651.406L472.94,651.358L473.27,651.309L473.6,651.259L473.929,651.208L474.258,651.156L474.587,651.103L474.915,651.049L475.243,650.994L475.571,650.938L475.898,650.881L476.225,650.824L476.551,650.765L476.878,650.705L477.204,650.644L477.529,650.582L477.854,650.519L478.179,650.455L478.504,650.39L478.828,650.324L479.152,650.257L479.475,650.19L479.798,650.121L480.121,650.051L480.443,649.98L480.765,649.908L481.086,649.836L481.407,649.762L481.729,649.687L482.049,649.612L482.369,649.535L482.689,649.458L483.008,649.379L483.327,649.299L483.646,649.219L483.964,649.138L484.281,649.055L484.599,648.972L484.916,648.888L485.233,648.802L485.549,648.716L485.865,648.629L486.18,648.541L486.495,648.452L486.81,648.362L487.124,648.271L487.438,648.179L487.751,648.087L488.064,647.993L488.377,647.898L488.69,647.802L489.001,647.706L489.313,647.608L489.623,647.51L489.934,647.411L490.245,647.31L490.555,647.209L490.864,647.107L491.172,647.004L491.481,646.9L491.789,646.795L492.097,646.689L492.404,646.583L492.711,646.475L493.017,646.366L493.323,646.257L493.629,646.146L493.934,646.035L494.239,645.923L494.543,645.81L494.847,645.696L495.15,645.581L495.453,645.465L495.756,645.349L496.058,645.231L496.359,645.113L496.66,644.993L496.961,644.873L497.261,644.752L497.561,644.63L497.861,644.507L498.16,644.383L498.458,644.258L498.756,644.133L499.053,644.006L499.35,643.879L499.647,643.751L499.943,643.622L500.239,643.492L500.534,643.361L500.829,643.229L501.123,643.096L501.417,642.963L501.71,642.829L502.003,642.693L502.295,642.558L502.587,642.42L502.879,642.283L503.169,642.144L503.46,642.004L503.75,641.864L504.039,641.723L504.329,641.581L504.617,641.438L504.905,641.294L505.192,641.15L505.479,641.004L505.766,640.858L506.052,640.711L506.337,640.563L506.622,640.414L506.907,640.264L507.191,640.114L507.475,639.963L507.758,639.81L508.04,639.658L508.322,639.504L508.603,639.349L508.884,639.194L509.165,639.037L509.445,638.88L509.724,638.722L510.003,638.563L510.281,638.404L510.559,638.243L510.836,638.082L511.113,637.92L511.389,637.757L511.665,637.594L511.94,637.429L512.215,637.264L512.489,637.098L512.763,636.931L513.036,636.764L513.308,636.595L513.58,636.426L513.851,636.256L514.122,636.085L514.393,635.913L514.662,635.741L514.932,635.567L515.2,635.393L515.468,635.219L515.736,635.043L516.003,634.867L516.269,634.69L516.535,634.512L516.801,634.333L517.065,634.153L517.33,633.973L517.593,633.792L517.856,633.61L518.119,633.428L518.381,633.244L518.642,633.06L518.903,632.875L519.163,632.69L519.422,632.503L519.681,632.316L519.94,632.128L520.198,631.939L520.455,631.75L520.712,631.559L520.968,631.369L521.223,631.177L521.478,630.984L521.732,630.791L521.986,630.597L522.239,630.403L522.492,630.207L522.744,630.011L522.995,629.814L523.246,629.616L523.496,629.418L523.745,629.219L523.994,629.019L524.242,628.818L524.49,628.617L524.737,628.415L524.984,628.212L525.229,628.009L525.474,627.804L525.719,627.599L525.963,627.394L526.206,627.187L526.449,626.98L526.691,626.772L526.933,626.564L527.173,626.355L527.413,626.145L527.653,625.934L527.892,625.723L528.13,625.511L528.368,625.298L528.605,625.084L528.841,624.87L529.077,624.655L529.312,624.44L529.546,624.223L529.78,624.006L530.013,623.789L530.246,623.57L530.477,623.351L530.708,623.132L530.939,622.911L531.169,622.69L531.398,622.468L531.626,622.246L531.854,622.023L532.082,621.799L532.308,621.574L532.534,621.349L532.759,621.124L532.984,620.897L533.207,620.67L533.43,620.442L533.653,620.214L533.875,619.984L534.096,619.755L534.316,619.524L534.536,619.293L534.755,619.061L534.973,618.829L535.191,618.596L535.408,618.362L535.624,618.127L535.84,617.892L536.055,617.657L536.269,617.42L536.482,617.183L536.695,616.946L536.907,616.707L537.119,616.469L537.329,616.229L537.539,615.989L537.748,615.748L537.957,615.507L538.165,615.265L538.372,615.022L538.578,614.779L538.784,614.535L538.989,614.29L539.193,614.045L539.397,613.799L539.599,613.553L539.801,613.306L540.003,613.058L540.203,612.81L540.403,612.561L540.602,612.311L540.801,612.061L540.999,611.81L541.195,611.559L541.392,611.307L541.587,611.055L541.782,610.802L541.976,610.548L542.169,610.294L542.361,610.039L542.553,609.783L542.744,609.527L542.934,609.27L543.124,609.013L543.312,608.755L543.5,608.497L543.688,608.238L543.874,607.978L544.06,607.718L544.245,607.457L544.429,607.196L544.612,606.934L544.795,606.672L544.976,606.409L545.158,606.145L545.338,605.881L545.517,605.616L545.696,605.351L545.874,605.085L546.051,604.819L546.227,604.552L546.403,604.284L546.578,604.016L546.752,603.747L546.925,603.478L547.098,603.208L547.269,602.938L547.44,602.667L547.61,602.396L547.779,602.124L547.948,601.851L548.116,601.578L548.282,601.305L548.449,601.031L548.614,600.756L548.778,600.481L548.942,600.205L549.105,599.929L549.267,599.652L549.428,599.375L549.588,599.097L549.748,598.818L549.907,598.54L550.065,598.26L550.222,597.98L550.378,597.7L550.533,597.419L550.688,597.138L550.842,596.856L550.995,596.573L551.147,596.29L551.298,596.006L551.449,595.722L551.599,595.438L551.747,595.153L551.895,594.867L552.042,594.581L552.189,594.295L552.334,594.008L552.479,593.72L552.623,593.432L552.765,593.144L552.907,592.855L553.049,592.565L553.189,592.276L553.329,591.985L553.467,591.694L553.605,591.403L553.742,591.111L553.878,590.818L554.013,590.526L554.147,590.232L554.281,589.938L554.413,589.644L554.545,589.349L554.676,589.054L554.806,588.759L554.935,588.462L555.063,588.166L555.191,587.869L555.317,587.571L555.443,587.273L555.567,586.975L555.691,586.676L555.814,586.377L555.936,586.077L556.057,585.777L556.178,585.476L556.297,585.175L556.416,584.873L556.533,584.571L556.65,584.269L556.766,583.966L556.88,583.662L556.995,583.358L557.108,583.054L557.22,582.75L557.331,582.445L557.441,582.139L557.551,581.833L557.659,581.527L557.767,581.22L557.874,580.912L557.98,580.605L558.084,580.297L558.188,579.988L558.291,579.679L558.394,579.37L558.495,579.06L558.595,578.75L558.694,578.439L558.793,578.128L558.89,577.817L558.987,577.505L559.083,577.192L559.177,576.88L559.271,576.567L559.364,576.253L559.456,575.94L559.546,575.625L559.636,575.311L559.725,574.996L559.814,574.68L559.901,574.364L559.987,574.048L560.072,573.731L560.156,573.414L560.24,573.097L560.322,572.779L560.404,572.461L560.484,572.143L560.564,571.823L560.642,571.504L560.72,571.185L560.796,570.864L560.872,570.544L560.946,570.223L561.02,569.902L561.093,569.58L561.165,569.258L561.235,568.936L561.305,568.614L561.374,568.291L561.442,567.967L561.509,567.643L561.575,567.319L561.639,566.995L561.703,566.67L561.766,566.345L561.828,566.019L561.889,565.693L561.949,565.367L562.008,565.04L562.066,564.714L562.123,564.386L562.179,564.058L562.234,563.731L562.288,563.402L562.341,563.073L562.393,562.744L562.443,562.415L562.493,562.086L562.542,561.756L562.59,561.425L562.637,561.094L562.683,560.763L562.728,560.432L562.771,560.1L562.814,559.768L562.856,559.436L562.897,559.103L562.936,558.77L562.975,558.437L563.013,558.104L563.049,557.77L563.085,557.435L563.12,557.101L563.153,556.766L563.186,556.431L563.217,556.095L563.247,555.759L563.277,555.423L563.305,555.087L563.332,554.75L563.359,554.413L563.384,554.076L563.408,553.738L563.431,553.4L563.453,553.062L563.474,552.723L563.494,552.385L563.513,552.045L563.53,551.706L563.547,551.366L563.563,551.026L563.577,550.686L563.591,550.345L563.603,550.005L563.615,549.663L563.625,549.322L563.634,548.98L563.642,548.638L563.649,548.296L563.655,547.953L563.66,547.61L563.664,547.268L563.667,546.924L563.668,546.58L563.669,546.237L563.668,545.893L563.667,545.549L563.664,545.205L563.66,544.863L563.655,544.52L563.649,544.177L563.642,543.835L563.634,543.493L563.625,543.151L563.615,542.81L563.603,542.469L563.591,542.128L563.577,541.787L563.563,541.447L563.547,541.107L563.53,540.767L563.513,540.428L563.494,540.089L563.474,539.75L563.453,539.411L563.431,539.073L563.408,538.735L563.384,538.397L563.359,538.06L563.332,537.723L563.305,537.386L563.277,537.05L563.247,536.714L563.217,536.378L563.186,536.043L563.153,535.707L563.12,535.372L563.085,535.038L563.049,534.703L563.013,534.37L562.975,534.036L562.936,533.703L562.897,533.37L562.856,533.037L562.814,532.705L562.771,532.373L562.728,532.041L562.683,531.71L562.637,531.379L562.59,531.048L562.542,530.718L562.493,530.388L562.443,530.058L562.393,529.729L562.341,529.4L562.288,529.071L562.234,528.742L562.179,528.415L562.123,528.087L562.066,527.76L562.008,527.433L561.949,527.106L561.889,526.78L561.828,526.454L561.766,526.128L561.703,525.803L561.639,525.478L561.575,525.154L561.509,524.83L561.442,524.506L561.374,524.183L561.305,523.859L561.235,523.537L561.165,523.215L561.093,522.893L561.02,522.571L560.946,522.25L560.872,521.929L560.796,521.609L560.72,521.288L560.642,520.969L560.564,520.65L560.484,520.33L560.404,520.012L560.322,519.694L560.24,519.376L560.156,519.059L560.072,518.742L559.987,518.425L559.901,518.109L559.814,517.793L559.725,517.477L559.636,517.162L559.546,516.848L559.456,516.533L559.364,516.22L559.271,515.906L559.177,515.593L559.082,515.281L558.987,514.968L558.89,514.656L558.793,514.345L558.694,514.034L558.595,513.723L558.495,513.413L558.394,513.103L558.291,512.794L558.188,512.485L558.084,512.177L557.98,511.868L557.874,511.561L557.767,511.253L557.659,510.946L557.551,510.64L557.441,510.334L557.331,510.029L557.22,509.723L557.108,509.419L556.995,509.115L556.881,508.811L556.766,508.508L556.65,508.205L556.533,507.902L556.416,507.6L556.297,507.298L556.178,506.997L556.057,506.697L555.936,506.396L555.814,506.097L555.691,505.797L555.567,505.498L555.443,505.2L555.317,504.902L555.191,504.604L555.063,504.307L554.935,504.011L554.806,503.714L554.676,503.419L554.545,503.124L554.413,502.829L554.281,502.535L554.148,502.241L554.013,501.947L553.878,501.655L553.742,501.362L553.605,501.07L553.467,500.779L553.329,500.488L553.189,500.198L553.049,499.908L552.908,499.618L552.765,499.329L552.623,499.041L552.479,498.753L552.334,498.465L552.189,498.178L552.042,497.892L551.895,497.606L551.747,497.32L551.599,497.035L551.449,496.751L551.298,496.467L551.147,496.183L550.995,495.9L550.842,495.618L550.688,495.336L550.533,495.054L550.378,494.773L550.222,494.493L550.065,494.213L549.907,493.933L549.748,493.655L549.588,493.376L549.428,493.099L549.267,492.821L549.105,492.544L548.942,492.268L548.778,491.993L548.614,491.717L548.449,491.443L548.282,491.168L548.116,490.895L547.948,490.622L547.779,490.349L547.61,490.077L547.44,489.806L547.269,489.535L547.098,489.265L546.925,488.995L546.752,488.726L546.578,488.457L546.403,488.189L546.227,487.922L546.051,487.655L545.874,487.388L545.696,487.122L545.517,486.857L545.338,486.592L545.158,486.328L544.976,486.064L544.795,485.801L544.612,485.539L544.429,485.277L544.245,485.016L544.06,484.755L543.874,484.495L543.688,484.235L543.5,483.976L543.312,483.718L543.124,483.46L542.934,483.203L542.744,482.946L542.553,482.69L542.361,482.434L542.169,482.179L541.976,481.925L541.782,481.672L541.587,481.418L541.392,481.166L541.195,480.914L540.999,480.663L540.801,480.412L540.602,480.162L540.403,479.912L540.203,479.664L540.003,479.415L539.801,479.168L539.599,478.92L539.397,478.674L539.193,478.428L538.989,478.183L538.784,477.939L538.578,477.694L538.372,477.451L538.165,477.209L537.957,476.967L537.748,476.725L537.539,476.484L537.329,476.244L537.119,476.005L536.907,475.766L536.695,475.527L536.482,475.29L536.269,475.053L536.055,474.817L535.84,474.581L535.624,474.346L535.408,474.111L535.191,473.878L534.973,473.644L534.755,473.412L534.536,473.18L534.316,472.949L534.096,472.718L533.875,472.489L533.653,472.26L533.43,472.031L533.207,471.803L532.983,471.576L532.759,471.35L532.534,471.124L532.308,470.899L532.081,470.674L531.854,470.45L531.626,470.227L531.398,470.005L531.169,469.783L530.939,469.562L530.708,469.341L530.477,469.122L530.246,468.903L530.013,468.684L529.78,468.467L529.546,468.25L529.312,468.033L529.077,467.818L528.841,467.603L528.605,467.389L528.368,467.175L528.13,466.963L527.892,466.751L527.653,466.539L527.413,466.328L527.173,466.118L526.932,465.909L526.691,465.701L526.449,465.493L526.206,465.286L525.963,465.079L525.719,464.874L525.474,464.669L525.229,464.465L524.983,464.261L524.737,464.058L524.49,463.856L524.242,463.655L523.994,463.454L523.745,463.254L523.496,463.055L523.246,462.857L522.995,462.659L522.744,462.462L522.492,462.266L522.239,462.07L521.986,461.876L521.732,461.682L521.478,461.489L521.223,461.296L520.968,461.104L520.712,460.914L520.455,460.723L520.198,460.534L519.94,460.345L519.681,460.157L519.422,459.97L519.163,459.784L518.903,459.598L518.642,459.413L518.381,459.229L518.119,459.046L517.856,458.863L517.593,458.681L517.33,458.5L517.065,458.32L516.801,458.14L516.535,457.962L516.269,457.784L516.003,457.606L515.736,457.43L515.468,457.254L515.2,457.08L514.932,456.906L514.662,456.732L514.393,456.56L514.122,456.388L513.852,456.217L513.58,456.047L513.308,455.878L513.036,455.71L512.763,455.542L512.489,455.375L512.215,455.209L511.94,455.044L511.665,454.879L511.389,454.716L511.113,454.553L510.836,454.391L510.559,454.23L510.281,454.069L510.003,453.91L509.724,453.751L509.445,453.593L509.165,453.436L508.884,453.28L508.603,453.124L508.322,452.969L508.04,452.816L507.757,452.663L507.475,452.511L507.191,452.359L506.907,452.209L506.622,452.059L506.337,451.91L506.052,451.762L505.766,451.615L505.479,451.469L505.192,451.323L504.905,451.179L504.617,451.035L504.328,450.892L504.039,450.75L503.75,450.609L503.46,450.469L503.169,450.329L502.879,450.19L502.587,450.053L502.295,449.916L502.003,449.78L501.71,449.644L501.417,449.51L501.123,449.377L500.829,449.244L500.534,449.112L500.239,448.982L499.943,448.852L499.647,448.722L499.35,448.594L499.053,448.467L498.756,448.34L498.458,448.215L498.159,448.09L497.861,447.966L497.561,447.843L497.261,447.721L496.961,447.6L496.66,447.48L496.359,447.36L496.058,447.242L495.756,447.124L495.453,447.008L495.15,446.892L494.847,446.777L494.543,446.663L494.239,446.55L493.934,446.438L493.629,446.327L493.323,446.216L493.017,446.107L492.711,445.998L492.404,445.89L492.097,445.784L491.789,445.678L491.481,445.573L491.172,445.469L490.864,445.366L490.554,445.264L490.245,445.163L489.934,445.063L489.624,444.963L489.313,444.865L489.001,444.767L488.689,444.671L488.377,444.575L488.064,444.48L487.751,444.387L487.438,444.294L487.124,444.202L486.81,444.111L486.495,444.021L486.18,443.932L485.865,443.844L485.549,443.757L485.233,443.671L484.916,443.585L484.599,443.501L484.282,443.418L483.964,443.335L483.646,443.254L483.327,443.174L483.008,443.094L482.689,443.016L482.369,442.938L482.049,442.861L481.729,442.786L481.408,442.711L481.086,442.637L480.765,442.565L480.443,442.493L480.121,442.422L479.798,442.352L479.475,442.284L479.152,442.216L478.828,442.149L478.504,442.083L478.179,442.018L477.854,441.954L477.529,441.891L477.204,441.829L476.878,441.768L476.551,441.709L476.225,441.65L475.898,441.592L475.571,441.535L475.243,441.479L474.915,441.424L474.587,441.37L474.258,441.317L473.929,441.265L473.6,441.214L473.27,441.164L472.94,441.115L472.61,441.067L472.279,441.021L471.948,440.975L471.617,440.93L471.285,440.886L470.953,440.843L470.621,440.802L470.288,440.761L469.955,440.721L469.622,440.682L469.288,440.645L468.954,440.608L468.62,440.573L468.285,440.538L467.95,440.504L467.615,440.472L467.28,440.441L466.944,440.41L466.608,440.381L466.271,440.353L465.935,440.325L465.598,440.299L465.26,440.274L464.923,440.25L464.585,440.227L464.246,440.205L463.908,440.184L463.569,440.164L463.23,440.145L462.89,440.127L462.551,440.111L462.211,440.095L461.87,440.08L461.53,440.067L461.189,440.054L460.848,440.043L460.506,440.033L460.165,440.024L459.823,440.015L459.48,440.008L459.138,440.002L458.795,439.997L458.452,439.994L458.109,439.991L457.765,439.989L457.421,439.989L457.077,439.989Z" style="fill:white;"/>
            </g>
        </g>
    </g>
</svg>
