<?xml version="1.0" encoding="UTF-8" standalone="no"?>
<!DOCTYPE svg PUBLIC "-//W3C//DTD SVG 1.1//EN" "http://www.w3.org/Graphics/SVG/1.1/DTD/svg11.dtd">
<svg width="100%" height="100%" viewBox="0 0 400 400" version="1.1" xmlns="http://www.w3.org/2000/svg" xmlns:xlink="http://www.w3.org/1999/xlink" xml:space="preserve" xmlns:serif="http://www.serif.com/" style="fill-rule:evenodd;clip-rule:evenodd;stroke-linejoin:round;stroke-miterlimit:1.41421;">
    <g transform="matrix(1,0,0,1,-50,-154)">
        <g transform="matrix(4.16667,0,0,4.16667,0,0)">
            <g transform="matrix(1,0,0,1,-1789.2,-373.793)">
                <g id="TrackpadDownLeft">
                    <path d="M1879.29,428.706C1862.68,412.1 1835.72,412.1 1819.11,428.706C1802.51,445.311 1802.51,472.275 1819.11,488.88C1835.72,505.486 1862.68,505.486 1879.29,488.88C1895.89,472.275 1895.89,445.311 1879.29,428.706ZM1835.69,470.826L1827.16,479.356L1827.16,473.062C1827.16,472.48 1826.69,472.008 1826.11,472.008C1825.53,472.009 1825.06,472.481 1825.06,473.063L1825.05,481.853C1825.05,482.151 1825.18,482.419 1825.38,482.611L1825.38,482.612C1825.57,482.812 1825.84,482.937 1826.14,482.937L1834.93,482.934C1835.51,482.934 1835.98,482.462 1835.98,481.879C1835.98,481.297 1835.51,480.825 1834.93,480.826L1828.63,480.828L1837.16,472.298C1837.57,471.892 1837.57,471.233 1837.16,470.826C1836.76,470.419 1836.1,470.42 1835.69,470.826Z" style="fill:white;"/>
                </g>
            </g>
        </g>
    </g>
</svg>
