<?xml version="1.0" encoding="UTF-8" standalone="no"?>
<!DOCTYPE svg PUBLIC "-//W3C//DTD SVG 1.1//EN" "http://www.w3.org/Graphics/SVG/1.1/DTD/svg11.dtd">
<svg width="100%" height="100%" viewBox="0 0 400 400" version="1.1" xmlns="http://www.w3.org/2000/svg" xmlns:xlink="http://www.w3.org/1999/xlink" xml:space="preserve" xmlns:serif="http://www.serif.com/" style="fill-rule:evenodd;clip-rule:evenodd;stroke-linejoin:round;stroke-miterlimit:1.41421;">
    <g transform="matrix(1,0,0,1,-50,-154)">
        <g transform="matrix(4.16667,0,0,4.16667,0,0)">
            <g id="TrackpadArrows" transform="matrix(1,0,0,1,-1260.96,-475.731)">
                <path d="M1320.96,518.181C1344.44,518.181 1363.51,537.247 1363.51,560.731C1363.51,584.215 1344.44,603.281 1320.96,603.281C1297.48,603.281 1278.41,584.215 1278.41,560.731C1278.41,537.247 1297.48,518.181 1320.96,518.181ZM1327.96,581.592L1313.96,581.592C1313.63,581.592 1313.35,581.756 1313.19,582.043C1313.02,582.33 1313.03,582.655 1313.19,582.941L1320.19,594.954C1320.36,595.237 1320.63,595.397 1320.96,595.397C1321.28,595.397 1321.56,595.237 1321.73,594.954L1328.73,582.941C1328.89,582.655 1328.89,582.33 1328.73,582.043C1328.57,581.756 1328.29,581.592 1327.96,581.592ZM1300.06,553.845C1300.06,553.516 1299.89,553.236 1299.61,553.074C1299.32,552.912 1298.99,552.915 1298.71,553.083L1286.73,560.145C1286.45,560.312 1286.29,560.591 1286.29,560.917C1286.29,561.242 1286.46,561.52 1286.74,561.683L1298.79,568.617C1299.08,568.781 1299.4,568.781 1299.69,568.616C1299.98,568.451 1300.14,568.17 1300.13,567.841L1300.06,553.845ZM1341.78,553.621C1341.78,553.292 1341.94,553.011 1342.23,552.846C1342.52,552.68 1342.84,552.68 1343.13,552.845L1355.18,559.779C1355.46,559.942 1355.62,560.219 1355.62,560.545C1355.63,560.871 1355.47,561.15 1355.19,561.316L1343.21,568.379C1342.92,568.546 1342.6,568.55 1342.31,568.388C1342.02,568.226 1341.86,567.946 1341.86,567.617L1341.78,553.621ZM1327.96,539.87C1328.29,539.87 1328.57,539.706 1328.73,539.419C1328.89,539.132 1328.89,538.806 1328.73,538.521L1321.73,526.507C1321.56,526.224 1321.28,526.064 1320.96,526.064C1320.63,526.064 1320.36,526.224 1320.19,526.507L1313.19,538.521C1313.03,538.806 1313.02,539.132 1313.19,539.419C1313.35,539.706 1313.63,539.87 1313.96,539.87L1327.96,539.87Z" style="fill:white;"/>
            </g>
        </g>
    </g>
</svg>
