<?xml version="1.0" encoding="UTF-8" standalone="no"?>
<!DOCTYPE svg PUBLIC "-//W3C//DTD SVG 1.1//EN" "http://www.w3.org/Graphics/SVG/1.1/DTD/svg11.dtd">
<svg width="100%" height="100%" viewBox="0 0 400 400" version="1.1" xmlns="http://www.w3.org/2000/svg" xmlns:xlink="http://www.w3.org/1999/xlink" xml:space="preserve" xmlns:serif="http://www.serif.com/" style="fill-rule:evenodd;clip-rule:evenodd;stroke-linejoin:round;stroke-miterlimit:1.41421;">
    <g transform="matrix(1,0,0,1,-50,-154)">
        <g transform="matrix(4.16667,0,0,4.16667,0,0)">
            <g transform="matrix(1,0,0,1,-1681.08,-373.793)">
                <g id="TrackpadArrowUpLeft">
                    <path d="M1711,428.706C1694.39,445.311 1694.39,472.275 1711,488.88C1727.6,505.486 1754.57,505.486 1771.17,488.88C1787.78,472.275 1787.78,445.311 1771.17,428.706C1754.57,412.1 1727.6,412.1 1711,428.706ZM1729.05,445.287L1720.52,436.758L1726.82,436.761C1727.4,436.761 1727.87,436.289 1727.87,435.707C1727.87,435.124 1727.4,434.653 1726.82,434.652L1718.03,434.649C1717.73,434.649 1717.46,434.774 1717.27,434.974L1717.27,434.975C1717.07,435.167 1716.94,435.435 1716.94,435.734L1716.94,444.523C1716.94,445.106 1717.42,445.578 1718,445.578C1718.58,445.578 1719.05,445.106 1719.05,444.524L1719.05,438.23L1727.58,446.759C1727.99,447.166 1728.64,447.166 1729.05,446.76C1729.46,446.353 1729.46,445.694 1729.05,445.287Z" style="fill:white;"/>
                </g>
            </g>
        </g>
    </g>
</svg>
