<?xml version="1.0" encoding="UTF-8" standalone="no"?>
<!DOCTYPE svg PUBLIC "-//W3C//DTD SVG 1.1//EN" "http://www.w3.org/Graphics/SVG/1.1/DTD/svg11.dtd">
<svg width="100%" height="100%" viewBox="0 0 400 400" version="1.1" xmlns="http://www.w3.org/2000/svg" xmlns:xlink="http://www.w3.org/1999/xlink" xml:space="preserve" xmlns:serif="http://www.serif.com/" style="fill-rule:evenodd;clip-rule:evenodd;stroke-linejoin:round;stroke-miterlimit:1.41421;">
    <g transform="matrix(1,0,0,1,-50,-154)">
        <g transform="matrix(4.16667,0,0,4.16667,0,0)">
            <g transform="matrix(1,0,0,1,-2113.55,-269.766)">
                <g id="TrackpadArrowDownLeftUpRight">
                    <path d="M2173.55,312.216C2197.03,312.216 2216.1,331.282 2216.1,354.766C2216.1,378.25 2197.03,397.316 2173.55,397.316C2150.06,397.316 2131,378.25 2131,354.766C2131,331.282 2150.06,312.216 2173.55,312.216ZM2161.51,368.272L2152.99,376.801L2159.28,376.799C2159.86,376.798 2160.33,377.27 2160.33,377.853C2160.33,378.435 2159.86,378.907 2159.28,378.907L2150.49,378.91C2150.19,378.91 2149.92,378.785 2149.73,378.585L2149.73,378.584C2149.53,378.392 2149.4,378.124 2149.4,377.826L2149.41,369.036C2149.41,368.454 2149.88,367.982 2150.46,367.981C2151.04,367.981 2151.52,368.453 2151.52,369.035L2151.51,375.329L2160.04,366.8C2160.45,366.393 2161.11,366.393 2161.51,366.799C2161.92,367.206 2161.92,367.865 2161.51,368.272ZM2185.58,341.26L2194.11,332.731L2187.82,332.734C2187.24,332.734 2186.76,332.262 2186.76,331.68C2186.76,331.097 2187.24,330.626 2187.82,330.625L2196.61,330.622C2196.91,330.622 2197.18,330.747 2197.37,330.947L2197.37,330.948C2197.57,331.14 2197.69,331.408 2197.69,331.707L2197.69,340.496C2197.69,341.079 2197.22,341.551 2196.64,341.551C2196.05,341.551 2195.58,341.079 2195.58,340.497L2195.58,334.203L2187.05,342.732C2186.65,343.139 2185.99,343.139 2185.58,342.733C2185.18,342.326 2185.18,341.667 2185.58,341.26Z" style="fill:white;"/>
                </g>
            </g>
        </g>
    </g>
</svg>
