<?xml version="1.0" encoding="UTF-8" standalone="no"?>
<!DOCTYPE svg PUBLIC "-//W3C//DTD SVG 1.1//EN" "http://www.w3.org/Graphics/SVG/1.1/DTD/svg11.dtd">
<svg width="100%" height="100%" viewBox="0 0 400 400" version="1.1" xmlns="http://www.w3.org/2000/svg" xmlns:xlink="http://www.w3.org/1999/xlink" xml:space="preserve" xmlns:serif="http://www.serif.com/" style="fill-rule:evenodd;clip-rule:evenodd;stroke-linejoin:round;stroke-miterlimit:1.41421;">
    <g transform="matrix(1,0,0,1,-50,-154)">
        <g transform="matrix(4.16667,0,0,4.16667,0,0)">
            <g transform="matrix(1,0,0,1,-1464.83,-373.793)">
                <g id="TrackpadArrowUpLeftDownRight">
                    <path d="M1524.83,416.243C1501.35,416.243 1482.28,435.309 1482.28,458.793C1482.28,482.277 1501.35,501.343 1524.83,501.343C1548.32,501.343 1567.38,482.277 1567.38,458.793C1567.38,435.309 1548.32,416.243 1524.83,416.243ZM1536.87,472.298L1545.39,480.828L1539.1,480.826C1538.52,480.825 1538.05,481.297 1538.05,481.879C1538.05,482.462 1538.52,482.934 1539.1,482.934L1547.89,482.937C1548.19,482.937 1548.46,482.812 1548.65,482.612L1548.65,482.611C1548.85,482.419 1548.98,482.151 1548.98,481.852L1548.97,473.063C1548.97,472.481 1548.5,472.009 1547.92,472.008C1547.34,472.008 1546.86,472.48 1546.86,473.062L1546.87,479.356L1538.34,470.826C1537.93,470.42 1537.27,470.419 1536.87,470.826C1536.46,471.233 1536.46,471.892 1536.87,472.298ZM1512.8,445.287L1504.27,436.758L1510.56,436.761C1511.14,436.761 1511.62,436.289 1511.62,435.707C1511.62,435.124 1511.14,434.653 1510.56,434.652L1501.77,434.649C1501.47,434.649 1501.2,434.774 1501.01,434.974L1501.01,434.975C1500.81,435.167 1500.69,435.435 1500.69,435.734L1500.69,444.523C1500.69,445.106 1501.16,445.578 1501.75,445.578C1502.33,445.578 1502.8,445.106 1502.8,444.524L1502.8,438.23L1511.33,446.759C1511.73,447.166 1512.39,447.166 1512.8,446.76C1513.2,446.353 1513.2,445.694 1512.8,445.287Z" style="fill:white;"/>
                </g>
            </g>
        </g>
    </g>
</svg>
