<?xml version="1.0" encoding="UTF-8" standalone="no"?>
<!DOCTYPE svg PUBLIC "-//W3C//DTD SVG 1.1//EN" "http://www.w3.org/Graphics/SVG/1.1/DTD/svg11.dtd">
<svg width="100%" height="100%" viewBox="0 0 400 400" version="1.1" xmlns="http://www.w3.org/2000/svg" xmlns:xlink="http://www.w3.org/1999/xlink" xml:space="preserve" xmlns:serif="http://www.serif.com/" style="fill-rule:evenodd;clip-rule:evenodd;stroke-linejoin:round;stroke-miterlimit:1.41421;">
    <g transform="matrix(1,0,0,1,-50,-154)">
        <g transform="matrix(4.16667,0,0,4.16667,0,0)">
            <g transform="matrix(1,0,0,1,-1897.31,-373.793)">
                <g id="TrackpadDownRight">
                    <path d="M1927.22,428.706C1910.62,445.311 1910.62,472.275 1927.22,488.88C1943.83,505.486 1970.79,505.486 1987.4,488.88C2004,472.275 2004,445.311 1987.4,428.706C1970.79,412.1 1943.83,412.1 1927.22,428.706ZM1969.35,472.298L1977.87,480.828L1971.58,480.826C1971,480.825 1970.53,481.297 1970.53,481.879C1970.53,482.462 1971,482.934 1971.58,482.934L1980.37,482.937C1980.67,482.937 1980.94,482.812 1981.13,482.612L1981.13,482.611C1981.33,482.419 1981.46,482.151 1981.46,481.852L1981.45,473.063C1981.45,472.481 1980.98,472.009 1980.4,472.008C1979.82,472.008 1979.34,472.48 1979.34,473.062L1979.35,479.356L1970.82,470.826C1970.41,470.42 1969.75,470.419 1969.34,470.826C1968.94,471.233 1968.94,471.892 1969.35,472.298Z" style="fill:white;"/>
                </g>
            </g>
        </g>
    </g>
</svg>
