<?xml version="1.0" encoding="UTF-8" standalone="no"?>
<!DOCTYPE svg PUBLIC "-//W3C//DTD SVG 1.1//EN" "http://www.w3.org/Graphics/SVG/1.1/DTD/svg11.dtd">
<svg width="100%" height="100%" viewBox="0 0 400 400" version="1.1" xmlns="http://www.w3.org/2000/svg" xmlns:xlink="http://www.w3.org/1999/xlink" xml:space="preserve" xmlns:serif="http://www.serif.com/" style="fill-rule:evenodd;clip-rule:evenodd;stroke-linejoin:round;stroke-miterlimit:1.41421;">
    <g transform="matrix(1,0,0,1,-50,-154)">
        <g transform="matrix(4.16667,0,0,4.16667,0,0)">
            <g id="TrackpadColorPoints" transform="matrix(1,0,0,1,-679.858,-299.855)">
                <g transform="matrix(0.374562,0,0,0.374562,568.526,180.255)">
                    <circle cx="457.421" cy="546.237" r="113.599" style="fill:white;"/>
                </g>
                <g transform="matrix(1,0,0,1,-0.691265,-0.163498)">
                    <g transform="matrix(1,0,0,1,0.0796617,0)">
                        <g transform="matrix(1,0,0,1,-420.883,-49.4713)">
                            <g>
                                <circle cx="1161.35" cy="409.81" r="9.641" style="fill:rgb(253,192,86);"/>
                            </g>
                        </g>
                        <g transform="matrix(1,0,0,1,-420.883,-49.4713)">
                            <g>
                                <circle cx="1161.35" cy="459.169" r="9.641" style="fill:rgb(24,145,220);"/>
                            </g>
                        </g>
                    </g>
                    <g transform="matrix(1,0,0,1,0,1.00263)">
                        <g transform="matrix(1,0,0,1,-420.803,-50.4739)">
                            <g>
                                <circle cx="1136.84" cy="434.489" r="9.641" style="fill:rgb(3,189,91);"/>
                            </g>
                        </g>
                        <g transform="matrix(1,0,0,1,-420.803,-50.4739)">
                            <g>
                                <circle cx="1185.86" cy="434.489" r="9.641" style="fill:rgb(223,72,87);"/>
                            </g>
                        </g>
                    </g>
                </g>
            </g>
        </g>
    </g>
</svg>
