<?xml version="1.0" encoding="UTF-8" standalone="no"?>
<!DOCTYPE svg PUBLIC "-//W3C//DTD SVG 1.1//EN" "http://www.w3.org/Graphics/SVG/1.1/DTD/svg11.dtd">
<svg width="100%" height="100%" viewBox="0 0 400 400" version="1.1" xmlns="http://www.w3.org/2000/svg" xmlns:xlink="http://www.w3.org/1999/xlink" xml:space="preserve" xmlns:serif="http://www.serif.com/" style="fill-rule:evenodd;clip-rule:evenodd;stroke-linejoin:round;stroke-miterlimit:1.41421;">
    <g transform="matrix(1,0,0,1,-50,-154)">
        <g transform="matrix(4.16667,0,0,4.16667,0,0)">
            <g transform="matrix(1,0,0,1,-1897.31,-165.74)">
                <g id="TrackpadArrowSimpleDownLeft">
                    <path id="Trackpad" d="M1957.31,208.19C1980.79,208.19 1999.86,227.256 1999.86,250.74C1999.86,274.224 1980.79,293.29 1957.31,293.29C1933.83,293.29 1914.76,274.224 1914.76,250.74C1914.76,227.256 1933.83,208.19 1957.31,208.19ZM1943.8,273.087L1934.96,273.09L1934.96,264.248C1934.96,263.585 1934.42,263.048 1933.76,263.049C1933.1,263.049 1932.56,263.586 1932.56,264.25L1932.56,274.256C1932.56,274.596 1932.7,274.902 1932.93,275.12C1933.15,275.348 1933.45,275.491 1933.79,275.491L1943.8,275.488C1944.46,275.487 1945,274.95 1945,274.287C1945,273.624 1944.46,273.087 1943.8,273.087Z" style="fill:white;"/>
                </g>
            </g>
        </g>
    </g>
</svg>
