<?xml version="1.0" encoding="UTF-8" standalone="no"?>
<!DOCTYPE svg PUBLIC "-//W3C//DTD SVG 1.1//EN" "http://www.w3.org/Graphics/SVG/1.1/DTD/svg11.dtd">
<svg width="100%" height="100%" viewBox="0 0 400 400" version="1.1" xmlns="http://www.w3.org/2000/svg" xmlns:xlink="http://www.w3.org/1999/xlink" xml:space="preserve" xmlns:serif="http://www.serif.com/" style="fill-rule:evenodd;clip-rule:evenodd;stroke-linejoin:round;stroke-miterlimit:1.41421;">
    <g transform="matrix(1,0,0,1,-50,-154)">
        <g transform="matrix(4.16667,0,0,4.16667,0,0)">
            <g transform="matrix(1,0,0,1,-2113.55,-165.74)">
                <g id="TrackpadArrowUpDownLeftRight">
                    <path d="M2173.55,208.19C2197.03,208.19 2216.1,227.256 2216.1,250.74C2216.1,274.224 2197.03,293.29 2173.55,293.29C2150.06,293.29 2131,274.224 2131,250.74C2131,227.256 2150.06,208.19 2173.55,208.19ZM2173.55,284.424C2173.83,284.43 2174.1,284.329 2174.32,284.118L2180.53,277.9C2180.94,277.489 2180.94,276.821 2180.53,276.409C2180.12,275.997 2179.45,275.997 2179.04,276.409L2174.59,280.861L2174.59,268.799C2174.59,268.223 2174.12,267.757 2173.55,267.757C2172.97,267.757 2172.51,268.223 2172.51,268.799L2172.51,280.861L2168.06,276.409C2167.65,275.997 2166.98,275.997 2166.57,276.409C2166.16,276.821 2166.16,277.489 2166.57,277.9L2172.78,284.118C2172.99,284.329 2173.27,284.43 2173.55,284.424L2173.55,284.424ZM2143.18,249.699L2147.63,245.25C2148.04,244.839 2148.04,244.171 2147.63,243.76C2147.22,243.348 2146.55,243.348 2146.14,243.76L2139.92,249.972C2139.71,250.183 2139.61,250.462 2139.61,250.739C2139.61,250.739 2139.61,250.739 2139.61,250.74C2139.61,250.74 2139.61,250.74 2139.61,250.741C2139.61,251.017 2139.71,251.295 2139.92,251.507L2146.14,257.719C2146.55,258.131 2147.22,258.131 2147.63,257.719C2148.04,257.308 2148.04,256.641 2147.63,256.229L2143.18,251.781L2155.24,251.781C2155.81,251.781 2156.28,251.314 2156.28,250.74C2156.28,250.165 2155.81,249.699 2155.24,249.699L2143.18,249.699ZM2203.92,251.781L2199.47,256.229C2199.06,256.641 2199.06,257.308 2199.47,257.719C2199.88,258.131 2200.55,258.131 2200.96,257.72L2207.18,251.507C2207.39,251.295 2207.49,251.017 2207.49,250.741C2207.49,250.74 2207.49,250.74 2207.49,250.739C2207.49,250.739 2207.49,250.739 2207.49,250.738C2207.49,250.462 2207.39,250.184 2207.18,249.972L2200.96,243.76C2200.55,243.348 2199.88,243.348 2199.47,243.76C2199.06,244.171 2199.06,244.839 2199.47,245.25L2203.92,249.698L2191.86,249.698C2191.28,249.699 2190.82,250.165 2190.82,250.739C2190.82,251.314 2191.28,251.781 2191.86,251.781L2203.92,251.781ZM2172.51,232.681L2172.51,220.619L2168.06,225.071C2167.65,225.483 2166.98,225.483 2166.57,225.071C2166.16,224.659 2166.16,223.991 2166.57,223.58L2172.78,217.362C2172.99,217.151 2173.27,217.049 2173.55,217.055L2173.55,217.055C2173.83,217.049 2174.1,217.151 2174.32,217.362L2180.53,223.58C2180.94,223.991 2180.94,224.659 2180.53,225.071C2180.12,225.483 2179.45,225.483 2179.04,225.071L2174.59,220.619L2174.59,232.681C2174.59,233.256 2174.12,233.722 2173.55,233.722C2172.97,233.722 2172.51,233.256 2172.51,232.681Z" style="fill:white;"/>
                </g>
            </g>
        </g>
    </g>
</svg>
