<?xml version="1.0" encoding="UTF-8" standalone="no"?>
<!DOCTYPE svg PUBLIC "-//W3C//DTD SVG 1.1//EN" "http://www.w3.org/Graphics/SVG/1.1/DTD/svg11.dtd">
<svg width="100%" height="100%" viewBox="0 0 400 400" version="1.1" xmlns="http://www.w3.org/2000/svg" xmlns:xlink="http://www.w3.org/1999/xlink" xml:space="preserve" xmlns:serif="http://www.serif.com/" style="fill-rule:evenodd;clip-rule:evenodd;stroke-linejoin:round;stroke-miterlimit:1.41421;">
    <g transform="matrix(1,0,0,1,-50,-154)">
        <g transform="matrix(4.16667,0,0,4.16667,0,0)">
            <g id="Trigger" transform="matrix(0.754716,0,0,0.754716,-721.995,-66.8701)">
                <circle cx="1036.14" cy="201.228" r="54.299" style="fill:white;"/>
                <clipPath id="_clip1">
                    <circle cx="1036.14" cy="201.228" r="54.299"/>
                </clipPath>
                <g clip-path="url(#_clip1)">
                    <g transform="matrix(1.08614,0,0,1.08614,-336.019,-98.2344)">
                        <path d="M1181.19,221.132C1180.33,218.99 1179.4,217.172 1178.39,215.73L1192.99,125.048L1353.33,36.519L1403.09,60.022C1401.96,66.109 1384.09,104.085 1379.49,111.489C1375.8,117.452 1340.94,134.896 1340.94,134.896C1340.94,134.896 1349.87,148.841 1339.87,157.476C1328.88,166.971 1301.96,182.047 1301.96,182.047C1301.96,182.047 1294.57,187.703 1286.06,182.916C1277.56,178.129 1274.35,172.072 1274.35,172.072C1243.09,191.854 1236.16,213.885 1250.68,241.956C1250.64,245.596 1250.64,249.163 1250.68,252.63C1251.94,252.875 1256.95,254.048 1260.1,257.604C1266.89,265.275 1279.05,276.172 1289.79,280.73C1295.02,282.948 1298.12,287.791 1291.76,289.269C1285.4,290.748 1268.73,288.151 1264.67,289.357C1256.58,291.758 1256.58,297.242 1256.58,297.242L1262.09,310.866C1261.02,410.489 1254.58,523.482 1234.28,591.117C1226.66,592.344 1220.72,596.373 1214.83,600.484L1205.93,596.938L1205.95,596.908C1188.44,589.634 1188.27,566.927 1188.27,566.927L1177.82,360.326C1183.7,347.707 1185.91,332.853 1185.91,332.853L1178.2,223.101L1181.19,221.132Z" style="fill:rgb(166,166,166);"/>
                    </g>
                    <g transform="matrix(0.479782,0,0,0.479782,434.983,-59.4065)">
                        <path d="M1237.68,591.972C1220.53,546.076 1224.8,491.017 1224.8,491.017C1224.8,491.017 1237.46,492.984 1245.66,502.24C1261.04,519.605 1288.56,544.274 1312.87,554.593C1324.7,559.613 1331.73,570.577 1317.33,573.924C1302.92,577.271 1265.19,571.392 1255.99,574.122C1237.68,579.559 1237.68,591.972 1237.68,591.972Z" style="fill:rgb(38,38,38);"/>
                    </g>
                </g>
            </g>
        </g>
    </g>
</svg>
