<?xml version="1.0" encoding="UTF-8" standalone="no"?>
<!DOCTYPE svg PUBLIC "-//W3C//DTD SVG 1.1//EN" "http://www.w3.org/Graphics/SVG/1.1/DTD/svg11.dtd">
<svg width="100%" height="100%" viewBox="0 0 800 800" version="1.1" xmlns="http://www.w3.org/2000/svg" xmlns:xlink="http://www.w3.org/1999/xlink" xml:space="preserve" xmlns:serif="http://www.serif.com/" style="fill-rule:evenodd;clip-rule:evenodd;stroke-linecap:round;stroke-linejoin:round;stroke-miterlimit:1.5;">
    <g id="WhiteSolid" transform="matrix(1.19403,0,0,1.19403,17.9104,36.9615)">
        <g id="FrontView" transform="matrix(1.04345,0,0,1.04345,-811.214,-21.9559)">
            <path d="M859.159,55.943C874.558,40.992 906.617,30.702 943.634,30.702C980.539,30.702 1012.51,40.929 1027.97,55.807C1038.76,64.466 1087.52,115.003 1094.68,133.455C1101.59,151.242 1094.48,161.619 1086.96,167.242C1079.26,173.005 1068.34,180.812 1061.77,175.858C1053.89,169.921 1039.1,154.264 1039.1,154.264C1039.1,154.264 1018.39,164.763 1010.84,196.786C1007.49,210.978 990.627,530.955 990.077,544.285C989.558,556.884 984.778,590.383 946.949,594.023C944.659,594.173 942.368,594.205 940.07,594.023C902.241,590.383 897.461,556.884 896.942,544.285C896.392,530.955 879.525,210.978 876.18,196.786C868.632,164.763 847.916,154.264 847.916,154.264C847.916,154.264 833.125,169.921 825.249,175.858C818.678,180.812 807.762,173.005 800.056,167.242C792.537,161.619 785.432,151.242 792.337,133.455C799.511,114.977 848.451,64.497 859.153,55.943L859.159,55.943Z" style="fill:white;"/>
            <clipPath id="_clip1">
                <path d="M859.159,55.943C874.558,40.992 906.617,30.702 943.634,30.702C980.539,30.702 1012.51,40.929 1027.97,55.807C1038.76,64.466 1087.52,115.003 1094.68,133.455C1101.59,151.242 1094.48,161.619 1086.96,167.242C1079.26,173.005 1068.34,180.812 1061.77,175.858C1053.89,169.921 1039.1,154.264 1039.1,154.264C1039.1,154.264 1018.39,164.763 1010.84,196.786C1007.49,210.978 990.627,530.955 990.077,544.285C989.558,556.884 984.778,590.383 946.949,594.023C944.659,594.173 942.368,594.205 940.07,594.023C902.241,590.383 897.461,556.884 896.942,544.285C896.392,530.955 879.525,210.978 876.18,196.786C868.632,164.763 847.916,154.264 847.916,154.264C847.916,154.264 833.125,169.921 825.249,175.858C818.678,180.812 807.762,173.005 800.056,167.242C792.537,161.619 785.432,151.242 792.337,133.455C799.511,114.977 848.451,64.497 859.153,55.943L859.159,55.943Z"/>
            </clipPath>
            <g clip-path="url(#_clip1)">
                <g transform="matrix(-0.441732,0,0,0.441732,1142.02,29.2883)">
                    <path d="M118.638,307.197C97.78,369.324 180.303,355.752 180.303,355.752L240.09,288.905C240.09,288.905 204.255,257.978 193.373,259.384C173.672,261.929 138.88,320.818 118.638,307.197Z" style="fill:rgb(200,200,200);"/>
                </g>
                <g transform="matrix(0.441732,0,0,0.441732,745.001,29.2883)">
                    <path d="M237.378,286.67C237.378,286.67 204.255,257.978 193.373,259.384C173.672,261.929 138.88,320.818 118.638,307.197C98.396,293.576 138.815,365.936 138.815,365.936C138.815,365.936 221.483,356.869 227.675,353.586C233.866,350.302 237.378,286.67 237.378,286.67Z" style="fill:rgb(200,200,200);"/>
                </g>
            </g>
            <g transform="matrix(0.409006,-0.231687,0.147859,0.206032,789.297,88.6537)">
                <path d="M168.379,286.47C172.479,283.124 177.875,280.328 184.742,278.454C198.949,274.576 206.734,288.04 207.722,298.975C209.128,314.547 202.335,326.307 190.878,330.343C187.356,331.585 148.882,302.384 168.379,286.47Z" style="fill:rgb(200,200,200);"/>
            </g>
            <g transform="matrix(-0.409006,-0.231687,-0.147859,0.206032,1098.32,88.6537)">
                <path d="M168.379,286.47C172.479,283.124 177.875,280.328 184.742,278.454C198.949,274.576 206.734,288.04 207.722,298.975C209.128,314.547 202.335,326.307 190.878,330.343C187.356,331.585 148.882,302.384 168.379,286.47Z" style="fill:rgb(200,200,200);"/>
            </g>
            <g transform="matrix(-0.247208,-0.160059,-0.168597,0.114907,1076.59,102.461)">
                <path d="M159.576,293.486C166.116,287.628 184.968,276.078 195.101,281.847C207.71,289.024 193.653,317.954 176.065,319.811C167.545,320.711 151.285,300.915 159.576,293.486Z" style="fill:rgb(157,157,157);"/>
            </g>
            <g transform="matrix(0.247208,-0.160059,0.168597,0.114907,811.025,102.461)">
                <path d="M159.576,293.486C166.116,287.628 184.968,276.078 195.101,281.847C207.71,289.024 193.653,317.954 176.065,319.811C167.545,320.711 151.285,300.915 159.576,293.486Z" style="fill:rgb(157,157,157);"/>
            </g>
            <g transform="matrix(1.13086,0,0,1.13086,-57.8933,-651.073)">
                <path d="M885.636,602.884C931.615,602.884 968.944,620.836 968.944,642.948C968.944,665.06 931.615,683.012 885.636,683.012C839.657,683.012 802.328,665.06 802.328,642.948C802.328,620.836 839.657,602.884 885.636,602.884ZM885.636,608.762C924.984,608.762 956.929,624.08 956.929,642.948C956.929,661.815 924.984,677.133 885.636,677.133C846.289,677.133 814.343,661.815 814.343,642.948C814.343,624.08 846.289,608.762 885.636,608.762Z" style="fill:rgb(200,200,200);"/>
            </g>
            <g transform="matrix(0.441732,0,0,0.441732,745.001,29.2883)">
                <g>
                    <path d="M183.354,278.85C197.668,278.022 208.852,287.893 209.058,296.956C209.238,304.928 193.497,321.397 176.947,319.409C155.001,316.773 142.661,281.201 183.354,278.85Z" style="fill:rgb(174,174,174);"/>
                    <g transform="matrix(0.68531,0,0,0.68531,57.242,91.6279)">
                        <path d="M183.262,279.391C197.565,278.396 206.229,288.068 206.434,297.131C206.615,305.102 194.028,317.775 177.478,315.788C155.532,313.152 145.155,282.042 183.262,279.391Z" style="fill:rgb(132,132,132);"/>
                    </g>
                </g>
                <g transform="matrix(0.246226,-0.969212,-0.969212,-0.246226,490.179,500.827)">
                    <path d="M185.186,279.98C199.5,279.152 209.879,288.404 208.782,297.796C207.519,308.603 193.497,321.397 176.947,319.409C155.001,316.773 144.493,282.331 185.186,279.98Z" style="fill:rgb(200,200,200);"/>
                    <g transform="matrix(0.677681,-0.101969,0.101969,0.677681,25.8037,113.541)">
                        <path d="M183.262,279.391C197.565,278.396 206.229,288.068 206.434,297.131C206.615,305.102 194.028,317.775 177.478,315.788C155.532,313.152 145.155,282.042 183.262,279.391Z" style="fill:rgb(157,157,157);"/>
                    </g>
                </g>
                <g transform="matrix(-0.730845,0.938144,-0.35948,-0.280047,375.632,134.387)">
                    <path d="M185.186,279.98C199.465,277.217 209.879,288.404 208.782,297.796C207.519,308.603 193.5,317.59 176.947,319.409C154.82,321.84 144.894,287.775 185.186,279.98Z" style="fill:rgb(200,200,200);"/>
                    <g transform="matrix(0.629391,-0.0947032,0.109076,0.724915,37.8567,96.1503)">
                        <path d="M183.262,279.391C197.565,278.396 206.229,288.068 206.434,297.131C206.615,305.102 194.028,317.775 177.478,315.788C155.532,313.152 145.155,282.042 183.262,279.391Z" style="fill:rgb(157,157,157);"/>
                    </g>
                </g>
                <g transform="matrix(1,0,0,1,-9.5033,10.8207)">
                    <g transform="matrix(-0.730845,0.938144,-0.492654,-0.383793,508.498,88.4054)">
                        <path d="M185.054,279.121C199.26,275.243 208.819,289.584 207.722,298.975C206.459,309.782 195.641,321.355 176.493,320.299C152.114,318.954 145.532,289.909 185.054,279.121Z" style="fill:rgb(200,200,200);"/>
                    </g>
                    <g transform="matrix(-0.380091,0.646238,-0.477155,-0.104239,443.059,56.8889)">
                        <path d="M183.262,279.391C201.505,277.829 208.796,285.659 209.001,294.721C209.182,302.693 194.028,317.775 177.478,315.788C155.532,313.152 145.048,282.663 183.262,279.391Z" style="fill:rgb(157,157,157);"/>
                    </g>
                </g>
                <g transform="matrix(1,0,0,1,7.34098,3.5015)">
                    <g transform="matrix(-0.49874,-0.940039,0.475479,-0.321723,231.125,382.106)">
                        <path d="M185.054,279.121C199.26,275.243 208.819,289.584 207.722,298.975C206.459,309.782 195.641,321.355 176.493,320.299C152.114,318.954 145.532,289.909 185.054,279.121Z" style="fill:rgb(200,200,200);"/>
                    </g>
                    <g transform="matrix(-0.346759,-0.56942,0.270563,-0.374347,262.316,329.419)">
                        <path d="M183.705,281.445C201.949,279.883 208.796,285.659 209.001,294.721C209.182,302.693 193.529,314.387 175.941,316.244C142.8,319.743 145.492,284.717 183.705,281.445Z" style="fill:rgb(157,157,157);"/>
                    </g>
                </g>
                <g transform="matrix(-1,0,0,1,899.622,0)">
                    <g transform="matrix(0.936252,0,0,0.960533,13.3272,12.6127)">
                        <path d="M183.354,278.85C197.668,278.022 208.852,287.893 209.058,296.956C209.238,304.928 193.497,321.397 176.947,319.409C155.001,316.773 142.661,281.201 183.354,278.85Z" style="fill:rgb(174,174,174);"/>
                    </g>
                    <g transform="matrix(0.641623,0,0,0.658263,66.9201,100.624)">
                        <path d="M183.262,279.391C197.565,278.396 206.229,288.068 206.434,297.131C206.615,305.102 194.028,317.775 177.478,315.788C155.532,313.152 145.155,282.042 183.262,279.391Z" style="fill:rgb(132,132,132);"/>
                    </g>
                </g>
                <g transform="matrix(-0.246226,-0.969212,0.969212,-0.246226,409.443,500.827)">
                    <path d="M185.186,279.98C199.5,279.152 209.879,288.404 208.782,297.796C207.519,308.603 193.497,321.397 176.947,319.409C155.001,316.773 144.493,282.331 185.186,279.98Z" style="fill:rgb(200,200,200);"/>
                    <g transform="matrix(0.677681,-0.101969,0.101969,0.677681,25.8037,113.541)">
                        <path d="M183.262,279.391C197.565,278.396 206.229,288.068 206.434,297.131C206.615,305.102 194.028,317.775 177.478,315.788C155.532,313.152 145.155,282.042 183.262,279.391Z" style="fill:rgb(157,157,157);"/>
                    </g>
                </g>
                <g transform="matrix(0.730845,0.938144,0.35948,-0.280047,523.991,134.387)">
                    <path d="M185.186,279.98C199.465,277.217 209.879,288.404 208.782,297.796C207.519,308.603 193.5,317.59 176.947,319.409C154.82,321.84 144.894,287.775 185.186,279.98Z" style="fill:rgb(200,200,200);"/>
                    <g transform="matrix(0.629391,-0.0947032,0.109076,0.724915,37.8567,96.1503)">
                        <path d="M183.262,279.391C197.565,278.396 206.229,288.068 206.434,297.131C206.615,305.102 194.028,317.775 177.478,315.788C155.532,313.152 145.155,282.042 183.262,279.391Z" style="fill:rgb(157,157,157);"/>
                    </g>
                </g>
                <g transform="matrix(-1,0,0,1,909.126,10.8207)">
                    <g transform="matrix(-0.730845,0.938144,-0.492654,-0.383793,508.498,88.4054)">
                        <path d="M185.054,279.121C199.26,275.243 208.819,289.584 207.722,298.975C206.459,309.782 195.641,321.355 176.493,320.299C152.114,318.954 145.532,289.909 185.054,279.121Z" style="fill:rgb(200,200,200);"/>
                    </g>
                    <g transform="matrix(-0.368684,0.652813,-0.477678,-0.0955964,441.185,53.0032)">
                        <path d="M183.262,279.391C201.505,277.829 208.796,285.659 209.001,294.721C209.182,302.693 194.028,317.775 177.478,315.788C155.532,313.152 145.048,282.663 183.262,279.391Z" style="fill:rgb(157,157,157);"/>
                    </g>
                </g>
                <g transform="matrix(-1,0,0,1,892.281,3.5015)">
                    <g transform="matrix(-0.49874,-0.940039,0.475479,-0.321723,231.125,382.106)">
                        <path d="M185.054,279.121C199.26,275.243 208.819,289.584 207.722,298.975C206.459,309.782 195.641,321.355 176.493,320.299C152.114,318.954 145.532,289.909 185.054,279.121Z" style="fill:rgb(200,200,200);"/>
                    </g>
                    <g transform="matrix(-0.346759,-0.56942,0.270563,-0.374347,262.316,329.419)">
                        <path d="M183.705,281.445C201.949,279.883 208.796,285.659 209.001,294.721C209.182,302.693 193.529,314.387 175.941,316.244C142.8,319.743 145.492,284.717 183.705,281.445Z" style="fill:rgb(157,157,157);"/>
                    </g>
                </g>
            </g>
            <g transform="matrix(1.13086,0,0,1.13086,-57.8933,-651.073)">
                <path d="M842.644,670.302L840.16,669.183C843.241,657.908 860.537,647.522 885.636,647.522C910.735,647.522 928.838,659.01 931.112,669.183L928.465,670.115C922.691,661.388 905.562,654.13 885.636,654.13C865.711,654.13 848.418,661.575 842.644,670.302Z" style="fill:rgb(157,157,157);"/>
            </g>
            <g id="ViveLogo" transform="matrix(0.0965409,0,0,0.0965409,913.839,428.097)">
                <path d="M425.366,180.438L334.346,22.876C331.487,17.931 326.207,14.876 320.491,14.876L288.839,14.876C283.126,14.876 277.841,17.931 274.978,22.876L183.986,180.446C181.127,185.395 181.127,191.493 183.986,196.446L199.789,223.829C202.646,228.782 207.934,231.829 213.65,231.829L395.683,231.829C401.398,231.829 406.683,228.786 409.542,223.829L425.362,196.446C428.229,191.493 428.229,185.395 425.366,180.438M348.073,195.657C334.374,199.981 319.792,202.313 304.657,202.313C289.548,202.313 274.966,199.985 261.276,195.665C245.239,190.618 235.344,174.36 238.796,157.915C245.073,127.985 260.624,101.47 282.321,81.517C294.977,69.884 314.342,69.876 326.997,81.509C348.694,101.462 364.261,127.97 370.542,157.9C373.987,174.344 364.104,190.594 348.073,195.657" style="fill:rgb(135,135,135);fill-rule:nonzero;"/>
                <path d="M430.901,380.821L375.948,488.903C375.073,490.633 373.288,491.735 371.307,491.735L353.19,491.735C351.245,491.735 349.456,490.633 348.545,488.903L293.629,380.821C292.695,379.009 292.779,376.86 293.768,375.106L299.633,364.961C300.776,362.988 302.877,361.773 305.154,361.773L310.476,361.773C311.851,361.773 313.148,362.539 313.749,363.804L359.923,455.648C360.892,457.578 363.638,457.578 364.603,455.648L410.751,363.804C411.353,362.538 412.649,361.773 414.056,361.773L419.345,361.773C421.622,361.773 423.728,362.988 424.865,364.961L430.748,375.133C431.768,376.875 431.823,379.024 430.901,380.821" style="fill:rgb(135,135,135);fill-rule:nonzero;"/>
                <path d="M158.795,380.821L103.846,488.903C102.967,490.633 101.184,491.735 99.201,491.735L81.088,491.735C79.137,491.735 77.35,490.633 76.438,488.903L21.526,380.821C20.588,379.009 20.672,376.868 21.661,375.106L27.544,364.946C28.673,362.977 30.765,361.774 33.03,361.774L38.376,361.774C39.745,361.774 41.042,362.54 41.644,363.805L87.816,455.649C88.781,457.579 91.533,457.579 92.504,455.649L138.649,363.805C139.251,362.539 140.547,361.774 141.944,361.774L147.262,361.774C149.528,361.774 151.623,362.977 152.754,364.946L158.649,375.134C159.655,376.875 159.713,379.024 158.795,380.821" style="fill:rgb(135,135,135);fill-rule:nonzero;"/>
                <path d="M237.483,363.313C236.534,362.368 235.217,361.774 233.76,361.774L225.537,361.774C223.264,361.774 221.168,362.985 220.037,364.954L214.176,375.118C213.66,376.036 213.383,377.063 213.383,378.11L213.383,486.473C213.383,489.379 215.738,491.735 218.651,491.735L233.815,491.735C236.694,491.735 239.036,489.399 239.036,486.516L239.036,367.055C239.036,365.594 238.444,364.274 237.483,363.313" style="fill:rgb(135,135,135);fill-rule:nonzero;"/>
                <path d="M492.167,364.946C493.3,362.981 495.394,361.774 497.667,361.774L576.343,361.774C578.566,361.774 580.62,362.962 581.738,364.879L587.277,374.406C588.058,375.769 588.48,377.32 588.48,378.898L588.48,381.265C588.48,383.214 586.882,384.835 584.902,384.835L513.183,384.835C511.738,384.835 510.558,386.015 510.558,387.464L510.558,412.339C510.558,413.784 511.722,414.96 513.167,414.96L561.784,414.96C564.143,414.995 566.065,416.913 566.065,419.28L566.065,433.569C566.065,435.944 564.124,437.897 561.745,437.897L513.167,437.897C511.722,437.897 510.558,439.061 510.558,440.506L510.558,466.053C510.558,467.506 511.722,468.674 513.167,468.674L584.901,468.674C586.881,468.674 588.479,470.256 588.479,472.217L588.479,474.6C588.479,476.186 588.065,477.733 587.276,479.108L581.737,488.655C580.628,490.577 578.565,491.764 576.342,491.764L497.666,491.764C495.393,491.764 493.299,490.553 492.166,488.588L486.693,479.143C485.892,477.764 485.478,476.209 485.478,474.623L485.486,378.881C485.486,377.303 485.904,375.756 486.693,374.389L492.167,364.946Z" style="fill:rgb(135,135,135);fill-rule:nonzero;"/>
                <path d="M589.018,361.774L593.69,361.774L593.69,362.508L591.815,362.508L591.815,367.145L590.94,367.145L590.94,362.508L589.018,362.508L589.018,361.774ZM594.448,361.774L595.655,361.774L597.471,365.985L597.518,365.985L599.338,361.774L600.541,361.774L600.541,367.145L599.666,367.145L599.705,362.977L599.666,362.977L597.854,367.145L597.116,367.145L595.331,362.977L595.276,362.977L595.331,367.145L594.448,367.145L594.448,361.774Z" style="fill:rgb(135,135,135);fill-rule:nonzero;"/>
            </g>
            <g transform="matrix(0.441732,0,0,0.441732,745.001,29.2883)">
                <g>
                    <g transform="matrix(1,0,0,1,-2.72962,1.30577)">
                        <circle cx="452.014" cy="366.762" r="30.634" style="fill:rgb(157,157,157);"/>
                    </g>
                    <g transform="matrix(1,0,0,1,-0.333562,-0.722351)">
                        <path d="M441.357,363.326L457.878,363.326" style="fill:none;stroke:white;stroke-width:3.33px;"/>
                        <g transform="matrix(1,0,0,1,0,5.46416)">
                            <path d="M441.357,363.326L457.878,363.326" style="fill:none;stroke:white;stroke-width:3.33px;"/>
                        </g>
                        <g transform="matrix(1,0,0,1,0,10.9283)">
                            <path d="M441.357,363.326L457.878,363.326" style="fill:none;stroke:white;stroke-width:3.33px;"/>
                        </g>
                    </g>
                </g>
                <g>
                    <g transform="matrix(1,0,0,1,-2.82609,403.764)">
                        <circle cx="452.014" cy="366.762" r="30.634" style="fill:rgb(157,157,157);"/>
                    </g>
                    <g transform="matrix(0.172122,0,0,0.172122,371.543,757.371)">
                        <circle cx="452.014" cy="366.762" r="30.634" style="fill:rgb(130,130,130);"/>
                    </g>
                    <g>
                        <g transform="matrix(0.836337,0.560537,-0.852412,0.535776,727.238,104.571)">
                            <rect x="442.193" y="760.516" width="11.919" height="11.919" style="fill:none;stroke:white;stroke-width:4.3px;"/>
                        </g>
                        <g transform="matrix(0.836337,0.560537,-0.852412,0.535776,727.238,112.128)">
                            <path d="M442.193,765.798L442.193,772.435L454.112,772.435L454.112,760.516L447.224,760.516" style="fill:none;stroke:white;stroke-width:4.3px;"/>
                        </g>
                    </g>
                </g>
                <g transform="matrix(0.962539,0,0,0.962539,-282.332,10.8517)">
                    <path d="M629.742,549.318C630.342,477.526 688.809,419.427 760.738,419.427C832.666,419.427 891.133,477.526 891.733,549.318L891.738,549.318L891.738,602.759C891.742,603.193 891.744,603.628 891.744,604.063C891.744,676.367 833.042,735.069 760.738,735.069C688.433,735.069 629.731,676.367 629.731,604.063C629.731,603.628 629.733,603.193 629.738,602.759L629.738,549.318L629.742,549.318Z" style="fill:rgb(157,157,157);"/>
                </g>
                <g transform="matrix(1.00548,0,0,1.00548,-10.3559,-10.092)">
                    <circle cx="457.421" cy="546.237" r="113.599" style="fill:rgb(210,210,210);"/>
                </g>
            </g>
        </g>
        <g id="SideView" transform="matrix(0.460926,0,0,0.460926,-96.3081,9.01787)">
            <g transform="matrix(2.26382,0,0,2.26382,-1606.98,-80.9282)">
                <path d="M1181.19,221.132C1180.33,218.99 1179.4,217.172 1178.39,215.73L1192.99,125.048L1353.33,36.519L1403.09,60.022C1401.96,66.109 1384.09,104.085 1379.49,111.489C1375.8,117.452 1340.94,134.896 1340.94,134.896C1340.94,134.896 1349.87,148.841 1339.87,157.476C1328.88,166.971 1301.96,182.047 1301.96,182.047C1301.96,182.047 1294.57,187.703 1286.06,182.916C1277.56,178.129 1274.35,172.072 1274.35,172.072C1243.09,191.854 1236.16,213.885 1250.68,241.956C1250.64,245.596 1250.64,249.163 1250.68,252.63C1251.94,252.875 1256.95,254.048 1260.1,257.604C1266.89,265.275 1279.05,276.172 1289.79,280.73C1295.02,282.948 1298.12,287.791 1291.76,289.269C1285.4,290.748 1268.73,288.151 1264.67,289.357C1256.58,291.758 1256.58,297.242 1256.58,297.242L1262.09,310.866C1261.02,410.489 1254.58,523.482 1234.28,591.117C1226.66,592.344 1220.72,596.373 1214.83,600.484L1205.93,596.938L1205.95,596.908C1188.44,589.634 1188.27,566.927 1188.27,566.927L1177.82,360.326C1183.7,347.707 1185.91,332.853 1185.91,332.853L1178.2,223.101L1181.19,221.132Z" style="fill:rgb(215,215,215);"/>
                <clipPath id="_clip2">
                    <path d="M1181.19,221.132C1180.33,218.99 1179.4,217.172 1178.39,215.73L1192.99,125.048L1353.33,36.519L1403.09,60.022C1401.96,66.109 1384.09,104.085 1379.49,111.489C1375.8,117.452 1340.94,134.896 1340.94,134.896C1340.94,134.896 1349.87,148.841 1339.87,157.476C1328.88,166.971 1301.96,182.047 1301.96,182.047C1301.96,182.047 1294.57,187.703 1286.06,182.916C1277.56,178.129 1274.35,172.072 1274.35,172.072C1243.09,191.854 1236.16,213.885 1250.68,241.956C1250.64,245.596 1250.64,249.163 1250.68,252.63C1251.94,252.875 1256.95,254.048 1260.1,257.604C1266.89,265.275 1279.05,276.172 1289.79,280.73C1295.02,282.948 1298.12,287.791 1291.76,289.269C1285.4,290.748 1268.73,288.151 1264.67,289.357C1256.58,291.758 1256.58,297.242 1256.58,297.242L1262.09,310.866C1261.02,410.489 1254.58,523.482 1234.28,591.117C1226.66,592.344 1220.72,596.373 1214.83,600.484L1205.93,596.938L1205.95,596.908C1188.44,589.634 1188.27,566.927 1188.27,566.927L1177.82,360.326C1183.7,347.707 1185.91,332.853 1185.91,332.853L1178.2,223.101L1181.19,221.132Z"/>
                </clipPath>
                <g clip-path="url(#_clip2)">
                    <g transform="matrix(1.13086,0,0,1.13086,-445.988,-735.92)">
                        <path d="M1501.3,845.068L1453.13,826.764L1469.52,791.584L1630.82,673.076C1657.65,697.166 1672.72,724.986 1615.3,775.805L1501.3,845.068Z" style="fill:rgb(192,192,192);fill-opacity:0.85098;"/>
                    </g>
                    <g transform="matrix(0.687777,-0.329379,0.362342,0.810323,391.747,318.861)">
                        <path d="M1190.25,302.359C1187.33,300.648 1184.6,297.373 1184.6,294.78C1184.6,289.554 1191.93,285.31 1200.95,285.31C1209.97,285.31 1217.3,289.554 1217.3,294.78C1217.3,296.288 1216.69,297.714 1215.61,298.979C1212.93,302.102 1193.21,304.097 1190.25,302.359Z" style="fill:rgb(174,174,174);"/>
                    </g>
                    <g transform="matrix(0.42026,-0.215602,0.204884,0.458192,758.739,283.739)">
                        <ellipse cx="1200.95" cy="294.78" rx="16.349" ry="9.47" style="fill:rgb(132,132,132);"/>
                    </g>
                </g>
            </g>
            <g transform="matrix(4.24903,0,0,4.24903,-2371.87,-67.1729)">
                <path d="M808.895,109.375L811.027,95.475L808.712,95.87L808.895,109.375Z" style="fill:rgb(157,157,157);"/>
            </g>
            <g transform="matrix(1,0,0,1,0.19835,-0.0535581)">
                <path d="M1569.86,55.988L1456.71,1.744L1093.74,202.158L1060.68,407.445C1094.27,455.53 1092.14,688.304 1059.38,734.783L1083.04,1202.49C1083.04,1202.49 1083.43,1253.89 1123.06,1270.36C1127.46,1235.72 1109.15,859.985 1106.28,694.986C1104.3,581.49 1096.18,359.338 1150.18,301.597C1194.27,254.462 1230.92,256.708 1250.37,275.837C1270.1,295.238 1287.11,321.94 1316.28,306.777C1345.45,291.613 1402.91,251.904 1402.91,251.904C1402.91,251.904 1421.96,237.671 1417.6,220.102C1413.24,202.533 1394.49,172.683 1396.03,166.554C1397.57,160.424 1569.86,55.988 1569.86,55.988Z" style="fill:white;"/>
            </g>
            <g>
                <g>
                    <path d="M1186.06,325.568C1198.23,327.277 1218.46,317.339 1226.54,305.576C1234.62,293.814 1229.01,283.515 1214.03,280.835C1199.06,278.156 1181.06,282.957 1175.07,293.84C1169.09,304.723 1173.17,323.76 1186.06,325.568Z" style="fill:rgb(174,174,174);"/>
                    <g transform="matrix(1.05048,-0.145248,0.155393,1.07981,-106.893,150.011)">
                        <ellipse cx="1200.95" cy="294.78" rx="16.349" ry="9.47" style="fill:rgb(132,132,132);"/>
                    </g>
                </g>
                <g>
                    <g transform="matrix(0.613907,-1.43515,1.46717,0.838465,-8.3591,1726.29)">
                        <ellipse cx="1200.95" cy="294.78" rx="16.349" ry="9.47" style="fill:rgb(200,200,200);"/>
                    </g>
                    <g transform="matrix(0.451662,-0.898784,0.874938,0.500013,364.644,1185.54)">
                        <ellipse cx="1200.95" cy="294.78" rx="16.349" ry="9.47" style="fill:rgb(157,157,157);"/>
                    </g>
                </g>
                <g>
                    <g transform="matrix(1.85104,0.644021,-0.798364,1.38921,-499.425,-1121.56)">
                        <ellipse cx="1200.95" cy="294.78" rx="16.349" ry="9.47" style="fill:rgb(200,200,200);"/>
                    </g>
                    <g transform="matrix(1.03752,0.376925,-0.47916,0.833773,384.568,-631.843)">
                        <ellipse cx="1200.95" cy="294.78" rx="16.349" ry="9.47" style="fill:rgb(157,157,157);"/>
                    </g>
                </g>
                <g>
                    <g transform="matrix(1.55324,-0.743851,1.06156,2.37401,-839.847,416.121)">
                        <ellipse cx="1200.95" cy="294.78" rx="16.349" ry="9.47" style="fill:rgb(200,200,200);"/>
                    </g>
                    <g transform="matrix(0.979217,-0.502359,0.613181,1.37129,-14.3332,425.264)">
                        <ellipse cx="1200.95" cy="294.78" rx="16.349" ry="9.47" style="fill:rgb(157,157,157);"/>
                    </g>
                </g>
                <g transform="matrix(1,0,0,1,0.334504,1.88032)">
                    <g transform="matrix(1.42256,-0.944893,1.01646,2.27315,-760.965,612.101)">
                        <ellipse cx="1200.95" cy="294.78" rx="16.349" ry="9.47" style="fill:rgb(200,200,200);"/>
                    </g>
                    <g transform="matrix(0.833318,-0.718896,0.91896,1.18825,-22.3396,661.126)">
                        <ellipse cx="1200.95" cy="294.78" rx="16.349" ry="9.47" style="fill:rgb(157,157,157);"/>
                    </g>
                </g>
                <g>
                    <g transform="matrix(1.12425,-1.33495,0.585191,1.30869,-37.5199,1347.94)">
                        <ellipse cx="1200.95" cy="294.78" rx="16.349" ry="9.47" style="fill:rgb(174,174,174);"/>
                    </g>
                    <g transform="matrix(0.647948,-0.835052,0.483409,0.625064,559.975,948.302)">
                        <ellipse cx="1200.95" cy="294.78" rx="16.349" ry="9.47" style="fill:rgb(132,132,132);"/>
                    </g>
                </g>
            </g>
            <path d="M1077.7,672.59C1101.17,463.285 1067.08,419.636 1067.08,419.636L1060.24,424.131L1077.7,672.59Z" style="fill:rgb(157,157,157);"/>
            <g transform="matrix(3.86514,0.487912,-0.487912,3.86514,-1908.35,-362.06)">
                <ellipse cx="839.025" cy="297.05" rx="0.985" ry="2.323" style="fill:rgb(130,130,130);"/>
            </g>
            <path d="M1237.68,591.972C1220.53,546.076 1224.8,491.017 1224.8,491.017C1224.8,491.017 1237.46,492.984 1245.66,502.24C1261.04,519.605 1288.56,544.274 1312.87,554.593C1324.7,559.613 1331.73,570.577 1317.33,573.924C1302.92,577.271 1265.19,571.392 1255.99,574.122C1237.68,579.559 1237.68,591.972 1237.68,591.972Z" style="fill:white;"/>
            <g transform="matrix(0.978937,0,0.0349184,1.04598,-1.07223,-34.0258)">
                <path d="M1210.79,720.56C1210.79,701.369 1194.14,685.788 1173.64,685.788C1153.13,685.788 1136.48,701.369 1136.48,720.56L1136.48,818.525C1136.48,837.716 1153.13,853.296 1173.64,853.296C1194.14,853.296 1210.79,837.716 1210.79,818.525L1210.79,720.56Z" style="fill:rgb(157,157,157);"/>
            </g>
            <g transform="matrix(0.806645,0,0.0312649,0.936542,205.879,50.8042)">
                <path d="M1210.79,717.788C1210.79,700.127 1194.14,685.788 1173.64,685.788C1153.13,685.788 1136.48,700.127 1136.48,717.788L1136.48,821.296C1136.48,838.957 1153.13,853.296 1173.64,853.296C1194.14,853.296 1210.79,838.957 1210.79,821.296L1210.79,717.788Z" style="fill:rgb(210,210,210);"/>
            </g>
        </g>
    </g>
</svg>
