<?xml version="1.0" encoding="UTF-8" standalone="no"?>
<!DOCTYPE svg PUBLIC "-//W3C//DTD SVG 1.1//EN" "http://www.w3.org/Graphics/SVG/1.1/DTD/svg11.dtd">
<svg width="100%" height="100%" viewBox="0 0 260 260" version="1.1" xmlns="http://www.w3.org/2000/svg" xmlns:xlink="http://www.w3.org/1999/xlink" xml:space="preserve" xmlns:serif="http://www.serif.com/" style="fill-rule:evenodd;clip-rule:evenodd;stroke-linejoin:round;stroke-miterlimit:1.41421;">
    <g transform="matrix(1,0,0,1,-95,-95)">
        <g transform="matrix(3.33333,0,0,3.33333,25,-58.3333)">
            <g transform="matrix(1,0,0,1,-111.141,-1234)">
                <g id="Button_A">
                    <path d="M171.141,1288.93C154.544,1288.93 141.07,1302.4 141.07,1319C141.07,1335.59 154.544,1349.07 171.141,1349.07C187.737,1349.07 201.211,1335.59 201.211,1319C201.211,1302.4 187.737,1288.93 171.141,1288.93ZM173.426,1304.16L168.855,1304.16L158.808,1333.83L162.559,1333.83L165.707,1324.04L176.444,1324.04L179.592,1333.83L183.473,1333.83L173.426,1304.16ZM175.453,1320.94L166.699,1320.94L171.054,1307.31L175.453,1320.94Z" style="fill:white;"/>
                </g>
            </g>
        </g>
    </g>
</svg>
