<?xml version="1.0" encoding="UTF-8" standalone="no"?>
<!DOCTYPE svg PUBLIC "-//W3C//DTD SVG 1.1//EN" "http://www.w3.org/Graphics/SVG/1.1/DTD/svg11.dtd">
<svg width="100%" height="100%" viewBox="0 0 260 260" version="1.1" xmlns="http://www.w3.org/2000/svg" xmlns:xlink="http://www.w3.org/1999/xlink" xml:space="preserve" xmlns:serif="http://www.serif.com/" style="fill-rule:evenodd;clip-rule:evenodd;stroke-linejoin:round;stroke-miterlimit:1.41421;">
    <g transform="matrix(1,0,0,1,-95,-95)">
        <g transform="matrix(3.33333,0,0,3.33333,25,-58.3333)">
            <g transform="matrix(1,0,0,1,-118.397,-1137.19)">
                <g id="Button_X">
                    <path d="M178.397,1192.12C194.993,1192.12 208.467,1205.59 208.467,1222.19C208.467,1238.78 194.993,1252.26 178.397,1252.26C161.8,1252.26 148.326,1238.78 148.326,1222.19C148.326,1205.59 161.8,1192.12 178.397,1192.12ZM171.946,1207.39L167.645,1207.39L176.16,1222.27L167.344,1236.98L171.344,1236.98L178.182,1224.94L184.977,1236.98L189.363,1236.98L180.418,1222.14L189.449,1207.39L185.45,1207.39L178.397,1219.56L171.946,1207.39Z" style="fill:white;"/>
                </g>
            </g>
        </g>
    </g>
</svg>
