<?xml version="1.0" encoding="UTF-8" standalone="no"?>
<!DOCTYPE svg PUBLIC "-//W3C//DTD SVG 1.1//EN" "http://www.w3.org/Graphics/SVG/1.1/DTD/svg11.dtd">
<svg width="100%" height="100%" viewBox="0 0 260 260" version="1.1" xmlns="http://www.w3.org/2000/svg" xmlns:xlink="http://www.w3.org/1999/xlink" xml:space="preserve" xmlns:serif="http://www.serif.com/" style="fill-rule:evenodd;clip-rule:evenodd;stroke-linejoin:round;stroke-miterlimit:1.41421;">
    <g transform="matrix(1,0,0,1,-95,-95)">
        <g transform="matrix(3.33333,0,0,3.33333,25,-58.3333)">
            <g transform="matrix(1,0,0,1,-23.6158,-1137.19)">
                <g id="Button_Y">
                    <path d="M83.616,1192.12C100.212,1192.12 113.686,1205.59 113.686,1222.19C113.686,1238.78 100.212,1252.26 83.616,1252.26C67.019,1252.26 53.545,1238.78 53.545,1222.19C53.545,1205.59 67.019,1192.12 83.616,1192.12ZM76.486,1207.5L72.174,1207.5L81.865,1224.24L81.865,1236.87L85.366,1236.87L85.366,1224.24L95.058,1207.5L91.087,1207.5L83.744,1221.2L76.486,1207.5Z" style="fill:white;"/>
                </g>
            </g>
        </g>
    </g>
</svg>
