<?xml version="1.0" encoding="UTF-8" standalone="no"?>
<!DOCTYPE svg PUBLIC "-//W3C//DTD SVG 1.1//EN" "http://www.w3.org/Graphics/SVG/1.1/DTD/svg11.dtd">
<svg width="100%" height="100%" viewBox="0 0 260 166" version="1.1" xmlns="http://www.w3.org/2000/svg" xmlns:xlink="http://www.w3.org/1999/xlink" xml:space="preserve" xmlns:serif="http://www.serif.com/" style="fill-rule:evenodd;clip-rule:evenodd;stroke-linejoin:round;stroke-miterlimit:1.41421;">
    <g transform="matrix(1,0,0,1,-95,-142)">
        <g transform="matrix(3.33333,0,0,3.33333,25,-58.3333)">
            <g transform="matrix(1,0,0,1,-474.042,-1234)">
                <g id="GrabRButton">
                    <path d="M548.76,1339.94L510.415,1339.94C505.472,1339.94 501.46,1335.93 501.46,1330.99L501.46,1307.01C501.46,1302.07 505.472,1298.05 510.415,1298.05L545.747,1298.05C557.27,1298.05 566.625,1307.41 566.625,1318.93L566.625,1322.08C566.625,1331.94 558.62,1339.94 548.76,1339.94ZM543.144,1302.16C551.765,1302.33 559.538,1309.69 559.71,1318.73C559.726,1321.32 559.706,1323.93 558.83,1326.32C556.831,1331.77 551.346,1335.72 545.402,1335.83C535.603,1335.89 525.805,1335.88 516.006,1335.83C512.023,1335.75 508.452,1332.24 508.375,1328.2C508.337,1322.06 508.337,1315.93 508.375,1309.8C508.45,1305.8 511.896,1302.24 516.005,1302.16C525.052,1302.1 534.098,1302.1 543.144,1302.16ZM516.109,1304.03C513.042,1304.05 510.3,1306.74 510.241,1309.82C510.203,1315.96 510.126,1322.11 510.243,1328.25C510.338,1331.23 512.952,1333.87 515.954,1333.96C525.761,1334.15 535.571,1334.02 545.379,1333.96C551.899,1333.84 557.713,1328.31 557.843,1321.5C557.86,1318.87 557.824,1316.24 556.939,1313.82C554.878,1308.2 549.243,1304.15 543.12,1304.03C534.117,1303.97 525.113,1304.03 516.109,1304.03Z" style="fill:white;"/>
                </g>
            </g>
        </g>
    </g>
</svg>
