<?xml version="1.0" encoding="UTF-8" standalone="no"?>
<!DOCTYPE svg PUBLIC "-//W3C//DTD SVG 1.1//EN" "http://www.w3.org/Graphics/SVG/1.1/DTD/svg11.dtd">
<svg width="100%" height="100%" viewBox="0 0 260 166" version="1.1" xmlns="http://www.w3.org/2000/svg" xmlns:xlink="http://www.w3.org/1999/xlink" xml:space="preserve" xmlns:serif="http://www.serif.com/" style="fill-rule:evenodd;clip-rule:evenodd;stroke-linejoin:round;stroke-miterlimit:1.41421;">
    <g transform="matrix(1,0,0,1,-95,-142)">
        <g transform="matrix(3.33333,0,0,3.33333,25,-58.3333)">
            <g transform="matrix(1,0,0,1,-381.494,-1234)">
                <g id="GrabLButton">
                    <path d="M465.121,1298.05C470.064,1298.05 474.076,1302.07 474.076,1307.01L474.076,1330.99C474.076,1335.93 470.064,1339.94 465.121,1339.94L426.776,1339.94C416.916,1339.94 408.911,1331.94 408.911,1322.08L408.911,1318.93C408.911,1307.41 418.266,1298.05 429.789,1298.05L465.121,1298.05ZM459.531,1302.16C463.488,1302.24 467.029,1305.6 467.159,1309.7C467.276,1315.86 467.199,1322.03 467.161,1328.2C467.086,1332.17 463.694,1335.75 459.53,1335.83C449.731,1335.88 439.933,1335.89 430.134,1335.83C422.698,1335.69 415.975,1329.33 415.826,1321.52C415.809,1318.74 415.865,1315.95 416.775,1313.37C419.04,1306.94 425.426,1302.3 432.392,1302.16C441.438,1302.1 450.484,1302.1 459.531,1302.16ZM432.612,1304.03C424.862,1304.08 417.845,1310.71 417.693,1318.75C417.678,1321.13 417.663,1323.5 418.458,1325.67C420.206,1330.44 424.975,1333.87 430.157,1333.96C439.965,1334.02 449.776,1334.15 459.582,1333.96C462.588,1333.87 465.237,1331.21 465.295,1328.17C465.333,1322.03 465.41,1315.89 465.293,1309.74C465.198,1306.76 462.583,1304.12 459.583,1304.03C450.594,1303.86 441.602,1304.03 432.612,1304.03Z" style="fill:white;"/>
                </g>
            </g>
        </g>
    </g>
</svg>
