<?xml version="1.0" encoding="UTF-8" standalone="no"?>
<!DOCTYPE svg PUBLIC "-//W3C//DTD SVG 1.1//EN" "http://www.w3.org/Graphics/SVG/1.1/DTD/svg11.dtd">
<svg width="100%" height="100%" viewBox="0 0 260 260" version="1.1" xmlns="http://www.w3.org/2000/svg" xmlns:xlink="http://www.w3.org/1999/xlink" xml:space="preserve" xmlns:serif="http://www.serif.com/" style="fill-rule:evenodd;clip-rule:evenodd;stroke-linejoin:round;stroke-miterlimit:1.41421;">
    <g transform="matrix(1,0,0,1,-95,-95)">
        <g transform="matrix(3.33333,0,0,3.33333,25,-58.3333)">
            <g transform="matrix(1,0,0,1,-193.519,-1234)">
                <g id="HomeButton">
                    <path d="M253.519,1294.07C239.763,1294.07 228.595,1305.24 228.595,1319C228.595,1332.75 239.763,1343.92 253.519,1343.92C267.275,1343.92 278.444,1332.75 278.444,1319C278.444,1305.24 267.275,1294.07 253.519,1294.07ZM260.365,1313.93C264.675,1314.09 267.318,1321.21 262.432,1323.57C261.789,1323.88 261.083,1324.04 260.365,1324.07C255.625,1324.12 250.768,1324.61 246.16,1324.03C241.606,1323.45 239.518,1314.2 246.674,1313.93C251.237,1313.87 255.801,1313.87 260.365,1313.93ZM246.811,1316.06C245.007,1316.08 243.5,1317.94 243.96,1319.73C244.277,1320.96 245.441,1321.88 246.728,1321.93C251.255,1321.99 255.783,1321.99 260.31,1321.93C262.105,1321.86 263.562,1319.96 263.059,1318.19C262.719,1317 261.572,1316.11 260.31,1316.06C255.811,1316 251.311,1316.06 246.811,1316.06Z" style="fill:white;"/>
                </g>
            </g>
        </g>
    </g>
</svg>
