<?xml version="1.0" encoding="UTF-8" standalone="no"?>
<!DOCTYPE svg PUBLIC "-//W3C//DTD SVG 1.1//EN" "http://www.w3.org/Graphics/SVG/1.1/DTD/svg11.dtd">
<svg width="100%" height="100%" viewBox="0 0 300 300" version="1.1" xmlns="http://www.w3.org/2000/svg" xmlns:xlink="http://www.w3.org/1999/xlink" xml:space="preserve" xmlns:serif="http://www.serif.com/" style="fill-rule:evenodd;clip-rule:evenodd;stroke-linejoin:round;stroke-miterlimit:1.41421;">
    <g transform="matrix(1,0,0,1,-75,-75)">
        <g transform="matrix(3.33333,0,0,3.33333,25,-58.3333)">
            <g id="MoveButton" transform="matrix(1,0,0,1,-392.592,-1098.49)">
                <path d="M452.592,1144.71C473.992,1144.71 491.367,1162.09 491.367,1183.49C491.367,1204.89 473.992,1222.26 452.592,1222.26C431.192,1222.26 413.818,1204.89 413.818,1183.49C413.818,1162.09 431.192,1144.71 452.592,1144.71ZM452.592,1152.74C469.638,1152.74 483.476,1166.52 483.476,1183.49C483.476,1200.46 469.638,1214.23 452.592,1214.23C435.547,1214.23 421.708,1200.46 421.708,1183.49C421.708,1166.52 435.547,1152.74 452.592,1152.74ZM452.592,1156.89C467.339,1156.89 479.311,1168.81 479.311,1183.49C479.311,1198.17 467.339,1210.09 452.592,1210.09C437.846,1210.09 425.874,1198.17 425.874,1183.49C425.874,1168.81 437.846,1156.89 452.592,1156.89Z" style="fill:white;"/>
            </g>
        </g>
    </g>
</svg>
