<?xml version="1.0" encoding="UTF-8" standalone="no"?>
<!DOCTYPE svg PUBLIC "-//W3C//DTD SVG 1.1//EN" "http://www.w3.org/Graphics/SVG/1.1/DTD/svg11.dtd">
<svg width="100%" height="100%" viewBox="0 0 1100 600" version="1.1" xmlns="http://www.w3.org/2000/svg" xmlns:xlink="http://www.w3.org/1999/xlink" xml:space="preserve" xmlns:serif="http://www.serif.com/" style="fill-rule:evenodd;clip-rule:evenodd;stroke-linecap:round;stroke-linejoin:round;stroke-miterlimit:1.5;">
    <g id="WhiteSolid3d" transform="matrix(1,0,0,1,-12.5493,-1331.33)">
        <g transform="matrix(1.08894,0,0,1.04135,-1304.4,549.744)">
            <g id="Controller" transform="matrix(1,0,0,1,1095.43,-588.832)">
                <g transform="matrix(1,0,0,1,-458.926,-313.314)">
                    <path d="M783.799,1837.38C783.799,1837.38 591.304,1958.76 668.95,2033.98C721.884,2085.26 809.769,1997.15 809.769,1997.15C837.467,1945.43 844.524,1894.06 783.799,1837.38Z" style="fill:white;"/>
                </g>
                <g transform="matrix(1,0,0,1,-458.926,-313.314)">
                    <path d="M891.585,1796.39C891.585,1796.39 897.563,1747.51 917.506,1735.73C931.01,1727.76 989.788,1734.01 1011.97,1768.99C1053.64,1834.69 1001.92,2089.11 956.346,2127.52C930.934,2148.93 874.449,2160.66 842.622,2131.57C791.473,2084.81 814.79,1956.51 814.79,1956.51L891.585,1796.39Z" style="fill:white;"/>
                </g>
                <g transform="matrix(1,0,0,1,-458.926,-313.314)">
                    <path d="M927.068,1942.25C927.068,1942.25 913.141,2056.91 925.098,2097.36C937.055,2137.8 964.859,2134.86 994.649,2037.42C1023.37,1943.47 1037.15,1782.62 1002.56,1764.23C996.341,1760.92 982.653,1804.96 984.138,1824.5" style="fill:rgb(179,179,179);"/>
                    <clipPath id="_clip1">
                        <path d="M927.068,1942.25C927.068,1942.25 913.141,2056.91 925.098,2097.36C937.055,2137.8 964.859,2134.86 994.649,2037.42C1023.37,1943.47 1037.15,1782.62 1002.56,1764.23C996.341,1760.92 982.653,1804.96 984.138,1824.5"/>
                    </clipPath>
                    <g clip-path="url(#_clip1)">
                        <g transform="matrix(0.817535,0,0,0.817535,441.014,98.9488)">
                            <path d="M588.793,2313.08L589.774,2238.05L683.784,2166.11C683.784,2166.11 679.523,2200.88 668.055,2218.28C666.136,2221.19 664.045,2224.1 661.826,2226.98L608.601,2305.33C608.601,2305.33 604.612,2313.97 599.957,2316.05C599.02,2316.47 597.347,2316.42 595.576,2316.19C595.493,2316.5 589.286,2339.64 586.855,2345.94C584.409,2352.28 581.974,2312.07 584.576,2311.95C585.481,2311.91 587.085,2312.41 588.793,2313.08Z" style="fill:rgb(204,204,204);"/>
                        </g>
                    </g>
                </g>
                <g transform="matrix(1,0,0,1,-458.926,-313.314)">
                    <path d="M813.207,1968.35L810.44,1997.69C810.44,1997.69 778.303,1999.9 759.474,1994.29C740.645,1988.68 730.825,1979.24 731.219,1967.56C731.614,1955.88 733.276,1946.86 734.556,1944.16C736.238,1940.61 743.098,1931.73 758.993,1934.34C774.939,1936.94 785.434,1947.3 815.483,1955.5L813.207,1968.35Z" style="fill:rgb(157,157,157);"/>
                    <clipPath id="_clip2">
                        <path d="M813.207,1968.35L810.44,1997.69C810.44,1997.69 778.303,1999.9 759.474,1994.29C740.645,1988.68 730.825,1979.24 731.219,1967.56C731.614,1955.88 733.276,1946.86 734.556,1944.16C736.238,1940.61 743.098,1931.73 758.993,1934.34C774.939,1936.94 785.434,1947.3 815.483,1955.5L813.207,1968.35Z"/>
                    </clipPath>
                    <g clip-path="url(#_clip2)">
                        <path d="M813.145,1968.18C813.145,1968.18 788.636,1961.53 770.866,1955.32C753.096,1949.1 735.653,1945.76 731.315,1964.8C726.977,1983.83 724.794,1994.21 724.794,1994.21L818.09,2008.18L813.145,1968.18Z" style="fill:rgb(217,217,217);"/>
                    </g>
                </g>
                <g transform="matrix(1.09828,-0.255097,0.283962,1.13592,-1076.94,-323.865)">
                    <ellipse cx="878.835" cy="1859.7" rx="113.073" ry="67.354" style="fill:rgb(204,204,204);"/>
                </g>
                <g transform="matrix(0.971885,-0.224296,0.171891,0.992865,-759.663,-91.8476)">
                    <ellipse cx="878.835" cy="1859.7" rx="113.073" ry="67.354" style="fill:white;"/>
                </g>
                <g transform="matrix(1.00141,-0.305055,0.57166,1.06568,-1518.53,-157.87)">
                    <path d="M939.161,1826.17C945.055,1829.35 948.641,1833.54 948.641,1838.13C948.641,1848.04 931.931,1856.08 911.351,1856.08C890.77,1856.08 874.061,1848.04 874.061,1838.13C874.061,1831.64 883.017,1824.52 894.98,1822.24C900.699,1821.16 932.33,1822.49 939.161,1826.17Z" style="fill:rgb(153,153,153);"/>
                    <clipPath id="_clip3">
                        <path d="M939.161,1826.17C945.055,1829.35 948.641,1833.54 948.641,1838.13C948.641,1848.04 931.931,1856.08 911.351,1856.08C890.77,1856.08 874.061,1848.04 874.061,1838.13C874.061,1831.64 883.017,1824.52 894.98,1822.24C900.699,1821.16 932.33,1822.49 939.161,1826.17Z"/>
                    </clipPath>
                    <g clip-path="url(#_clip3)">
                        <g transform="matrix(0.613082,0.175497,-0.34695,0.607775,-246.682,357.379)">
                            <ellipse cx="2809.45" cy="1646.58" rx="40.875" ry="23.116" style="fill:rgb(122,122,122);"/>
                        </g>
                    </g>
                </g>
                <g transform="matrix(1,0,0,0.988524,-456.329,-294.549)">
                    <path d="M924.107,1822.02C924.488,1823.34 911.4,1840.27 913.762,1849.22L913.771,1849.24C913.907,1849.7 913.955,1850.17 913.912,1850.65C913.204,1858.56 883.84,1858.41 883.952,1850.65C883.959,1850.17 883.957,1849.7 884.093,1849.24L884.102,1849.22C886.465,1840.27 872.867,1823.06 873.248,1821.74" style="fill:rgb(179,179,179);"/>
                </g>
                <g transform="matrix(0.98853,-0.0570843,0.10624,1.13456,-590.085,-1969.19)">
                    <ellipse cx="711.966" cy="3096.09" rx="26.391" ry="14.403" style="fill:rgb(204,204,204);"/>
                </g>
                <g transform="matrix(0.753532,0,0,0.753532,-1671.07,298.145)">
                    <path d="M2684.68,1635.98L2686.18,1640.1L2686.48,1640.82C2688.88,1646.32 2697.4,1649.06 2707.51,1647.04C2719.49,1644.66 2729.21,1636.51 2729.21,1628.86C2729.21,1628.37 2729.17,1627.9 2729.09,1627.44L2728.74,1626.12L2727.11,1621.78L2684.68,1635.98Z" style="fill:rgb(106,106,106);"/>
                </g>
                <g transform="matrix(0.691655,-0.0644365,0.0615462,0.657261,-240.401,-491.751)">
                    <ellipse cx="711.966" cy="3096.09" rx="26.391" ry="14.403" style="fill:rgb(157,157,157);"/>
                </g>
                <g transform="matrix(0.986322,-0.196495,0,1.1744,-448.807,-470.939)">
                    <ellipse cx="828.042" cy="1838.56" rx="16.577" ry="8.894" style="fill:rgb(157,157,157);"/>
                </g>
                <g transform="matrix(0.753532,0,0,0.753532,-1671.07,298.145)">
                    <path d="M2750.18,1661.2L2752.67,1668.54C2753.04,1669.75 2753.23,1671.16 2753.23,1672.49C2753.23,1681.35 2741.97,1690.78 2728.11,1693.54C2715.47,1696.06 2705,1692.17 2703.24,1684.76L2703.05,1684.31L2700.7,1676.68L2750.18,1661.2Z" style="fill:rgb(114,114,114);"/>
                </g>
                <g transform="matrix(0.753532,0,0,0.753532,-1671.07,298.145)">
                    <path d="M2762.13,1689.99L2762.69,1698.45L2762.7,1698.62C2763.14,1705.97 2772.25,1711.9 2784.79,1712.41C2798.92,1712.98 2812.08,1706.45 2814.16,1697.84C2814.43,1696.7 2814.5,1695.59 2814.38,1694.51L2814.26,1693.02L2813.83,1686.17L2762.13,1689.99Z" style="fill:rgb(120,120,120);"/>
                </g>
                <g transform="matrix(1.1421,-0.22753,0,1.35989,-563.066,-756.049)">
                    <ellipse cx="828.042" cy="1838.56" rx="16.577" ry="8.894" style="fill:rgb(157,157,157);"/>
                </g>
                <g transform="matrix(1.16359,0.0471326,-0.319457,1.32183,53.5932,-899.254)">
                    <ellipse cx="828.042" cy="1838.56" rx="16.577" ry="8.894" style="fill:rgb(157,157,157);"/>
                </g>
                <g transform="matrix(1.72328,0.0698034,-0.5134,2.12433,-109.353,-2363.48)">
                    <ellipse cx="828.042" cy="1838.56" rx="16.577" ry="8.894" style="fill:rgb(191,191,191);"/>
                </g>
                <g transform="matrix(1,0,0,1,-458.926,-313.314)">
                    <path d="M982.044,1919.63C964.286,1942.71 936.552,1964.32 933.097,1974.97C930.453,1983.12 938.208,1983.38 944.039,1984.71C949.716,1986 964.556,1988.04 970.101,1985.72C975.646,1983.39 983.328,1967.25 983.328,1967.25C983.328,1967.25 977.891,1939.28 982.044,1919.63Z" style="fill:rgb(157,157,157);"/>
                    <clipPath id="_clip4">
                        <path d="M982.044,1919.63C964.286,1942.71 936.552,1964.32 933.097,1974.97C930.453,1983.12 938.208,1983.38 944.039,1984.71C949.716,1986 964.556,1988.04 970.101,1985.72C975.646,1983.39 983.328,1967.25 983.328,1967.25C983.328,1967.25 977.891,1939.28 982.044,1919.63Z"/>
                    </clipPath>
                    <g clip-path="url(#_clip4)">
                        <path d="M981.754,1920.84L991.247,1967.87L984.395,1985.91L966.239,1986.64C966.239,1986.64 956.681,1987.42 957.421,1976.88C958.558,1960.67 981.754,1920.84 981.754,1920.84Z" style="fill:rgb(217,217,217);"/>
                    </g>
                </g>
            </g>
            <g id="Buttons">
                <g transform="matrix(-0.254517,0.440837,-0.518653,6.23321e-17,2205.65,251.386)">
                    <path d="M1656.19,507.543L1667.54,487.943L1662.89,487.943L1654.29,503.993L1645.79,487.943L1640.74,487.943L1652.09,507.543L1652.09,522.343L1656.19,522.343L1656.19,507.543Z" style="fill:white;fill-rule:nonzero;"/>
                </g>
                <g transform="matrix(-0.224692,0.389178,-0.458029,9.48066e-17,2081.29,321.047)">
                    <path d="M1656.27,505.093L1666.77,487.943L1662.12,487.943L1653.92,502.093L1646.42,487.943L1641.42,487.943L1651.32,505.243L1641.07,522.343L1645.72,522.343L1653.67,508.343L1661.57,522.343L1666.67,522.343L1656.27,505.093Z" style="fill:white;fill-rule:nonzero;"/>
                </g>
                <g transform="matrix(-0.266955,0.46238,-0.758218,1.55258e-16,2366.75,218.602)">
                    <g transform="matrix(1,0,0,1,0.954888,3.59284)">
                        <path d="M1560.55,634.976C1560.55,634.531 1560.09,634.169 1559.53,634.169L1543.68,634.169C1543.12,634.169 1542.67,634.531 1542.67,634.976L1542.67,636.59C1542.67,637.035 1543.12,637.396 1543.68,637.396L1559.53,637.396C1560.09,637.396 1560.55,637.035 1560.55,636.59L1560.55,634.976Z" style="fill:white;"/>
                    </g>
                    <g transform="matrix(1,0,0,1,0.954888,9.45027)">
                        <path d="M1560.55,634.976C1560.55,634.531 1560.09,634.169 1559.53,634.169L1543.68,634.169C1543.12,634.169 1542.67,634.531 1542.67,634.976L1542.67,636.59C1542.67,637.035 1543.12,637.396 1543.68,637.396L1559.53,637.396C1560.09,637.396 1560.55,637.035 1560.55,636.59L1560.55,634.976Z" style="fill:white;"/>
                    </g>
                    <g transform="matrix(1,0,0,1,0.954888,15.3077)">
                        <path d="M1560.55,634.976C1560.55,634.531 1560.09,634.169 1559.53,634.169L1543.68,634.169C1543.12,634.169 1542.67,634.531 1542.67,634.976L1542.67,636.59C1542.67,637.035 1543.12,637.396 1543.68,637.396L1559.53,637.396C1560.09,637.396 1560.55,637.035 1560.55,636.59L1560.55,634.976Z" style="fill:white;"/>
                    </g>
                </g>
            </g>
        </g>
        <g transform="matrix(-1.08894,0,0,1.04135,2429.5,549.744)">
            <g id="Controller1" serif:id="Controller" transform="matrix(1,0,0,1,1095.43,-588.832)">
                <g transform="matrix(1,0,0,1,-458.926,-313.314)">
                    <path d="M783.799,1837.38C783.799,1837.38 591.304,1958.76 668.95,2033.98C721.884,2085.26 809.769,1997.15 809.769,1997.15C837.467,1945.43 844.524,1894.06 783.799,1837.38Z" style="fill:white;"/>
                </g>
                <g transform="matrix(1,0,0,1,-458.926,-313.314)">
                    <path d="M891.585,1796.39C891.585,1796.39 897.563,1747.51 917.506,1735.73C931.01,1727.76 989.788,1734.01 1011.97,1768.99C1053.64,1834.69 1001.92,2089.11 956.346,2127.52C930.934,2148.93 874.449,2160.66 842.622,2131.57C791.473,2084.81 814.79,1956.51 814.79,1956.51L891.585,1796.39Z" style="fill:white;"/>
                </g>
                <g transform="matrix(1,0,0,1,-458.926,-313.314)">
                    <path d="M927.068,1942.25C927.068,1942.25 913.141,2056.91 925.098,2097.36C937.055,2137.8 964.859,2134.86 994.649,2037.42C1023.37,1943.47 1037.15,1782.62 1002.56,1764.23C996.341,1760.92 982.653,1804.96 984.138,1824.5" style="fill:rgb(179,179,179);"/>
                    <clipPath id="_clip5">
                        <path d="M927.068,1942.25C927.068,1942.25 913.141,2056.91 925.098,2097.36C937.055,2137.8 964.859,2134.86 994.649,2037.42C1023.37,1943.47 1037.15,1782.62 1002.56,1764.23C996.341,1760.92 982.653,1804.96 984.138,1824.5"/>
                    </clipPath>
                    <g clip-path="url(#_clip5)">
                        <g transform="matrix(-0.817535,0,0,0.817535,1644.79,98.9488)">
                            <path d="M876.873,2316.19C875.102,2316.42 873.429,2316.47 872.491,2316.05C867.836,2313.97 863.847,2305.33 863.847,2305.33L810.623,2226.98C808.404,2224.1 806.312,2221.19 804.394,2218.28C792.926,2200.88 788.451,2165.45 788.451,2165.45L882.674,2238.05L883.655,2313.08C885.364,2312.41 886.968,2311.91 887.872,2311.95C890.475,2312.07 888.04,2352.28 885.593,2345.94C883.163,2339.64 876.956,2316.5 876.873,2316.19Z" style="fill:rgb(204,204,204);"/>
                        </g>
                    </g>
                </g>
                <g transform="matrix(1,0,0,1,-458.926,-313.314)">
                    <path d="M813.207,1968.35L810.44,1997.69C810.44,1997.69 778.303,1999.9 759.474,1994.29C740.645,1988.68 730.825,1979.24 731.219,1967.56C731.614,1955.88 733.276,1946.86 734.556,1944.16C736.238,1940.61 743.098,1931.73 758.993,1934.34C774.939,1936.94 785.434,1947.3 815.483,1955.5L813.207,1968.35Z" style="fill:rgb(157,157,157);"/>
                    <clipPath id="_clip6">
                        <path d="M813.207,1968.35L810.44,1997.69C810.44,1997.69 778.303,1999.9 759.474,1994.29C740.645,1988.68 730.825,1979.24 731.219,1967.56C731.614,1955.88 733.276,1946.86 734.556,1944.16C736.238,1940.61 743.098,1931.73 758.993,1934.34C774.939,1936.94 785.434,1947.3 815.483,1955.5L813.207,1968.35Z"/>
                    </clipPath>
                    <g clip-path="url(#_clip6)">
                        <path d="M813.145,1968.18C813.145,1968.18 788.636,1961.53 770.866,1955.32C753.096,1949.1 735.653,1945.76 731.315,1964.8C726.977,1983.83 724.794,1994.21 724.794,1994.21L818.09,2008.18L813.145,1968.18Z" style="fill:rgb(217,217,217);"/>
                    </g>
                </g>
                <g transform="matrix(1.09828,-0.255097,0.283962,1.13592,-1076.94,-323.865)">
                    <ellipse cx="878.835" cy="1859.7" rx="113.073" ry="67.354" style="fill:rgb(204,204,204);"/>
                </g>
                <g transform="matrix(0.971885,-0.224296,0.171891,0.992865,-759.663,-91.8476)">
                    <ellipse cx="878.835" cy="1859.7" rx="113.073" ry="67.354" style="fill:white;"/>
                </g>
                <g transform="matrix(1.00141,-0.305055,0.57166,1.06568,-1518.53,-157.87)">
                    <path d="M939.161,1826.17C945.055,1829.35 948.641,1833.54 948.641,1838.13C948.641,1848.04 931.931,1856.08 911.351,1856.08C890.77,1856.08 874.061,1848.04 874.061,1838.13C874.061,1831.64 883.017,1824.52 894.98,1822.24C900.699,1821.16 932.33,1822.49 939.161,1826.17Z" style="fill:rgb(153,153,153);"/>
                    <clipPath id="_clip7">
                        <path d="M939.161,1826.17C945.055,1829.35 948.641,1833.54 948.641,1838.13C948.641,1848.04 931.931,1856.08 911.351,1856.08C890.77,1856.08 874.061,1848.04 874.061,1838.13C874.061,1831.64 883.017,1824.52 894.98,1822.24C900.699,1821.16 932.33,1822.49 939.161,1826.17Z"/>
                    </clipPath>
                    <g clip-path="url(#_clip7)">
                        <g transform="matrix(0.613082,0.175497,-0.34695,0.607775,-246.682,357.379)">
                            <ellipse cx="2809.45" cy="1646.58" rx="40.875" ry="23.116" style="fill:rgb(122,122,122);"/>
                        </g>
                    </g>
                </g>
                <g transform="matrix(1,0,0,0.988524,-456.329,-294.549)">
                    <path d="M924.107,1822.02C924.488,1823.34 911.4,1840.27 913.762,1849.22L913.771,1849.24C913.907,1849.7 913.955,1850.17 913.912,1850.65C913.204,1858.56 883.84,1858.41 883.952,1850.65C883.959,1850.17 883.957,1849.7 884.093,1849.24L884.102,1849.22C886.465,1840.27 872.867,1823.06 873.248,1821.74" style="fill:rgb(179,179,179);"/>
                </g>
                <g transform="matrix(0.98853,-0.0570843,0.10624,1.13456,-590.085,-1969.19)">
                    <ellipse cx="711.966" cy="3096.09" rx="26.391" ry="14.403" style="fill:rgb(204,204,204);"/>
                </g>
                <g transform="matrix(0.753532,0,0,0.753532,-1671.07,298.145)">
                    <path d="M2684.68,1635.98L2686.18,1640.1L2686.48,1640.82C2688.88,1646.32 2697.4,1649.06 2707.51,1647.04C2719.49,1644.66 2729.21,1636.51 2729.21,1628.86C2729.21,1628.37 2729.17,1627.9 2729.09,1627.44L2728.74,1626.12L2727.11,1621.78L2684.68,1635.98Z" style="fill:rgb(106,106,106);"/>
                </g>
                <g transform="matrix(0.691655,-0.0644365,0.0615462,0.657261,-240.401,-491.751)">
                    <ellipse cx="711.966" cy="3096.09" rx="26.391" ry="14.403" style="fill:rgb(157,157,157);"/>
                </g>
                <g transform="matrix(0.986322,-0.196495,0,1.1744,-448.807,-470.939)">
                    <ellipse cx="828.042" cy="1838.56" rx="16.577" ry="8.894" style="fill:rgb(157,157,157);"/>
                </g>
                <g transform="matrix(0.753532,0,0,0.753532,-1671.07,298.145)">
                    <path d="M2750.18,1661.2L2752.67,1668.54C2753.04,1669.75 2753.23,1671.16 2753.23,1672.49C2753.23,1681.35 2741.97,1690.78 2728.11,1693.54C2715.47,1696.06 2705,1692.17 2703.24,1684.76L2703.05,1684.31L2700.7,1676.68L2750.18,1661.2Z" style="fill:rgb(114,114,114);"/>
                </g>
                <g transform="matrix(0.753532,0,0,0.753532,-1671.07,298.145)">
                    <path d="M2762.13,1689.99L2762.69,1698.45L2762.7,1698.62C2763.14,1705.97 2772.25,1711.9 2784.79,1712.41C2798.92,1712.98 2812.08,1706.45 2814.16,1697.84C2814.43,1696.7 2814.5,1695.59 2814.38,1694.51L2814.26,1693.02L2813.83,1686.17L2762.13,1689.99Z" style="fill:rgb(120,120,120);"/>
                </g>
                <g transform="matrix(1.1421,-0.22753,0,1.35989,-563.066,-756.049)">
                    <ellipse cx="828.042" cy="1838.56" rx="16.577" ry="8.894" style="fill:rgb(157,157,157);"/>
                </g>
                <g transform="matrix(1.16359,0.0471326,-0.319457,1.32183,53.5932,-899.254)">
                    <ellipse cx="828.042" cy="1838.56" rx="16.577" ry="8.894" style="fill:rgb(157,157,157);"/>
                </g>
                <g transform="matrix(1.72328,0.0698034,-0.5134,2.12433,-109.353,-2363.48)">
                    <ellipse cx="828.042" cy="1838.56" rx="16.577" ry="8.894" style="fill:rgb(147,147,147);"/>
                </g>
                <g transform="matrix(1,0,0,1,-458.926,-313.314)">
                    <path d="M982.044,1919.63C964.286,1942.71 936.552,1964.32 933.097,1974.97C930.453,1983.12 938.208,1983.38 944.039,1984.71C949.716,1986 964.556,1988.04 970.101,1985.72C975.646,1983.39 983.328,1967.25 983.328,1967.25C983.328,1967.25 977.891,1939.28 982.044,1919.63Z" style="fill:rgb(157,157,157);"/>
                    <clipPath id="_clip8">
                        <path d="M982.044,1919.63C964.286,1942.71 936.552,1964.32 933.097,1974.97C930.453,1983.12 938.208,1983.38 944.039,1984.71C949.716,1986 964.556,1988.04 970.101,1985.72C975.646,1983.39 983.328,1967.25 983.328,1967.25C983.328,1967.25 977.891,1939.28 982.044,1919.63Z"/>
                    </clipPath>
                    <g clip-path="url(#_clip8)">
                        <path d="M981.754,1920.84L991.247,1967.87L984.395,1985.91L966.239,1986.64C966.239,1986.64 956.681,1987.42 957.421,1976.88C958.558,1960.67 981.754,1920.84 981.754,1920.84Z" style="fill:rgb(217,217,217);"/>
                    </g>
                </g>
            </g>
            <g id="Buttons1" serif:id="Buttons">
                <g transform="matrix(0.242306,-0.419686,-0.720286,5.55112e-17,1422.4,1810.59)">
                    <path d="M2091.59,643.607C2091.59,641.258 2089.08,639.351 2085.99,639.351L2078.32,639.351C2075.23,639.351 2072.72,641.258 2072.72,643.607C2072.72,645.955 2075.23,647.862 2078.32,647.862L2085.99,647.862C2089.08,647.862 2091.59,645.955 2091.59,643.607Z" style="fill:none;stroke:white;stroke-width:4.34px;"/>
                </g>
                <g transform="matrix(0.207257,-0.35898,-0.458454,5.90701e-17,1366.93,1560.58)">
                    <text x="1638.69px" y="522.343px" style="font-family:'Vegur-Regular', 'Vegur';font-size:50px;fill:white;">A</text>
                </g>
                <g transform="matrix(0.219228,-0.379715,-0.506286,4.22135e-17,1418.25,1609.41)">
                    <text x="1640.67px" y="522.343px" style="font-family:'Vegur-Regular', 'Vegur';font-size:50px;fill:white;">B</text>
                </g>
            </g>
        </g>
    </g>
</svg>
