<?xml version="1.0" encoding="UTF-8" standalone="no"?>
<!DOCTYPE svg PUBLIC "-//W3C//DTD SVG 1.1//EN" "http://www.w3.org/Graphics/SVG/1.1/DTD/svg11.dtd">
<svg width="100%" height="100%" viewBox="0 0 1100 600" version="1.1" xmlns="http://www.w3.org/2000/svg" xmlns:xlink="http://www.w3.org/1999/xlink" xml:space="preserve" xmlns:serif="http://www.serif.com/" style="fill-rule:evenodd;clip-rule:evenodd;stroke-linecap:round;stroke-linejoin:round;stroke-miterlimit:1.5;">
    <g id="WhiteSolidTop" transform="matrix(1,0,0,1,-12.5493,1440.37)">
        <g transform="matrix(0.78586,0,0,0.78586,-851.426,-1479.01)">
            <g id="Controller" transform="matrix(1,0,0,1,32.1525,-222.195)">
                <g transform="matrix(1,0,0,1,-11.98,222.195)">
                    <path d="M1405.82,439.592C1382.51,410.384 1368.55,373.232 1368.55,332.807C1368.55,238.881 1443.92,162.625 1536.77,162.625C1629.61,162.625 1704.99,238.881 1704.99,332.807C1704.99,412.426 1650.82,479.349 1577.77,497.889C1578.85,502.777 1623.73,708.588 1541.1,717.477C1446.46,727.658 1413.07,500.652 1405.82,439.592ZM1538.06,180.826C1623.85,180.826 1693.49,250.473 1693.49,336.259C1693.49,422.045 1623.85,491.693 1538.06,491.693C1452.27,491.693 1382.63,422.045 1382.63,336.259C1382.63,250.473 1452.27,180.826 1538.06,180.826Z" style="fill:white;"/>
                </g>
                <g transform="matrix(1.02019,0,0,1.02019,-115.579,-12.0314)">
                    <circle cx="1609.18" cy="559.198" r="145.481" style="fill:rgb(242,242,242);"/>
                </g>
                <g transform="matrix(1,0,0,1.04801,-75.9223,-19.1456)">
                    <path d="M1616.65,367.704C1629.53,367.704 1640.58,375.604 1645.21,386.818C1631.12,383.071 1616.31,381.074 1601.05,381.074C1586.1,381.074 1571.59,382.99 1557.76,386.59C1562.45,375.497 1573.43,367.704 1586.23,367.704L1616.65,367.704Z" style="fill:white;"/>
                </g>
                <g transform="matrix(1,0,0,1,-75.9223,0)">
                    <path d="M1642.53,755.993C1635.78,749.261 1632.5,735.02 1633.16,727.238C1645.64,724.594 1667.14,717.543 1680.08,710.47C1685.8,720.069 1688.33,741.831 1684.38,745.278C1681.41,747.877 1653.45,754.02 1642.53,755.993Z" style="fill:white;"/>
                </g>
                <g transform="matrix(1,0,0,1,-75.9223,0)">
                    <path d="M1466.69,444.188C1442.26,474.384 1427.6,512.974 1427.6,555.002C1427.6,564.842 1428.4,574.493 1429.94,583.893L1221.3,583.893C1218.25,529.359 1232.21,463.941 1246.35,444.188L1466.69,444.188Z" style="fill:white;"/>
                </g>
                <g transform="matrix(1,0,0,1,-75.9223,0)">
                    <path d="M1734.73,444.188L1777.19,444.188C1791.33,463.94 1805.29,529.358 1802.24,583.893L1771.47,583.893C1773.02,574.493 1773.82,564.842 1773.82,555.002C1773.82,512.974 1759.16,474.384 1734.73,444.188Z" style="fill:white;"/>
                </g>
                <g transform="matrix(0.960893,0,0,0.960893,11.7088,45.9229)">
                    <circle cx="1622.12" cy="495.733" r="27.541" style="fill:rgb(157,157,157);"/>
                </g>
                <g transform="matrix(0.960893,0,0,0.960893,-14.7712,119.911)">
                    <circle cx="1622.12" cy="495.733" r="27.541" style="fill:rgb(157,157,157);"/>
                </g>
                <g transform="matrix(0.796452,0,0,0.796452,184.248,248.675)">
                    <circle cx="1622.12" cy="495.733" r="27.541" style="fill:rgb(157,157,157);"/>
                </g>
                <g transform="matrix(1.02908,0,0,1.02908,-122.823,-18.3201)">
                    <circle cx="1696.35" cy="584.11" r="36.155" style="fill:rgb(169,169,169);"/>
                </g>
                <g transform="matrix(1.03309,0,0,1.03309,-128.597,-19.9425)">
                    <circle cx="1537.67" cy="538.899" r="48.303" style="fill:rgb(157,157,157);"/>
                </g>
                <g transform="matrix(0.70229,0,0,0.70229,384.169,162.325)">
                    <circle cx="1537.67" cy="538.899" r="48.303" style="fill:rgb(199,199,199);"/>
                </g>
                <g transform="matrix(0.548814,0,0,0.546348,620.296,246.362)">
                    <circle cx="1537.67" cy="538.899" r="48.303" style="fill:white;"/>
                </g>
                <g transform="matrix(0.47052,0,0,0.468407,740.685,288.365)">
                    <circle cx="1537.67" cy="538.899" r="48.303" style="fill:rgb(199,199,199);"/>
                </g>
            </g>
            <g id="Buttons">
                <g transform="matrix(0.751475,0,0,0.751475,359.497,-79.5283)">
                    <path d="M1656.19,507.543L1667.54,487.943L1662.89,487.943L1654.29,503.993L1645.79,487.943L1640.74,487.943L1652.09,507.543L1652.09,522.343L1656.19,522.343L1656.19,507.543Z" style="fill:white;fill-rule:nonzero;"/>
                </g>
                <g transform="matrix(0.756965,0,0,0.756965,324.105,-8.31343)">
                    <path d="M1656.27,505.093L1666.77,487.943L1662.12,487.943L1653.92,502.093L1646.42,487.943L1641.42,487.943L1651.32,505.243L1641.07,522.343L1645.72,522.343L1653.67,508.343L1661.57,522.343L1666.67,522.343L1656.27,505.093Z" style="fill:white;fill-rule:nonzero;"/>
                </g>
                <g transform="matrix(1,0,0,1,-44.2221,-223.926)">
                    <g transform="matrix(1,0,0,1,0.954888,3.59284)">
                        <path d="M1560.55,634.976C1560.55,634.531 1560.18,634.169 1559.74,634.169L1543.48,634.169C1543.03,634.169 1542.67,634.531 1542.67,634.976L1542.67,636.59C1542.67,637.035 1543.03,637.396 1543.48,637.396L1559.74,637.396C1560.18,637.396 1560.55,637.035 1560.55,636.59L1560.55,634.976Z" style="fill:white;"/>
                    </g>
                    <g transform="matrix(1,0,0,1,0.954888,9.45027)">
                        <path d="M1560.55,634.976C1560.55,634.531 1560.18,634.169 1559.74,634.169L1543.48,634.169C1543.03,634.169 1542.67,634.531 1542.67,634.976L1542.67,636.59C1542.67,637.035 1543.03,637.396 1543.48,637.396L1559.74,637.396C1560.18,637.396 1560.55,637.035 1560.55,636.59L1560.55,634.976Z" style="fill:white;"/>
                    </g>
                    <g transform="matrix(1,0,0,1,0.954888,15.3077)">
                        <path d="M1560.55,634.976C1560.55,634.531 1560.18,634.169 1559.74,634.169L1543.48,634.169C1543.03,634.169 1542.67,634.531 1542.67,634.976L1542.67,636.59C1542.67,637.035 1543.03,637.396 1543.48,637.396L1559.74,637.396C1560.18,637.396 1560.55,637.035 1560.55,636.59L1560.55,634.976Z" style="fill:white;"/>
                    </g>
                </g>
            </g>
        </g>
        <g transform="matrix(0.78586,0,0,0.78586,-831.637,-1479.01)">
            <g id="Controller1" serif:id="Controller" transform="matrix(1,0,0,1,-18.957,-222.195)">
                <g transform="matrix(1,0,0,1,18.957,222.195)">
                    <path d="M2147.37,439.592C2170.68,410.384 2184.64,373.232 2184.64,332.807C2184.64,238.881 2109.26,162.625 2016.42,162.625C1923.58,162.625 1848.2,238.881 1848.2,332.807C1848.2,412.426 1902.37,479.349 1975.42,497.889C1974.34,502.777 1929.46,708.588 2012.09,717.477C2106.73,727.658 2140.12,500.652 2147.37,439.592ZM2015.13,180.826C1929.34,180.826 1859.7,250.473 1859.7,336.259C1859.7,422.045 1929.34,491.693 2015.13,491.693C2100.92,491.693 2170.56,422.045 2170.56,336.259C2170.56,250.473 2100.92,180.826 2015.13,180.826Z" style="fill:white;"/>
                </g>
                <g transform="matrix(-1.02019,0,0,1.02019,3675.75,-12.0314)">
                    <circle cx="1609.18" cy="559.198" r="145.481" style="fill:rgb(242,242,242);"/>
                </g>
                <g transform="matrix(-1,0,0,1,3636.09,0)">
                    <path d="M1642.53,755.993C1635.78,749.261 1632.5,735.02 1633.16,727.238C1645.64,724.594 1667.14,717.543 1680.08,710.47C1685.8,720.069 1688.33,741.831 1684.38,745.278C1681.41,747.877 1653.45,754.02 1642.53,755.993Z" style="fill:white;"/>
                </g>
                <g transform="matrix(-1,0,0,1.04801,3636.09,-19.1456)">
                    <path d="M1616.65,367.704C1629.53,367.704 1640.58,375.604 1645.21,386.818C1631.12,383.071 1616.31,381.074 1601.05,381.074C1586.1,381.074 1571.59,382.99 1557.76,386.59C1562.45,375.497 1573.43,367.704 1586.23,367.704L1616.65,367.704Z" style="fill:white;"/>
                </g>
                <g transform="matrix(-1,0,0,1,3636.09,0)">
                    <path d="M1466.69,444.188C1442.26,474.384 1427.6,512.974 1427.6,555.002C1427.6,564.842 1428.4,574.493 1429.94,583.893L1221.3,583.893C1218.25,529.359 1232.21,463.941 1246.35,444.188L1466.69,444.188Z" style="fill:white;"/>
                </g>
                <g transform="matrix(-1,0,0,1,3636.09,0)">
                    <path d="M1734.73,444.188L1777.19,444.188C1791.33,463.94 1805.29,529.358 1802.24,583.893L1771.47,583.893C1773.02,574.493 1773.82,564.842 1773.82,555.002C1773.82,512.974 1759.16,474.384 1734.73,444.188Z" style="fill:white;"/>
                </g>
                <g transform="matrix(-0.960893,0,0,0.960893,3548.46,45.9229)">
                    <circle cx="1622.12" cy="495.733" r="27.541" style="fill:rgb(157,157,157);"/>
                </g>
                <g transform="matrix(-0.960893,0,0,0.960893,3574.94,119.911)">
                    <circle cx="1622.12" cy="495.733" r="27.541" style="fill:rgb(157,157,157);"/>
                </g>
                <g transform="matrix(-0.796452,0,0,0.796452,3375.92,248.675)">
                    <circle cx="1622.12" cy="495.733" r="27.541" style="fill:rgb(157,157,157);"/>
                </g>
                <g transform="matrix(1,0,0,0.827816,1.8251,110.714)">
                    <path d="M2091.59,643.607C2091.59,641.258 2090.01,639.351 2088.06,639.351L2076.24,639.351C2074.3,639.351 2072.72,641.258 2072.72,643.607C2072.72,645.955 2074.3,647.862 2076.24,647.862L2088.06,647.862C2090.01,647.862 2091.59,645.955 2091.59,643.607Z" style="fill:none;stroke:white;stroke-width:2.02px;"/>
                </g>
                <g transform="matrix(-1.02908,0,0,1.02908,3682.99,-18.3201)">
                    <circle cx="1696.35" cy="584.11" r="36.155" style="fill:rgb(169,169,169);"/>
                </g>
                <g transform="matrix(-1.03309,0,0,1.03309,3688.76,-19.9425)">
                    <circle cx="1537.67" cy="538.899" r="48.303" style="fill:rgb(157,157,157);"/>
                </g>
                <g transform="matrix(-0.70229,0,0,0.70229,3176,162.325)">
                    <circle cx="1537.67" cy="538.899" r="48.303" style="fill:rgb(199,199,199);"/>
                </g>
                <g transform="matrix(0.548814,0,0,0.546348,1252.21,246.362)">
                    <circle cx="1537.67" cy="538.899" r="48.303" style="fill:white;"/>
                </g>
                <g transform="matrix(0.47052,0,0,0.468407,1372.6,288.365)">
                    <circle cx="1537.67" cy="538.899" r="48.303" style="fill:rgb(199,199,199);"/>
                </g>
            </g>
            <g id="Buttons1" serif:id="Buttons">
                <g transform="matrix(0.765162,0,0,0.765162,704.94,-86.4425)">
                    <text x="1640.67px" y="522.343px" style="font-family:'Vegur-Regular', 'Vegur';font-size:50px;fill:white;">B</text>
                </g>
                <g transform="matrix(0.759,0,0,0.759,742.185,-9.34113)">
                    <text x="1638.69px" y="522.343px" style="font-family:'Vegur-Regular', 'Vegur';font-size:50px;fill:white;">A</text>
                </g>
            </g>
        </g>
    </g>
</svg>
