<?xml version="1.0" encoding="UTF-8" standalone="no"?>
<!DOCTYPE svg PUBLIC "-//W3C//DTD SVG 1.1//EN" "http://www.w3.org/Graphics/SVG/1.1/DTD/svg11.dtd">
<svg width="100%" height="100%" viewBox="0 0 400 400" version="1.1" xmlns="http://www.w3.org/2000/svg" xmlns:xlink="http://www.w3.org/1999/xlink" xml:space="preserve" xmlns:serif="http://www.serif.com/" style="fill-rule:evenodd;clip-rule:evenodd;stroke-linecap:round;stroke-linejoin:round;stroke-miterlimit:1.5;">
    <g transform="matrix(1,0,0,1,-50,-154)">
        <g transform="matrix(4.16667,0,0,4.16667,0,0)">
            <g id="TrackpadArrowSimpleUpDown" transform="matrix(1,0,0,1,-689.497,-226.393)">
                <g id="Trackpad" transform="matrix(0.362742,0,0,0.362742,583.572,113.25)">
                    <circle cx="457.421" cy="546.237" r="113.599" style="fill:rgb(199,199,199);stroke:black;stroke-width:7.35px;"/>
                </g>
                <g id="Arrow" transform="matrix(0.790664,0,0,0.790664,594.929,-2310.14)">
                    <path d="M203.397,3283.54L195.492,3275.63L187.588,3283.54C186.995,3284.14 186.034,3284.14 185.442,3283.54C184.849,3282.95 184.849,3281.99 185.442,3281.39L194.388,3272.44C194.692,3272.14 195.093,3271.99 195.492,3272C195.891,3271.99 196.292,3272.14 196.597,3272.44L205.543,3281.39C206.135,3281.99 206.135,3282.95 205.543,3283.54C204.95,3284.14 203.989,3284.14 203.397,3283.54Z"/>
                </g>
                <g id="Arrow1" serif:id="Arrow" transform="matrix(0.790664,0,0,-0.790664,594.929,2932.93)">
                    <path d="M203.397,3283.54L195.492,3275.63L187.588,3283.54C186.995,3284.14 186.034,3284.14 185.442,3283.54C184.849,3282.95 184.849,3281.99 185.442,3281.39L194.388,3272.44C194.692,3272.14 195.093,3271.99 195.492,3272C195.891,3271.99 196.292,3272.14 196.597,3272.44L205.543,3281.39C206.135,3281.99 206.135,3282.95 205.543,3283.54C204.95,3284.14 203.989,3284.14 203.397,3283.54Z"/>
                </g>
            </g>
        </g>
    </g>
</svg>
