<?xml version="1.0" encoding="UTF-8" standalone="no"?>
<!DOCTYPE svg PUBLIC "-//W3C//DTD SVG 1.1//EN" "http://www.w3.org/Graphics/SVG/1.1/DTD/svg11.dtd">
<svg width="100%" height="100%" viewBox="0 0 270 500" version="1.1" xmlns="http://www.w3.org/2000/svg" xmlns:xlink="http://www.w3.org/1999/xlink" xml:space="preserve" xmlns:serif="http://www.serif.com/" style="fill-rule:evenodd;clip-rule:evenodd;stroke-linecap:round;stroke-linejoin:round;stroke-miterlimit:1.5;">
    <g id="BlackOutlineRemote" transform="matrix(1.05175,0,0,1.05175,-3240.05,-1937.18)">
        <g>
            <path d="M3274.34,2071.16C3275.16,2071.16 3275.82,2071.82 3275.82,2072.63L3275.82,2082.01L3285.19,2082.01C3286.01,2082.01 3286.67,2082.67 3286.67,2083.48L3286.67,2090.46C3286.67,2091.27 3286.01,2091.93 3285.19,2091.93L3275.82,2091.93L3275.82,2101.31C3275.82,2102.12 3275.16,2102.78 3274.34,2102.78L3267.37,2102.78C3266.55,2102.78 3265.89,2102.12 3265.89,2101.31L3265.89,2091.93L3256.52,2091.93C3255.7,2091.93 3255.04,2091.27 3255.04,2090.46L3255.04,2083.48C3255.04,2082.67 3255.7,2082.01 3256.52,2082.01L3265.89,2082.01L3265.89,2072.63C3265.89,2071.82 3266.55,2071.16 3267.37,2071.16L3274.34,2071.16Z" style="fill:none;stroke:black;stroke-width:2.07px;"/>
        </g>
        <g transform="matrix(1.01603,0,0,0.97863,-51.5656,46.1087)">
            <path d="M3232.49,2140.89C3232.49,2132.88 3226.23,2126.38 3218.51,2126.38L3199.67,2126.38C3191.96,2126.38 3185.7,2132.88 3185.7,2140.89C3185.7,2148.89 3191.96,2155.4 3199.67,2155.4L3218.51,2155.4C3226.23,2155.4 3232.49,2148.89 3232.49,2140.89Z" style="fill:none;stroke:black;stroke-width:2.07px;"/>
        </g>
        <g transform="matrix(0.599291,0,0,0.339537,1285.8,1414.33)">
            <path d="M3232.49,2140.89C3232.49,2132.88 3228.81,2126.38 3224.27,2126.38L3193.91,2126.38C3189.38,2126.38 3185.7,2132.88 3185.7,2140.89C3185.7,2148.89 3189.38,2155.4 3193.91,2155.4L3224.27,2155.4C3228.81,2155.4 3232.49,2148.89 3232.49,2140.89Z" style="fill:none;stroke:black;stroke-width:4.25px;"/>
        </g>
        <g transform="matrix(0.652987,0,0,0.329962,1051.58,1380.43)">
            <path d="M3232.49,2127.61C3232.49,2126.93 3232.21,2126.38 3231.86,2126.38L3186.32,2126.38C3185.97,2126.38 3185.7,2126.93 3185.7,2127.61L3185.7,2154.16C3185.7,2154.84 3185.97,2155.4 3186.32,2155.4L3231.86,2155.4C3232.21,2155.4 3232.49,2154.84 3232.49,2154.16L3232.49,2127.61Z" style="fill:none;stroke:black;stroke-width:4px;"/>
        </g>
        <g transform="matrix(0.92166,0,0,0.924682,550.575,202.895)">
            <path d="M2986.16,1900.96C2986.16,1843.46 2940.55,1800.16 2884.36,1800.16C2828.17,1800.16 2782.55,1843.46 2782.55,1900.96L2782.55,2154.71C2782.55,2212.21 2828.17,2258.89 2884.36,2258.89C2940.55,2258.89 2986.16,2212.21 2986.16,2154.71L2986.16,1900.96Z" style="fill:none;stroke:black;stroke-width:2.24px;"/>
        </g>
        <g transform="matrix(1.22017,0,0,1.18334,-275.184,-272.088)">
            <circle cx="2855.47" cy="1883.68" r="66.256" style="fill:none;stroke:black;stroke-width:1.72px;"/>
        </g>
        <g transform="matrix(0.536805,0,0,0.515262,1676.14,987.477)">
            <circle cx="2855.47" cy="1883.68" r="66.256" style="fill:none;stroke:black;stroke-width:3.93px;"/>
        </g>
        <g transform="matrix(0.429772,0,0,0.429772,1981.77,1277.21)">
            <circle cx="2855.47" cy="1883.68" r="66.256" style="fill:none;stroke:black;stroke-width:4.81px;"/>
        </g>
        <g transform="matrix(1.24196,0,0,1.24196,-378.023,-454.607)">
            <g transform="matrix(0.748327,0,0,0.806561,690.687,360.911)">
                <path d="M2936.76,2098.83L2944.01,2098.83C2947.91,2098.83 2951.07,2095.58 2951.07,2091.57C2951.07,2087.55 2947.91,2084.3 2944.01,2084.3L2922.54,2084.3" style="fill:none;stroke:black;stroke-width:2.14px;"/>
            </g>
            <g transform="matrix(0.748327,0,0,0.748327,690.687,482.333)">
                <g transform="matrix(0.842281,0,0,0.842281,461.593,328.108)">
                    <path d="M2928.63,2077.43L2921.12,2084.94" style="fill:none;stroke:black;stroke-width:2.64px;"/>
                </g>
                <g transform="matrix(0.842281,0,0,-0.842281,461.593,3840.38)">
                    <path d="M2928.63,2077.43L2921.12,2084.94" style="fill:none;stroke:black;stroke-width:2.64px;"/>
                </g>
            </g>
        </g>
    </g>
</svg>
