<?xml version="1.0" encoding="UTF-8" standalone="no"?>
<!DOCTYPE svg PUBLIC "-//W3C//DTD SVG 1.1//EN" "http://www.w3.org/Graphics/SVG/1.1/DTD/svg11.dtd">
<svg width="100%" height="100%" viewBox="0 0 260 260" version="1.1" xmlns="http://www.w3.org/2000/svg" xmlns:xlink="http://www.w3.org/1999/xlink" xml:space="preserve" xmlns:serif="http://www.serif.com/" style="fill-rule:evenodd;clip-rule:evenodd;stroke-linejoin:round;stroke-miterlimit:1.41421;">
    <g transform="matrix(1,0,0,1,-95,-95)">
        <g transform="matrix(3.33333,0,0,3.33333,25,-58.3333)">
            <g transform="matrix(1,0,0,1,-23.6158,-1234)">
                <g id="Button_B">
                    <path d="M83.616,1288.93C67.019,1288.93 53.545,1302.4 53.545,1319C53.545,1335.59 67.019,1349.07 83.616,1349.07C100.212,1349.07 113.686,1335.59 113.686,1319C113.686,1302.4 100.212,1288.93 83.616,1288.93ZM76.559,1333.82C78.385,1334.21 80.428,1334.38 82.819,1334.38C89.297,1334.38 93.818,1331.21 93.818,1326C93.818,1322.43 91.166,1319.21 86.993,1318.65C90.688,1317.91 93.644,1315.26 93.644,1311.65C93.644,1306.87 90.514,1303.61 83.08,1303.61C81.515,1303.61 79.081,1303.83 76.559,1304.17L76.559,1333.82ZM80.124,1320.65L82.167,1320.65C87.558,1320.65 89.905,1323.04 89.905,1326.43C89.905,1329.52 86.906,1331.26 83.428,1331.26C82.515,1331.26 81.254,1331.17 80.124,1331.08L80.124,1320.65ZM81.95,1317.74L80.124,1317.74L80.124,1306.95C81.515,1306.78 82.211,1306.74 83.167,1306.74C87.601,1306.74 89.775,1308.61 89.775,1312.13C89.775,1315.82 86.471,1317.74 81.95,1317.74Z" style="fill:rgb(59,59,59);"/>
                </g>
            </g>
        </g>
    </g>
</svg>
