<?xml version="1.0" encoding="UTF-8" standalone="no"?>
<!DOCTYPE svg PUBLIC "-//W3C//DTD SVG 1.1//EN" "http://www.w3.org/Graphics/SVG/1.1/DTD/svg11.dtd">
<svg width="100%" height="100%" viewBox="0 0 200 200" version="1.1" xmlns="http://www.w3.org/2000/svg" xmlns:xlink="http://www.w3.org/1999/xlink" xml:space="preserve" xmlns:serif="http://www.serif.com/" style="fill-rule:evenodd;clip-rule:evenodd;stroke-linejoin:round;stroke-miterlimit:1.41421;">
    <g transform="matrix(1,0,0,1,-125,-125)">
        <g transform="matrix(3.33333,0,0,3.33333,25,-58.3333)">
            <g transform="matrix(1,0,0,1,-208.032,-1137.19)">
                <g id="SystemMenuButton">
                    <path d="M268.032,1197.26C281.788,1197.26 292.956,1208.43 292.956,1222.19C292.956,1235.94 281.788,1247.11 268.032,1247.11C254.275,1247.11 243.107,1235.94 243.107,1222.19C243.107,1208.43 254.275,1197.26 268.032,1197.26ZM277.272,1227.01L258.791,1227.01C258.285,1227.01 257.874,1227.42 257.874,1227.93L257.874,1229.76C257.874,1230.27 258.285,1230.68 258.791,1230.68L277.272,1230.68C277.778,1230.68 278.189,1230.27 278.189,1229.76L278.189,1227.93C278.189,1227.42 277.778,1227.01 277.272,1227.01ZM277.272,1220.35L258.791,1220.35C258.285,1220.35 257.874,1220.76 257.874,1221.27L257.874,1223.1C257.874,1223.61 258.285,1224.02 258.791,1224.02L277.272,1224.02C277.778,1224.02 278.189,1223.61 278.189,1223.1L278.189,1221.27C278.189,1220.76 277.778,1220.35 277.272,1220.35ZM277.272,1213.7L258.791,1213.7C258.285,1213.7 257.874,1214.11 257.874,1214.62L257.874,1216.45C257.874,1216.95 258.285,1217.37 258.791,1217.37L277.272,1217.37C277.778,1217.37 278.189,1216.95 278.189,1216.45L278.189,1214.62C278.189,1214.11 277.778,1213.7 277.272,1213.7Z" style="fill:rgb(59,59,59);"/>
                </g>
            </g>
        </g>
    </g>
</svg>
