<?xml version="1.0" encoding="UTF-8" standalone="no"?>
<!DOCTYPE svg PUBLIC "-//W3C//DTD SVG 1.1//EN" "http://www.w3.org/Graphics/SVG/1.1/DTD/svg11.dtd">
<svg width="100%" height="100%" viewBox="0 0 300 650" version="1.1" xmlns="http://www.w3.org/2000/svg" xmlns:xlink="http://www.w3.org/1999/xlink" xml:space="preserve" xmlns:serif="http://www.serif.com/" style="fill-rule:evenodd;clip-rule:evenodd;stroke-linejoin:round;stroke-miterlimit:1.41421;">
    <g transform="matrix(1,0,0,1,-100,-29)">
        <g transform="matrix(4.16667,0,0,4.16667,0,0)">
            <g transform="matrix(1,0,0,1,-1141.35,-316.857)">
                <g id="GripButtonR">
                    <path d="M1232.95,359.357C1232.95,341.916 1218.79,327.757 1201.35,327.757C1183.91,327.757 1169.75,341.916 1169.75,359.357L1169.75,444.357C1169.75,461.797 1183.91,475.957 1201.35,475.957C1218.79,475.957 1232.95,461.797 1232.95,444.357L1232.95,359.357ZM1192.86,414.66L1197.7,414.66L1197.7,404.865L1199.42,404.865C1202.1,404.865 1202.62,406.186 1202.98,408.02C1203.35,409.855 1203.97,412.679 1204.56,414.66L1209.84,414.66C1209.22,413.01 1208.38,409.965 1207.9,407.727C1207.31,404.865 1206.25,402.407 1203.94,402.077C1207.06,401.453 1209.26,399.472 1209.26,396.097C1209.26,391.842 1206.1,389.054 1199.83,389.054C1197.85,389.054 1194.99,389.2 1192.86,389.494L1192.86,414.66ZM1198.99,400.94L1197.7,400.94L1197.7,393.272C1198.51,393.199 1199.24,393.162 1199.9,393.162C1202.8,393.162 1204.05,394.74 1204.05,396.904C1204.05,399.179 1202.25,400.94 1198.99,400.94Z" style="fill:rgb(59,59,59);"/>
                </g>
            </g>
        </g>
    </g>
</svg>
