<?xml version="1.0" encoding="UTF-8" standalone="no"?>
<!DOCTYPE svg PUBLIC "-//W3C//DTD SVG 1.1//EN" "http://www.w3.org/Graphics/SVG/1.1/DTD/svg11.dtd">
<svg width="100%" height="100%" viewBox="0 0 300 650" version="1.1" xmlns="http://www.w3.org/2000/svg" xmlns:xlink="http://www.w3.org/1999/xlink" xml:space="preserve" xmlns:serif="http://www.serif.com/" style="fill-rule:evenodd;clip-rule:evenodd;stroke-linejoin:round;stroke-miterlimit:1.41421;">
    <g transform="matrix(1,0,0,1,-100,-29)">
        <g transform="matrix(4.16667,0,0,4.16667,0,0)">
            <g transform="matrix(1,0,0,1,-949.624,-158.77)">
                <g id="GripButton2Borders">
                    <path d="M1041.22,201.27C1041.22,183.83 1027.07,169.67 1009.62,169.67C992.184,169.67 978.024,183.83 978.024,201.27L978.024,286.27C978.024,303.711 992.184,317.87 1009.62,317.87C1027.07,317.87 1041.22,303.711 1041.22,286.27L1041.22,201.27ZM1009.79,177.83C1023.02,177.955 1035.2,189.313 1035.34,203.38C1035.42,230.362 1035.59,257.345 1035.34,284.326C1035.17,294.471 1028.49,304.198 1019.05,307.926C1008.84,311.955 996.199,308.528 989.391,299.868C985.936,295.473 983.994,289.946 983.905,284.326C983.648,257.29 983.648,230.25 983.905,203.214C984.115,189.994 995.437,178.051 1009.29,177.831C1009.45,177.83 1009.62,177.829 1009.79,177.83ZM1009.46,179.464C997.067,179.581 985.663,190.209 985.537,203.39C985.452,230.362 985.283,257.335 985.539,284.306C985.702,294.577 993.055,304.261 1002.89,307.122C1010.85,309.438 1019.95,307.279 1026.02,301.622C1030.76,297.207 1033.6,290.864 1033.7,284.306C1033.96,257.283 1033.96,230.257 1033.7,203.235C1033.51,190.957 1022.91,179.671 1009.93,179.465C1009.78,179.464 1009.62,179.463 1009.46,179.464Z" style="fill:rgb(59,59,59);"/>
                </g>
            </g>
        </g>
    </g>
</svg>
