<?xml version="1.0" encoding="UTF-8" standalone="no"?>
<!DOCTYPE svg PUBLIC "-//W3C//DTD SVG 1.1//EN" "http://www.w3.org/Graphics/SVG/1.1/DTD/svg11.dtd">
<svg width="100%" height="100%" viewBox="0 0 400 400" version="1.1" xmlns="http://www.w3.org/2000/svg" xmlns:xlink="http://www.w3.org/1999/xlink" xml:space="preserve" xmlns:serif="http://www.serif.com/" style="fill-rule:evenodd;clip-rule:evenodd;stroke-linejoin:round;stroke-miterlimit:1.41421;">
    <g transform="matrix(1,0,0,1,-50,-154)">
        <g transform="matrix(4.16667,0,0,4.16667,0,0)">
            <g transform="matrix(1,0,0,1,-680.55,-300.018)">
                <g id="TrackpadNumbersPointsCross">
                    <g>
                        <g transform="matrix(1,0,0,1,0,1.00263)">
                            <g transform="matrix(1,0,0,1,-105.972,-177.61)">
                                <g>
                                    <path d="M818.006,593.196L846.967,564.235L875.501,592.77C867.902,599.845 857.714,604.175 846.522,604.175C835.556,604.175 825.554,600.018 818.006,593.196ZM846.522,576.664C851.843,576.664 856.163,580.984 856.163,586.305C856.163,591.626 851.843,595.945 846.522,595.945C841.201,595.945 836.881,591.626 836.881,586.305C836.881,580.984 841.201,576.664 846.522,576.664ZM815.377,532.646L845.02,562.288L816.024,591.284C808.567,583.618 803.972,573.154 803.972,561.625C803.972,550.434 808.302,540.245 815.377,532.646ZM878.092,533.11C884.915,540.658 889.072,550.66 889.072,561.625C889.072,572.928 884.655,583.207 877.455,590.83L848.914,562.288L878.092,533.11ZM844.511,584.04C844.951,583.71 845.599,583.503 846.148,583.503C847.003,583.503 847.455,583.869 847.455,584.468C847.455,585.164 846.796,585.701 845.305,585.701L845.305,586.972C846.832,586.972 847.516,587.326 847.516,588.157C847.516,588.804 846.954,589.195 846.05,589.195C845.44,589.195 844.805,589.048 844.182,588.755L844.059,590.16C844.621,590.441 845.305,590.563 845.965,590.563C847.968,590.563 849.251,589.586 849.251,588.144C849.251,587.082 848.579,586.227 847.077,586.092C848.188,585.958 849.19,585.249 849.19,584.175C849.19,582.965 848.31,582.135 846.429,582.135C845.733,582.135 845.037,582.293 844.45,582.623L844.511,584.04ZM822.011,551.984C827.332,551.984 831.652,556.304 831.652,561.625C831.652,566.946 827.332,571.266 822.011,571.266C816.69,571.266 812.37,566.946 812.37,561.625C812.37,556.304 816.69,551.984 822.011,551.984ZM871.033,551.984C876.354,551.984 880.674,556.304 880.674,561.625C880.674,566.946 876.354,571.266 871.033,571.266C865.712,571.266 861.392,566.946 861.392,561.625C861.392,556.304 865.712,551.984 871.033,551.984ZM872.85,565.581L871.238,565.581L871.238,563.749L868.013,563.749L868.013,562.479L870.676,557.507L872.85,557.507L872.85,562.381L873.937,562.381L873.937,563.749L872.85,563.749L872.85,565.581ZM824.615,565.239L819.473,565.239L819.473,563.981L821.635,561.782C822.514,560.878 822.979,560.182 822.979,559.535C822.979,558.728 822.527,558.35 821.659,558.35C821.134,558.35 820.523,558.582 819.974,559.083L819.9,557.629C820.523,557.189 821.183,556.982 821.965,556.982C823.87,556.982 824.713,558.069 824.713,559.315C824.713,560.439 824.029,561.404 822.869,562.491L821.403,563.871L824.615,563.871L824.615,565.239ZM871.262,562.381L871.262,560.744C871.262,560.048 871.274,559.535 871.336,558.924L869.674,562.381L871.262,562.381ZM817.317,530.692C824.94,523.492 835.219,519.075 846.522,519.075C858.051,519.075 868.515,523.67 876.181,531.127L846.967,560.341L817.317,530.692ZM846.522,527.305C851.843,527.305 856.163,531.625 856.163,536.946C856.163,542.267 851.843,546.587 846.522,546.587C841.201,546.587 836.881,542.267 836.881,536.946C836.881,531.625 841.201,527.305 846.522,527.305ZM847.781,540.305L846.168,540.305L846.168,534.088L843.798,535.456L843.75,533.941L846.376,532.219L847.781,532.219L847.781,540.305Z" style="fill:rgb(59,59,59);"/>
                                </g>
                            </g>
                        </g>
                    </g>
                </g>
            </g>
        </g>
    </g>
</svg>
