<?xml version="1.0" encoding="UTF-8" standalone="no"?>
<!DOCTYPE svg PUBLIC "-//W3C//DTD SVG 1.1//EN" "http://www.w3.org/Graphics/SVG/1.1/DTD/svg11.dtd">
<svg width="100%" height="100%" viewBox="0 0 400 400" version="1.1" xmlns="http://www.w3.org/2000/svg" xmlns:xlink="http://www.w3.org/1999/xlink" xml:space="preserve" xmlns:serif="http://www.serif.com/" style="fill-rule:evenodd;clip-rule:evenodd;stroke-linejoin:round;stroke-miterlimit:1.41421;">
    <g transform="matrix(1,0,0,1,-50,-154)">
        <g transform="matrix(4.16667,0,0,4.16667,0,0)">
            <g id="TrackpadColors4Directions" transform="matrix(0.374562,0,0,0.374562,-111.333,-119.6)">
                <circle cx="457.421" cy="546.237" r="113.599" style="fill:none;"/>
                <clipPath id="_clip1">
                    <circle cx="457.421" cy="546.237" r="113.599"/>
                </clipPath>
                <g clip-path="url(#_clip1)">
                    <g transform="matrix(2.75685,0,0,2.75685,-2940.67,-194.898)">
                        <path d="M1203.64,240.239L1232.62,268.885L1262.69,240.565C1246.24,203.689 1227.16,194.046 1203.64,240.239Z" style="fill:rgb(253,192,86);"/>
                    </g>
                    <g transform="matrix(2.22045e-16,2.75685,-2.75685,2.22045e-16,1204.88,-2851.63)">
                        <path d="M1203.56,240.593L1232.57,271.11L1263.69,240.364C1247.24,203.488 1227.08,194.399 1203.56,240.593Z" style="fill:rgb(223,72,87);"/>
                    </g>
                    <g transform="matrix(-2.75685,3.90853e-16,-3.90853e-16,-2.75685,3858.59,1293.71)">
                        <path d="M1203.39,240.452L1233.7,271.082L1263.28,240.004C1246.83,203.128 1226.91,194.258 1203.39,240.452Z" style="fill:rgb(24,145,220);"/>
                    </g>
                    <g transform="matrix(0,-2.75685,2.75685,0,-285.897,3948.61)">
                        <path d="M1203.23,240.37C1213.52,250.129 1223.84,260.192 1234.1,269.647L1262.68,240.75C1246.23,203.874 1226.75,194.177 1203.23,240.37Z" style="fill:rgb(3,189,91);"/>
                    </g>
                </g>
            </g>
        </g>
    </g>
</svg>
