<?xml version="1.0" encoding="UTF-8" standalone="no"?>
<!DOCTYPE svg PUBLIC "-//W3C//DTD SVG 1.1//EN" "http://www.w3.org/Graphics/SVG/1.1/DTD/svg11.dtd">
<svg width="100%" height="100%" viewBox="0 0 400 400" version="1.1" xmlns="http://www.w3.org/2000/svg" xmlns:xlink="http://www.w3.org/1999/xlink" xml:space="preserve" xmlns:serif="http://www.serif.com/" style="fill-rule:evenodd;clip-rule:evenodd;stroke-linejoin:round;stroke-miterlimit:1.41421;">
    <g transform="matrix(1,0,0,1,-50,-154)">
        <g transform="matrix(4.16667,0,0,4.16667,0,0)">
            <g transform="matrix(1,0,0,1,-775.101,-373.858)">
                <g id="TrackpadArrowUp">
                    <g>
                        <g transform="matrix(1,0,0,1,-689.731,104.092)">
                            <g>
                                <path d="M1524.83,312.216C1548.32,312.216 1567.38,331.282 1567.38,354.766C1567.38,378.25 1548.32,397.316 1524.83,397.316C1501.35,397.316 1482.28,378.25 1482.28,354.766C1482.28,331.282 1501.35,312.216 1524.83,312.216ZM1523.79,336.707L1523.79,324.645L1519.34,329.097C1518.93,329.509 1518.26,329.509 1517.85,329.097C1517.44,328.685 1517.44,328.018 1517.85,327.606L1524.06,321.388C1524.28,321.177 1524.55,321.076 1524.83,321.081L1524.83,321.081C1525.11,321.076 1525.39,321.177 1525.6,321.388L1531.81,327.606C1532.22,328.018 1532.22,328.685 1531.81,329.097C1531.4,329.509 1530.73,329.509 1530.32,329.097L1525.87,324.645L1525.87,336.707C1525.87,337.282 1525.41,337.749 1524.83,337.749C1524.26,337.749 1523.79,337.282 1523.79,336.707Z" style="fill:rgb(59,59,59);"/>
                            </g>
                        </g>
                    </g>
                </g>
            </g>
        </g>
    </g>
</svg>
