<?xml version="1.0" encoding="UTF-8" standalone="no"?>
<!DOCTYPE svg PUBLIC "-//W3C//DTD SVG 1.1//EN" "http://www.w3.org/Graphics/SVG/1.1/DTD/svg11.dtd">
<svg width="100%" height="100%" viewBox="0 0 400 400" version="1.1" xmlns="http://www.w3.org/2000/svg" xmlns:xlink="http://www.w3.org/1999/xlink" xml:space="preserve" xmlns:serif="http://www.serif.com/" style="fill-rule:evenodd;clip-rule:evenodd;stroke-linejoin:round;stroke-miterlimit:1.41421;">
    <g transform="matrix(1,0,0,1,-50,-154)">
        <g transform="matrix(4.16667,0,0,4.16667,0,0)">
            <g transform="matrix(1,0,0,1,-775.101,-373.858)">
                <g id="TrackpadArrowDown">
                    <g>
                        <g transform="matrix(1,0,0,1,-797.85,104.092)">
                            <g>
                                <path d="M1632.95,312.216C1656.43,312.216 1675.5,331.282 1675.5,354.766C1675.5,378.25 1656.43,397.316 1632.95,397.316C1609.47,397.316 1590.4,378.25 1590.4,354.766C1590.4,331.282 1609.47,312.216 1632.95,312.216ZM1632.95,388.451C1633.23,388.456 1633.51,388.355 1633.72,388.144L1639.93,381.926C1640.34,381.515 1640.34,380.847 1639.93,380.435C1639.52,380.023 1638.85,380.023 1638.44,380.435L1633.99,384.887L1633.99,372.825C1633.99,372.25 1633.53,371.783 1632.95,371.783C1632.38,371.783 1631.91,372.25 1631.91,372.825L1631.91,384.887L1627.46,380.435C1627.05,380.023 1626.38,380.023 1625.97,380.435C1625.56,380.847 1625.56,381.515 1625.97,381.926L1632.18,388.144C1632.39,388.355 1632.67,388.456 1632.95,388.451L1632.95,388.451Z" style="fill:rgb(59,59,59);"/>
                            </g>
                        </g>
                    </g>
                </g>
            </g>
        </g>
    </g>
</svg>
