<?xml version="1.0" encoding="UTF-8" standalone="no"?>
<!DOCTYPE svg PUBLIC "-//W3C//DTD SVG 1.1//EN" "http://www.w3.org/Graphics/SVG/1.1/DTD/svg11.dtd">
<svg width="100%" height="100%" viewBox="0 0 400 400" version="1.1" xmlns="http://www.w3.org/2000/svg" xmlns:xlink="http://www.w3.org/1999/xlink" xml:space="preserve" xmlns:serif="http://www.serif.com/" style="fill-rule:evenodd;clip-rule:evenodd;stroke-linejoin:round;stroke-miterlimit:1.41421;">
    <g transform="matrix(1,0,0,1,-50,-154)">
        <g transform="matrix(4.16667,0,0,4.16667,0,0)">
            <g transform="matrix(1,5.55112e-17,-5.55112e-17,1,-1572.96,-373.793)">
                <g id="TrackpadArrowUpRight">
                    <path d="M1654.24,421.944C1633.9,410.202 1607.85,417.18 1596.11,437.518C1584.37,457.856 1591.35,483.9 1611.69,495.642C1632.03,507.384 1658.07,500.406 1669.81,480.068C1681.55,459.73 1674.58,433.686 1654.24,421.944ZM1642.89,443.674L1648.92,433.228L1650.55,439.308C1650.7,439.87 1651.28,440.204 1651.84,440.053C1652.4,439.902 1652.74,439.324 1652.59,438.762L1650.32,430.271C1650.24,429.982 1650.05,429.755 1649.81,429.621L1649.8,429.621C1649.57,429.478 1649.28,429.426 1648.99,429.504L1640.5,431.782C1639.93,431.933 1639.6,432.511 1639.75,433.073C1639.9,433.636 1640.48,433.969 1641.04,433.818L1647.12,432.187L1641.09,442.633C1640.8,443.131 1640.97,443.768 1641.47,444.055C1641.97,444.343 1642.61,444.172 1642.89,443.674Z" style="fill:rgb(59,59,59);"/>
                </g>
            </g>
        </g>
    </g>
</svg>
