<?xml version="1.0" encoding="UTF-8" standalone="no"?>
<!DOCTYPE svg PUBLIC "-//W3C//DTD SVG 1.1//EN" "http://www.w3.org/Graphics/SVG/1.1/DTD/svg11.dtd">
<svg width="100%" height="100%" viewBox="0 0 400 400" version="1.1" xmlns="http://www.w3.org/2000/svg" xmlns:xlink="http://www.w3.org/1999/xlink" xml:space="preserve" xmlns:serif="http://www.serif.com/" style="fill-rule:evenodd;clip-rule:evenodd;stroke-linejoin:round;stroke-miterlimit:1.41421;">
    <g transform="matrix(1,0,0,1,-50,-154)">
        <g transform="matrix(4.16667,0,0,4.16667,0,0)">
            <g transform="matrix(1,0,0,1,-775.101,-373.858)">
                <g id="TrackpadArrowLeft">
                    <g>
                        <g transform="matrix(1,0,0,1,-905.97,104.092)">
                            <g>
                                <path d="M1741.07,312.216C1764.55,312.216 1783.62,331.282 1783.62,354.766C1783.62,378.25 1764.55,397.316 1741.07,397.316C1717.59,397.316 1698.52,378.25 1698.52,354.766C1698.52,331.282 1717.59,312.216 1741.07,312.216ZM1710.7,353.725L1715.15,349.277C1715.56,348.865 1715.56,348.197 1715.15,347.786C1714.74,347.375 1714.07,347.375 1713.66,347.786L1707.44,353.999C1707.23,354.21 1707.13,354.488 1707.13,354.765C1707.13,354.765 1707.13,354.765 1707.13,354.766C1707.13,354.766 1707.13,354.767 1707.13,354.767C1707.13,355.044 1707.23,355.322 1707.44,355.533L1713.66,361.746C1714.07,362.157 1714.74,362.157 1715.15,361.746C1715.56,361.334 1715.56,360.667 1715.15,360.255L1710.7,355.807L1722.76,355.807C1723.33,355.807 1723.8,355.341 1723.8,354.766C1723.8,354.191 1723.33,353.725 1722.76,353.725L1710.7,353.725Z" style="fill:rgb(59,59,59);"/>
                            </g>
                        </g>
                    </g>
                </g>
            </g>
        </g>
    </g>
</svg>
