<?xml version="1.0" encoding="UTF-8" standalone="no"?>
<!DOCTYPE svg PUBLIC "-//W3C//DTD SVG 1.1//EN" "http://www.w3.org/Graphics/SVG/1.1/DTD/svg11.dtd">
<svg width="100%" height="100%" viewBox="0 0 400 400" version="1.1" xmlns="http://www.w3.org/2000/svg" xmlns:xlink="http://www.w3.org/1999/xlink" xml:space="preserve" xmlns:serif="http://www.serif.com/" style="fill-rule:evenodd;clip-rule:evenodd;stroke-linejoin:round;stroke-miterlimit:1.41421;">
    <g transform="matrix(1,0,0,1,-50,-154)">
        <g transform="matrix(4.16667,0,0,4.16667,0,0)">
            <g transform="matrix(1,0,0,1,-2005.43,-269.766)">
                <g id="TrackpadArrowLeftRight">
                    <path d="M2107.98,354.766C2107.98,378.25 2088.91,397.316 2065.43,397.316C2041.94,397.316 2022.88,378.25 2022.88,354.766C2022.88,331.282 2041.94,312.216 2065.43,312.216C2088.91,312.216 2107.98,331.282 2107.98,354.766ZM2083.49,353.725L2095.55,353.725L2091.1,349.277C2090.69,348.865 2090.69,348.198 2091.1,347.786C2091.51,347.374 2092.18,347.374 2092.59,347.786L2098.81,353.999C2099.02,354.21 2099.12,354.488 2099.11,354.765L2099.11,354.767C2099.12,355.044 2099.02,355.322 2098.81,355.533L2092.59,361.746C2092.18,362.157 2091.51,362.157 2091.1,361.746C2090.69,361.334 2090.69,360.667 2091.1,360.255L2095.55,355.807L2083.49,355.807C2082.91,355.807 2082.45,355.341 2082.45,354.766C2082.45,354.191 2082.91,353.725 2083.49,353.725ZM2035.31,353.725L2039.76,349.276C2040.17,348.865 2040.17,348.198 2039.76,347.786C2039.35,347.375 2038.68,347.375 2038.27,347.786L2032.05,353.999C2031.84,354.21 2031.74,354.488 2031.74,354.765L2031.74,354.767C2031.74,355.044 2031.84,355.322 2032.05,355.533L2038.27,361.746C2038.68,362.157 2039.35,362.157 2039.76,361.746C2040.17,361.334 2040.17,360.667 2039.76,360.255L2035.31,355.807L2047.37,355.807C2047.94,355.807 2048.41,355.341 2048.41,354.766C2048.41,354.191 2047.94,353.725 2047.37,353.725L2035.31,353.725Z" style="fill:rgb(59,59,59);"/>
                </g>
            </g>
        </g>
    </g>
</svg>
