<?xml version="1.0" encoding="UTF-8" standalone="no"?>
<!DOCTYPE svg PUBLIC "-//W3C//DTD SVG 1.1//EN" "http://www.w3.org/Graphics/SVG/1.1/DTD/svg11.dtd">
<svg width="100%" height="100%" viewBox="0 0 400 400" version="1.1" xmlns="http://www.w3.org/2000/svg" xmlns:xlink="http://www.w3.org/1999/xlink" xml:space="preserve" xmlns:serif="http://www.serif.com/" style="fill-rule:evenodd;clip-rule:evenodd;stroke-linejoin:round;stroke-miterlimit:1.41421;">
    <g transform="matrix(1,0,0,1,-50,-154)">
        <g transform="matrix(4.16667,0,0,4.16667,0,0)">
            <g transform="matrix(1,0,0,1,-680.55,-300.018)">
                <g id="TrackpadNumbersPoints">
                    <g>
                        <g transform="matrix(1,0,0,1,0,1.00263)">
                            <g transform="matrix(1,0,0,1,-224.581,-177.61)">
                                <g>
                                    <path d="M965.131,519.075C988.615,519.075 1007.68,538.141 1007.68,561.625C1007.68,585.109 988.615,604.175 965.131,604.175C941.647,604.175 922.581,585.109 922.581,561.625C922.581,538.141 941.647,519.075 965.131,519.075ZM965.131,576.664C970.452,576.664 974.772,580.984 974.772,586.305C974.772,591.626 970.452,595.945 965.131,595.945C959.81,595.945 955.49,591.626 955.49,586.305C955.49,580.984 959.81,576.664 965.131,576.664ZM963.121,584.04C963.56,583.71 964.208,583.503 964.757,583.503C965.612,583.503 966.064,583.869 966.064,584.468C966.064,585.164 965.405,585.701 963.915,585.701L963.915,586.972C965.441,586.972 966.126,587.326 966.126,588.157C966.126,588.804 965.564,589.195 964.66,589.195C964.049,589.195 963.414,589.048 962.791,588.755L962.669,590.16C963.231,590.441 963.915,590.563 964.574,590.563C966.577,590.563 967.86,589.586 967.86,588.144C967.86,587.082 967.188,586.227 965.686,586.092C966.797,585.958 967.799,585.249 967.799,584.175C967.799,582.965 966.919,582.135 965.038,582.135C964.342,582.135 963.646,582.293 963.06,582.623L963.121,584.04ZM940.62,551.984C945.941,551.984 950.261,556.304 950.261,561.625C950.261,566.946 945.941,571.266 940.62,571.266C935.299,571.266 930.979,566.946 930.979,561.625C930.979,556.304 935.299,551.984 940.62,551.984ZM989.642,551.984C994.963,551.984 999.283,556.304 999.283,561.625C999.283,566.946 994.963,571.266 989.642,571.266C984.321,571.266 980.001,566.946 980.001,561.625C980.001,556.304 984.321,551.984 989.642,551.984ZM991.459,557.507L991.459,562.381L992.547,562.381L992.547,563.749L991.459,563.749L991.459,565.581L989.847,565.581L989.847,563.749L986.622,563.749L986.622,562.479L989.285,557.507L991.459,557.507ZM938.583,559.083C939.133,558.582 939.743,558.35 940.269,558.35C941.136,558.35 941.588,558.728 941.588,559.535C941.588,560.182 941.124,560.878 940.244,561.782L938.082,563.981L938.082,565.239L943.225,565.239L943.225,563.871L940.012,563.871L941.478,562.491C942.638,561.404 943.322,560.439 943.322,559.315C943.322,558.069 942.48,556.982 940.574,556.982C939.792,556.982 939.133,557.189 938.51,557.629L938.583,559.083ZM989.871,562.381L989.871,560.744C989.871,560.048 989.884,559.535 989.945,558.924L988.284,562.381L989.871,562.381ZM965.131,527.305C970.452,527.305 974.772,531.625 974.772,536.946C974.772,542.267 970.452,546.587 965.131,546.587C959.81,546.587 955.49,542.267 955.49,536.946C955.49,531.625 959.81,527.305 965.131,527.305ZM966.39,532.219L966.39,540.305L964.777,540.305L964.777,534.088L962.408,535.456L962.359,533.941L964.985,532.219L966.39,532.219Z" style="fill:rgb(59,59,59);"/>
                                </g>
                            </g>
                        </g>
                    </g>
                </g>
            </g>
        </g>
    </g>
</svg>
