<?xml version="1.0" encoding="UTF-8" standalone="no"?>
<!DOCTYPE svg PUBLIC "-//W3C//DTD SVG 1.1//EN" "http://www.w3.org/Graphics/SVG/1.1/DTD/svg11.dtd">
<svg width="100%" height="100%" viewBox="0 0 400 400" version="1.1" xmlns="http://www.w3.org/2000/svg" xmlns:xlink="http://www.w3.org/1999/xlink" xml:space="preserve" xmlns:serif="http://www.serif.com/" style="fill-rule:evenodd;clip-rule:evenodd;stroke-linejoin:round;stroke-miterlimit:1.41421;">
    <g transform="matrix(1,0,0,1,-50,-154)">
        <g transform="matrix(4.16667,0,0,4.16667,0,0)">
            <g transform="matrix(-1,0,0,1,895.101,-373.858)">
                <g id="TrackpadArrowRight">
                    <g>
                        <g transform="matrix(-1,0,0,1,2684.29,104.092)">
                            <g>
                                <path d="M1849.19,312.216C1825.71,312.216 1806.64,331.282 1806.64,354.766C1806.64,378.25 1825.71,397.316 1849.19,397.316C1872.67,397.316 1891.74,378.25 1891.74,354.766C1891.74,331.282 1872.67,312.216 1849.19,312.216ZM1879.56,355.807L1875.11,360.255C1874.7,360.667 1874.7,361.334 1875.11,361.746C1875.52,362.157 1876.19,362.157 1876.6,361.746L1882.82,355.533C1883.03,355.322 1883.13,355.044 1883.13,354.767C1883.13,354.767 1883.13,354.766 1883.13,354.766C1883.13,354.765 1883.13,354.765 1883.13,354.765C1883.13,354.488 1883.03,354.21 1882.82,353.999L1876.6,347.786C1876.19,347.375 1875.52,347.375 1875.11,347.786C1874.7,348.197 1874.7,348.865 1875.11,349.277L1879.56,353.725L1867.5,353.725C1866.93,353.725 1866.46,354.191 1866.46,354.766C1866.46,355.341 1866.93,355.807 1867.5,355.807L1879.56,355.807Z" style="fill:rgb(59,59,59);"/>
                            </g>
                        </g>
                    </g>
                </g>
            </g>
        </g>
    </g>
</svg>
