<?xml version="1.0" encoding="UTF-8" standalone="no"?>
<!DOCTYPE svg PUBLIC "-//W3C//DTD SVG 1.1//EN" "http://www.w3.org/Graphics/SVG/1.1/DTD/svg11.dtd">
<svg width="100%" height="100%" viewBox="0 0 400 400" version="1.1" xmlns="http://www.w3.org/2000/svg" xmlns:xlink="http://www.w3.org/1999/xlink" xml:space="preserve" xmlns:serif="http://www.serif.com/" style="fill-rule:evenodd;clip-rule:evenodd;stroke-linejoin:round;stroke-miterlimit:1.41421;">
    <g transform="matrix(1,0,0,1,-50,-154)">
        <g transform="matrix(4.16667,0,0,4.16667,0,0)">
            <g id="TrackpadArrowSimpleUpDown" transform="matrix(1,0,0,1,-2005.43,-61.7133)">
                <path d="M2065.43,104.163C2088.91,104.163 2107.98,123.229 2107.98,146.713C2107.98,170.197 2088.91,189.263 2065.43,189.263C2041.94,189.263 2022.88,170.197 2022.88,146.713C2022.88,123.229 2041.94,104.163 2065.43,104.163ZM2071.68,172.067L2065.43,178.322L2059.18,172.067C2058.71,171.598 2057.95,171.598 2057.48,172.067C2057.01,172.536 2057.01,173.297 2057.48,173.766L2064.56,180.844C2064.8,181.085 2065.11,181.2 2065.43,181.193C2065.74,181.2 2066.06,181.085 2066.3,180.844L2073.38,173.766C2073.84,173.297 2073.84,172.536 2073.38,172.067C2072.91,171.598 2072.15,171.598 2071.68,172.067ZM2071.68,121.359L2065.43,115.105L2059.18,121.359C2058.71,121.828 2057.95,121.828 2057.48,121.359C2057.01,120.89 2057.01,120.13 2057.48,119.661L2064.56,112.583C2064.8,112.342 2065.11,112.227 2065.43,112.234C2065.74,112.227 2066.06,112.342 2066.3,112.583L2073.38,119.661C2073.84,120.13 2073.84,120.89 2073.38,121.359C2072.91,121.828 2072.15,121.828 2071.68,121.359Z" style="fill:rgb(59,59,59);"/>
            </g>
        </g>
    </g>
</svg>
