<?xml version="1.0" encoding="UTF-8" standalone="no"?>
<!DOCTYPE svg PUBLIC "-//W3C//DTD SVG 1.1//EN" "http://www.w3.org/Graphics/SVG/1.1/DTD/svg11.dtd">
<svg width="100%" height="100%" viewBox="0 0 400 400" version="1.1" xmlns="http://www.w3.org/2000/svg" xmlns:xlink="http://www.w3.org/1999/xlink" xml:space="preserve" xmlns:serif="http://www.serif.com/" style="fill-rule:evenodd;clip-rule:evenodd;stroke-linejoin:round;stroke-miterlimit:1.41421;">
    <g transform="matrix(1,0,0,1,-50,-154)">
        <g transform="matrix(4.16667,0,0,4.16667,0,0)">
            <g transform="matrix(1,0,0,1,-1572.95,-165.74)">
                <g id="TrackpadArrowSimpleUpRightDownLeft">
                    <path id="Trackpad" d="M1632.95,208.19C1609.47,208.19 1590.4,227.256 1590.4,250.74C1590.4,274.224 1609.47,293.29 1632.95,293.29C1656.43,293.29 1675.5,274.224 1675.5,250.74C1675.5,227.256 1656.43,208.19 1632.95,208.19ZM1646.46,273.087L1655.3,273.09L1655.3,264.248C1655.3,263.585 1655.84,263.048 1656.5,263.049C1657.16,263.049 1657.7,263.586 1657.7,264.25L1657.7,274.256C1657.7,274.596 1657.56,274.902 1657.33,275.12C1657.11,275.348 1656.81,275.491 1656.47,275.491L1646.46,275.488C1645.8,275.487 1645.26,274.95 1645.26,274.287C1645.26,273.624 1645.8,273.087 1646.46,273.087ZM1610.6,237.231L1610.6,228.389L1619.44,228.392C1620.11,228.393 1620.64,227.855 1620.64,227.193C1620.64,226.53 1620.1,225.992 1619.44,225.992L1609.43,225.988C1609.09,225.988 1608.79,226.131 1608.57,226.359C1608.34,226.577 1608.2,226.883 1608.2,227.223L1608.2,237.23C1608.2,237.893 1608.74,238.43 1609.4,238.431C1610.07,238.431 1610.6,237.894 1610.6,237.231Z" style="fill:rgb(59,59,59);"/>
                </g>
            </g>
        </g>
    </g>
</svg>
