<?xml version="1.0" encoding="UTF-8" standalone="no"?>
<!DOCTYPE svg PUBLIC "-//W3C//DTD SVG 1.1//EN" "http://www.w3.org/Graphics/SVG/1.1/DTD/svg11.dtd">
<svg width="100%" height="100%" viewBox="0 0 400 400" version="1.1" xmlns="http://www.w3.org/2000/svg" xmlns:xlink="http://www.w3.org/1999/xlink" xml:space="preserve" xmlns:serif="http://www.serif.com/" style="fill-rule:evenodd;clip-rule:evenodd;stroke-linejoin:round;stroke-miterlimit:1.41421;">
    <g transform="matrix(1,0,0,1,-50,-154)">
        <g transform="matrix(4.16667,0,0,4.16667,0,0)">
            <g transform="matrix(1,0,0,1,-1464.83,-61.7133)">
                <g id="TrackpadArrowSimpleUpDownLeftRight">
                    <path id="Trackpad" d="M1524.83,104.163C1548.32,104.163 1567.38,123.229 1567.38,146.713C1567.38,170.197 1548.32,189.263 1524.83,189.263C1501.35,189.263 1482.28,170.197 1482.28,146.713C1482.28,123.229 1501.35,104.163 1524.83,104.163ZM1531.08,172.067L1524.83,178.322L1518.58,172.067C1518.11,171.598 1517.35,171.598 1516.88,172.067C1516.42,172.536 1516.42,173.297 1516.88,173.766L1523.96,180.844C1524.2,181.085 1524.52,181.2 1524.83,181.193C1525.15,181.2 1525.46,181.085 1525.7,180.844L1532.78,173.766C1533.25,173.297 1533.25,172.536 1532.78,172.067C1532.31,171.598 1531.55,171.598 1531.08,172.067ZM1550.18,152.963L1556.44,146.713L1550.18,140.463C1549.72,139.995 1549.72,139.235 1550.18,138.767C1550.65,138.298 1551.41,138.298 1551.88,138.767L1558.96,145.84C1559.2,146.081 1559.32,146.398 1559.31,146.713C1559.32,147.029 1559.2,147.346 1558.96,147.587L1551.88,154.66C1551.41,155.128 1550.65,155.128 1550.18,154.66C1549.72,154.191 1549.72,153.432 1550.18,152.963ZM1499.48,152.963L1493.22,146.713L1499.48,140.463C1499.95,139.995 1499.95,139.235 1499.48,138.767C1499.01,138.298 1498.25,138.298 1497.78,138.767L1490.7,145.84C1490.46,146.081 1490.35,146.398 1490.35,146.713C1490.35,147.029 1490.46,147.346 1490.7,147.587L1497.78,154.66C1498.25,155.128 1499.01,155.128 1499.48,154.66C1499.95,154.191 1499.95,153.432 1499.48,152.963ZM1531.08,121.359L1524.83,115.105L1518.58,121.359C1518.11,121.828 1517.35,121.828 1516.88,121.359C1516.42,120.89 1516.42,120.13 1516.88,119.661L1523.96,112.583C1524.2,112.342 1524.52,112.227 1524.83,112.234C1525.15,112.227 1525.46,112.342 1525.7,112.583L1532.78,119.661C1533.25,120.13 1533.25,120.89 1532.78,121.359C1532.31,121.828 1531.55,121.828 1531.08,121.359Z" style="fill:rgb(59,59,59);"/>
                </g>
            </g>
        </g>
    </g>
</svg>
