<?xml version="1.0" encoding="UTF-8" standalone="no"?>
<!DOCTYPE svg PUBLIC "-//W3C//DTD SVG 1.1//EN" "http://www.w3.org/Graphics/SVG/1.1/DTD/svg11.dtd">
<svg width="100%" height="100%" viewBox="0 0 400 400" version="1.1" xmlns="http://www.w3.org/2000/svg" xmlns:xlink="http://www.w3.org/1999/xlink" xml:space="preserve" xmlns:serif="http://www.serif.com/" style="fill-rule:evenodd;clip-rule:evenodd;stroke-linejoin:round;stroke-miterlimit:1.41421;">
    <g transform="matrix(1,0,0,1,-50,-154)">
        <g transform="matrix(4.16667,0,0,4.16667,0,0)">
            <g transform="matrix(1,0,0,1,-2113.55,-61.7133)">
                <g id="TrackpadArrowSimpleRightLeft">
                    <path id="Trackpad" d="M2173.55,104.163C2197.03,104.163 2216.1,123.229 2216.1,146.713C2216.1,170.197 2197.03,189.263 2173.55,189.263C2150.06,189.263 2131,170.197 2131,146.713C2131,123.229 2150.06,104.163 2173.55,104.163ZM2198.9,152.963L2205.16,146.713L2198.9,140.463C2198.43,139.995 2198.43,139.235 2198.9,138.767C2199.37,138.298 2200.13,138.298 2200.6,138.767L2207.68,145.84C2207.92,146.081 2208.03,146.398 2208.03,146.713C2208.03,147.029 2207.92,147.346 2207.68,147.587L2200.6,154.66C2200.13,155.128 2199.37,155.128 2198.9,154.66C2198.43,154.191 2198.43,153.432 2198.9,152.963ZM2148.19,152.963L2141.94,146.713L2148.19,140.463C2148.66,139.995 2148.66,139.235 2148.19,138.767C2147.72,138.298 2146.97,138.298 2146.5,138.767L2139.42,145.84C2139.18,146.081 2139.06,146.398 2139.07,146.713C2139.06,147.029 2139.18,147.346 2139.42,147.587L2146.5,154.66C2146.97,155.128 2147.72,155.128 2148.19,154.66C2148.66,154.191 2148.66,153.432 2148.19,152.963Z" style="fill:rgb(59,59,59);"/>
                </g>
            </g>
        </g>
    </g>
</svg>
