<?xml version="1.0" encoding="UTF-8" standalone="no"?>
<!DOCTYPE svg PUBLIC "-//W3C//DTD SVG 1.1//EN" "http://www.w3.org/Graphics/SVG/1.1/DTD/svg11.dtd">
<svg width="100%" height="100%" viewBox="0 0 400 400" version="1.1" xmlns="http://www.w3.org/2000/svg" xmlns:xlink="http://www.w3.org/1999/xlink" xml:space="preserve" xmlns:serif="http://www.serif.com/" style="fill-rule:evenodd;clip-rule:evenodd;stroke-linejoin:round;stroke-miterlimit:1.41421;">
    <g transform="matrix(1,0,0,1,-50,-154)">
        <g transform="matrix(4.16667,0,0,4.16667,0,0)">
            <g id="Trigger" transform="matrix(1.00005,0,0,1.00005,-1262.64,-235.554)">
                <path d="M1322.57,279.559C1345.19,279.559 1363.55,297.921 1363.55,320.537C1363.55,343.153 1345.19,361.515 1322.57,361.515C1299.96,361.515 1281.6,343.153 1281.6,320.537C1281.6,297.921 1299.96,279.559 1322.57,279.559ZM1317.03,338.184C1310.82,321.566 1312.36,301.63 1312.36,301.63C1312.36,301.63 1316.95,302.342 1319.92,305.694C1325.49,311.981 1335.45,320.913 1344.26,324.649C1348.54,326.467 1351.08,330.437 1345.87,331.649C1340.65,332.861 1326.99,330.732 1323.66,331.721C1317.03,333.689 1317.03,338.184 1317.03,338.184Z" style="fill:rgb(59,59,59);"/>
                <clipPath id="_clip1">
                    <path d="M1322.57,279.559C1345.19,279.559 1363.55,297.921 1363.55,320.537C1363.55,343.153 1345.19,361.515 1322.57,361.515C1299.96,361.515 1281.6,343.153 1281.6,320.537C1281.6,297.921 1299.96,279.559 1322.57,279.559ZM1317.03,338.184C1310.82,321.566 1312.36,301.63 1312.36,301.63C1312.36,301.63 1316.95,302.342 1319.92,305.694C1325.49,311.981 1335.45,320.913 1344.26,324.649C1348.54,326.467 1351.08,330.437 1345.87,331.649C1340.65,332.861 1326.99,330.732 1323.66,331.721C1317.03,333.689 1317.03,338.184 1317.03,338.184Z"/>
                </clipPath>
                <g clip-path="url(#_clip1)">
                    <path d="M1317.03,338.184C1317.03,338.184 1321.54,349.351 1321.54,349.351C1320.67,431.011 1315.39,523.629 1298.75,579.068C1292.51,580.074 1287.64,583.377 1282.81,586.746L1275.52,583.84L1275.53,583.815C1261.18,577.853 1261.04,559.24 1261.04,559.24L1252.47,389.893C1257.29,379.55 1259.11,367.374 1259.11,367.374L1252.78,277.412L1255.24,275.798C1254.53,274.042 1253.77,272.552 1252.94,271.37L1264.91,197.04L1396.34,124.474L1437.12,143.739C1436.19,148.728 1421.55,179.856 1417.78,185.926C1414.75,190.813 1386.18,205.112 1386.18,205.112C1386.18,205.112 1393.5,216.543 1385.3,223.62C1376.29,231.403 1354.23,243.761 1354.23,243.761C1354.23,243.761 1348.17,248.396 1341.2,244.473C1334.23,240.549 1331.59,235.584 1331.59,235.584C1305.98,251.799 1300.3,269.858 1312.19,292.867C1312.16,295.851 1312.16,298.774 1312.2,301.616C1312.25,301.626 1312.3,301.637 1312.36,301.65C1312.31,302.36 1310.93,321.87 1317.03,338.184ZM1340.47,332.031L1340.6,332.032L1340.47,332.031ZM1338.67,331.991L1338.68,331.991L1338.67,331.991L1338.61,331.989L1338.67,331.991ZM1337.01,331.925L1337.05,331.927L1337.01,331.925L1336.94,331.922L1337.01,331.925ZM1328.5,331.483C1329.33,331.51 1330.21,331.552 1331.12,331.602C1330.07,331.545 1329.07,331.498 1328.15,331.472L1328.5,331.483ZM1347.52,326.772L1347.54,326.799L1347.52,326.772L1347.49,326.743L1347.52,326.772ZM1346.01,325.574C1346.13,325.649 1346.24,325.725 1346.35,325.803C1346.24,325.725 1346.13,325.649 1346.01,325.574ZM1340.91,323.02C1341.1,323.122 1341.29,323.222 1341.47,323.321C1341.29,323.222 1341.1,323.122 1340.91,323.02ZM1338.96,321.894C1339.43,322.182 1339.91,322.461 1340.38,322.727C1339.91,322.461 1339.43,322.182 1338.96,321.894ZM1337.58,321.031C1337.79,321.166 1338,321.299 1338.2,321.431C1338,321.299 1337.79,321.166 1337.58,321.031ZM1333.12,317.892C1333.42,318.12 1333.72,318.345 1334.02,318.568C1333.72,318.345 1333.42,318.12 1333.12,317.892ZM1331.07,316.291C1331.64,316.748 1332.21,317.198 1332.79,317.641C1332.21,317.198 1331.64,316.748 1331.07,316.291ZM1329.29,314.808C1329.51,314.995 1329.73,315.181 1329.95,315.367C1329.73,315.181 1329.51,314.995 1329.29,314.808ZM1319.86,305.626L1319.92,305.694L1319.86,305.624L1319.86,305.626ZM1327.56,313.301C1327.68,313.413 1327.81,313.525 1327.93,313.637L1327.74,313.469C1327.68,313.413 1327.62,313.357 1327.56,313.301Z" style="fill:rgb(160,160,160);"/>
                </g>
            </g>
        </g>
    </g>
</svg>
