<?xml version="1.0" encoding="UTF-8" standalone="no"?>
<!DOCTYPE svg PUBLIC "-//W3C//DTD SVG 1.1//EN" "http://www.w3.org/Graphics/SVG/1.1/DTD/svg11.dtd">
<svg width="100%" height="100%" viewBox="0 0 400 400" version="1.1" xmlns="http://www.w3.org/2000/svg" xmlns:xlink="http://www.w3.org/1999/xlink" xml:space="preserve" xmlns:serif="http://www.serif.com/" style="fill-rule:evenodd;clip-rule:evenodd;stroke-linecap:round;stroke-linejoin:round;stroke-miterlimit:1.5;">
    <g transform="matrix(1,0,0,1,-50,-154)">
        <g transform="matrix(4.16667,0,0,4.16667,-4.44089e-13,32.4326)">
            <g id="TrackpadDownRight" transform="matrix(-0.707107,0.707107,0.707107,0.707107,327.085,-837.453)">
                <g transform="matrix(0.362742,0,0,0.362742,669.701,259.768)">
                    <circle cx="457.421" cy="546.237" r="113.599" style="fill:rgb(44,44,44);"/>
                    <circle cx="457.421" cy="546.237" r="113.599" style="fill:none;stroke:white;stroke-width:7.35px;"/>
                </g>
                <g id="Arrow" transform="matrix(0.69448,0,0,0.69448,472.766,-1793.24)">
                    <path d="M523.991,3267.5L523.991,3284.87L530.397,3278.46C530.989,3277.87 531.95,3277.87 532.543,3278.46C533.135,3279.05 533.135,3280.01 532.543,3280.61L523.597,3289.56C523.293,3289.86 522.892,3290.01 522.494,3290L522.491,3290C522.093,3290.01 521.692,3289.86 521.388,3289.56L512.442,3280.61C511.849,3280.01 511.849,3279.05 512.442,3278.46C513.034,3277.87 513.995,3277.87 514.588,3278.46L520.994,3284.87L520.994,3267.5C520.994,3266.67 521.665,3266 522.492,3266C523.32,3266 523.991,3266.67 523.991,3267.5Z" style="fill:white;"/>
                </g>
            </g>
        </g>
    </g>
</svg>
