<?xml version="1.0" encoding="UTF-8" standalone="no"?>
<!DOCTYPE svg PUBLIC "-//W3C//DTD SVG 1.1//EN" "http://www.w3.org/Graphics/SVG/1.1/DTD/svg11.dtd">
<svg width="100%" height="100%" viewBox="0 0 400 400" version="1.1" xmlns="http://www.w3.org/2000/svg" xmlns:xlink="http://www.w3.org/1999/xlink" xml:space="preserve" xmlns:serif="http://www.serif.com/" style="fill-rule:evenodd;clip-rule:evenodd;stroke-linecap:round;stroke-linejoin:round;stroke-miterlimit:1.5;">
    <g transform="matrix(1,0,0,1,-50,-154)">
        <g transform="matrix(4.16667,0,0,4.16667,-4.44089e-13,32.4326)">
            <g id="TrackpadColorDown" transform="matrix(0.362679,0,0,0.362679,-105.897,-120.892)">
                <circle cx="457.421" cy="546.237" r="113.599" style="fill:rgb(44,44,44);"/>
                <clipPath id="_clip1">
                    <circle cx="457.421" cy="546.237" r="113.599"/>
                </clipPath>
                <g clip-path="url(#_clip1)">
                    <g transform="matrix(-2.75685,3.90853e-16,-3.90853e-16,-2.75685,3858.59,1293.71)">
                        <path d="M1203.61,240.517L1233.47,269.967L1262.37,240.443C1245.92,203.567 1227.12,194.323 1203.61,240.517Z" style="fill:rgb(24,145,220);"/>
                    </g>
                    <g transform="matrix(1.94938,1.94938,-1.94938,1.94938,-1416.68,-2381.28)">
                        <g transform="matrix(1,0,0,1,-0.0494873,0)">
                            <path d="M1232.76,229.281L1232.76,311.047" style="fill:none;stroke:white;stroke-width:2.67px;"/>
                        </g>
                        <g transform="matrix(1,0,0,1,0,4.6789)">
                            <path d="M1190.34,265.779L1272.38,265.779" style="fill:none;stroke:white;stroke-width:2.67px;"/>
                        </g>
                    </g>
                </g>
                <circle cx="457.421" cy="546.237" r="113.599" style="fill:none;stroke:white;stroke-width:7.35px;"/>
            </g>
        </g>
    </g>
</svg>
