<?xml version="1.0" encoding="UTF-8" standalone="no"?>
<!DOCTYPE svg PUBLIC "-//W3C//DTD SVG 1.1//EN" "http://www.w3.org/Graphics/SVG/1.1/DTD/svg11.dtd">
<svg width="100%" height="100%" viewBox="0 0 400 400" version="1.1" xmlns="http://www.w3.org/2000/svg" xmlns:xlink="http://www.w3.org/1999/xlink" xml:space="preserve" xmlns:serif="http://www.serif.com/" style="fill-rule:evenodd;clip-rule:evenodd;stroke-linecap:round;stroke-linejoin:round;stroke-miterlimit:1.5;">
    <g transform="matrix(1,0,0,1,-50,-154)">
        <g transform="matrix(4.16667,0,0,4.16667,-4.44089e-13,32.4326)">
            <g id="TrackpadArrowRight" transform="matrix(-1,0,0,1,895.626,-380.695)">
                <g transform="matrix(0.362742,0,0,0.362742,669.701,259.768)">
                    <circle cx="457.421" cy="546.237" r="113.599" style="fill:rgb(44,44,44);"/>
                    <circle cx="457.421" cy="546.237" r="113.599" style="fill:none;stroke:white;stroke-width:7.35px;"/>
                </g>
                <g transform="matrix(1,0,0,1,0.525621,-0.946643)">
                    <g transform="matrix(0.69448,0,0,0.69448,522.677,-1741.6)">
                        <g>
                            <path id="Arrow" d="M423.5,3169.99L406.132,3169.99L412.542,3176.4C413.135,3176.99 413.135,3177.95 412.542,3178.54C411.949,3179.14 410.988,3179.14 410.395,3178.54L401.442,3169.6C401.138,3169.29 400.992,3168.89 401,3168.49C401,3168.49 401,3168.49 401,3168.49C401,3168.49 401,3168.49 401,3168.49C400.992,3168.09 401.138,3167.69 401.442,3167.39L410.395,3158.44C410.988,3157.85 411.949,3157.85 412.542,3158.44C413.135,3159.03 413.135,3160 412.542,3160.59L406.132,3166.99L423.5,3166.99C424.329,3166.99 425,3167.66 425,3168.49C425,3169.32 424.329,3169.99 423.5,3169.99Z" style="fill:white;"/>
                        </g>
                    </g>
                </g>
            </g>
        </g>
    </g>
</svg>
