<?xml version="1.0" encoding="UTF-8" standalone="no"?>
<!DOCTYPE svg PUBLIC "-//W3C//DTD SVG 1.1//EN" "http://www.w3.org/Graphics/SVG/1.1/DTD/svg11.dtd">
<svg width="100%" height="100%" viewBox="0 0 400 400" version="1.1" xmlns="http://www.w3.org/2000/svg" xmlns:xlink="http://www.w3.org/1999/xlink" xml:space="preserve" xmlns:serif="http://www.serif.com/" style="fill-rule:evenodd;clip-rule:evenodd;stroke-linecap:round;stroke-linejoin:round;stroke-miterlimit:1.5;">
    <g transform="matrix(1,0,0,1,-50,-154)">
        <g transform="matrix(4.16667,0,0,4.16667,-4.44089e-13,32.4326)">
            <g id="Trigger" transform="matrix(0.729582,0,0,0.729582,-695.953,-69.5964)">
                <circle cx="1036.14" cy="201.228" r="54.299" style="fill:rgb(44,44,44);"/>
                <clipPath id="_clip1">
                    <circle cx="1036.14" cy="201.228" r="54.299"/>
                </clipPath>
                <g clip-path="url(#_clip1)">
                    <g transform="matrix(0.497788,0,0,0.497341,410.166,-64.4821)">
                        <path d="M1123.03,1270.43L1143.17,1278.46C1156.51,1269.15 1169.95,1260.03 1187.2,1257.25C1233.16,1104.14 1247.73,848.343 1250.15,622.815L1243.45,601.205C1227.96,584.671 1223.69,530.741 1224.33,466.816C1191.46,403.268 1205.23,347.757 1277.36,304.464C1277.36,304.464 1283.51,318.203 1302.77,329.04C1322.03,339.877 1338.77,327.075 1338.77,327.075C1338.77,327.075 1401.53,289.863 1424.9,275.551C1450.4,259.934 1427.28,222.727 1427.28,222.727C1427.28,222.727 1478.2,195.571 1491.91,187.557C1505.63,179.543 1519.89,168.117 1525.54,157.218C1531.73,145.288 1557.91,96.753 1568.44,71.228C1577.72,48.731 1553.27,39.206 1553.27,39.206L1456.71,1.744L1093.74,202.158L1060.68,407.445C1094.27,455.53 1092.14,688.304 1059.38,734.783L1083.04,1202.49C1083.04,1202.49 1083.43,1253.89 1123.06,1270.36C1127.46,1235.72 1109.15,859.985 1106.28,694.986C1104.3,581.49 1092.52,357.095 1150.86,303.74C1210.94,248.801 1231.02,258.855 1250.47,277.985C1270.2,297.386 1284.17,318.368 1313.34,303.204C1342.5,288.04 1410.39,244.897 1410.39,244.897C1410.39,244.897 1428.08,234.653 1423.71,217.084C1419.36,199.516 1414.35,191.679 1414.35,191.679C1414.35,191.679 1476.02,158.782 1483.67,153.504C1493.46,146.755 1503.06,140.017 1510.16,127.916C1517.25,115.814 1553.01,39.154 1553.01,39.154" style="fill:none;stroke:white;stroke-width:7.35px;"/>
                        <path d="M1224.51,490.912C1224.51,490.912 1237.46,492.984 1245.66,502.24C1261.04,519.605 1288.56,544.274 1312.87,554.593C1324.7,559.613 1331.73,570.577 1317.33,573.924C1302.92,577.271 1265.19,571.392 1255.99,574.122C1237.68,579.559 1237.68,591.972 1237.68,591.972" style="fill:none;stroke:white;stroke-width:7.35px;"/>
                    </g>
                </g>
                <circle cx="1036.14" cy="201.228" r="54.299" style="fill:none;stroke:white;stroke-width:3.66px;"/>
            </g>
        </g>
    </g>
</svg>
