<?xml version="1.0" encoding="UTF-8" standalone="no"?>
<!DOCTYPE svg PUBLIC "-//W3C//DTD SVG 1.1//EN" "http://www.w3.org/Graphics/SVG/1.1/DTD/svg11.dtd">
<svg width="100%" height="100%" viewBox="0 0 512 512" version="1.1" xmlns="http://www.w3.org/2000/svg" xmlns:xlink="http://www.w3.org/1999/xlink" xml:space="preserve" xmlns:serif="http://www.serif.com/" style="fill-rule:evenodd;clip-rule:evenodd;stroke-linejoin:round;stroke-miterlimit:2;">
    <g id="Alert-Icon" transform="matrix(0.853333,0,0,0.853333,0,0)">
        <path d="M280.866,50.825C284.49,44.049 291.897,39.769 300,39.769C308.103,39.769 315.51,44.049 319.134,50.825C373.263,152.038 526.749,439.029 576.089,531.287C579.404,537.487 579.05,544.849 575.152,550.746C571.254,556.642 564.369,560.231 556.955,560.231C453.375,560.231 146.625,560.231 43.045,560.231C35.631,560.231 28.746,556.642 24.848,550.746C20.95,544.849 20.596,537.487 23.911,531.287C73.251,439.029 226.737,152.038 280.866,50.825ZM324.215,483.187C324.215,476.718 322.207,471.328 318.192,467.015C314.176,462.703 308.072,460.546 299.88,460.546C291.848,460.546 285.824,462.703 281.808,467.015C277.793,471.328 275.785,476.718 275.785,483.187C275.785,489.656 277.793,495.119 281.808,499.575C285.824,504.031 291.848,506.259 299.88,506.259C307.911,506.259 313.975,503.995 318.071,499.467C322.167,494.939 324.215,489.512 324.215,483.187ZM320.842,193.094C320.842,190.278 318.559,187.994 315.742,187.994L283.294,187.994C280.478,187.994 278.194,190.278 278.194,193.094L278.194,416.202C278.194,419.019 280.478,421.302 283.294,421.302L315.742,421.302C318.559,421.302 320.842,419.019 320.842,416.202L320.842,193.094Z" style="fill:white;"/>
    </g>
</svg>
