<?xml version="1.0" encoding="UTF-8" standalone="no"?>
<!DOCTYPE svg PUBLIC "-//W3C//DTD SVG 1.1//EN" "http://www.w3.org/Graphics/SVG/1.1/DTD/svg11.dtd">
<svg width="100%" height="100%" viewBox="0 0 512 512" version="1.1" xmlns="http://www.w3.org/2000/svg" xmlns:xlink="http://www.w3.org/1999/xlink" xml:space="preserve" xmlns:serif="http://www.serif.com/" style="fill-rule:evenodd;clip-rule:evenodd;stroke-linejoin:round;stroke-miterlimit:2;">
    <g id="Box-Opened-Icon" transform="matrix(6.49277,0,0,6.49277,-5031.23,-4811.63)">
        <path d="M838.779,781.005L838.867,798.535L815.296,811.287L815.296,781.363L826.891,786.594L838.779,781.005ZM789.877,781.005L789.767,798.535L813.338,811.287L813.338,781.363L801.743,786.594L789.877,781.005ZM801.814,784.683L777.158,773.017L789.298,767.524L813.613,779.029L801.814,784.683ZM826.726,784.683L851.381,773.017L839.242,767.524L814.927,779.029L826.726,784.683ZM826.726,749.719L851.381,761.385L839.242,766.877L814.927,755.372L826.726,749.719ZM801.814,749.719L777.158,761.385L789.298,766.877L813.613,755.372L801.814,749.719Z" style="fill:white;"/>
    </g>
</svg>
