<?xml version="1.0" encoding="UTF-8" standalone="no"?>
<!DOCTYPE svg PUBLIC "-//W3C//DTD SVG 1.1//EN" "http://www.w3.org/Graphics/SVG/1.1/DTD/svg11.dtd">
<svg width="100%" height="100%" viewBox="0 0 512 512" version="1.1" xmlns="http://www.w3.org/2000/svg" xmlns:xlink="http://www.w3.org/1999/xlink" xml:space="preserve" xmlns:serif="http://www.serif.com/" style="fill-rule:evenodd;clip-rule:evenodd;stroke-linejoin:round;stroke-miterlimit:2;">
    <g id="Card-Deck" serif:id="Card Deck" transform="matrix(18.5703,0,0,18.5703,-6954.26,-5334.69)">
        <path d="M401.589,310.146C401.15,310.475 400.618,310.68 400.052,310.702C392.196,310.799 384.337,310.799 376.481,310.702C375.919,310.68 375.388,310.477 374.949,310.15C374.959,310.656 374.973,311.162 374.992,311.668C375.041,312.438 375.696,313.097 376.471,313.146C384.329,313.445 392.204,313.445 400.062,313.146C400.833,313.097 401.491,312.444 401.541,311.668C401.56,311.16 401.576,310.653 401.589,310.146ZM401.589,306.5C401.15,306.829 400.618,307.035 400.052,307.057C392.196,307.154 384.337,307.154 376.481,307.057C375.919,307.035 375.388,306.831 374.949,306.504C374.959,307.01 374.973,307.516 374.992,308.022C375.041,308.793 375.696,309.452 376.471,309.501C384.329,309.8 392.204,309.8 400.062,309.501C400.833,309.452 401.491,308.799 401.541,308.022C401.56,307.515 401.576,307.008 401.589,306.5ZM401.577,302.829C401.124,303.173 400.572,303.389 399.984,303.411C392.173,303.508 384.36,303.508 376.549,303.411C375.973,303.389 375.427,303.18 374.976,302.844L374.974,303.011L374.966,303.567C374.973,303.837 374.982,304.107 374.992,304.377C375.041,305.148 375.696,305.806 376.471,305.855C384.329,306.154 392.204,306.154 400.062,305.855C400.833,305.806 401.491,305.154 401.541,304.377C401.557,303.937 401.577,302.829 401.577,302.829ZM399.912,288.742C392.148,288.741 384.385,288.742 376.621,288.742C375.722,288.742 374.992,289.47 374.99,290.369C374.982,291.014 374.99,300.582 374.99,300.582C374.99,301.453 375.676,302.166 376.537,302.21C376.551,302.211 376.566,302.211 376.58,302.212C384.365,302.507 392.167,302.507 399.953,302.212C399.967,302.211 399.981,302.211 399.996,302.21C400.857,302.166 401.543,301.453 401.543,300.582L401.543,299.576C401.554,299.584 401.552,290.998 401.527,290.332C401.506,289.451 400.799,288.742 399.912,288.742Z" style="fill:white;"/>
    </g>
</svg>
