<?xml version="1.0" encoding="UTF-8" standalone="no"?>
<!DOCTYPE svg PUBLIC "-//W3C//DTD SVG 1.1//EN" "http://www.w3.org/Graphics/SVG/1.1/DTD/svg11.dtd">
<svg width="100%" height="100%" viewBox="0 0 512 512" version="1.1" xmlns="http://www.w3.org/2000/svg" xmlns:xlink="http://www.w3.org/1999/xlink" xml:space="preserve" xmlns:serif="http://www.serif.com/" style="fill-rule:evenodd;clip-rule:evenodd;stroke-linejoin:round;stroke-miterlimit:2;">
    <g id="Cards" transform="matrix(1.43812,0,0,1.43812,-64.3105,-174.808)">
        <g transform="matrix(8.34101,0,0,8.34101,-1614.01,-2198.47)">
            <path d="M209.839,284.545C209.836,284.566 209.833,284.586 209.83,284.607C208.956,291.743 208.176,298.891 207.483,306.047C207.365,307.696 208.621,309.247 210.244,309.487C211.626,309.657 213.009,309.82 214.392,309.979L206.551,311.768C205.366,312.039 204.184,311.296 203.914,310.111L199.151,289.244C198.881,288.059 199.623,286.877 200.808,286.607L209.839,284.545Z" style="fill:white;"/>
        </g>
        <g transform="matrix(8.34101,0,0,8.34101,-1611.16,-2199.1)">
            <path d="M212.313,308.709L210.435,308.503C209.226,308.371 208.353,307.283 208.485,306.074L210.814,284.797C210.946,283.589 212.034,282.716 213.243,282.848L226.951,284.348C228.02,284.465 228.827,285.331 228.907,286.365C228.653,286.192 228.398,286.019 228.144,285.846C227.631,285.517 227.038,285.333 226.429,285.317C225.401,285.314 224.418,285.803 223.801,286.621C219.614,292.465 215.5,298.363 211.463,304.312C210.569,305.702 210.929,307.666 212.237,308.655L212.313,308.709Z" style="fill:white;"/>
        </g>
        <g transform="matrix(5.00553,3.49086,-3.57729,5.12946,-3407.29,-5766.37)">
            <path d="M1077.46,446.424C1077.46,444.803 1076.11,443.487 1074.45,443.487L1055.6,443.487C1053.94,443.487 1052.59,444.803 1052.59,446.424L1052.59,474.972C1052.59,476.594 1053.94,477.91 1055.6,477.91L1074.45,477.91C1076.11,477.91 1077.46,476.594 1077.46,474.972L1077.46,446.424Z" style="fill:white;"/>
        </g>
    </g>
</svg>
