<?xml version="1.0" encoding="UTF-8" standalone="no"?>
<!DOCTYPE svg PUBLIC "-//W3C//DTD SVG 1.1//EN" "http://www.w3.org/Graphics/SVG/1.1/DTD/svg11.dtd">
<svg width="100%" height="100%" viewBox="0 0 512 512" version="1.1" xmlns="http://www.w3.org/2000/svg" xmlns:xlink="http://www.w3.org/1999/xlink" xml:space="preserve" xmlns:serif="http://www.serif.com/" style="fill-rule:evenodd;clip-rule:evenodd;stroke-linejoin:round;stroke-miterlimit:2;">
    <g id="Credit-Card-Icon" transform="matrix(20.3317,0,0,20.0911,-17005.6,-61192.5)">
        <path d="M858,3067L840,3067C838.343,3067 837,3065.66 837,3064L837,3056L861,3056L861,3064C861,3065.66 859.657,3067 858,3067ZM844,3062L840,3062L840,3064L844,3064L844,3062ZM852,3062L846,3062L846,3064L852,3064L852,3062ZM840,3050L858,3050C859.657,3050 861,3051.34 861,3053L837,3053C837,3051.34 838.343,3050 840,3050Z" style="fill:white;"/>
    </g>
</svg>
