<?xml version="1.0" encoding="UTF-8" standalone="no"?>
<!DOCTYPE svg PUBLIC "-//W3C//DTD SVG 1.1//EN" "http://www.w3.org/Graphics/SVG/1.1/DTD/svg11.dtd">
<svg width="100%" height="100%" viewBox="0 0 512 512" version="1.1" xmlns="http://www.w3.org/2000/svg" xmlns:xlink="http://www.w3.org/1999/xlink" xml:space="preserve" xmlns:serif="http://www.serif.com/" style="fill-rule:evenodd;clip-rule:evenodd;stroke-linejoin:round;stroke-miterlimit:2;">
    <g id="Crown---Stars" serif:id="Crown - Stars" transform="matrix(19.755,0,0,27.9067,-6174.71,-6056.92)">
        <g>
            <g transform="matrix(0.327232,0,0,0.231645,-178.05,-181.291)">
                <circle cx="1507.8" cy="1756.99" r="5.737" style="fill:white;"/>
            </g>
            <g transform="matrix(0.327232,0,0,0.231645,-157.706,-181.291)">
                <circle cx="1507.8" cy="1756.99" r="5.737" style="fill:white;"/>
            </g>
        </g>
        <g transform="matrix(0.327232,0,0,0.231645,-167.878,-183.938)">
            <circle cx="1507.8" cy="1756.99" r="5.737" style="fill:white;"/>
        </g>
        <g transform="matrix(0.327232,0,0,0.231645,-177.743,-181.018)">
            <path d="M1548.92,1763.85C1548.92,1763.85 1558.29,1759.39 1564.84,1756.28C1565.77,1755.83 1566.88,1756.03 1567.61,1756.76C1568.35,1757.49 1568.33,1758.53 1568.09,1759.54C1566.86,1764.8 1563.58,1775.53 1561.52,1781.19C1561.17,1782.1 1560.3,1782.7 1559.33,1782.7C1552.2,1782.7 1523.68,1782.7 1516.55,1782.7C1515.58,1782.7 1514.71,1782.1 1514.36,1781.19C1512.27,1775.47 1508.79,1764.4 1507.79,1759.54C1507.59,1758.52 1507.54,1757.49 1508.27,1756.76C1509.01,1756.03 1510.12,1755.83 1511.05,1756.28C1517.6,1759.39 1526.97,1763.85 1526.97,1763.85C1526.97,1763.85 1532.66,1754.35 1535.85,1749.03C1536.29,1748.29 1537.08,1747.84 1537.94,1747.84C1538.8,1747.84 1539.6,1748.29 1540.04,1749.03C1543.23,1754.35 1548.92,1763.85 1548.92,1763.85ZM1537.94,1761.74C1541.99,1761.74 1545.27,1765.56 1545.27,1770.28C1545.27,1774.99 1541.99,1778.82 1537.94,1778.82C1533.9,1778.82 1530.62,1774.99 1530.62,1770.28C1530.62,1765.56 1533.9,1761.74 1537.94,1761.74Z" style="fill:white;"/>
        </g>
        <g transform="matrix(0.350595,0,0,0.384237,-213.586,-452.033)">
            <path d="M1558.19,1782.96C1558.19,1782.6 1557.74,1782.3 1557.17,1782.3L1518.22,1782.3C1517.66,1782.3 1517.2,1782.6 1517.2,1782.96L1517.2,1785.61C1517.2,1787.44 1519.5,1788.93 1522.33,1788.93L1553.06,1788.93C1555.9,1788.93 1558.19,1787.44 1558.19,1785.61L1558.19,1782.96Z" style="fill:white;"/>
        </g>
        <g transform="matrix(0.213522,0,0,0.175469,-3.25767,-82.1472)">
            <ellipse cx="1539.8" cy="1773.57" rx="5.82" ry="5.942" style="fill:white;"/>
        </g>
        <g transform="matrix(1,0,0,1,0.187612,0)">
            <g transform="matrix(0.08016,0.0327616,-0.0462804,0.0567448,315.095,90.8602)">
                <path d="M1160.45,1625.09L1165.25,1638.06L1178.23,1642.86L1165.25,1647.66L1160.45,1660.63L1155.65,1647.66L1142.68,1642.86L1155.65,1638.06L1160.45,1625.09Z" style="fill:white;"/>
            </g>
            <g transform="matrix(0.08016,-0.0327616,0.0462804,0.0567448,149.533,167.056)">
                <path d="M1160.45,1625.09L1165.25,1638.06L1178.23,1642.86L1165.25,1647.66L1160.45,1660.63L1155.65,1647.66L1142.68,1642.86L1155.65,1638.06L1160.45,1625.09Z" style="fill:white;"/>
            </g>
        </g>
        <g transform="matrix(0.0925608,0,0,0.0655232,218.111,110.61)">
            <path d="M1160.45,1625.09L1165.25,1638.06L1178.23,1642.86L1165.25,1647.66L1160.45,1660.63L1155.65,1647.66L1142.68,1642.86L1155.65,1638.06L1160.45,1625.09Z" style="fill:white;"/>
        </g>
    </g>
</svg>
