<?xml version="1.0" encoding="UTF-8" standalone="no"?>
<!DOCTYPE svg PUBLIC "-//W3C//DTD SVG 1.1//EN" "http://www.w3.org/Graphics/SVG/1.1/DTD/svg11.dtd">
<svg width="100%" height="100%" viewBox="0 0 512 512" version="1.1" xmlns="http://www.w3.org/2000/svg" xmlns:xlink="http://www.w3.org/1999/xlink" xml:space="preserve" xmlns:serif="http://www.serif.com/" style="fill-rule:evenodd;clip-rule:evenodd;stroke-linejoin:round;stroke-miterlimit:2;">
    <g id="Dice" transform="matrix(8.7288,0,0,8.7288,-1412.49,-9235.57)">
        <path d="M166.035,1101.36C166.035,1101.97 166.362,1102.54 166.894,1102.84C170.131,1104.71 181.667,1111.37 186.869,1114.38C187.401,1114.68 188.056,1114.68 188.588,1114.38C189.119,1114.07 189.447,1113.5 189.447,1112.89L189.447,1090C189.447,1089.38 189.119,1088.82 188.588,1088.51C185.351,1086.64 173.815,1079.98 168.613,1076.97C168.081,1076.67 167.426,1076.67 166.894,1076.97C166.362,1077.28 166.035,1077.85 166.035,1078.46L166.035,1101.36ZM213.67,1076.87C214.202,1076.56 214.857,1076.56 215.388,1076.87C215.92,1077.18 216.248,1077.74 216.248,1078.36C216.251,1084.33 216.259,1097.52 216.261,1101.24C216.261,1101.85 215.933,1102.42 215.401,1102.73C212.144,1104.61 200.479,1111.34 195.244,1114.37C194.712,1114.67 194.058,1114.67 193.526,1114.37C192.994,1114.06 192.667,1113.49 192.666,1112.88C192.661,1106.91 192.651,1093.72 192.648,1090C192.647,1089.38 192.975,1088.82 193.507,1088.51C196.766,1086.63 208.434,1079.89 213.67,1076.87ZM185.465,1105.34C184.556,1103.56 182.811,1102.62 181.57,1103.23C180.33,1103.84 180.062,1105.77 180.971,1107.55C181.88,1109.32 183.625,1110.27 184.865,1109.66C186.106,1109.05 186.374,1107.11 185.465,1105.34ZM196.099,1104.68C197.008,1102.91 198.753,1101.96 199.994,1102.57C201.234,1103.18 201.502,1105.12 200.593,1106.89C199.684,1108.67 197.939,1109.62 196.698,1109.01C195.458,1108.39 195.19,1106.46 196.099,1104.68ZM173.06,1099.17C172.15,1097.4 170.405,1096.45 169.165,1097.06C167.925,1097.67 167.656,1099.61 168.566,1101.38C169.475,1103.16 171.22,1104.1 172.46,1103.49C173.7,1102.88 173.969,1100.95 173.06,1099.17ZM202.154,1094.55C203.063,1092.77 204.808,1091.83 206.048,1092.43C207.288,1093.05 207.557,1094.98 206.648,1096.76C205.738,1098.53 203.993,1099.48 202.753,1098.87C201.513,1098.26 201.244,1096.32 202.154,1094.55ZM178.592,1094.38C177.683,1092.6 175.938,1091.66 174.698,1092.27C173.458,1092.88 173.189,1094.82 174.099,1096.59C175.008,1098.37 176.753,1099.31 177.993,1098.7C179.233,1098.09 179.502,1096.15 178.592,1094.38ZM186.02,1090.77C185.11,1088.99 183.365,1088.05 182.125,1088.65C180.885,1089.27 180.617,1091.2 181.526,1092.98C182.435,1094.75 184.18,1095.7 185.42,1095.09C186.66,1094.48 186.929,1092.54 186.02,1090.77ZM208.323,1084.44C209.232,1082.66 210.977,1081.72 212.217,1082.33C213.457,1082.94 213.726,1084.88 212.817,1086.65C211.907,1088.42 210.162,1089.37 208.922,1088.76C207.682,1088.15 207.414,1086.21 208.323,1084.44ZM173.132,1083.81C172.223,1082.04 170.478,1081.09 169.237,1081.7C167.997,1082.31 167.729,1084.25 168.638,1086.03C169.547,1087.8 171.292,1088.75 172.532,1088.14C173.773,1087.53 174.041,1085.59 173.132,1083.81ZM212.245,1071C212.78,1071.31 213.11,1071.88 213.11,1072.5C213.111,1073.11 212.781,1073.68 212.246,1073.99C206.946,1077.02 195.134,1083.79 191.861,1085.66C191.331,1085.97 190.679,1085.97 190.15,1085.66C186.891,1083.79 175.161,1077.05 169.89,1074.02C169.356,1073.71 169.027,1073.14 169.028,1072.52C169.028,1071.91 169.358,1071.34 169.893,1071.03C175.182,1068.01 186.97,1061.26 190.236,1059.39C190.765,1059.09 191.414,1059.09 191.942,1059.39C195.204,1061.26 206.959,1067.98 212.245,1071ZM191.047,1070.07C193.073,1070.07 194.719,1071.17 194.719,1072.53C194.719,1073.89 193.073,1074.99 191.047,1074.99C189.021,1074.99 187.375,1073.89 187.375,1072.53C187.375,1071.17 189.021,1070.07 191.047,1070.07Z" style="fill:white;"/>
    </g>
</svg>
