<?xml version="1.0" encoding="UTF-8" standalone="no"?>
<!DOCTYPE svg PUBLIC "-//W3C//DTD SVG 1.1//EN" "http://www.w3.org/Graphics/SVG/1.1/DTD/svg11.dtd">
<svg width="100%" height="100%" viewBox="0 0 512 512" version="1.1" xmlns="http://www.w3.org/2000/svg" xmlns:xlink="http://www.w3.org/1999/xlink" xml:space="preserve" xmlns:serif="http://www.serif.com/" style="fill-rule:evenodd;clip-rule:evenodd;stroke-linejoin:round;stroke-miterlimit:2;">
    <g id="Dice---Rounded" serif:id="Dice - Rounded" transform="matrix(8.72913,0,0,8.7288,-1412.56,-9235.57)">
        <path d="M166.035,1102.35L189.447,1115.87L189.447,1089L166.035,1075.49L166.035,1102.35ZM216.246,1075.38L216.261,1102.23L192.669,1115.85L192.647,1089L216.246,1075.38ZM185.465,1105.34C184.556,1103.56 182.811,1102.62 181.57,1103.23C180.33,1103.84 180.062,1105.77 180.971,1107.55C181.88,1109.32 183.625,1110.27 184.865,1109.66C186.106,1109.05 186.374,1107.11 185.465,1105.34ZM196.099,1104.68C197.008,1102.91 198.753,1101.96 199.994,1102.57C201.234,1103.18 201.502,1105.12 200.593,1106.89C199.684,1108.67 197.939,1109.62 196.698,1109.01C195.458,1108.39 195.19,1106.46 196.099,1104.68ZM173.06,1099.17C172.15,1097.4 170.405,1096.45 169.165,1097.06C167.925,1097.67 167.656,1099.61 168.566,1101.38C169.475,1103.16 171.22,1104.1 172.46,1103.49C173.7,1102.88 173.969,1100.95 173.06,1099.17ZM202.154,1094.55C203.063,1092.77 204.808,1091.83 206.048,1092.43C207.288,1093.05 207.557,1094.98 206.648,1096.76C205.738,1098.53 203.993,1099.48 202.753,1098.87C201.513,1098.26 201.244,1096.32 202.154,1094.55ZM178.592,1094.38C177.683,1092.6 175.938,1091.66 174.698,1092.27C173.458,1092.88 173.189,1094.82 174.099,1096.59C175.008,1098.37 176.753,1099.31 177.993,1098.7C179.233,1098.09 179.502,1096.15 178.592,1094.38ZM186.02,1090.77C185.11,1088.99 183.365,1088.05 182.125,1088.65C180.885,1089.27 180.617,1091.2 181.526,1092.98C182.435,1094.75 184.18,1095.7 185.42,1095.09C186.66,1094.48 186.929,1092.54 186.02,1090.77ZM208.323,1084.44C209.232,1082.66 210.977,1081.72 212.217,1082.33C213.457,1082.94 213.726,1084.88 212.817,1086.65C211.907,1088.42 210.162,1089.37 208.922,1088.76C207.682,1088.15 207.414,1086.21 208.323,1084.44ZM173.132,1083.81C172.223,1082.04 170.478,1081.09 169.237,1081.7C167.997,1082.31 167.729,1084.25 168.638,1086.03C169.547,1087.8 171.292,1088.75 172.532,1088.14C173.773,1087.53 174.041,1085.59 173.132,1083.81ZM214.851,1072.49L191.005,1086.15L167.292,1072.52L191.089,1058.9L214.851,1072.49ZM191.047,1070.07C193.073,1070.07 194.719,1071.17 194.719,1072.53C194.719,1073.89 193.073,1074.99 191.047,1074.99C189.021,1074.99 187.375,1073.89 187.375,1072.53C187.375,1071.17 189.021,1070.07 191.047,1070.07Z" style="fill:white;"/>
    </g>
</svg>
