<?xml version="1.0" encoding="UTF-8" standalone="no"?>
<!DOCTYPE svg PUBLIC "-//W3C//DTD SVG 1.1//EN" "http://www.w3.org/Graphics/SVG/1.1/DTD/svg11.dtd">
<svg width="100%" height="100%" viewBox="0 0 512 512" version="1.1" xmlns="http://www.w3.org/2000/svg" xmlns:xlink="http://www.w3.org/1999/xlink" xml:space="preserve" xmlns:serif="http://www.serif.com/" style="fill-rule:evenodd;clip-rule:evenodd;stroke-linejoin:round;stroke-miterlimit:2;">
    <g id="Dots-Horizontal-Icon" transform="matrix(17.8944,0,0,17.6826,-18837.7,-65487.8)">
        <path d="M1076,3721C1074.34,3721 1073,3719.66 1073,3718C1073,3716.34 1074.34,3715 1076,3715C1077.66,3715 1079,3716.34 1079,3718C1079,3719.66 1077.66,3721 1076,3721ZM1067,3721C1065.34,3721 1064,3719.66 1064,3718C1064,3716.34 1065.34,3715 1067,3715C1068.66,3715 1070,3716.34 1070,3718C1070,3719.66 1068.66,3721 1067,3721ZM1058,3721C1056.34,3721 1055,3719.66 1055,3718C1055,3716.34 1056.34,3715 1058,3715C1059.66,3715 1061,3716.34 1061,3718C1061,3719.66 1059.66,3721 1058,3721Z" style="fill:white;"/>
    </g>
</svg>
