<?xml version="1.0" encoding="UTF-8" standalone="no"?>
<!DOCTYPE svg PUBLIC "-//W3C//DTD SVG 1.1//EN" "http://www.w3.org/Graphics/SVG/1.1/DTD/svg11.dtd">
<svg width="100%" height="100%" viewBox="0 0 512 512" version="1.1" xmlns="http://www.w3.org/2000/svg" xmlns:xlink="http://www.w3.org/1999/xlink" xml:space="preserve" xmlns:serif="http://www.serif.com/" style="fill-rule:evenodd;clip-rule:evenodd;stroke-linejoin:round;stroke-miterlimit:2;">
    <g id="Dots-Vertical-Icon" transform="matrix(17.8944,0,0,17.6826,-20788.1,-65487.8)">
        <path d="M1179,3709C1179,3710.66 1177.66,3712 1176,3712C1174.34,3712 1173,3710.66 1173,3709C1173,3707.34 1174.34,3706 1176,3706C1177.66,3706 1179,3707.34 1179,3709ZM1179,3718C1179,3719.66 1177.66,3721 1176,3721C1174.34,3721 1173,3719.66 1173,3718C1173,3716.34 1174.34,3715 1176,3715C1177.66,3715 1179,3716.34 1179,3718ZM1179,3727C1179,3728.66 1177.66,3730 1176,3730C1174.34,3730 1173,3728.66 1173,3727C1173,3725.34 1174.34,3724 1176,3724C1177.66,3724 1179,3725.34 1179,3727Z" style="fill:white;"/>
    </g>
</svg>
