<?xml version="1.0" encoding="UTF-8" standalone="no"?>
<!DOCTYPE svg PUBLIC "-//W3C//DTD SVG 1.1//EN" "http://www.w3.org/Graphics/SVG/1.1/DTD/svg11.dtd">
<svg width="100%" height="100%" viewBox="0 0 512 512" version="1.1" xmlns="http://www.w3.org/2000/svg" xmlns:xlink="http://www.w3.org/1999/xlink" xml:space="preserve" xmlns:serif="http://www.serif.com/" style="fill-rule:evenodd;clip-rule:evenodd;stroke-linejoin:round;stroke-miterlimit:2;">
    <g id="Help-Icon" transform="matrix(701.222,0,0,631.943,109.113,482.024)">
        <path d="M0.153,-0.2C0.153,-0.224 0.155,-0.244 0.157,-0.26C0.16,-0.277 0.164,-0.292 0.169,-0.306C0.175,-0.319 0.182,-0.333 0.191,-0.345C0.201,-0.358 0.212,-0.373 0.225,-0.389C0.234,-0.4 0.242,-0.411 0.25,-0.421C0.259,-0.431 0.266,-0.442 0.272,-0.453C0.279,-0.464 0.284,-0.476 0.288,-0.488C0.292,-0.501 0.293,-0.516 0.293,-0.532C0.293,-0.566 0.286,-0.593 0.272,-0.613C0.258,-0.632 0.238,-0.642 0.211,-0.642C0.201,-0.642 0.191,-0.64 0.18,-0.636C0.17,-0.632 0.161,-0.626 0.153,-0.618C0.144,-0.61 0.138,-0.6 0.133,-0.588C0.128,-0.576 0.125,-0.561 0.125,-0.544L0.039,-0.544C0.039,-0.572 0.044,-0.597 0.053,-0.619C0.062,-0.64 0.074,-0.659 0.089,-0.674C0.105,-0.689 0.123,-0.701 0.144,-0.709C0.164,-0.717 0.187,-0.721 0.211,-0.721C0.238,-0.721 0.262,-0.716 0.283,-0.708C0.304,-0.699 0.321,-0.687 0.336,-0.671C0.35,-0.655 0.361,-0.635 0.369,-0.612C0.376,-0.589 0.38,-0.563 0.38,-0.535C0.38,-0.513 0.377,-0.492 0.371,-0.473C0.364,-0.454 0.356,-0.436 0.346,-0.418C0.336,-0.401 0.325,-0.384 0.312,-0.369C0.3,-0.353 0.287,-0.338 0.274,-0.324C0.26,-0.307 0.251,-0.288 0.246,-0.268C0.242,-0.247 0.239,-0.224 0.239,-0.2L0.153,-0.2ZM0.151,-0.045C0.151,-0.06 0.155,-0.072 0.163,-0.082C0.171,-0.092 0.184,-0.097 0.2,-0.097C0.216,-0.097 0.229,-0.092 0.237,-0.082C0.245,-0.072 0.25,-0.06 0.25,-0.045C0.25,-0.031 0.245,-0.019 0.237,-0.009C0.229,0.001 0.216,0.005 0.2,0.005C0.184,0.005 0.171,0.001 0.163,-0.009C0.155,-0.019 0.151,-0.031 0.151,-0.045Z" style="fill:white;fill-rule:nonzero;"/>
    </g>
</svg>
