<?xml version="1.0" encoding="UTF-8" standalone="no"?>
<!DOCTYPE svg PUBLIC "-//W3C//DTD SVG 1.1//EN" "http://www.w3.org/Graphics/SVG/1.1/DTD/svg11.dtd">
<svg width="100%" height="100%" viewBox="0 0 510 510" version="1.1" xmlns="http://www.w3.org/2000/svg" xmlns:xlink="http://www.w3.org/1999/xlink" xml:space="preserve" xmlns:serif="http://www.serif.com/" style="fill-rule:evenodd;clip-rule:evenodd;stroke-linecap:round;stroke-linejoin:round;stroke-miterlimit:1.5;">
    <g transform="matrix(1,0,0,1,-1,-1)">
        <g id="Image---Outline---Circle" serif:id="Image - Outline - Circle" transform="matrix(14.2484,0,0,20.1276,-6240.49,1563.2)">
            <g transform="matrix(0.503053,0,0,0.451498,254.191,-231.265)">
                <path d="M434.147,368.373C434.147,353.969 419.321,342.275 401.06,342.275C382.798,342.275 367.972,353.969 367.972,368.373C367.972,382.776 382.798,394.47 401.06,394.47C419.321,394.47 434.147,382.776 434.147,368.373Z" style="fill:none;stroke:white;stroke-width:4.24px;"/>
            </g>
            <g transform="matrix(0.503053,0,0,0.356108,254.028,-195.44)">
                <path d="M375.323,385.363C378.668,380.278 384.426,376.918 390.962,376.918C401.285,376.918 409.666,385.299 409.666,395.623" style="fill:none;stroke:white;stroke-width:4.84px;"/>
            </g>
            <g transform="matrix(0.503053,0,0,0.356108,255.998,-195.254)">
                <path d="M398.535,380.118C401.75,369.318 411.762,361.433 423.601,361.433C425.905,361.433 428.141,361.731 430.27,362.292" style="fill:none;stroke:white;stroke-width:4.84px;"/>
            </g>
            <g transform="matrix(0.624994,0,0,0.442429,210.564,-226.643)">
                <circle cx="385.118" cy="357.004" r="5.709" style="fill:none;stroke:white;stroke-width:3.89px;"/>
            </g>
        </g>
    </g>
</svg>
