<?xml version="1.0" encoding="UTF-8" standalone="no"?>
<!DOCTYPE svg PUBLIC "-//W3C//DTD SVG 1.1//EN" "http://www.w3.org/Graphics/SVG/1.1/DTD/svg11.dtd">
<svg width="100%" height="100%" viewBox="0 0 512 512" version="1.1" xmlns="http://www.w3.org/2000/svg" xmlns:xlink="http://www.w3.org/1999/xlink" xml:space="preserve" xmlns:serif="http://www.serif.com/" style="fill-rule:evenodd;clip-rule:evenodd;stroke-linejoin:round;stroke-miterlimit:2;">
    <g id="Photo-Icon" transform="matrix(19.6953,0,0,19.4622,-22905.7,-52836.9)">
        <path d="M1186.5,2740L1165.5,2740C1164.67,2740 1164,2739.33 1164,2738.5L1164,2717.5C1164,2716.67 1164.67,2716 1165.5,2716L1186.5,2716C1187.33,2716 1188,2716.67 1188,2717.5L1188,2738.5C1188,2739.33 1187.33,2740 1186.5,2740ZM1186,2718L1166,2718L1166,2734L1186,2734L1186,2718ZM1170.5,2720C1171.88,2720 1173,2721.12 1173,2722.5C1173,2723.88 1171.88,2725 1170.5,2725C1169.12,2725 1168,2723.88 1168,2722.5C1168,2721.12 1169.12,2720 1170.5,2720ZM1174.8,2729.06L1178.5,2723L1184,2732L1168,2732L1172.5,2726L1174.8,2729.06Z" style="fill:white;"/>
    </g>
</svg>
