<?xml version="1.0" encoding="UTF-8" standalone="no"?>
<!DOCTYPE svg PUBLIC "-//W3C//DTD SVG 1.1//EN" "http://www.w3.org/Graphics/SVG/1.1/DTD/svg11.dtd">
<svg width="100%" height="100%" viewBox="0 0 512 512" version="1.1" xmlns="http://www.w3.org/2000/svg" xmlns:xlink="http://www.w3.org/1999/xlink" xml:space="preserve" xmlns:serif="http://www.serif.com/" style="fill-rule:evenodd;clip-rule:evenodd;stroke-linejoin:round;stroke-miterlimit:2;">
    <g id="Info-Icon" transform="matrix(636.685,0,0,636.652,182.477,485.419)">
        <path d="M0.158,-0L0.071,-0L0.071,-0.528L0.158,-0.528L0.158,-0ZM0.066,-0.668C0.066,-0.683 0.07,-0.695 0.079,-0.706C0.087,-0.716 0.099,-0.721 0.115,-0.721C0.132,-0.721 0.144,-0.716 0.152,-0.705C0.16,-0.695 0.165,-0.683 0.165,-0.668C0.165,-0.654 0.16,-0.642 0.152,-0.632C0.144,-0.622 0.132,-0.617 0.115,-0.617C0.099,-0.617 0.087,-0.622 0.079,-0.632C0.07,-0.642 0.066,-0.654 0.066,-0.668Z" style="fill:white;fill-rule:nonzero;"/>
    </g>
</svg>
