<?xml version="1.0" encoding="UTF-8" standalone="no"?>
<!DOCTYPE svg PUBLIC "-//W3C//DTD SVG 1.1//EN" "http://www.w3.org/Graphics/SVG/1.1/DTD/svg11.dtd">
<svg width="100%" height="100%" viewBox="0 0 512 512" version="1.1" xmlns="http://www.w3.org/2000/svg" xmlns:xlink="http://www.w3.org/1999/xlink" xml:space="preserve" xmlns:serif="http://www.serif.com/" style="fill-rule:evenodd;clip-rule:evenodd;stroke-linejoin:round;stroke-miterlimit:2;">
    <g id="List-x3--Semi-Rounded-" serif:id="List x3 (Semi Rounded)" transform="matrix(2.13757,0,0,2.13757,-22.6962,-15.7814)">
        <g transform="matrix(1,0,0,1,0,4.0165)">
            <g transform="matrix(1.03138,0,0,0.901675,-7.71923,6.32632)">
                <path d="M245.99,54.705C245.99,48.278 241.429,43.06 235.81,43.06L89.676,43.06C84.058,43.06 79.496,48.278 79.496,54.705L79.496,64.687C79.496,71.114 84.058,76.332 89.676,76.332L235.81,76.332C241.429,76.332 245.99,71.114 245.99,64.687L245.99,54.705Z" style="fill:white;"/>
            </g>
            <g transform="matrix(0.816729,0,0,0.816729,5.66432,10.6512)">
                <circle cx="29.514" cy="60.609" r="18.366" style="fill:white;"/>
            </g>
        </g>
        <g transform="matrix(1,0,0,1,0,66.9924)">
            <g transform="matrix(1.03138,0,0,0.901675,-7.71923,6.32632)">
                <path d="M245.99,54.705C245.99,48.278 241.429,43.06 235.81,43.06L89.676,43.06C84.058,43.06 79.496,48.278 79.496,54.705L79.496,64.687C79.496,71.114 84.058,76.332 89.676,76.332L235.81,76.332C241.429,76.332 245.99,71.114 245.99,64.687L245.99,54.705Z" style="fill:white;"/>
            </g>
            <g transform="matrix(0.816729,0,0,0.816729,5.66432,10.6512)">
                <circle cx="29.514" cy="60.609" r="18.366" style="fill:white;"/>
            </g>
        </g>
        <g transform="matrix(1,0,0,1,0,129.968)">
            <g transform="matrix(1.03138,0,0,0.901675,-7.71923,6.32632)">
                <path d="M245.99,54.705C245.99,48.278 241.429,43.06 235.81,43.06L89.676,43.06C84.058,43.06 79.496,48.278 79.496,54.705L79.496,64.687C79.496,71.114 84.058,76.332 89.676,76.332L235.81,76.332C241.429,76.332 245.99,71.114 245.99,64.687L245.99,54.705Z" style="fill:white;"/>
            </g>
            <g transform="matrix(0.816729,0,0,0.816729,5.66432,10.6512)">
                <circle cx="29.514" cy="60.609" r="18.366" style="fill:white;"/>
            </g>
        </g>
    </g>
</svg>
