<?xml version="1.0" encoding="UTF-8" standalone="no"?>
<!DOCTYPE svg PUBLIC "-//W3C//DTD SVG 1.1//EN" "http://www.w3.org/Graphics/SVG/1.1/DTD/svg11.dtd">
<svg width="100%" height="100%" viewBox="0 0 512 512" version="1.1" xmlns="http://www.w3.org/2000/svg" xmlns:xlink="http://www.w3.org/1999/xlink" xml:space="preserve" xmlns:serif="http://www.serif.com/" style="fill-rule:evenodd;clip-rule:evenodd;stroke-linecap:round;stroke-linejoin:round;stroke-miterlimit:1.5;">
    <g id="Lock---Unlocked" serif:id="Lock - Unlocked" transform="matrix(1,0,0,1,1.07072,-3.36854)">
        <g>
            <path d="M460.404,241.152C460.404,216.506 440.394,196.497 415.748,196.497L94.11,196.497C69.464,196.497 49.455,216.506 49.455,241.152L49.455,454.257C49.455,478.904 69.464,498.913 94.11,498.913L415.748,498.913C440.394,498.913 460.404,478.904 460.404,454.257L460.404,241.152ZM272.135,367.154C288.252,360.41 299.586,344.487 299.586,325.938C299.586,301.291 279.576,281.281 254.929,281.281C230.282,281.281 210.272,301.291 210.272,325.938C210.272,344.487 221.606,360.41 237.723,367.154L237.723,396.923C237.723,406.419 245.433,414.129 254.929,414.129C264.426,414.129 272.135,406.419 272.135,396.923L272.135,367.154Z" style="fill:white;"/>
        </g>
        <g transform="matrix(0.959209,0,0,0.959209,12.885,28.3379)">
            <path d="M344.212,63.61C324.276,34.872 291.047,16.038 253.454,16.038C192.531,16.038 143.07,65.5 143.07,126.422L143.07,243.935" style="fill:none;stroke:white;stroke-width:62.55px;"/>
        </g>
    </g>
</svg>
