<?xml version="1.0" encoding="UTF-8" standalone="no"?>
<!DOCTYPE svg PUBLIC "-//W3C//DTD SVG 1.1//EN" "http://www.w3.org/Graphics/SVG/1.1/DTD/svg11.dtd">
<svg width="100%" height="100%" viewBox="0 0 512 512" version="1.1" xmlns="http://www.w3.org/2000/svg" xmlns:xlink="http://www.w3.org/1999/xlink" xml:space="preserve" xmlns:serif="http://www.serif.com/" style="fill-rule:evenodd;clip-rule:evenodd;stroke-linejoin:round;stroke-miterlimit:2;">
    <g id="Magic-Stick-Icon" transform="matrix(8.20485,0,0,8.20485,-15925.9,-2936.81)">
        <path d="M1981.48,391.044L1953.41,418.769C1951.92,420.239 1949.7,420.433 1948.45,419.2L1943.94,414.735C1942.69,413.503 1942.88,411.308 1944.37,409.838L1972.45,382.113L1981.48,391.044ZM1995.61,389.211C1995.67,389.124 1995.78,389.085 1995.88,389.113C1995.99,389.14 1996.06,389.229 1996.07,389.336C1996.2,390.749 1996.5,393.866 1996.5,393.866C1996.5,393.866 1999.07,395.669 2000.25,396.491C2000.34,396.553 2000.38,396.663 2000.35,396.767C2000.32,396.87 2000.23,396.946 2000.12,396.956C1998.69,397.087 1995.55,397.376 1995.55,397.376C1995.55,397.376 1993.71,399.934 1992.88,401.091C1992.82,401.178 1992.71,401.217 1992.61,401.189C1992.5,401.162 1992.43,401.073 1992.42,400.966C1992.29,399.553 1991.99,396.436 1991.99,396.436C1991.99,396.436 1989.42,394.633 1988.24,393.811C1988.15,393.749 1988.11,393.639 1988.14,393.535C1988.17,393.432 1988.26,393.356 1988.37,393.346C1989.8,393.215 1992.94,392.926 1992.94,392.926C1992.94,392.926 1994.78,390.368 1995.61,389.211ZM1974.83,380.024L1978.74,376.158C1981.23,373.698 1985.28,373.701 1987.77,376.166C1990.26,378.63 1990.27,382.629 1987.78,385.089L1983.87,388.955L1974.83,380.024ZM1996.61,361.066C1996.67,360.98 1996.78,360.941 1996.89,360.968C1996.99,360.996 1997.06,361.085 1997.07,361.192C1997.21,362.605 1997.5,365.722 1997.5,365.722C1997.5,365.722 2000.08,367.524 2001.25,368.347C2001.34,368.409 2001.38,368.519 2001.35,368.622C2001.32,368.726 2001.23,368.802 2001.13,368.812C1999.69,368.943 1996.55,369.232 1996.55,369.232C1996.55,369.232 1994.72,371.79 1993.89,372.947C1993.82,373.034 1993.71,373.073 1993.61,373.045C1993.51,373.017 1993.43,372.928 1993.42,372.822C1993.29,371.409 1993,368.291 1993,368.291C1993,368.291 1990.42,366.489 1989.25,365.667C1989.16,365.605 1989.12,365.495 1989.15,365.391C1989.17,365.287 1989.26,365.212 1989.37,365.202C1990.8,365.071 1993.95,364.782 1993.95,364.782C1993.95,364.782 1995.78,362.223 1996.61,361.066ZM1961.39,358.428C1961.43,358.328 1961.53,358.262 1961.63,358.262C1961.74,358.262 1961.83,358.328 1961.87,358.428C1962.61,360.399 1964.8,366.243 1964.8,366.243C1964.8,366.243 1970.69,368.398 1972.7,369.13C1972.8,369.167 1972.86,369.263 1972.86,369.371C1972.86,369.478 1972.8,369.574 1972.7,369.611C1970.69,370.344 1964.8,372.499 1964.8,372.499C1964.8,372.499 1962.61,378.343 1961.87,380.313C1961.83,380.413 1961.74,380.48 1961.63,380.48C1961.53,380.48 1961.43,380.413 1961.39,380.313C1960.65,378.343 1958.47,372.499 1958.47,372.499C1958.47,372.499 1952.57,370.344 1950.57,369.611C1950.47,369.574 1950.4,369.478 1950.4,369.371C1950.4,369.263 1950.47,369.167 1950.57,369.13C1952.57,368.398 1958.47,366.243 1958.47,366.243C1958.47,366.243 1960.65,360.399 1961.39,358.428Z" style="fill:white;"/>
    </g>
</svg>
