<?xml version="1.0" encoding="UTF-8" standalone="no"?>
<!DOCTYPE svg PUBLIC "-//W3C//DTD SVG 1.1//EN" "http://www.w3.org/Graphics/SVG/1.1/DTD/svg11.dtd">
<svg width="100%" height="100%" viewBox="0 0 512 512" version="1.1" xmlns="http://www.w3.org/2000/svg" xmlns:xlink="http://www.w3.org/1999/xlink" xml:space="preserve" xmlns:serif="http://www.serif.com/" style="fill-rule:evenodd;clip-rule:evenodd;stroke-linejoin:round;stroke-miterlimit:2;">
    <g id="Mail---Filled--Rounded-" serif:id="Mail - Filled (Rounded)" transform="matrix(2,0,0,2,0,0)">
        <path d="M107.887,139.635C114.729,144.382 121.552,146.563 128.277,146.553C134.875,146.542 141.56,144.422 148.257,139.843L229.331,225.467C228.384,225.568 227.422,225.62 226.447,225.62C226.447,225.62 29.553,225.62 29.553,225.62C28.28,225.62 27.028,225.532 25.8,225.36L107.887,139.635ZM249.631,43.656C251.98,47.647 253.328,52.298 253.328,57.26C253.328,57.26 253.328,198.74 253.328,198.74C253.328,205.208 251.038,211.146 247.225,215.787L163.269,127.12C189.205,103.614 230.557,62.676 249.631,43.656ZM6.497,43.442C25.014,61.923 66.569,103.099 92.882,126.896L8.315,215.211C4.779,210.66 2.672,204.944 2.672,198.74L2.672,57.26C2.672,52.209 4.069,47.481 6.497,43.442ZM21.823,31.51C24.271,30.775 26.866,30.38 29.553,30.38L226.447,30.38C229.341,30.38 232.13,30.838 234.743,31.686C213.304,53.083 163.562,102.338 140.464,121.963C136.302,125.499 132.347,127.589 128.248,127.595C124.15,127.601 120.189,125.524 116.016,121.998C92.607,102.217 42.739,52.526 21.823,31.51Z" style="fill:white;"/>
    </g>
</svg>
