<?xml version="1.0" encoding="UTF-8" standalone="no"?>
<!DOCTYPE svg PUBLIC "-//W3C//DTD SVG 1.1//EN" "http://www.w3.org/Graphics/SVG/1.1/DTD/svg11.dtd">
<svg width="100%" height="100%" viewBox="0 0 512 512" version="1.1" xmlns="http://www.w3.org/2000/svg" xmlns:xlink="http://www.w3.org/1999/xlink" xml:space="preserve" xmlns:serif="http://www.serif.com/" style="fill-rule:evenodd;clip-rule:evenodd;stroke-linejoin:round;stroke-miterlimit:2;">
    <g id="User---Chat" serif:id="User - Chat" transform="matrix(9.30703,0,0,9.30703,-11.7601,85.8037)">
        <g id="User-Outline-Icon" transform="matrix(0.574936,0,0,0.567138,-94.2038,-85.3829)">
            <path d="M167.746,223.088C170.806,214.013 177.585,206.643 186.266,202.795C181.421,198.809 178.33,192.769 178.33,186.012C178.33,174.022 188.064,164.289 200.053,164.289C212.043,164.289 221.777,174.022 221.777,186.012C221.777,192.769 218.685,198.809 213.841,202.795C222.503,206.635 229.271,213.981 232.34,223.028C232.39,223.134 232.436,223.244 232.478,223.357L233.18,225.264C233.949,227.351 232.878,229.668 230.792,230.437C228.706,231.205 226.388,230.135 225.62,228.048L224.917,226.141C224.895,226.082 224.875,226.022 224.856,225.962L224.853,225.962C221.471,215.495 211.64,207.915 200.053,207.915C188.526,207.915 178.737,215.417 175.306,225.801C175.275,225.915 175.239,226.03 175.197,226.143L174.495,228.05C173.727,230.136 171.409,231.207 169.322,230.438C167.235,229.67 166.165,227.352 166.933,225.265L167.635,223.359C167.669,223.266 167.706,223.176 167.746,223.088ZM201.693,199.926C208.654,199.113 214.062,193.189 214.062,186.012C214.062,178.28 207.785,172.003 200.053,172.003C192.322,172.003 186.044,178.28 186.044,186.012C186.044,193.189 191.453,199.113 198.413,199.926C198.957,199.9 199.504,199.887 200.053,199.887C200.603,199.887 201.15,199.9 201.693,199.926Z" style="fill:white;"/>
        </g>
        <g transform="matrix(0.214891,0,0,0.214891,1.42473,-9.23206)">
            <path id="Bubble-Icon" serif:id="Bubble Icon" d="M196.818,99.11C193.006,99.11 189.288,98.778 185.687,98.163C176.818,106.614 165.336,112.196 152.618,113.445C158.808,107.405 162.868,99.098 163.578,89.811C149.366,80.955 140.086,66.62 140.086,50.383C140.086,23.476 165.486,1.662 196.818,1.662C228.15,1.662 253.549,23.476 253.549,50.383C253.549,77.295 228.15,99.11 196.818,99.11ZM178.485,43.357C181.74,43.357 184.383,45.999 184.383,49.254C184.383,52.509 181.74,55.151 178.485,55.151C175.231,55.151 172.588,52.509 172.588,49.254C172.588,45.999 175.231,43.357 178.485,43.357ZM196.818,43.357C200.072,43.357 202.715,45.999 202.715,49.254C202.715,52.509 200.072,55.151 196.818,55.151C193.563,55.151 190.921,52.509 190.921,49.254C190.921,45.999 193.563,43.357 196.818,43.357ZM215.15,43.357C218.405,43.357 221.047,45.999 221.047,49.254C221.047,52.509 218.405,55.151 215.15,55.151C211.895,55.151 209.253,52.509 209.253,49.254C209.253,45.999 211.895,43.357 215.15,43.357Z" style="fill:white;"/>
        </g>
    </g>
</svg>
