<?xml version="1.0" encoding="UTF-8" standalone="no"?>
<!DOCTYPE svg PUBLIC "-//W3C//DTD SVG 1.1//EN" "http://www.w3.org/Graphics/SVG/1.1/DTD/svg11.dtd">
<svg width="100%" height="100%" viewBox="0 0 512 512" version="1.1" xmlns="http://www.w3.org/2000/svg" xmlns:xlink="http://www.w3.org/1999/xlink" xml:space="preserve" xmlns:serif="http://www.serif.com/" style="fill-rule:evenodd;clip-rule:evenodd;stroke-linejoin:round;stroke-miterlimit:2;">
    <g id="Youtube---White" serif:id="Youtube - White" transform="matrix(0.201068,0,0,0.201068,4.66424,79.4625)">
        <path d="M1035.39,1753.72C559.276,1744.95 396.66,1737.07 296.707,1716.47C229.082,1702.79 170.315,1672.41 127.226,1628.35C93.924,1595 67.44,1544.12 46.892,1473.52C29.267,1414.71 22.403,1365.78 12.616,1246.25C-2.365,976.493 -5.937,755.945 12.616,509.517C27.922,373.431 35.343,211.882 137.013,117.634C185.019,73.524 240.863,45.138 303.571,33.404C401.531,14.804 818.878,0.101 1250.93,0.101C1682,0.101 2100.28,14.804 2198.33,33.404C2276.67,48.107 2350.14,92.17 2393.28,148.988C2486.04,294.906 2487.66,476.353 2497.08,618.283C2500.97,685.908 2500.97,1069.91 2497.08,1137.53C2482.42,1361.84 2470.64,1441.2 2437.34,1523.48C2416.74,1575.43 2399.16,1602.84 2368.74,1633.22C2321.03,1679.96 2260.18,1711.07 2194.34,1722.37C1782.33,1753.35 1432.47,1760.07 1035.39,1753.72ZM1666.33,852.42C1437.11,729.925 1217.62,616.335 993.275,498.756L993.275,1202.19C1229.36,1073.85 1478.25,956.27 1667.3,851.446L1666.33,852.42Z" style="fill:white;fill-rule:nonzero;"/>
    </g>
</svg>
