<?xml version="1.0" encoding="UTF-8" standalone="no"?>
<!DOCTYPE svg PUBLIC "-//W3C//DTD SVG 1.1//EN" "http://www.w3.org/Graphics/SVG/1.1/DTD/svg11.dtd">
<svg width="100%" height="100%" viewBox="0 0 800 800" version="1.1" xmlns="http://www.w3.org/2000/svg" xmlns:xlink="http://www.w3.org/1999/xlink" xml:space="preserve" xmlns:serif="http://www.serif.com/" style="fill-rule:evenodd;clip-rule:evenodd;stroke-linecap:round;stroke-linejoin:round;stroke-miterlimit:1.5;">
    <g id="BlackOutline" transform="matrix(1.19403,0,0,1.19403,17.9104,36.9615)">
        <g id="FrontView" transform="matrix(0.449765,0,0,0.449758,-28.8252,15.7634)">
            <g>
                <g>
                    <path d="M183.354,278.85C197.668,278.022 208.852,287.893 209.058,296.956C209.238,304.928 193.497,321.397 176.947,319.409C155.001,316.773 142.661,281.201 183.354,278.85Z" style="fill:none;stroke:black;stroke-width:1.33px;"/>
                    <g transform="matrix(0.68531,0,0,0.68531,57.242,91.6279)">
                        <path d="M183.262,279.391C197.565,278.396 206.229,288.068 206.434,297.131C206.615,305.102 194.028,317.775 177.478,315.788C155.532,313.152 145.155,282.042 183.262,279.391Z" style="fill:none;stroke:black;stroke-width:1.95px;"/>
                    </g>
                </g>
                <g transform="matrix(0.246226,-0.969212,-0.969212,-0.246226,490.179,500.827)">
                    <path d="M185.186,279.98C199.5,279.152 209.879,288.404 208.782,297.796C207.519,308.603 193.497,321.397 176.947,319.409C155.001,316.773 144.493,282.331 185.186,279.98Z" style="fill:none;stroke:black;stroke-width:1.33px;"/>
                    <g transform="matrix(0.677681,-0.101969,0.101969,0.677681,25.8037,113.541)">
                        <path d="M183.262,279.391C197.565,278.396 206.229,288.068 206.434,297.131C206.615,305.102 194.028,317.775 177.478,315.788C155.532,313.152 145.155,282.042 183.262,279.391Z" style="fill:none;stroke:black;stroke-width:1.95px;"/>
                    </g>
                </g>
                <g transform="matrix(-0.730845,0.938144,-0.35948,-0.280047,375.632,134.387)">
                    <path d="M185.186,279.98C199.465,277.217 209.879,288.404 208.782,297.796C207.519,308.603 193.5,317.59 176.947,319.409C154.82,321.84 144.894,287.775 185.186,279.98Z" style="fill:none;stroke:black;stroke-width:1.48px;"/>
                    <g transform="matrix(0.629391,-0.0947032,0.109076,0.724915,37.8567,96.1503)">
                        <path d="M183.262,279.391C197.565,278.396 206.229,288.068 206.434,297.131C206.615,305.102 194.028,317.775 177.478,315.788C155.532,313.152 145.155,282.042 183.262,279.391Z" style="fill:none;stroke:black;stroke-width:2.04px;"/>
                    </g>
                </g>
                <g transform="matrix(1,0,0,1,-9.5033,10.8207)">
                    <g transform="matrix(-0.730845,0.938144,-0.492654,-0.383793,508.498,88.4054)">
                        <path d="M185.054,279.121C199.26,275.243 208.819,289.584 207.722,298.975C206.459,309.782 195.641,321.355 176.493,320.299C152.114,318.954 145.532,289.909 185.054,279.121Z" style="fill:none;stroke:black;stroke-width:1.4px;"/>
                    </g>
                    <g transform="matrix(-0.425943,0.616981,-0.467135,-0.138202,448.937,72.1756)">
                        <path d="M183.262,279.391C201.505,277.829 208.796,285.659 209.001,294.721C209.182,302.693 194.028,317.775 177.478,315.788C155.532,313.152 145.048,282.663 183.262,279.391Z" style="fill:none;stroke:black;stroke-width:1.86px;"/>
                    </g>
                </g>
                <g transform="matrix(1,0,0,1,7.34098,3.5015)">
                    <g transform="matrix(-0.49874,-0.940039,0.475479,-0.321723,231.125,382.106)">
                        <path d="M185.054,279.121C199.26,275.243 208.819,289.584 207.722,298.975C206.459,309.782 195.641,321.355 176.493,320.299C152.114,318.954 145.532,289.909 185.054,279.121Z" style="fill:none;stroke:black;stroke-width:1.49px;"/>
                    </g>
                    <g transform="matrix(-0.346759,-0.56942,0.270563,-0.374347,262.316,329.419)">
                        <path d="M183.705,281.445C201.949,279.883 208.796,285.659 209.001,294.721C209.182,302.693 193.529,314.387 175.941,316.244C142.8,319.743 145.492,284.717 183.705,281.445Z" style="fill:none;stroke:black;stroke-width:1.99px;"/>
                    </g>
                </g>
                <g>
                    <g transform="matrix(0.925915,-0.524496,0.334725,0.466418,100.278,134.392)">
                        <path d="M168.379,286.47C172.479,283.124 177.875,280.328 184.742,278.454C198.949,274.576 207.325,289.688 207.722,298.975C208.4,314.853 202.335,326.307 190.878,330.343" style="fill:none;stroke:black;stroke-width:1.49px;"/>
                    </g>
                    <g transform="matrix(0.559632,-0.362344,0.381673,0.260128,149.466,165.65)">
                        <path d="M168.228,289.856C174.767,283.998 184.704,279.19 197.221,278.118C215.465,276.556 195.571,314.126 177.984,315.983" style="fill:none;stroke:black;stroke-width:1.99px;"/>
                    </g>
                </g>
                <g transform="matrix(-1,0,0,1,899.622,0)">
                    <path d="M183.354,278.85C197.668,278.022 208.852,287.893 209.058,296.956C209.238,304.928 193.497,321.397 176.947,319.409C155.001,316.773 142.661,281.201 183.354,278.85Z" style="fill:none;stroke:black;stroke-width:1.33px;"/>
                    <g transform="matrix(0.68531,0,0,0.68531,57.242,91.6279)">
                        <path d="M183.262,279.391C197.565,278.396 206.229,288.068 206.434,297.131C206.615,305.102 194.028,317.775 177.478,315.788C155.532,313.152 145.155,282.042 183.262,279.391Z" style="fill:none;stroke:black;stroke-width:1.95px;"/>
                    </g>
                </g>
                <g transform="matrix(-0.246226,-0.969212,0.969212,-0.246226,409.443,500.827)">
                    <path d="M185.186,279.98C199.5,279.152 209.879,288.404 208.782,297.796C207.519,308.603 193.497,321.397 176.947,319.409C155.001,316.773 144.493,282.331 185.186,279.98Z" style="fill:none;stroke:black;stroke-width:1.33px;"/>
                    <g transform="matrix(0.677681,-0.101969,0.101969,0.677681,25.8037,113.541)">
                        <path d="M183.262,279.391C197.565,278.396 206.229,288.068 206.434,297.131C206.615,305.102 194.028,317.775 177.478,315.788C155.532,313.152 145.155,282.042 183.262,279.391Z" style="fill:none;stroke:black;stroke-width:1.95px;"/>
                    </g>
                </g>
                <g transform="matrix(0.730845,0.938144,0.35948,-0.280047,523.991,134.387)">
                    <path d="M185.186,279.98C199.465,277.217 209.879,288.404 208.782,297.796C207.519,308.603 193.5,317.59 176.947,319.409C154.82,321.84 144.894,287.775 185.186,279.98Z" style="fill:none;stroke:black;stroke-width:1.48px;"/>
                    <g transform="matrix(0.629391,-0.0947032,0.109076,0.724915,37.8567,96.1503)">
                        <path d="M183.262,279.391C197.565,278.396 206.229,288.068 206.434,297.131C206.615,305.102 194.028,317.775 177.478,315.788C155.532,313.152 145.155,282.042 183.262,279.391Z" style="fill:none;stroke:black;stroke-width:2.04px;"/>
                    </g>
                </g>
                <g transform="matrix(-1,0,0,1,909.126,10.8207)">
                    <g transform="matrix(-0.730845,0.938144,-0.492654,-0.383793,508.498,88.4054)">
                        <path d="M185.054,279.121C199.26,275.243 208.819,289.584 207.722,298.975C206.459,309.782 195.641,321.355 176.493,320.299C152.114,318.954 145.532,289.909 185.054,279.121Z" style="fill:none;stroke:black;stroke-width:1.4px;"/>
                    </g>
                    <g transform="matrix(-0.425943,0.616981,-0.467135,-0.138202,448.937,72.1756)">
                        <path d="M183.262,279.391C201.505,277.829 208.796,285.659 209.001,294.721C209.182,302.693 194.028,317.775 177.478,315.788C155.532,313.152 145.048,282.663 183.262,279.391Z" style="fill:none;stroke:black;stroke-width:1.86px;"/>
                    </g>
                </g>
                <g transform="matrix(-1,0,0,1,892.281,3.5015)">
                    <g transform="matrix(-0.49874,-0.940039,0.475479,-0.321723,231.125,382.106)">
                        <path d="M185.054,279.121C199.26,275.243 208.819,289.584 207.722,298.975C206.459,309.782 195.641,321.355 176.493,320.299C152.114,318.954 145.532,289.909 185.054,279.121Z" style="fill:none;stroke:black;stroke-width:1.49px;"/>
                    </g>
                    <g transform="matrix(-0.346759,-0.56942,0.270563,-0.374347,262.316,329.419)">
                        <path d="M183.705,281.445C201.949,279.883 208.796,285.659 209.001,294.721C209.182,302.693 193.529,314.387 175.941,316.244C142.8,319.743 145.492,284.717 183.705,281.445Z" style="fill:none;stroke:black;stroke-width:1.99px;"/>
                    </g>
                </g>
                <g transform="matrix(-1,0,0,1,899.622,0)">
                    <g transform="matrix(0.925915,-0.524496,0.334725,0.466418,100.278,134.392)">
                        <path d="M168.379,286.47C172.479,283.124 177.875,280.328 184.742,278.454C198.949,274.576 207.325,289.688 207.722,298.975C208.4,314.853 202.335,326.307 190.878,330.343" style="fill:none;stroke:black;stroke-width:1.49px;"/>
                    </g>
                    <g transform="matrix(0.559632,-0.362344,0.381673,0.260128,149.466,165.65)">
                        <path d="M168.228,289.856C174.767,283.998 184.704,279.19 197.221,278.118C215.465,276.556 195.571,314.126 177.984,315.983" style="fill:none;stroke:black;stroke-width:1.99px;"/>
                    </g>
                </g>
            </g>
            <g transform="matrix(0.83441,0,0,0.868358,77.7554,10.5594)">
                <ellipse cx="445.721" cy="109.641" rx="218.733" ry="100.784" style="fill:none;stroke:black;stroke-width:3.91px;"/>
            </g>
            <g transform="matrix(0.975037,0,0,1.01768,15.0753,-5.81252)">
                <ellipse cx="445.721" cy="109.641" rx="218.733" ry="100.784" style="fill:none;stroke:black;stroke-width:4.68px;"/>
            </g>
            <g transform="matrix(0.532252,0,0,0.550212,212.434,112.604)">
                <path d="M226.987,109.641C244.272,56.743 324.999,8.856 445.721,8.856C566.443,8.856 644.507,58.852 664.454,109.641" style="fill:none;stroke:black;stroke-width:6.16px;"/>
            </g>
            <g transform="matrix(0.523417,0,0,0.550212,216.372,129.521)">
                <path d="M235.076,82.414C260.883,39.998 345.471,8.856 445.721,8.856C546.66,8.856 631.722,40.429 656.89,83.291" style="fill:none;stroke:black;stroke-width:6.21px;"/>
            </g>
            <path d="M242.245,288.981C242.245,288.981 204.255,257.978 193.373,259.384C173.672,261.929 138.88,320.818 118.638,307.197" style="fill:none;stroke:black;stroke-width:3.33px;"/>
            <path d="M640.485,59.951C664.711,79.314 775.375,193.984 791.614,235.814C807.246,276.081 791.163,299.572 774.141,312.302C756.696,325.348 731.983,343.021 717.107,331.807C699.277,318.367 665.794,282.922 665.794,282.922C665.794,282.922 618.897,306.69 601.81,379.183C594.237,411.311 556.052,1135.68 554.808,1165.86C553.632,1194.38 542.812,1270.21 457.174,1278.45C451.989,1278.8 446.802,1278.87 441.601,1278.45C355.963,1270.21 345.143,1194.38 343.967,1165.86C342.723,1135.68 304.538,411.311 296.965,379.183C279.878,306.69 232.981,282.922 232.981,282.922C232.981,282.922 199.498,318.367 181.668,331.807C166.792,343.021 142.079,325.348 124.634,312.302C107.612,299.572 91.529,276.081 107.161,235.814C123.4,193.984 234.193,79.705 258.419,60.342" style="fill:none;stroke:black;stroke-width:4.74px;"/>
            <g id="ViveLogo" transform="matrix(0.218551,0,0,0.218551,382.219,902.829)">
                <path d="M425.366,180.438L334.346,22.876C331.487,17.931 326.207,14.876 320.491,14.876L288.839,14.876C283.126,14.876 277.841,17.931 274.978,22.876L183.986,180.446C181.127,185.395 181.127,191.493 183.986,196.446L199.789,223.829C202.646,228.782 207.934,231.829 213.65,231.829L395.683,231.829C401.398,231.829 406.683,228.786 409.542,223.829L425.362,196.446C428.229,191.493 428.229,185.395 425.366,180.438M348.073,195.657C334.374,199.981 319.792,202.313 304.657,202.313C289.548,202.313 274.966,199.985 261.276,195.665C245.239,190.618 235.344,174.36 238.796,157.915C245.073,127.985 260.624,101.47 282.321,81.517C294.977,69.884 314.342,69.876 326.997,81.509C348.694,101.462 364.261,127.97 370.542,157.9C373.987,174.344 364.104,190.594 348.073,195.657" style="fill-rule:nonzero;"/>
                <path d="M430.901,380.821L375.948,488.903C375.073,490.633 373.288,491.735 371.307,491.735L353.19,491.735C351.245,491.735 349.456,490.633 348.545,488.903L293.629,380.821C292.695,379.009 292.779,376.86 293.768,375.106L299.633,364.961C300.776,362.988 302.877,361.773 305.154,361.773L310.476,361.773C311.851,361.773 313.148,362.539 313.749,363.804L359.923,455.648C360.892,457.578 363.638,457.578 364.603,455.648L410.751,363.804C411.353,362.538 412.649,361.773 414.056,361.773L419.345,361.773C421.622,361.773 423.728,362.988 424.865,364.961L430.748,375.133C431.768,376.875 431.823,379.024 430.901,380.821" style="fill-rule:nonzero;"/>
                <path d="M158.795,380.821L103.846,488.903C102.967,490.633 101.184,491.735 99.201,491.735L81.088,491.735C79.137,491.735 77.35,490.633 76.438,488.903L21.526,380.821C20.588,379.009 20.672,376.868 21.661,375.106L27.544,364.946C28.673,362.977 30.765,361.774 33.03,361.774L38.376,361.774C39.745,361.774 41.042,362.54 41.644,363.805L87.816,455.649C88.781,457.579 91.533,457.579 92.504,455.649L138.649,363.805C139.251,362.539 140.547,361.774 141.944,361.774L147.262,361.774C149.528,361.774 151.623,362.977 152.754,364.946L158.649,375.134C159.655,376.875 159.713,379.024 158.795,380.821" style="fill-rule:nonzero;"/>
                <path d="M237.483,363.313C236.534,362.368 235.217,361.774 233.76,361.774L225.537,361.774C223.264,361.774 221.168,362.985 220.037,364.954L214.176,375.118C213.66,376.036 213.383,377.063 213.383,378.11L213.383,486.473C213.383,489.379 215.738,491.735 218.651,491.735L233.815,491.735C236.694,491.735 239.036,489.399 239.036,486.516L239.036,367.055C239.036,365.594 238.444,364.274 237.483,363.313" style="fill-rule:nonzero;"/>
                <path d="M492.167,364.946C493.3,362.981 495.394,361.774 497.667,361.774L576.343,361.774C578.566,361.774 580.62,362.962 581.738,364.879L587.277,374.406C588.058,375.769 588.48,377.32 588.48,378.898L588.48,381.265C588.48,383.214 586.882,384.835 584.902,384.835L513.183,384.835C511.738,384.835 510.558,386.015 510.558,387.464L510.558,412.339C510.558,413.784 511.722,414.96 513.167,414.96L561.784,414.96C564.143,414.995 566.065,416.913 566.065,419.28L566.065,433.569C566.065,435.944 564.124,437.897 561.745,437.897L513.167,437.897C511.722,437.897 510.558,439.061 510.558,440.506L510.558,466.053C510.558,467.506 511.722,468.674 513.167,468.674L584.901,468.674C586.881,468.674 588.479,470.256 588.479,472.217L588.479,474.6C588.479,476.186 588.065,477.733 587.276,479.108L581.737,488.655C580.628,490.577 578.565,491.764 576.342,491.764L497.666,491.764C495.393,491.764 493.299,490.553 492.166,488.588L486.693,479.143C485.892,477.764 485.478,476.209 485.478,474.623L485.486,378.881C485.486,377.303 485.904,375.756 486.693,374.389L492.167,364.946Z" style="fill-rule:nonzero;"/>
                <path d="M589.018,361.774L593.69,361.774L593.69,362.508L591.815,362.508L591.815,367.145L590.94,367.145L590.94,362.508L589.018,362.508L589.018,361.774ZM594.448,361.774L595.655,361.774L597.471,365.985L597.518,365.985L599.338,361.774L600.541,361.774L600.541,367.145L599.666,367.145L599.705,362.977L599.666,362.977L597.854,367.145L597.116,367.145L595.331,362.977L595.276,362.977L595.331,367.145L594.448,367.145L594.448,361.774Z" style="fill-rule:nonzero;"/>
            </g>
            <g transform="matrix(-1,0,0,1,898.775,0)">
                <path d="M242.245,288.981C242.245,288.981 204.255,257.978 193.373,259.384C173.672,261.929 138.88,320.818 118.638,307.197" style="fill:none;stroke:black;stroke-width:3.33px;"/>
            </g>
            <g>
                <g id="MenuButton">
                    <g transform="matrix(1,0,0,1,-2.72962,1.30577)">
                        <circle cx="452.014" cy="366.762" r="30.634" style="fill:none;stroke:black;stroke-width:3.33px;"/>
                    </g>
                    <g transform="matrix(1,0,0,1,-0.333562,-0.722351)">
                        <path d="M441.357,363.326L457.878,363.326" style="fill:none;stroke:black;stroke-width:3.33px;"/>
                        <g transform="matrix(1,0,0,1,0,5.46416)">
                            <path d="M441.357,363.326L457.878,363.326" style="fill:none;stroke:black;stroke-width:3.33px;"/>
                        </g>
                        <g transform="matrix(1,0,0,1,0,10.9283)">
                            <path d="M441.357,363.326L457.878,363.326" style="fill:none;stroke:black;stroke-width:3.33px;"/>
                        </g>
                    </g>
                </g>
                <g id="SystemButton">
                    <g transform="matrix(1,0,0,1,-2.82609,403.764)">
                        <circle cx="452.014" cy="366.762" r="30.634" style="fill:none;stroke:black;stroke-width:3.33px;"/>
                    </g>
                    <g id="StatusLight" transform="matrix(0.172122,0,0,0.172122,371.543,757.371)">
                        <circle cx="452.014" cy="366.762" r="30.634"/>
                    </g>
                    <g>
                        <g transform="matrix(0.836337,0.560537,-0.852412,0.535776,727.238,104.571)">
                            <rect x="442.193" y="760.516" width="11.919" height="11.919" style="fill:none;stroke:black;stroke-width:4.3px;"/>
                        </g>
                        <g transform="matrix(0.836337,0.560537,-0.852412,0.535776,727.238,112.128)">
                            <path d="M442.193,765.798L442.193,772.435L454.112,772.435L454.112,760.516L447.224,760.516" style="fill:none;stroke:black;stroke-width:4.3px;"/>
                        </g>
                    </g>
                </g>
                <g transform="matrix(0.962539,0,0,0.962539,-282.332,10.8517)">
                    <path d="M629.742,549.318C630.342,477.526 688.809,419.427 760.738,419.427C832.666,419.427 891.133,477.526 891.733,549.318L891.738,549.318L891.738,602.759C891.742,603.193 891.744,603.628 891.744,604.063C891.744,676.367 833.042,735.069 760.738,735.069C688.433,735.069 629.731,676.367 629.731,604.063C629.731,603.628 629.733,603.193 629.738,602.759L629.738,549.318L629.742,549.318Z" style="fill:none;stroke:black;stroke-width:3.46px;"/>
                </g>
                <g id="Trackpad" transform="matrix(1.03626,0,0,1.03626,-24.4352,-26.905)">
                    <circle cx="457.421" cy="546.237" r="113.599" style="fill:none;stroke:black;stroke-width:3.18px;"/>
                </g>
            </g>
        </g>
        <g id="SideView" transform="matrix(0.449755,0,0,0.449344,-81.7288,16.4191)">
            <g>
                <g>
                    <path d="M1186.06,325.568C1198.23,327.277 1218.46,317.339 1226.54,305.576C1234.62,293.814 1229.01,283.515 1214.03,280.835C1199.06,278.156 1181.06,282.957 1175.07,293.84C1169.09,304.723 1173.17,323.76 1186.06,325.568Z" style="fill:none;stroke:black;stroke-width:1.33px;"/>
                    <g transform="matrix(1.05048,-0.145248,0.155393,1.07981,-106.893,150.011)">
                        <ellipse cx="1200.95" cy="294.78" rx="16.349" ry="9.47" style="fill:none;stroke:black;stroke-width:1.24px;"/>
                    </g>
                </g>
                <g>
                    <g transform="matrix(0.451662,-0.898784,0.874938,0.500013,364.644,1185.54)">
                        <ellipse cx="1200.95" cy="294.78" rx="16.349" ry="9.47" style="fill:none;stroke:black;stroke-width:1.36px;"/>
                    </g>
                    <g transform="matrix(0.613907,-1.43515,1.46717,0.838465,-8.3591,1726.29)">
                        <ellipse cx="1200.95" cy="294.78" rx="16.349" ry="9.47" style="fill:none;stroke:black;stroke-width:0.87px;"/>
                    </g>
                </g>
                <g transform="matrix(1,0,0,1,-11.686,-11.8221)">
                    <g transform="matrix(1.03752,0.376925,-0.47916,0.833773,384.568,-631.843)">
                        <ellipse cx="1200.95" cy="294.78" rx="16.349" ry="9.47" style="fill:none;stroke:black;stroke-width:1.41px;"/>
                    </g>
                    <g transform="matrix(1.85104,0.644021,-0.798364,1.38921,-499.425,-1121.56)">
                        <ellipse cx="1200.95" cy="294.78" rx="16.349" ry="9.47" style="fill:none;stroke:black;stroke-width:0.82px;"/>
                    </g>
                </g>
                <g transform="matrix(1,0,0,1,-8.13585,15.5794)">
                    <g transform="matrix(0.979217,-0.502359,0.613181,1.37129,-14.3332,425.264)">
                        <ellipse cx="1200.95" cy="294.78" rx="16.349" ry="9.47" style="fill:none;stroke:black;stroke-width:1.04px;"/>
                    </g>
                    <g transform="matrix(1.55324,-0.743851,1.06156,2.37401,-839.847,416.121)">
                        <ellipse cx="1200.95" cy="294.78" rx="16.349" ry="9.47" style="fill:none;stroke:black;stroke-width:0.61px;"/>
                    </g>
                </g>
                <g transform="matrix(1,0,0,1,16.7896,3.3714)">
                    <g transform="matrix(0.833318,-0.718896,0.91896,1.18825,-22.7742,657.872)">
                        <ellipse cx="1200.95" cy="294.78" rx="16.349" ry="9.47" style="fill:none;stroke:black;stroke-width:1.04px;"/>
                    </g>
                    <g transform="matrix(1.42256,-0.944893,1.01646,2.27315,-761.4,608.847)">
                        <ellipse cx="1200.95" cy="294.78" rx="16.349" ry="9.47" style="fill:none;stroke:black;stroke-width:0.68px;"/>
                    </g>
                </g>
                <g transform="matrix(1,0,0,1,-16.4551,-2.07686)">
                    <g transform="matrix(0.647948,-0.835052,0.483409,0.625064,560.762,946.516)">
                        <ellipse cx="1200.95" cy="294.78" rx="16.349" ry="9.47" style="fill:none;stroke:black;stroke-width:1.64px;"/>
                    </g>
                    <g transform="matrix(1.12425,-1.33495,0.585191,1.30869,-37.5199,1347.94)">
                        <ellipse cx="1200.95" cy="294.78" rx="16.349" ry="9.47" style="fill:none;stroke:black;stroke-width:1.1px;"/>
                    </g>
                </g>
                <g>
                    <g transform="matrix(0.951391,-0.488083,0.46382,1.03726,109.125,558.984)">
                        <ellipse cx="1200.95" cy="294.78" rx="16.349" ry="9.47" style="fill:none;stroke:black;stroke-width:1.24px;"/>
                    </g>
                    <g transform="matrix(1.557,-0.745654,0.820276,1.83442,-721.676,638.494)">
                        <path d="M1189.32,301.435C1186.4,299.724 1184.6,297.373 1184.6,294.78C1184.6,289.554 1191.93,285.31 1200.95,285.31C1209.97,285.31 1217.3,289.554 1217.3,294.78C1217.3,296.288 1216.69,297.714 1215.61,298.979" style="fill:none;stroke:black;stroke-width:0.72px;"/>
                    </g>
                </g>
            </g>
            <path d="M1123.03,1270.43L1143.17,1278.46C1156.51,1269.15 1169.95,1260.03 1187.2,1257.25C1233.16,1104.14 1247.73,848.343 1250.15,622.815L1243.45,601.205C1227.96,584.671 1223.69,530.741 1224.33,466.816C1191.46,403.268 1205.23,347.757 1277.36,304.464C1277.36,304.464 1283.51,318.203 1302.77,329.04C1322.03,339.877 1338.77,327.075 1338.77,327.075C1338.77,327.075 1401.53,289.863 1424.9,275.551C1450.4,259.934 1427.28,222.727 1427.28,222.727C1427.28,222.727 1478.2,195.571 1491.91,187.557C1505.63,179.543 1519.89,168.117 1525.54,157.218C1531.73,145.288 1557.91,96.753 1568.44,71.228C1577.72,48.731 1553.27,39.206 1553.27,39.206L1456.71,1.744L1093.74,202.158L1060.68,407.445C1094.27,455.53 1092.14,688.304 1059.38,734.783L1083.04,1202.49C1083.04,1202.49 1083.43,1253.89 1123.06,1270.36C1127.46,1235.72 1109.15,859.985 1106.28,694.986C1104.3,581.49 1092.52,357.095 1150.86,303.74C1210.94,248.801 1231.02,258.855 1250.47,277.985C1270.2,297.386 1284.17,318.368 1313.34,303.204C1342.5,288.04 1410.39,244.897 1410.39,244.897C1410.39,244.897 1428.08,234.653 1423.71,217.084C1419.36,199.516 1414.35,191.679 1414.35,191.679C1414.35,191.679 1476.02,158.782 1483.67,153.504C1493.46,146.755 1503.06,140.017 1510.16,127.916C1517.25,115.814 1553.01,39.154 1553.01,39.154" style="fill:none;stroke:black;stroke-width:3.33px;"/>
            <g transform="matrix(3.86514,0.487912,-0.487912,3.86514,-1912.62,-363.085)">
                <ellipse cx="839.025" cy="297.05" rx="0.985" ry="2.323" style="fill:none;stroke:black;stroke-width:0.67px;"/>
            </g>
            <path d="M1067.08,419.636L1060.24,424.131L1077.7,672.59" style="fill:none;stroke:black;stroke-width:3.33px;"/>
            <g transform="matrix(4.24903,0,0,4.24903,-2373.11,-73.7718)">
                <path d="M811.027,95.475L808.712,95.87L808.671,109.483" style="fill:none;stroke:black;stroke-width:0.8px;"/>
            </g>
            <path id="Trigger" d="M1224.51,490.912C1224.51,490.912 1237.46,492.984 1245.66,502.24C1261.04,519.605 1288.56,544.274 1312.87,554.593C1324.7,559.613 1331.73,570.577 1317.33,573.924C1302.92,577.271 1265.19,571.392 1255.99,574.122C1237.68,579.559 1237.68,591.972 1237.68,591.972" style="fill:none;stroke:black;stroke-width:3.33px;"/>
            <g id="GripButton">
                <g transform="matrix(0.978937,0,6.93889e-18,1.04598,25.7989,-34.0258)">
                    <path d="M1210.79,720.592C1210.79,701.383 1194.14,685.788 1173.64,685.788C1153.13,685.788 1136.48,701.383 1136.48,720.592L1136.48,818.493C1136.48,837.701 1153.13,853.296 1173.64,853.296C1194.14,853.296 1210.79,837.701 1210.79,818.493L1210.79,720.592Z" style="fill:none;stroke:black;stroke-width:3.24px;"/>
                </g>
                <g transform="matrix(0.806645,0,0,0.936542,229.938,50.8042)">
                    <path d="M1210.79,717.817C1210.79,700.14 1194.14,685.788 1173.64,685.788C1153.13,685.788 1136.48,700.14 1136.48,717.817L1136.48,821.267C1136.48,838.944 1153.13,853.296 1173.64,853.296C1194.14,853.296 1210.79,838.944 1210.79,821.267L1210.79,717.817Z" style="fill:none;stroke:black;stroke-width:2.25px;"/>
                </g>
            </g>
        </g>
    </g>
</svg>
