<?xml version="1.0" encoding="UTF-8" standalone="no"?>
<!DOCTYPE svg PUBLIC "-//W3C//DTD SVG 1.1//EN" "http://www.w3.org/Graphics/SVG/1.1/DTD/svg11.dtd">
<svg width="100%" height="100%" viewBox="0 0 400 400" version="1.1" xmlns="http://www.w3.org/2000/svg" xmlns:xlink="http://www.w3.org/1999/xlink" xml:space="preserve" xmlns:serif="http://www.serif.com/" style="fill-rule:evenodd;clip-rule:evenodd;stroke-linecap:round;stroke-linejoin:round;stroke-miterlimit:1.5;">
    <g transform="matrix(1,0,0,1,-50,-154)">
        <g transform="matrix(4.16667,0,0,4.16667,0,0)">
            <g id="TrackpadArrowLeftRight" transform="matrix(6.12323e-17,1,-1,6.12323e-17,517.911,-750.626)">
                <g transform="matrix(0.362742,0,0,0.362742,669.701,259.768)">
                    <circle cx="457.421" cy="546.237" r="113.599" style="fill:none;"/>
                    <circle cx="457.421" cy="546.237" r="113.599" style="fill:none;stroke:black;stroke-width:7.35px;"/>
                </g>
                <g id="Arrow" transform="matrix(0.69448,0,0,0.69448,472.766,-1793.24)">
                    <path d="M523.991,3267.5L523.991,3284.87L530.397,3278.46C530.989,3277.87 531.95,3277.87 532.543,3278.46C533.135,3279.05 533.135,3280.01 532.543,3280.61L523.597,3289.56C523.293,3289.86 522.892,3290.01 522.494,3290L522.491,3290C522.093,3290.01 521.692,3289.86 521.388,3289.56L512.442,3280.61C511.849,3280.01 511.849,3279.05 512.442,3278.46C513.034,3277.87 513.995,3277.87 514.588,3278.46L520.994,3284.87L520.994,3267.5C520.994,3266.67 521.665,3266 522.492,3266C523.32,3266 523.991,3266.67 523.991,3267.5Z"/>
                </g>
                <g id="Arrow1" serif:id="Arrow" transform="matrix(0.69448,0,0,0.69448,548.464,-1843.95)">
                    <path d="M411.993,3288.5L411.993,3271.13L405.588,3277.54C404.995,3278.14 404.034,3278.14 403.442,3277.54C402.849,3276.95 402.849,3275.99 403.442,3275.39L412.388,3266.44C412.692,3266.14 413.092,3265.99 413.491,3266L413.493,3266C413.892,3265.99 414.293,3266.14 414.597,3266.44L423.543,3275.39C424.135,3275.99 424.135,3276.95 423.543,3277.54C422.95,3278.14 421.989,3278.14 421.397,3277.54L414.991,3271.13L414.991,3288.5C414.991,3289.33 414.32,3290 413.492,3290C412.664,3290 411.993,3289.33 411.993,3288.5Z"/>
                </g>
            </g>
        </g>
    </g>
</svg>
