<?xml version="1.0" encoding="UTF-8" standalone="no"?>
<!DOCTYPE svg PUBLIC "-//W3C//DTD SVG 1.1//EN" "http://www.w3.org/Graphics/SVG/1.1/DTD/svg11.dtd">
<svg width="100%" height="100%" viewBox="0 0 400 400" version="1.1" xmlns="http://www.w3.org/2000/svg" xmlns:xlink="http://www.w3.org/1999/xlink" xml:space="preserve" xmlns:serif="http://www.serif.com/" style="fill-rule:evenodd;clip-rule:evenodd;stroke-linecap:round;stroke-linejoin:round;stroke-miterlimit:1.5;">
    <g transform="matrix(1,0,0,1,-50,-154)">
        <g transform="matrix(4.16667,0,0,4.16667,0,0)">
            <g id="TrackpadNumbers" transform="matrix(1,0,0,1,-679.858,-299.855)">
                <g transform="matrix(0.362742,0,0,0.362742,573.933,186.712)">
                    <circle cx="457.421" cy="546.237" r="113.599" style="fill:none;"/>
                    <circle cx="457.421" cy="546.237" r="113.599" style="fill:none;stroke:black;stroke-width:7.35px;"/>
                </g>
                <g id="Arrows" transform="matrix(0.946378,0,0,0.946378,-506.638,-783.789)">
                    <g transform="matrix(1,0,0,1,-3.83619,-313.229)">
                        <path d="M1327.96,1568.95L1313.96,1568.95C1313.57,1568.98 1313.33,1569.14 1313.19,1569.4C1313.02,1569.69 1313.03,1570.01 1313.19,1570.3L1320.19,1582.31C1320.36,1582.59 1320.63,1582.75 1320.96,1582.75C1321.28,1582.75 1321.56,1582.59 1321.73,1582.31L1328.73,1570.3C1328.89,1570.01 1328.89,1569.69 1328.73,1569.4C1328.58,1569.14 1328.34,1568.98 1327.96,1568.95Z"/>
                    </g>
                    <g transform="matrix(1,0,0,1,-3.83619,-313.229)">
                        <path d="M1300.06,1541.2C1300.06,1540.87 1299.89,1540.59 1299.61,1540.43C1299.32,1540.27 1298.99,1540.27 1298.71,1540.44L1286.73,1547.5C1286.45,1547.67 1286.29,1547.95 1286.29,1548.27C1286.29,1548.6 1286.46,1548.88 1286.74,1549.04L1298.79,1555.97C1299.08,1556.14 1299.4,1556.14 1299.69,1555.97C1299.98,1555.81 1300.14,1555.53 1300.13,1555.2L1300.06,1541.2Z"/>
                    </g>
                    <g transform="matrix(1,0,0,1,-3.83619,-313.229)">
                        <path d="M1341.78,1540.98C1341.78,1540.65 1341.94,1540.37 1342.23,1540.2C1342.52,1540.04 1342.84,1540.04 1343.13,1540.2L1355.18,1547.13C1355.46,1547.3 1355.62,1547.58 1355.62,1547.9C1355.63,1548.23 1355.47,1548.51 1355.19,1548.67L1343.21,1555.74C1342.92,1555.9 1342.6,1555.91 1342.31,1555.74C1342.02,1555.58 1341.86,1555.3 1341.86,1554.97L1341.78,1540.98Z"/>
                    </g>
                    <g transform="matrix(1,0,0,1,-3.83619,-313.229)">
                        <path d="M1327.96,1527.23C1328.29,1527.23 1328.57,1527.06 1328.73,1526.78C1328.89,1526.49 1328.89,1526.16 1328.73,1525.88L1321.73,1513.86C1321.56,1513.58 1321.28,1513.42 1320.96,1513.42C1320.63,1513.42 1320.36,1513.58 1320.19,1513.86L1313.19,1525.88C1313.03,1526.16 1313.02,1526.49 1313.19,1526.78C1313.35,1527.06 1313.63,1527.23 1313.96,1527.23L1327.96,1527.23Z"/>
                    </g>
                </g>
            </g>
        </g>
    </g>
</svg>
