<?xml version="1.0" encoding="UTF-8" standalone="no"?>
<!DOCTYPE svg PUBLIC "-//W3C//DTD SVG 1.1//EN" "http://www.w3.org/Graphics/SVG/1.1/DTD/svg11.dtd">
<svg width="100%" height="100%" viewBox="0 0 300 650" version="1.1" xmlns="http://www.w3.org/2000/svg" xmlns:xlink="http://www.w3.org/1999/xlink" xml:space="preserve" xmlns:serif="http://www.serif.com/" style="fill-rule:evenodd;clip-rule:evenodd;stroke-linecap:round;stroke-linejoin:round;stroke-miterlimit:1.5;">
    <g transform="matrix(1,0,0,1,-100,-29)">
        <g transform="matrix(4.16667,0,0,4.16667,0,0)">
            <g id="GripButtonR" transform="matrix(2.374,0,0,2.374,-1200.84,-501.312)">
                <g transform="matrix(0.342668,0,1.73472e-18,0.365807,128.937,-34.5316)">
                    <path d="M1210.79,720.591C1210.79,701.383 1194.14,685.788 1173.64,685.788C1153.13,685.788 1136.48,701.383 1136.48,720.591L1136.48,818.493C1136.48,837.702 1153.13,853.296 1173.64,853.296C1194.14,853.296 1210.79,837.702 1210.79,818.493L1210.79,720.591Z" style="fill:none;stroke:white;stroke-width:3.24px;"/>
                </g>
                <g transform="matrix(0.965831,0,0,0.965831,-436.609,22.738)">
                    <text x="997.348px" y="237.751px" style="font-family:'Vegur-Bold', 'Vegur';font-weight:700;font-size:16px;fill:white;">R</text>
                </g>
            </g>
        </g>
    </g>
</svg>
