<?xml version="1.0" encoding="UTF-8" standalone="no"?>
<!DOCTYPE svg PUBLIC "-//W3C//DTD SVG 1.1//EN" "http://www.w3.org/Graphics/SVG/1.1/DTD/svg11.dtd">
<svg width="100%" height="100%" viewBox="0 0 400 400" version="1.1" xmlns="http://www.w3.org/2000/svg" xmlns:xlink="http://www.w3.org/1999/xlink" xml:space="preserve" xmlns:serif="http://www.serif.com/" style="fill-rule:evenodd;clip-rule:evenodd;stroke-linecap:round;stroke-linejoin:round;stroke-miterlimit:1.5;">
    <g transform="matrix(1,0,0,1,-50,-154)">
        <g transform="matrix(4.16667,0,0,4.16667,0,0)">
            <g id="TrackpadNumbersPointsCross" transform="matrix(1,0,0,1,-679.858,-299.855)">
                <g transform="matrix(0.362742,0,0,0.362742,573.933,186.712)">
                    <circle cx="457.421" cy="546.237" r="113.599" style="fill:none;"/>
                    <clipPath id="_clip1">
                        <circle cx="457.421" cy="546.237" r="113.599"/>
                    </clipPath>
                    <g clip-path="url(#_clip1)">
                        <g transform="matrix(2.75678,0,0,2.75678,-1596.98,-452.015)">
                            <g transform="matrix(0.719731,0.719731,-0.719731,0.719731,53.0478,-719.165)">
                                <path d="M1232.76,229.281L1232.76,311.047" style="fill:none;stroke:white;stroke-width:2.62px;"/>
                            </g>
                            <g transform="matrix(0.719731,0.719731,-0.719731,0.719731,49.7159,-715.761)">
                                <path d="M1190.34,265.779L1272.38,265.779" style="fill:none;stroke:white;stroke-width:2.62px;"/>
                            </g>
                        </g>
                    </g>
                    <circle cx="457.421" cy="546.237" r="113.599" style="fill:none;stroke:white;stroke-width:7.35px;"/>
                </g>
                <g transform="matrix(1,0,0,1,-0.691265,-0.163498)">
                    <g transform="matrix(1,0,0,1,0.0796617,0)">
                        <g transform="matrix(1,0,0,1,-420.883,-49.4713)">
                            <g>
                                <path d="M1161.35,400.169C1166.67,400.169 1170.99,404.489 1170.99,409.81C1170.99,415.131 1166.67,419.451 1161.35,419.451C1156.03,419.451 1151.71,415.131 1151.71,409.81C1151.71,404.489 1156.03,400.169 1161.35,400.169ZM1162.61,405.083L1161.21,405.083L1158.58,406.805L1158.63,408.32L1161,406.952L1161,413.169L1162.61,413.169L1162.61,405.083Z" style="fill:white;"/>
                            </g>
                        </g>
                        <g transform="matrix(1,0,0,1,-420.883,-49.4713)">
                            <g>
                                <path d="M1161.35,449.528C1166.67,449.528 1170.99,453.848 1170.99,459.169C1170.99,464.49 1166.67,468.81 1161.35,468.81C1156.03,468.81 1151.71,464.49 1151.71,459.169C1151.71,453.848 1156.03,449.528 1161.35,449.528ZM1159.34,456.904C1159.78,456.574 1160.43,456.367 1160.98,456.367C1161.83,456.367 1162.29,456.733 1162.29,457.332C1162.29,458.028 1161.63,458.565 1160.14,458.565L1160.14,459.836C1161.66,459.836 1162.35,460.19 1162.35,461.021C1162.35,461.668 1161.79,462.059 1160.88,462.059C1160.27,462.059 1159.63,461.912 1159.01,461.619L1158.89,463.024C1159.45,463.305 1160.14,463.427 1160.8,463.427C1162.8,463.427 1164.08,462.45 1164.08,461.008C1164.08,459.946 1163.41,459.091 1161.91,458.956C1163.02,458.822 1164.02,458.114 1164.02,457.039C1164.02,455.829 1163.14,454.999 1161.26,454.999C1160.56,454.999 1159.87,455.157 1159.28,455.487L1159.34,456.904Z" style="fill:white;"/>
                            </g>
                        </g>
                    </g>
                    <g transform="matrix(1,0,0,1,0,1.00263)">
                        <g transform="matrix(1,0,0,1,-420.803,-50.4739)">
                            <g>
                                <path d="M1136.84,424.848C1142.16,424.848 1146.48,429.168 1146.48,434.489C1146.48,439.81 1142.16,444.13 1136.84,444.13C1131.52,444.13 1127.2,439.81 1127.2,434.489C1127.2,429.168 1131.52,424.848 1136.84,424.848ZM1134.8,431.947C1135.35,431.446 1135.96,431.214 1136.49,431.214C1137.36,431.214 1137.81,431.592 1137.81,432.399C1137.81,433.046 1137.35,433.742 1136.47,434.646L1134.3,436.845L1134.3,438.103L1139.45,438.103L1139.45,436.735L1136.23,436.735L1137.7,435.355C1138.86,434.268 1139.54,433.303 1139.54,432.179C1139.54,430.933 1138.7,429.846 1136.8,429.846C1136.01,429.846 1135.35,430.053 1134.73,430.493L1134.8,431.947Z" style="fill:white;"/>
                            </g>
                        </g>
                        <g transform="matrix(1,0,0,1,-420.803,-50.4739)">
                            <g>
                                <path d="M1185.86,424.848C1191.18,424.848 1195.5,429.168 1195.5,434.489C1195.5,439.81 1191.18,444.13 1185.86,444.13C1180.54,444.13 1176.22,439.81 1176.22,434.489C1176.22,429.168 1180.54,424.848 1185.86,424.848ZM1187.68,430.371L1185.51,430.371L1182.84,435.343L1182.84,436.613L1186.07,436.613L1186.07,438.445L1187.68,438.445L1187.68,436.613L1188.77,436.613L1188.77,435.245L1187.68,435.245L1187.68,430.371ZM1186.09,435.245L1184.51,435.245L1186.17,431.788C1186.11,432.399 1186.09,432.912 1186.09,433.608L1186.09,435.245Z" style="fill:white;"/>
                            </g>
                        </g>
                    </g>
                </g>
            </g>
        </g>
    </g>
</svg>
