<?xml version="1.0" encoding="UTF-8" standalone="no"?>
<!DOCTYPE svg PUBLIC "-//W3C//DTD SVG 1.1//EN" "http://www.w3.org/Graphics/SVG/1.1/DTD/svg11.dtd">
<svg width="100%" height="100%" viewBox="0 0 260 260" version="1.1" xmlns="http://www.w3.org/2000/svg" xmlns:xlink="http://www.w3.org/1999/xlink" xml:space="preserve" xmlns:serif="http://www.serif.com/" style="fill-rule:evenodd;clip-rule:evenodd;stroke-linecap:round;stroke-linejoin:round;stroke-miterlimit:1.5;">
    <g transform="matrix(1,0,0,1,-95,-95)">
        <g transform="matrix(3.33333,0,0,3.33333,25,-58.3333)">
            <g id="BackButton" transform="matrix(1.13627,0,0,1.13627,-3586.26,-2286.12)">
                <g transform="matrix(0.429772,0,0,0.429772,1981.77,1277.21)">
                    <circle cx="2855.47" cy="1883.68" r="66.256" style="fill:none;stroke:white;stroke-width:3.82px;"/>
                </g>
                <g transform="matrix(1.24196,0,0,1.24196,-378.023,-454.607)">
                    <g transform="matrix(0.748327,0,0,0.806561,690.687,360.911)">
                        <path d="M2936.76,2098.83L2944.01,2098.83C2947.91,2098.83 2951.07,2095.58 2951.07,2091.57C2951.07,2087.55 2947.91,2084.3 2944.01,2084.3L2922.54,2084.3" style="fill:none;stroke:white;stroke-width:1.7px;"/>
                    </g>
                    <g transform="matrix(0.748327,0,0,0.748327,690.687,482.333)">
                        <g transform="matrix(0.842281,0,0,0.842281,461.593,328.108)">
                            <path d="M2928.63,2077.43L2921.12,2084.94" style="fill:none;stroke:white;stroke-width:2.1px;"/>
                        </g>
                        <g transform="matrix(0.842281,0,0,-0.842281,461.593,3840.38)">
                            <path d="M2928.63,2077.43L2921.12,2084.94" style="fill:none;stroke:white;stroke-width:2.1px;"/>
                        </g>
                    </g>
                </g>
            </g>
        </g>
    </g>
</svg>
