<?xml version="1.0" encoding="UTF-8" standalone="no"?>
<!DOCTYPE svg PUBLIC "-//W3C//DTD SVG 1.1//EN" "http://www.w3.org/Graphics/SVG/1.1/DTD/svg11.dtd">
<svg width="100%" height="100%" viewBox="0 0 400 387" version="1.1" xmlns="http://www.w3.org/2000/svg" xmlns:xlink="http://www.w3.org/1999/xlink" xml:space="preserve" xmlns:serif="http://www.serif.com/" style="fill-rule:evenodd;clip-rule:evenodd;stroke-linecap:round;stroke-linejoin:round;stroke-miterlimit:1.5;">
    <g transform="matrix(1,0,0,1,-25,-32)">
        <g transform="matrix(3.33333,0,0,3.33333,25,-58.3333)">
            <g id="NavigationDiskLines" transform="matrix(0.625961,0,0,0.625961,-352.457,-702.572)">
                <g transform="matrix(1.38644,0,0,1.34459,-3300.02,-1274.6)">
                    <circle cx="2855.47" cy="1883.68" r="66.256" style="fill:none;stroke:white;stroke-width:2.18px;"/>
                </g>
                <g transform="matrix(1.87076,1.87076,-1.87076,1.87076,-1141.87,-1553.44)">
                    <path d="M1232.76,284.647L1232.76,304.17" style="fill:none;stroke:white;stroke-width:1.21px;"/>
                </g>
                <g transform="matrix(1.87076,1.87076,-1.87076,1.87076,-1051.69,-1643.62)">
                    <path d="M1232.76,284.647L1232.76,304.17" style="fill:none;stroke:white;stroke-width:1.21px;"/>
                </g>
                <g transform="matrix(1.87076,1.87076,-1.87076,1.87076,-1147.45,-1542.61)">
                    <path d="M1197.4,265.779L1216.95,265.779" style="fill:none;stroke:white;stroke-width:1.21px;"/>
                </g>
                <g transform="matrix(1.87076,1.87076,-1.87076,1.87076,-1057.1,-1452.26)">
                    <path d="M1197.4,265.779L1216.95,265.779" style="fill:none;stroke:white;stroke-width:1.21px;"/>
                </g>
                <g transform="matrix(0.580825,0,0,0.557516,-999.61,207.998)">
                    <circle cx="2855.47" cy="1883.68" r="66.256" style="fill:none;stroke:white;stroke-width:5.24px;"/>
                </g>
            </g>
        </g>
    </g>
</svg>
