<?xml version="1.0" encoding="UTF-8" standalone="no"?>
<!DOCTYPE svg PUBLIC "-//W3C//DTD SVG 1.1//EN" "http://www.w3.org/Graphics/SVG/1.1/DTD/svg11.dtd">
<svg width="100%" height="100%" viewBox="0 0 400 387" version="1.1" xmlns="http://www.w3.org/2000/svg" xmlns:xlink="http://www.w3.org/1999/xlink" xml:space="preserve" xmlns:serif="http://www.serif.com/" style="fill-rule:evenodd;clip-rule:evenodd;stroke-linecap:round;stroke-linejoin:round;stroke-miterlimit:1.5;">
    <g transform="matrix(1,0,0,1,-25,-32)">
        <g transform="matrix(3.33333,0,0,3.33333,25,-58.3333)">
            <g id="NavigationDiskArrows" transform="matrix(0.625961,0,0,0.625961,-352.457,-702.572)">
                <g transform="matrix(1.38644,0,0,1.34459,-3300.02,-1274.6)">
                    <circle cx="2855.47" cy="1883.68" r="66.256" style="fill:none;stroke:white;stroke-width:2.18px;"/>
                </g>
                <g transform="matrix(1,0,0,1,-2.20443,0.713468)">
                    <g id="Arrow" transform="matrix(1.80541,0,0,1.80541,308.178,-4728.57)">
                        <path d="M203.397,3283.54L195.492,3275.63L187.588,3283.54C186.995,3284.14 186.034,3284.14 185.442,3283.54C184.849,3282.95 184.849,3281.99 185.442,3281.39L194.388,3272.44C194.692,3272.14 195.093,3271.99 195.492,3272C195.891,3271.99 196.292,3272.14 196.597,3272.44L205.543,3281.39C206.135,3281.99 206.135,3282.95 205.543,3283.54C204.95,3284.14 203.989,3284.14 203.397,3283.54Z" style="fill:white;"/>
                    </g>
                    <g id="Arrow1" serif:id="Arrow" transform="matrix(1.80541,0,0,-1.80541,308.178,7243.5)">
                        <path d="M203.397,3283.54L195.492,3275.63L187.588,3283.54C186.995,3284.14 186.034,3284.14 185.442,3283.54C184.849,3282.95 184.849,3281.99 185.442,3281.39L194.388,3272.44C194.692,3272.14 195.093,3271.99 195.492,3272C195.891,3271.99 196.292,3272.14 196.597,3272.44L205.543,3281.39C206.135,3281.99 206.135,3282.95 205.543,3283.54C204.95,3284.14 203.989,3284.14 203.397,3283.54Z" style="fill:white;"/>
                    </g>
                    <g id="Arrow2" serif:id="Arrow" transform="matrix(1.1055e-16,1.80541,-1.80541,1.1055e-16,6647.16,904.523)">
                        <path d="M203.397,3283.54L195.492,3275.63L187.588,3283.54C186.995,3284.14 186.034,3284.14 185.442,3283.54C184.849,3282.95 184.849,3281.99 185.442,3281.39L194.388,3272.44C194.692,3272.14 195.093,3271.99 195.492,3272C195.891,3271.99 196.292,3272.14 196.597,3272.44L205.543,3281.39C206.135,3281.99 206.135,3282.95 205.543,3283.54C204.95,3284.14 203.989,3284.14 203.397,3283.54Z" style="fill:white;"/>
                    </g>
                    <g id="Arrow3" serif:id="Arrow" transform="matrix(1.1055e-16,1.80541,1.80541,-1.1055e-16,-5324.92,904.523)">
                        <path d="M203.397,3283.54L195.492,3275.63L187.588,3283.54C186.995,3284.14 186.034,3284.14 185.442,3283.54C184.849,3282.95 184.849,3281.99 185.442,3281.39L194.388,3272.44C194.692,3272.14 195.093,3271.99 195.492,3272C195.891,3271.99 196.292,3272.14 196.597,3272.44L205.543,3281.39C206.135,3281.99 206.135,3282.95 205.543,3283.54C204.95,3284.14 203.989,3284.14 203.397,3283.54Z" style="fill:white;"/>
                    </g>
                </g>
                <g transform="matrix(0.580825,0,0,0.557516,-999.61,207.998)">
                    <circle cx="2855.47" cy="1883.68" r="66.256" style="fill:none;stroke:white;stroke-width:5.24px;"/>
                </g>
            </g>
        </g>
    </g>
</svg>
