<?xml version="1.0" encoding="UTF-8" standalone="no"?>
<!DOCTYPE svg PUBLIC "-//W3C//DTD SVG 1.1//EN" "http://www.w3.org/Graphics/SVG/1.1/DTD/svg11.dtd">
<svg width="100%" height="100%" viewBox="0 0 400 387" version="1.1" xmlns="http://www.w3.org/2000/svg" xmlns:xlink="http://www.w3.org/1999/xlink" xml:space="preserve" xmlns:serif="http://www.serif.com/" style="fill-rule:evenodd;clip-rule:evenodd;stroke-linecap:round;stroke-linejoin:round;stroke-miterlimit:1.5;">
    <g transform="matrix(1,0,0,1,-25,-32)">
        <g transform="matrix(3.33333,0,0,3.33333,25,-58.3333)">
            <g id="NavigationDiskNumbers" transform="matrix(0.625961,0,0,0.625961,-352.457,-702.572)">
                <g transform="matrix(1.38644,0,0,1.34459,-3300.02,-1274.6)">
                    <circle cx="2855.47" cy="1883.68" r="66.256" style="fill:none;stroke:white;stroke-width:2.18px;"/>
                </g>
                <g transform="matrix(0.580825,0,0,0.557516,-999.61,207.998)">
                    <circle cx="2855.47" cy="1883.68" r="66.256" style="fill:none;stroke:white;stroke-width:5.24px;"/>
                </g>
                <g transform="matrix(1.59754,0,0,1.59754,-699.733,-857.966)">
                    <path d="M850.833,1276.51C855.714,1276.51 859.676,1280.47 859.676,1285.35C859.676,1290.23 855.714,1294.2 850.833,1294.2C845.953,1294.2 841.991,1290.23 841.991,1285.35C841.991,1280.47 845.953,1276.51 850.833,1276.51ZM851.884,1281.17L851.109,1281.17L848.749,1282.68L848.773,1283.69L850.906,1282.41L850.906,1289.06L851.884,1289.06L851.884,1281.17Z" style="fill:white;"/>
                </g>
                <g transform="matrix(1.59754,0,0,1.59754,-699.733,-857.966)">
                    <path d="M810.306,1315.58C815.186,1315.58 819.148,1319.54 819.148,1324.42C819.148,1329.3 815.186,1333.26 810.306,1333.26C805.425,1333.26 801.463,1329.3 801.463,1324.42C801.463,1319.54 805.425,1315.58 810.306,1315.58ZM808.329,1321.82C808.782,1321.31 809.497,1321.01 810.033,1321.01C810.975,1321.01 811.392,1321.54 811.392,1322.25C811.392,1322.99 811.166,1323.58 809.556,1325.44L807.84,1327.42L807.84,1328.16L812.596,1328.16L812.596,1327.3L809.08,1327.3L810.2,1326.04C811.881,1324.15 812.489,1323.27 812.489,1322.22C812.489,1321.03 811.63,1320.15 810.176,1320.15C809.473,1320.15 808.794,1320.36 808.293,1320.8L808.329,1321.82Z" style="fill:white;"/>
                </g>
                <g transform="matrix(1.59754,0,0,1.59754,-699.733,-857.966)">
                    <path d="M850.833,1354.64C855.714,1354.64 859.676,1358.61 859.676,1363.49C859.676,1368.37 855.714,1372.33 850.833,1372.33C845.953,1372.33 841.991,1368.37 841.991,1363.49C841.991,1358.61 845.953,1354.64 850.833,1354.64ZM849.206,1360.82C849.647,1360.5 850.219,1360.27 850.708,1360.27C851.638,1360.27 852.15,1360.71 852.15,1361.47C852.15,1362.33 851.161,1363.08 849.993,1363.08L849.993,1363.84C851.483,1363.84 852.234,1364.44 852.234,1365.33C852.234,1366.19 851.566,1366.68 850.601,1366.68C850.005,1366.68 849.456,1366.54 848.86,1366.22L848.777,1367.11C849.313,1367.42 849.909,1367.54 850.553,1367.54C852.067,1367.54 853.33,1366.69 853.33,1365.24C853.33,1364.23 852.52,1363.38 851.292,1363.27C852.305,1363.09 853.247,1362.41 853.247,1361.32C853.247,1360.27 852.46,1359.41 850.922,1359.41C850.279,1359.41 849.599,1359.61 849.17,1359.91L849.206,1360.82Z" style="fill:white;"/>
                </g>
                <g transform="matrix(1.59754,0,0,1.59754,-699.733,-857.966)">
                    <path d="M891.361,1315.58C896.241,1315.58 900.204,1319.54 900.204,1324.42C900.204,1329.3 896.241,1333.26 891.361,1333.26C886.48,1333.26 882.518,1329.3 882.518,1324.42C882.518,1319.54 886.48,1315.58 891.361,1315.58ZM892.927,1320.29L891.628,1320.29L888.863,1325.38L888.863,1326.14L891.95,1326.14L891.95,1328.17L892.927,1328.17L892.927,1326.14L893.917,1326.14L893.917,1325.29L892.927,1325.29L892.927,1320.29ZM891.95,1325.29L889.971,1325.29L891.998,1321.32C891.95,1322.27 891.95,1322.97 891.95,1323.45L891.95,1325.29Z" style="fill:white;"/>
                </g>
                <g transform="matrix(1.59754,0,0,1.59754,-699.733,-857.966)">
                    <path d="M850.463,1315.78C855.343,1315.78 859.306,1319.75 859.306,1324.63C859.306,1329.51 855.343,1333.47 850.463,1333.47C845.583,1333.47 841.62,1329.51 841.62,1324.63C841.62,1319.75 845.583,1315.78 850.463,1315.78ZM852.705,1320.64L848.879,1320.64L848.617,1324.64L849.571,1324.64C851.072,1324.64 851.752,1325.22 851.752,1326.28C851.752,1327.15 851.12,1327.75 850.155,1327.75C849.642,1327.75 849.022,1327.62 848.414,1327.25L848.343,1328.18C848.855,1328.49 849.463,1328.61 850.107,1328.61C851.645,1328.61 852.848,1327.7 852.848,1326.17C852.848,1324.79 851.871,1323.78 849.916,1323.78L849.654,1323.78L849.809,1321.5L852.705,1321.5L852.705,1320.64Z" style="fill:white;"/>
                </g>
            </g>
        </g>
    </g>
</svg>
