<?xml version="1.0" encoding="UTF-8" standalone="no"?>
<!DOCTYPE svg PUBLIC "-//W3C//DTD SVG 1.1//EN" "http://www.w3.org/Graphics/SVG/1.1/DTD/svg11.dtd">
<svg width="100%" height="100%" viewBox="0 0 260 260" version="1.1" xmlns="http://www.w3.org/2000/svg" xmlns:xlink="http://www.w3.org/1999/xlink" xml:space="preserve" xmlns:serif="http://www.serif.com/" style="fill-rule:evenodd;clip-rule:evenodd;stroke-linecap:round;stroke-linejoin:round;stroke-miterlimit:1.5;">
    <g transform="matrix(1,0,0,1,-95,-95)">
        <g transform="matrix(3.33333,0,0,3.33333,25,-58.3333)">
            <g id="MoveButton" transform="matrix(1.73468,0,0,1.73468,-2357.32,-175.752)">
                <path d="M1393.52,128.498C1405.57,128.498 1415.34,138.275 1415.34,150.317C1415.34,162.36 1405.57,172.137 1393.52,172.137C1381.48,172.137 1371.7,162.36 1371.7,150.317C1371.7,138.275 1381.48,128.498 1393.52,128.498ZM1393.52,133.943C1402.56,133.943 1409.9,141.28 1409.9,150.317C1409.9,159.354 1402.56,166.691 1393.52,166.691C1384.49,166.691 1377.15,159.354 1377.15,150.317C1377.15,141.28 1384.49,133.943 1393.52,133.943Z" style="fill:none;"/>
                <clipPath id="_clip1">
                    <path d="M1393.52,128.498C1405.57,128.498 1415.34,138.275 1415.34,150.317C1415.34,162.36 1405.57,172.137 1393.52,172.137C1381.48,172.137 1371.7,162.36 1371.7,150.317C1371.7,138.275 1381.48,128.498 1393.52,128.498ZM1393.52,133.943C1402.56,133.943 1409.9,141.28 1409.9,150.317C1409.9,159.354 1402.56,166.691 1393.52,166.691C1384.49,166.691 1377.15,159.354 1377.15,150.317C1377.15,141.28 1384.49,133.943 1393.52,133.943Z"/>
                </clipPath>
                <g clip-path="url(#_clip1)">
                    <g transform="matrix(0.654994,0,0,0.654994,434.762,-203.835)">
                        <g>
                            <g transform="matrix(1.54205,0,0,1.54205,-713.091,279.283)">
                                <path d="M1411.91,145.945L1411.91,193.606" style="fill:none;stroke:white;stroke-width:1.04px;"/>
                            </g>
                            <g transform="matrix(9.44235e-17,-1.54205,1.54205,9.44235e-17,1202.35,2718.33)">
                                <path d="M1411.91,145.945L1411.91,193.606" style="fill:none;stroke:white;stroke-width:1.04px;"/>
                            </g>
                        </g>
                        <g transform="matrix(0.707107,0.707107,-0.707107,0.707107,811.445,-876.829)">
                            <g transform="matrix(1.54205,0,0,1.54205,-713.091,279.283)">
                                <path d="M1411.91,145.945L1411.91,193.606" style="fill:none;stroke:white;stroke-width:1.04px;"/>
                            </g>
                            <g transform="matrix(9.44235e-17,-1.54205,1.54205,9.44235e-17,1202.35,2718.33)">
                                <path d="M1411.91,145.945L1411.91,193.606" style="fill:none;stroke:white;stroke-width:1.04px;"/>
                            </g>
                        </g>
                        <g transform="matrix(0.5,0.866025,-0.866025,0.5,1200.67,-997.446)">
                            <g transform="matrix(1.54205,0,0,1.54205,-713.091,279.283)">
                                <path d="M1411.91,145.945L1411.91,193.606" style="fill:none;stroke:white;stroke-width:1.04px;"/>
                            </g>
                            <g transform="matrix(9.44235e-17,-1.54205,1.54205,9.44235e-17,1202.35,2718.33)">
                                <path d="M1411.91,145.945L1411.91,193.606" style="fill:none;stroke:white;stroke-width:1.04px;"/>
                            </g>
                        </g>
                        <g transform="matrix(0.258819,0.965926,-0.965926,0.258819,1607.85,-1013.22)">
                            <g transform="matrix(1.54205,0,0,1.54205,-713.091,279.283)">
                                <path d="M1411.91,145.945L1411.91,193.606" style="fill:none;stroke:white;stroke-width:1.04px;"/>
                            </g>
                            <g transform="matrix(9.44235e-17,-1.54205,1.54205,9.44235e-17,1202.35,2718.33)">
                                <path d="M1411.91,145.945L1411.91,193.606" style="fill:none;stroke:white;stroke-width:1.04px;"/>
                            </g>
                        </g>
                        <g transform="matrix(-0.258819,0.965926,-0.965926,-0.258819,2365.75,-733.129)">
                            <g transform="matrix(1.54205,0,0,1.54205,-713.091,279.283)">
                                <path d="M1411.91,145.945L1411.91,193.606" style="fill:none;stroke:white;stroke-width:1.04px;"/>
                            </g>
                            <g transform="matrix(9.44235e-17,-1.54205,1.54205,9.44235e-17,1202.35,2718.33)">
                                <path d="M1411.91,145.945L1411.91,193.606" style="fill:none;stroke:white;stroke-width:1.04px;"/>
                            </g>
                        </g>
                        <g transform="matrix(-0.5,0.866025,-0.866025,-0.5,2664.82,-456.36)">
                            <g transform="matrix(1.54205,0,0,1.54205,-713.091,279.283)">
                                <path d="M1411.91,145.945L1411.91,193.606" style="fill:none;stroke:white;stroke-width:1.04px;"/>
                            </g>
                            <g transform="matrix(9.44235e-17,-1.54205,1.54205,9.44235e-17,1202.35,2718.33)">
                                <path d="M1411.91,145.945L1411.91,193.606" style="fill:none;stroke:white;stroke-width:1.04px;"/>
                            </g>
                        </g>
                    </g>
                </g>
                <path d="M1393.52,128.498C1405.57,128.498 1415.34,138.275 1415.34,150.317C1415.34,162.36 1405.57,172.137 1393.52,172.137C1381.48,172.137 1371.7,162.36 1371.7,150.317C1371.7,138.275 1381.48,128.498 1393.52,128.498ZM1393.52,133.943C1402.56,133.943 1409.9,141.28 1409.9,150.317C1409.9,159.354 1402.56,166.691 1393.52,166.691C1384.49,166.691 1377.15,159.354 1377.15,150.317C1377.15,141.28 1384.49,133.943 1393.52,133.943Z" style="fill:none;stroke:white;stroke-width:1.08px;"/>
            </g>
        </g>
    </g>
</svg>
