<?xml version="1.0" encoding="UTF-8" standalone="no"?>
<!DOCTYPE svg PUBLIC "-//W3C//DTD SVG 1.1//EN" "http://www.w3.org/Graphics/SVG/1.1/DTD/svg11.dtd">
<svg width="100%" height="100%" viewBox="0 0 200 200" version="1.1" xmlns="http://www.w3.org/2000/svg" xmlns:xlink="http://www.w3.org/1999/xlink" xml:space="preserve" xmlns:serif="http://www.serif.com/" style="fill-rule:evenodd;clip-rule:evenodd;stroke-linecap:round;stroke-linejoin:round;stroke-miterlimit:1.5;">
    <g transform="matrix(1,0,0,1,-125,-125)">
        <g transform="matrix(3.33333,0,0,3.33333,25,-58.3333)">
            <g id="SystemMenuButton" transform="matrix(1.75219,0,0,1.75219,-3405.63,-363.548)">
                <g transform="matrix(0.516488,0,0,0.516488,1140.08,-0.0470679)">
                    <circle cx="1622.12" cy="495.733" r="27.541" style="fill:none;stroke:white;stroke-width:2.06px;"/>
                </g>
                <g transform="matrix(0.648486,0,0,0.648486,971.071,-162.432)">
                    <g transform="matrix(1,0,0,1,0.954888,3.59284)">
                        <path d="M1560.55,634.976C1560.55,634.531 1560.18,634.169 1559.74,634.169L1543.48,634.169C1543.03,634.169 1542.67,634.531 1542.67,634.976L1542.67,636.59C1542.67,637.035 1543.03,637.396 1543.48,637.396L1559.74,637.396C1560.18,637.396 1560.55,637.035 1560.55,636.59L1560.55,634.976Z" style="fill:white;"/>
                    </g>
                    <g transform="matrix(1,0,0,1,0.954888,9.45027)">
                        <path d="M1560.55,634.976C1560.55,634.531 1560.18,634.169 1559.74,634.169L1543.48,634.169C1543.03,634.169 1542.67,634.531 1542.67,634.976L1542.67,636.59C1542.67,637.035 1543.03,637.396 1543.48,637.396L1559.74,637.396C1560.18,637.396 1560.55,637.035 1560.55,636.59L1560.55,634.976Z" style="fill:white;"/>
                    </g>
                    <g transform="matrix(1,0,0,1,0.954888,15.3077)">
                        <path d="M1560.55,634.976C1560.55,634.531 1560.18,634.169 1559.74,634.169L1543.48,634.169C1543.03,634.169 1542.67,634.531 1542.67,634.976L1542.67,636.59C1542.67,637.035 1543.03,637.396 1543.48,637.396L1559.74,637.396C1560.18,637.396 1560.55,637.035 1560.55,636.59L1560.55,634.976Z" style="fill:white;"/>
                    </g>
                </g>
            </g>
        </g>
    </g>
</svg>
