<?xml version="1.0" encoding="UTF-8" standalone="no"?>
<!DOCTYPE svg PUBLIC "-//W3C//DTD SVG 1.1//EN" "http://www.w3.org/Graphics/SVG/1.1/DTD/svg11.dtd">
<svg width="100%" height="100%" viewBox="0 0 1100 600" version="1.1" xmlns="http://www.w3.org/2000/svg" xmlns:xlink="http://www.w3.org/1999/xlink" xml:space="preserve" xmlns:serif="http://www.serif.com/" style="fill-rule:evenodd;clip-rule:evenodd;stroke-linecap:round;stroke-linejoin:round;stroke-miterlimit:1.5;">
    <g id="WhiteOutline3d" transform="matrix(1,0,0,1,-12.5493,-825.868)">
        <g transform="matrix(1.04298,0,0,1.04287,-1227.92,42.3816)">
            <g id="Controller" transform="matrix(1,0,0,1,1095.43,-588.832)">
                <g transform="matrix(1,0,0,1,-458.926,-313.314)">
                    <path d="M782.708,1835.35C782.708,1835.35 686.018,1900.66 660.686,1928.4C635.353,1956.13 612.446,2000.76 668.95,2033.98C732.483,2071.33 809.769,1997.15 809.769,1997.15" style="fill:none;stroke:white;stroke-width:1.55px;"/>
                </g>
                <g transform="matrix(1.00141,-0.305055,0.57166,1.06568,-1518.53,-157.87)">
                    <path d="M939.161,1826.17C945.055,1829.35 948.641,1833.54 948.641,1838.13C948.641,1848.04 931.931,1856.08 911.351,1856.08C890.77,1856.08 874.061,1848.04 874.061,1838.13C874.061,1831.64 881.213,1825.96 891.923,1822.8" style="fill:none;stroke:white;stroke-width:1.26px;"/>
                </g>
                <g transform="matrix(0.740198,-0.155836,0.437041,0.814725,-1033.66,181.18)">
                    <path d="M936.916,1825.98C942.421,1828.57 948.641,1833.37 948.641,1838.13C948.641,1839.24 948.498,1840.21 948.096,1841.26" style="fill:none;stroke:white;stroke-width:1.63px;"/>
                </g>
                <g transform="matrix(0.740198,-0.155836,0.437041,0.814725,-1033.66,181.18)">
                    <path d="M874.128,1837.04C874.913,1830.74 882.46,1825.31 893.319,1822.41" style="fill:none;stroke:white;stroke-width:1.63px;"/>
                </g>
                <g transform="matrix(0.691655,-0.0646014,0.0654891,0.701159,-255.263,-626.066)">
                    <ellipse cx="711.966" cy="3096.09" rx="26.391" ry="14.403" style="fill:none;stroke:white;stroke-width:2.22px;"/>
                </g>
                <g transform="matrix(0.98853,-0.0572304,0.10624,1.13746,-592.683,-1975.98)">
                    <ellipse cx="711.966" cy="3096.09" rx="26.391" ry="14.403" style="fill:none;stroke:white;stroke-width:1.43px;"/>
                </g>
                <g transform="matrix(1,0,0,0.988524,-458.926,-292.407)">
                    <path d="M924.616,1821.74C924.998,1823.06 911.4,1840.27 913.762,1849.22L913.771,1849.24C913.907,1849.7 913.955,1850.17 913.912,1850.65C913.204,1858.56 883.84,1858.41 883.952,1850.65C883.959,1850.17 883.957,1849.7 884.093,1849.24L884.102,1849.22C886.465,1840.27 872.867,1823.06 873.248,1821.74" style="fill:none;stroke:white;stroke-width:1.56px;"/>
                </g>
                <g transform="matrix(0.986322,-0.196495,0,1.1744,-448.807,-470.939)">
                    <ellipse cx="828.042" cy="1838.56" rx="16.577" ry="8.894" style="fill:none;stroke:white;stroke-width:1.58px;"/>
                </g>
                <g transform="matrix(1.1421,-0.22753,0,1.35989,-563.066,-756.049)">
                    <ellipse cx="828.042" cy="1838.56" rx="16.577" ry="8.894" style="fill:none;stroke:white;stroke-width:1.37px;"/>
                </g>
                <g transform="matrix(1.16359,0.0471326,-0.319457,1.32183,53.5932,-899.254)">
                    <ellipse cx="828.042" cy="1838.56" rx="16.577" ry="8.894" style="fill:none;stroke:white;stroke-width:1.37px;"/>
                </g>
                <g transform="matrix(1.72328,0.0698034,-0.5134,2.12433,-109.353,-2363.48)">
                    <ellipse cx="828.042" cy="1838.56" rx="16.577" ry="8.894" style="fill:none;stroke:white;stroke-width:0.88px;"/>
                </g>
                <g transform="matrix(0.986322,-0.196495,0,1.1744,-447.592,-467.706)">
                    <path d="M844.148,1836.45C844.456,1837.13 844.62,1837.83 844.62,1838.56C844.62,1843.47 837.192,1847.46 828.042,1847.46C819.495,1847.46 812.443,1843.98 811.552,1839.52" style="fill:none;stroke:white;stroke-width:1.58px;"/>
                </g>
                <g transform="matrix(1,0,0,1,-458.926,-313.314)">
                    <path d="M810.848,1844.22L811.978,1847.33" style="fill:none;stroke:white;stroke-width:1.55px;"/>
                </g>
                <g transform="matrix(1,0,0,1,-458.926,-313.314)">
                    <path d="M844.048,1836.79L842.816,1833.47" style="fill:none;stroke:white;stroke-width:1.55px;"/>
                </g>
                <g transform="matrix(1.1421,-0.22753,0,1.35989,-561.064,-749.647)">
                    <path d="M844.137,1836.42C844.452,1837.11 844.62,1837.83 844.62,1838.56C844.62,1843.47 837.192,1847.46 828.042,1847.46C819.706,1847.46 812.798,1844.15 811.637,1839.85" style="fill:none;stroke:white;stroke-width:1.37px;"/>
                </g>
                <g transform="matrix(1,0,0,1,-446.267,-280.366)">
                    <path d="M849.55,1836.79L847.548,1830.28" style="fill:none;stroke:white;stroke-width:1.55px;"/>
                </g>
                <g transform="matrix(1,0,0,1,-446.267,-280.366)">
                    <path d="M810.257,1841.97L812.367,1848.69" style="fill:none;stroke:white;stroke-width:1.55px;"/>
                </g>
                <g transform="matrix(0.973806,0.227381,-0.227381,0.973806,39.9805,-406.555)">
                    <path d="M810.336,1841.9L812.387,1848.66" style="fill:none;stroke:white;stroke-width:1.56px;"/>
                </g>
                <g transform="matrix(0.973806,0.227381,-0.227381,0.973806,39.9805,-406.555)">
                    <path d="M849.522,1836.59L847.644,1830.34" style="fill:none;stroke:white;stroke-width:1.56px;"/>
                </g>
                <g transform="matrix(1.16359,0.0471326,-0.319457,1.32183,54.0354,-892.56)">
                    <path d="M844.245,1836.67C844.49,1837.28 844.62,1837.91 844.62,1838.56C844.62,1843.47 837.192,1847.46 828.042,1847.46C819.924,1847.46 813.16,1844.32 811.74,1840.18" style="fill:none;stroke:white;stroke-width:1.37px;"/>
                </g>
                <g transform="matrix(1,0,0,1,-458.926,-313.314)">
                    <path d="M813.049,1964.44L810.44,1997.69C810.44,1997.69 778.303,1999.9 759.474,1994.29C740.645,1988.68 730.825,1979.24 731.219,1967.56C731.614,1955.88 732.825,1946.04 734.104,1943.34C735.787,1939.8 742.343,1930.12 758.18,1933.06C774.017,1935.99 787.534,1954.25 797.276,1958.79C807.019,1963.33 813.049,1964.44 813.049,1964.44Z" style="fill:none;stroke:white;stroke-width:1.55px;"/>
                </g>
                <g transform="matrix(1,0,0,1,-458.926,-313.314)">
                    <path d="M813.145,1968.18C813.145,1968.18 788.636,1961.53 770.866,1955.32C753.096,1949.1 735.653,1945.76 731.315,1964.8" style="fill:none;stroke:white;stroke-width:1.55px;"/>
                </g>
                <g transform="matrix(1,0,0,1,-458.926,-313.314)">
                    <path d="M927.918,1992.51C927.918,1992.51 922.789,2011.65 920.788,2016.84" style="fill:none;stroke:white;stroke-width:1.55px;"/>
                </g>
                <g transform="matrix(1,0,0,1,-458.926,-313.314)">
                    <path d="M922.676,1991.24C922.676,1991.24 929.333,1993.37 931.5,1992.4C935.306,1990.7 938.567,1983.64 938.567,1983.64" style="fill:none;stroke:white;stroke-width:1.55px;"/>
                </g>
                <g transform="matrix(1,0,0,1,-458.926,-313.314)">
                    <path d="M966.239,1986.64C966.239,1986.64 956.681,1987.42 957.421,1976.88C958.558,1960.67 981.754,1920.84 981.754,1920.84" style="fill:none;stroke:white;stroke-width:1.55px;"/>
                </g>
                <g transform="matrix(0.971885,-0.224296,0.171891,0.992865,-759.663,-91.8476)">
                    <ellipse cx="878.835" cy="1859.7" rx="113.073" ry="67.354" style="fill:none;stroke:white;stroke-width:1.59px;"/>
                </g>
                <g transform="matrix(1.09828,-0.255097,0.283962,1.13592,-1076.94,-323.865)">
                    <ellipse cx="878.835" cy="1859.7" rx="113.073" ry="67.354" style="fill:none;stroke:white;stroke-width:1.34px;"/>
                </g>
                <g transform="matrix(1,0,0,1,-458.926,-313.314)">
                    <path d="M891.585,1796.39C891.585,1796.39 900.55,1736.58 916.723,1733.86C930.072,1731.62 989.788,1734.01 1011.97,1768.99C1053.64,1834.69 1001.92,2089.11 956.346,2127.52C930.934,2148.93 874.449,2160.66 842.622,2131.57C791.473,2084.81 814.79,1956.51 814.79,1956.51" style="fill:none;stroke:white;stroke-width:1.55px;"/>
                </g>
                <g transform="matrix(1,0,0,1,-458.926,-313.314)">
                    <path d="M1001.11,1868.17C1001.11,1868.17 996.547,1898.24 987.172,1912.47C970.252,1938.14 936.907,1963.23 933.097,1974.97C930.453,1983.12 938.208,1983.38 944.039,1984.71C949.716,1986 964.556,1988.04 970.101,1985.72C975.646,1983.39 983.328,1967.25 983.328,1967.25C983.328,1967.25 977.504,1934.79 982.717,1918.51" style="fill:none;stroke:white;stroke-width:1.55px;"/>
                </g>
                <g transform="matrix(1,0,0,1,-458.926,-313.314)">
                    <path d="M927.068,1942.25C927.068,1942.25 913.141,2056.91 925.098,2097.36C937.055,2137.8 964.859,2134.86 994.649,2037.42C1023.37,1943.47 1037.15,1782.62 1002.56,1764.23C996.341,1760.92 982.653,1804.96 984.138,1824.5" style="fill:none;stroke:white;stroke-width:1.55px;"/>
                </g>
            </g>
            <g id="Buttons">
                <g transform="matrix(-0.254517,0.440837,-0.518653,6.23321e-17,2205.65,251.386)">
                    <path d="M1656.19,507.543L1667.54,487.943L1662.89,487.943L1654.29,503.993L1645.79,487.943L1640.74,487.943L1652.09,507.543L1652.09,522.343L1656.19,522.343L1656.19,507.543Z" style="fill:white;fill-rule:nonzero;"/>
                </g>
                <g transform="matrix(-0.224692,0.389178,-0.458029,9.48066e-17,2081.29,321.047)">
                    <path d="M1656.27,505.093L1666.77,487.943L1662.12,487.943L1653.92,502.093L1646.42,487.943L1641.42,487.943L1651.32,505.243L1641.07,522.343L1645.72,522.343L1653.67,508.343L1661.57,522.343L1666.67,522.343L1656.27,505.093Z" style="fill:white;fill-rule:nonzero;"/>
                </g>
                <g transform="matrix(-0.266955,0.46238,-0.758218,1.55258e-16,2366.75,218.602)">
                    <g transform="matrix(1,0,0,1,0.954888,3.59284)">
                        <path d="M1560.55,635.783C1560.55,634.892 1559.66,634.169 1558.56,634.169L1544.65,634.169C1543.56,634.169 1542.67,634.892 1542.67,635.783C1542.67,636.673 1543.56,637.396 1544.65,637.396L1558.56,637.396C1559.66,637.396 1560.55,636.673 1560.55,635.783Z" style="fill:white;"/>
                    </g>
                    <g transform="matrix(1,0,0,1,0.954888,9.45027)">
                        <path d="M1560.55,635.783C1560.55,634.892 1559.66,634.169 1558.56,634.169L1544.65,634.169C1543.56,634.169 1542.67,634.892 1542.67,635.783C1542.67,636.673 1543.56,637.396 1544.65,637.396L1558.56,637.396C1559.66,637.396 1560.55,636.673 1560.55,635.783Z" style="fill:white;"/>
                    </g>
                    <g transform="matrix(1,0,0,1,0.954888,15.3077)">
                        <path d="M1560.55,635.783C1560.55,634.892 1559.66,634.169 1558.56,634.169L1544.65,634.169C1543.56,634.169 1542.67,634.892 1542.67,635.783C1542.67,636.673 1543.56,637.396 1544.65,637.396L1558.56,637.396C1559.66,637.396 1560.55,636.673 1560.55,635.783Z" style="fill:white;"/>
                    </g>
                </g>
            </g>
        </g>
        <g transform="matrix(-1.04298,0,0,1.04287,2353.02,42.3816)">
            <g id="Controller1" serif:id="Controller" transform="matrix(1,0,0,1,1095.43,-588.832)">
                <g transform="matrix(1,0,0,1,-458.926,-313.314)">
                    <path d="M782.708,1835.35C782.708,1835.35 686.018,1900.66 660.686,1928.4C635.353,1956.13 612.446,2000.76 668.95,2033.98C732.483,2071.33 809.769,1997.15 809.769,1997.15" style="fill:none;stroke:white;stroke-width:1.55px;"/>
                </g>
                <g transform="matrix(1.00141,-0.305055,0.57166,1.06568,-1518.53,-157.87)">
                    <path d="M939.161,1826.17C945.055,1829.35 948.641,1833.54 948.641,1838.13C948.641,1848.04 931.931,1856.08 911.351,1856.08C890.77,1856.08 874.061,1848.04 874.061,1838.13C874.061,1831.64 881.213,1825.96 891.923,1822.8" style="fill:none;stroke:white;stroke-width:1.26px;"/>
                </g>
                <g transform="matrix(0.740198,-0.155836,0.437041,0.814725,-1033.66,181.18)">
                    <path d="M936.916,1825.98C942.421,1828.57 948.641,1833.37 948.641,1838.13C948.641,1839.24 948.498,1840.21 948.096,1841.26" style="fill:none;stroke:white;stroke-width:1.63px;"/>
                </g>
                <g transform="matrix(0.740198,-0.155836,0.437041,0.814725,-1033.66,181.18)">
                    <path d="M874.128,1837.04C874.913,1830.74 882.46,1825.31 893.319,1822.41" style="fill:none;stroke:white;stroke-width:1.63px;"/>
                </g>
                <g transform="matrix(0.691655,-0.0646014,0.0654891,0.701159,-255.263,-626.066)">
                    <ellipse cx="711.966" cy="3096.09" rx="26.391" ry="14.403" style="fill:none;stroke:white;stroke-width:2.22px;"/>
                </g>
                <g transform="matrix(0.98853,-0.0572304,0.10624,1.13746,-592.683,-1975.98)">
                    <ellipse cx="711.966" cy="3096.09" rx="26.391" ry="14.403" style="fill:none;stroke:white;stroke-width:1.43px;"/>
                </g>
                <g transform="matrix(1,0,0,0.988524,-458.926,-292.407)">
                    <path d="M924.616,1821.74C924.998,1823.06 911.4,1840.27 913.762,1849.22L913.771,1849.24C913.907,1849.7 913.955,1850.17 913.912,1850.65C913.204,1858.56 883.84,1858.41 883.952,1850.65C883.959,1850.17 883.957,1849.7 884.093,1849.24L884.102,1849.22C886.465,1840.27 872.867,1823.06 873.248,1821.74" style="fill:none;stroke:white;stroke-width:1.56px;"/>
                </g>
                <g transform="matrix(0.986322,-0.196495,0,1.1744,-448.807,-470.939)">
                    <ellipse cx="828.042" cy="1838.56" rx="16.577" ry="8.894" style="fill:none;stroke:white;stroke-width:1.58px;"/>
                </g>
                <g transform="matrix(1.1421,-0.22753,0,1.35989,-563.066,-756.049)">
                    <ellipse cx="828.042" cy="1838.56" rx="16.577" ry="8.894" style="fill:none;stroke:white;stroke-width:1.37px;"/>
                </g>
                <g transform="matrix(1.16359,0.0471326,-0.319457,1.32183,53.5932,-899.254)">
                    <ellipse cx="828.042" cy="1838.56" rx="16.577" ry="8.894" style="fill:none;stroke:white;stroke-width:1.37px;"/>
                </g>
                <g transform="matrix(1.72328,0.0698034,-0.5134,2.12433,-109.353,-2363.48)">
                    <ellipse cx="828.042" cy="1838.56" rx="16.577" ry="8.894" style="fill:none;stroke:white;stroke-width:0.88px;"/>
                </g>
                <g transform="matrix(0.986322,-0.196495,0,1.1744,-447.592,-467.706)">
                    <path d="M844.148,1836.45C844.456,1837.13 844.62,1837.83 844.62,1838.56C844.62,1843.47 837.192,1847.46 828.042,1847.46C819.495,1847.46 812.443,1843.98 811.552,1839.52" style="fill:none;stroke:white;stroke-width:1.58px;"/>
                </g>
                <g transform="matrix(1,0,0,1,-458.926,-313.314)">
                    <path d="M810.848,1844.22L811.978,1847.33" style="fill:none;stroke:white;stroke-width:1.55px;"/>
                </g>
                <g transform="matrix(1,0,0,1,-458.926,-313.314)">
                    <path d="M844.048,1836.79L842.816,1833.47" style="fill:none;stroke:white;stroke-width:1.55px;"/>
                </g>
                <g transform="matrix(1.1421,-0.22753,0,1.35989,-561.064,-749.647)">
                    <path d="M844.137,1836.42C844.452,1837.11 844.62,1837.83 844.62,1838.56C844.62,1843.47 837.192,1847.46 828.042,1847.46C819.706,1847.46 812.798,1844.15 811.637,1839.85" style="fill:none;stroke:white;stroke-width:1.37px;"/>
                </g>
                <g transform="matrix(1,0,0,1,-446.267,-280.366)">
                    <path d="M849.55,1836.79L847.548,1830.28" style="fill:none;stroke:white;stroke-width:1.55px;"/>
                </g>
                <g transform="matrix(1,0,0,1,-446.267,-280.366)">
                    <path d="M810.257,1841.97L812.367,1848.69" style="fill:none;stroke:white;stroke-width:1.55px;"/>
                </g>
                <g transform="matrix(0.973806,0.227381,-0.227381,0.973806,39.9805,-406.555)">
                    <path d="M810.336,1841.9L812.387,1848.66" style="fill:none;stroke:white;stroke-width:1.56px;"/>
                </g>
                <g transform="matrix(0.973806,0.227381,-0.227381,0.973806,39.9805,-406.555)">
                    <path d="M849.522,1836.59L847.644,1830.34" style="fill:none;stroke:white;stroke-width:1.56px;"/>
                </g>
                <g transform="matrix(1.16359,0.0471326,-0.319457,1.32183,54.0354,-892.56)">
                    <path d="M844.245,1836.67C844.49,1837.28 844.62,1837.91 844.62,1838.56C844.62,1843.47 837.192,1847.46 828.042,1847.46C819.924,1847.46 813.16,1844.32 811.74,1840.18" style="fill:none;stroke:white;stroke-width:1.37px;"/>
                </g>
                <g transform="matrix(1,0,0,1,-458.926,-313.314)">
                    <path d="M813.049,1964.44L810.44,1997.69C810.44,1997.69 778.303,1999.9 759.474,1994.29C740.645,1988.68 730.825,1979.24 731.219,1967.56C731.614,1955.88 732.825,1946.04 734.104,1943.34C735.787,1939.8 742.343,1930.12 758.18,1933.06C774.017,1935.99 787.534,1954.25 797.276,1958.79C807.019,1963.33 813.049,1964.44 813.049,1964.44Z" style="fill:none;stroke:white;stroke-width:1.55px;"/>
                </g>
                <g transform="matrix(1,0,0,1,-458.926,-313.314)">
                    <path d="M813.145,1968.18C813.145,1968.18 788.636,1961.53 770.866,1955.32C753.096,1949.1 735.653,1945.76 731.315,1964.8" style="fill:none;stroke:white;stroke-width:1.55px;"/>
                </g>
                <g transform="matrix(1,0,0,1,-458.926,-313.314)">
                    <path d="M927.918,1992.51C927.918,1992.51 922.789,2011.65 920.788,2016.84" style="fill:none;stroke:white;stroke-width:1.55px;"/>
                </g>
                <g transform="matrix(1,0,0,1,-458.926,-313.314)">
                    <path d="M922.676,1991.24C922.676,1991.24 929.333,1993.37 931.5,1992.4C935.306,1990.7 938.567,1983.64 938.567,1983.64" style="fill:none;stroke:white;stroke-width:1.55px;"/>
                </g>
                <g transform="matrix(1,0,0,1,-458.926,-313.314)">
                    <path d="M966.239,1986.64C966.239,1986.64 956.681,1987.42 957.421,1976.88C958.558,1960.67 981.754,1920.84 981.754,1920.84" style="fill:none;stroke:white;stroke-width:1.55px;"/>
                </g>
                <g transform="matrix(0.971885,-0.224296,0.171891,0.992865,-759.663,-91.8476)">
                    <ellipse cx="878.835" cy="1859.7" rx="113.073" ry="67.354" style="fill:none;stroke:white;stroke-width:1.59px;"/>
                </g>
                <g transform="matrix(1.09828,-0.255097,0.283962,1.13592,-1076.94,-323.865)">
                    <ellipse cx="878.835" cy="1859.7" rx="113.073" ry="67.354" style="fill:none;stroke:white;stroke-width:1.34px;"/>
                </g>
                <g transform="matrix(1,0,0,1,-458.926,-313.314)">
                    <path d="M891.585,1796.39C891.585,1796.39 900.55,1736.58 916.723,1733.86C930.072,1731.62 989.788,1734.01 1011.97,1768.99C1053.64,1834.69 1001.92,2089.11 956.346,2127.52C930.934,2148.93 874.449,2160.66 842.622,2131.57C791.473,2084.81 814.79,1956.51 814.79,1956.51" style="fill:none;stroke:white;stroke-width:1.55px;"/>
                </g>
                <g transform="matrix(1,0,0,1,-458.926,-313.314)">
                    <path d="M1001.11,1868.17C1001.11,1868.17 996.547,1898.24 987.172,1912.47C970.252,1938.14 936.907,1963.23 933.097,1974.97C930.453,1983.12 938.208,1983.38 944.039,1984.71C949.716,1986 964.556,1988.04 970.101,1985.72C975.646,1983.39 983.328,1967.25 983.328,1967.25C983.328,1967.25 977.504,1934.79 982.717,1918.51" style="fill:none;stroke:white;stroke-width:1.55px;"/>
                </g>
                <g transform="matrix(1,0,0,1,-458.926,-313.314)">
                    <path d="M927.068,1942.25C927.068,1942.25 913.141,2056.91 925.098,2097.36C937.055,2137.8 964.859,2134.86 994.649,2037.42C1023.37,1943.47 1037.15,1782.62 1002.56,1764.23C996.341,1760.92 982.653,1804.96 984.138,1824.5" style="fill:none;stroke:white;stroke-width:1.55px;"/>
                </g>
            </g>
            <g id="Buttons1" serif:id="Buttons">
                <g transform="matrix(-0.254517,0.440837,-0.518653,6.23321e-17,2205.65,251.386)">
                    <path d="M1656.19,507.543L1667.54,487.943L1662.89,487.943L1654.29,503.993L1645.79,487.943L1640.74,487.943L1652.09,507.543L1652.09,522.343L1656.19,522.343L1656.19,507.543Z" style="fill:white;fill-rule:nonzero;"/>
                </g>
                <g transform="matrix(-0.224692,0.389178,-0.458029,9.48066e-17,2081.29,321.047)">
                    <path d="M1656.27,505.093L1666.77,487.943L1662.12,487.943L1653.92,502.093L1646.42,487.943L1641.42,487.943L1651.32,505.243L1641.07,522.343L1645.72,522.343L1653.67,508.343L1661.57,522.343L1666.67,522.343L1656.27,505.093Z" style="fill:white;fill-rule:nonzero;"/>
                </g>
                <g transform="matrix(-0.266955,0.46238,-0.758218,1.55258e-16,2366.75,218.602)">
                    <g transform="matrix(1,0,0,1,0.954888,3.59284)">
                        <path d="M1560.55,635.783C1560.55,634.892 1559.66,634.169 1558.56,634.169L1544.65,634.169C1543.56,634.169 1542.67,634.892 1542.67,635.783C1542.67,636.673 1543.56,637.396 1544.65,637.396L1558.56,637.396C1559.66,637.396 1560.55,636.673 1560.55,635.783Z" style="fill:white;"/>
                    </g>
                    <g transform="matrix(1,0,0,1,0.954888,9.45027)">
                        <path d="M1560.55,635.783C1560.55,634.892 1559.66,634.169 1558.56,634.169L1544.65,634.169C1543.56,634.169 1542.67,634.892 1542.67,635.783C1542.67,636.673 1543.56,637.396 1544.65,637.396L1558.56,637.396C1559.66,637.396 1560.55,636.673 1560.55,635.783Z" style="fill:white;"/>
                    </g>
                    <g transform="matrix(1,0,0,1,0.954888,15.3077)">
                        <path d="M1560.55,635.783C1560.55,634.892 1559.66,634.169 1558.56,634.169L1544.65,634.169C1543.56,634.169 1542.67,634.892 1542.67,635.783C1542.67,636.673 1543.56,637.396 1544.65,637.396L1558.56,637.396C1559.66,637.396 1560.55,636.673 1560.55,635.783Z" style="fill:white;"/>
                    </g>
                </g>
            </g>
        </g>
    </g>
</svg>
