<?xml version="1.0" encoding="UTF-8" standalone="no"?>
<!DOCTYPE svg PUBLIC "-//W3C//DTD SVG 1.1//EN" "http://www.w3.org/Graphics/SVG/1.1/DTD/svg11.dtd">
<svg width="100%" height="100%" viewBox="0 0 400 387" version="1.1" xmlns="http://www.w3.org/2000/svg" xmlns:xlink="http://www.w3.org/1999/xlink" xml:space="preserve" xmlns:serif="http://www.serif.com/" style="fill-rule:evenodd;clip-rule:evenodd;stroke-linejoin:round;stroke-miterlimit:1.41421;">
    <g transform="matrix(1,0,0,1,-25,-32)">
        <g transform="matrix(3.33333,0,0,3.33333,25,-58.3333)">
            <g transform="matrix(1,0,0,1,-651.456,-1120.83)">
                <g id="NavigationDisk">
                    <path d="M711.456,1150.06C743.191,1150.06 768.956,1175.05 768.956,1205.83C768.956,1236.6 743.191,1261.59 711.456,1261.59C679.72,1261.59 653.955,1236.6 653.955,1205.83C653.955,1175.05 679.72,1150.06 711.456,1150.06ZM711.626,1180.37C724.633,1180.49 736.963,1191.13 737.824,1204.19C738.531,1214.9 731.427,1225.55 721.261,1229.47C707.296,1234.86 689.331,1226.6 685.716,1211.59C682.184,1196.93 694.459,1180.73 710.947,1180.38C711.173,1180.37 711.4,1180.37 711.626,1180.37ZM711.315,1185.04C697.333,1185.17 684.934,1200.85 691.772,1214.68C697.51,1226.29 714.885,1230.21 725.426,1221.76C732.239,1216.29 735.026,1206.3 731.714,1198.24C728.519,1190.46 720.367,1185.17 711.739,1185.04C711.597,1185.04 711.456,1185.04 711.315,1185.04Z" style="fill:white;"/>
                </g>
            </g>
        </g>
    </g>
</svg>
