<?xml version="1.0" encoding="UTF-8" standalone="no"?>
<!DOCTYPE svg PUBLIC "-//W3C//DTD SVG 1.1//EN" "http://www.w3.org/Graphics/SVG/1.1/DTD/svg11.dtd">
<svg width="100%" height="100%" viewBox="0 0 270 500" version="1.1" xmlns="http://www.w3.org/2000/svg" xmlns:xlink="http://www.w3.org/1999/xlink" xml:space="preserve" xmlns:serif="http://www.serif.com/" style="fill-rule:evenodd;clip-rule:evenodd;stroke-linecap:round;stroke-linejoin:round;stroke-miterlimit:1.5;">
    <g id="WhiteSolidRemote" transform="matrix(1.05495,0,0,1.05495,-3250.31,-1943.37)">
        <g transform="matrix(0.918866,0,0,0.921878,558.637,208.586)">
            <path d="M2986.16,1900.96C2986.16,1843.46 2940.55,1800.16 2884.36,1800.16C2828.17,1800.16 2782.55,1843.46 2782.55,1900.96L2782.55,2154.71C2782.55,2212.21 2828.17,2258.89 2884.36,2258.89C2940.55,2258.89 2986.16,2212.21 2986.16,2154.71L2986.16,1900.96Z" style="fill:white;"/>
        </g>
        <g>
            <path d="M3274.34,2071.16C3275.16,2071.16 3275.82,2071.82 3275.82,2072.63L3275.82,2082.01L3285.19,2082.01C3286.01,2082.01 3286.67,2082.67 3286.67,2083.48L3286.67,2090.46C3286.67,2091.27 3286.01,2091.93 3285.19,2091.93L3275.82,2091.93L3275.82,2101.31C3275.82,2102.12 3275.16,2102.78 3274.34,2102.78L3267.37,2102.78C3266.55,2102.78 3265.89,2102.12 3265.89,2101.31L3265.89,2091.93L3256.52,2091.93C3255.7,2091.93 3255.04,2091.27 3255.04,2090.46L3255.04,2083.48C3255.04,2082.67 3255.7,2082.01 3256.52,2082.01L3265.89,2082.01L3265.89,2072.63C3265.89,2071.82 3266.55,2071.16 3267.37,2071.16L3274.34,2071.16Z" style="fill:rgb(157,157,157);"/>
        </g>
        <path d="M3218.55,2127.05C3226.38,2127.05 3232.75,2133.41 3232.75,2141.24C3232.75,2149.08 3226.38,2155.44 3218.55,2155.44L3199.4,2155.44C3191.57,2155.44 3185.2,2149.08 3185.2,2141.24C3185.2,2133.41 3191.57,2127.05 3199.4,2127.05L3218.55,2127.05ZM3218.07,2136.32L3199.88,2136.32C3197.16,2136.32 3194.95,2138.53 3194.95,2141.24C3194.95,2143.96 3197.16,2146.17 3199.88,2146.17L3218.07,2146.17C3220.79,2146.17 3223,2143.96 3223,2141.24C3223,2138.53 3220.79,2136.32 3218.07,2136.32Z" style="fill:rgb(157,157,157);"/>
        <g transform="matrix(0.652987,0,0,0.329962,1051.58,1380.43)">
            <path d="M3232.49,2127.61C3232.49,2126.93 3232.21,2126.38 3231.86,2126.38L3186.32,2126.38C3185.97,2126.38 3185.7,2126.93 3185.7,2127.61L3185.7,2154.16C3185.7,2154.84 3185.97,2155.4 3186.32,2155.4L3231.86,2155.4C3232.21,2155.4 3232.49,2154.84 3232.49,2154.16L3232.49,2127.61Z" style="fill:rgb(157,157,157);"/>
        </g>
        <g transform="matrix(1.41186,0,0,1.35411,-822.552,-593.767)">
            <circle cx="2855.47" cy="1883.68" r="66.256" style="fill:rgb(157,157,157);"/>
        </g>
        <g transform="matrix(1.22017,0,0,1.18334,-275.184,-272.088)">
            <circle cx="2855.47" cy="1883.68" r="66.256" style="fill:white;"/>
        </g>
        <g transform="matrix(0.556122,0,0,0.533805,1620.98,952.549)">
            <circle cx="2855.47" cy="1883.68" r="66.256" style="fill:rgb(157,157,157);"/>
        </g>
        <g transform="matrix(0.495117,0,0,0.475247,1795.18,1062.85)">
            <circle cx="2855.47" cy="1883.68" r="66.256" style="fill:white;"/>
        </g>
        <g transform="matrix(0.429772,0,0,0.429772,1981.77,1277.21)">
            <circle cx="2855.47" cy="1883.68" r="66.256" style="fill:rgb(157,157,157);"/>
        </g>
        <g transform="matrix(1.24196,0,0,1.24196,-378.023,-454.607)">
            <g transform="matrix(0.748327,0,0,0.806561,690.687,360.911)">
                <path d="M2936.76,2098.83L2944.01,2098.83C2947.91,2098.83 2951.07,2095.58 2951.07,2091.57C2951.07,2087.55 2947.91,2084.3 2944.01,2084.3L2922.54,2084.3" style="fill:none;stroke:white;stroke-width:4.31px;"/>
            </g>
            <g transform="matrix(0.748327,0,0,0.748327,690.687,482.333)">
                <g transform="matrix(0.842281,0,0,0.842281,461.593,328.108)">
                    <path d="M2928.63,2077.43L2921.12,2084.94" style="fill:none;stroke:white;stroke-width:5.32px;"/>
                </g>
                <g transform="matrix(0.842281,0,0,-0.842281,461.593,3840.38)">
                    <path d="M2928.63,2077.43L2921.12,2084.94" style="fill:none;stroke:white;stroke-width:5.32px;"/>
                </g>
            </g>
        </g>
    </g>
</svg>
